<svg id="Layer_1" data-name="Layer 1" xmlns="http://www.w3.org/2000/svg" viewBox="0 0 601 378"><defs><style>.cls-1{fill:#808589;}.cls-2{fill:#727577;}.cls-22,.cls-3{font-size:12.12px;}.cls-22,.cls-27,.cls-3,.cls-36{fill:#000d15;}.cls-23,.cls-25,.cls-3{font-family:P22UndergroundMedium, P22 Underground;}.cls-4{letter-spacing:0.37em;}.cls-5{letter-spacing:-0.02em;}.cls-6{letter-spacing:0.37em;}.cls-7{letter-spacing:-0.12em;}.cls-8{letter-spacing:-0.04em;}.cls-9{letter-spacing:-0.04em;}.cls-10{letter-spacing:0em;}.cls-11{letter-spacing:-0.01em;}.cls-12{letter-spacing:0.22em;}.cls-13{letter-spacing:0.22em;}.cls-14{letter-spacing:-0.02em;}.cls-15{letter-spacing:-0.04em;}.cls-16{letter-spacing:-0.01em;}.cls-17{letter-spacing:0.28em;}.cls-18{letter-spacing:0.28em;}.cls-19{letter-spacing:-0.05em;}.cls-20{letter-spacing:-0.05em;}.cls-21{letter-spacing:-0.06em;}.cls-22,.cls-27{font-family:P22UndergroundHeavy, P22 Underground;}.cls-24,.cls-25{font-size:15.15px;}.cls-24{font-family:PTSerif-Regular, PT Serif;}.cls-26{letter-spacing:-0.08em;}.cls-27{font-size:20.2px;}.cls-28{letter-spacing:-0.04em;}.cls-29{letter-spacing:-0.08em;}.cls-30{letter-spacing:-0.02em;}.cls-31{fill:#333434;}.cls-32{fill:#5b5146;}.cls-33{fill:#eeb381;}.cls-34{fill:#1a0c09;}.cls-35{fill:#2c2d31;}.cls-37{fill:#1d1311;}.cls-38{fill:#202020;}.cls-39{fill:#cb8263;}.cls-40{fill:#101012;}.cls-41{fill:#402819;}.cls-42{fill:#e8a884;}.cls-43{fill:#745131;}.cls-44{fill:#fff;}.cls-45{fill:#240c07;}.cls-46{fill:#e3b691;}</style></defs><title>bookholmes</title><rect class="cls-1" x="-8" y="0.01" width="617" height="378.7"/><rect class="cls-2" x="302.04" y="0.04" width="306.96" height="378.7"/><text class="cls-3" transform="translate(347.15 193.46) scale(0.99 1)">Detective<tspan class="cls-4" x="53.93" y="0"> </tspan><tspan x="61.54" y="0">Sher</tspan><tspan class="cls-5" x="86.62" y="0">l</tspan><tspan x="90.5" y="0">ock</tspan><tspan class="cls-6" x="110.25" y="0"> </tspan><tspan x="117.86" y="0">Holmes</tspan><tspan class="cls-4" x="161.49" y="0"> </tspan><tspan x="169.09" y="0">and</tspan><tspan class="cls-4" x="189.57" y="0"> </tspan><tspan x="197.18" y="0">D</tspan><tspan class="cls-7" x="206.15" y="0">r</tspan><tspan x="209.79" y="0">. </tspan><tspan x="0" y="14.54">John</tspan><tspan class="cls-8" x="27.39" y="14.54"> </tspan><tspan class="cls-9" x="30.1" y="14.54">W</tspan><tspan class="cls-5" x="41.49" y="14.54">a</tspan><tspan x="47.19" y="14.54">tson</tspan><tspan class="cls-10" x="72.39" y="14.54"> </tspan><tspan x="75.59" y="14.54">join</tspan><tspan class="cls-10" x="96.44" y="14.54"> </tspan><tspan class="cls-5" x="99.64" y="14.54">f</tspan><tspan x="104.25" y="14.54">orces</tspan><tspan class="cls-10" x="135.03" y="14.54"> </tspan><tspan class="cls-11" x="138.23" y="14.54">t</tspan><tspan x="143.08" y="14.54">o</tspan><tspan class="cls-10" x="150.35" y="14.54"> </tspan><tspan x="153.55" y="14.54">i</tspan><tspan class="cls-5" x="156.7" y="14.54">n</tspan><tspan x="163.73" y="14.54">ve</tspan><tspan class="cls-5" x="176.34" y="14.54">s</tspan><tspan x="181.79" y="14.54">ti</tspan><tspan class="cls-5" x="189.91" y="14.54">ga</tspan><tspan x="201.42" y="14.54">te </tspan><tspan x="0" y="29.08">a</tspan><tspan class="cls-12" x="5.94" y="29.08"> </tspan><tspan x="11.79" y="29.08">m</tspan><tspan class="cls-5" x="22.82" y="29.08">ys</tspan><tspan x="34.69" y="29.08">terious</tspan><tspan class="cls-13" x="74.68" y="29.08"> </tspan><tspan x="80.53" y="29.08">murder</tspan><tspan class="cls-12" x="122.83" y="29.08"> </tspan><tspan class="cls-14" x="128.68" y="29.08">a</tspan><tspan x="134.37" y="29.08">t</tspan><tspan class="cls-12" x="139.34" y="29.08"> </tspan><tspan x="145.19" y="29.08">Buckingham </tspan><tspan class="cls-9" x="0" y="43.63">P</tspan><tspan x="6.42" y="43.63">alace. </tspan><tspan x="0" y="72.71">It</tspan><tspan class="cls-15" x="8.12" y="72.71"> </tspan><tspan x="10.83" y="72.71">seems</tspan><tspan class="cls-15" x="46.33" y="72.71"> </tspan><tspan x="49.04" y="72.71">like</tspan><tspan class="cls-15" x="69.16" y="72.71"> </tspan><tspan x="71.87" y="72.71">an</tspan><tspan class="cls-15" x="85.08" y="72.71"> </tspan><tspan x="87.79" y="72.71">open-and-shut</tspan><tspan class="cls-15" x="171.52" y="72.71"> </tspan><tspan x="174.23" y="72.71">case</tspan><tspan class="cls-15" x="198.59" y="72.71"> </tspan><tspan x="201.3" y="72.71">as </tspan><tspan x="0" y="87.25">a</tspan><tspan class="cls-5" x="5.94" y="87.25">l</tspan><tspan x="9.82" y="87.25">l</tspan><tspan class="cls-16" x="13.94" y="87.25"> </tspan><tspan x="16.99" y="87.25">signs</tspan><tspan class="cls-16" x="44.86" y="87.25"> </tspan><tspan x="47.91" y="87.25">poi</tspan><tspan class="cls-5" x="65.61" y="87.25">n</tspan><tspan x="72.63" y="87.25">t</tspan><tspan class="cls-16" x="77.6" y="87.25"> </tspan><tspan class="cls-11" x="80.66" y="87.25">t</tspan><tspan x="85.5" y="87.25">o</tspan><tspan class="cls-16" x="92.77" y="87.25"> </tspan><tspan class="cls-5" x="95.83" y="87.25">Pr</tspan><tspan x="107.34" y="87.25">ofe</tspan><tspan class="cls-14" x="126" y="87.25">s</tspan><tspan x="131.45" y="87.25">sor</tspan><tspan class="cls-16" x="149.51" y="87.25"> </tspan><tspan x="152.56" y="87.25">James</tspan><tspan class="cls-16" x="187.34" y="87.25"> </tspan><tspan x="190.39" y="87.25">Mo</tspan><tspan x="208.09" y="87.25">-</tspan><tspan x="0" y="101.79">riarty,</tspan><tspan class="cls-17" x="34.05" y="101.79"> </tspan><tspan x="40.54" y="101.79">the</tspan><tspan class="cls-17" x="59.32" y="101.79"> </tspan><tspan x="65.81" y="101.79">criminal</tspan><tspan class="cls-17" x="111.74" y="101.79"> </tspan><tspan x="118.23" y="101.79">ma</tspan><tspan class="cls-5" x="135.19" y="101.79">s</tspan><tspan x="140.65" y="101.79">termind</tspan><tspan class="cls-18" x="185.97" y="101.79"> </tspan><tspan x="192.46" y="101.79">and </tspan><tspan class="cls-5" x="0" y="116.34">l</tspan><tspan x="3.88" y="116.34">ongtime</tspan><tspan class="cls-19" x="50.17" y="116.34"> </tspan><tspan x="52.72" y="116.34">nemesis</tspan><tspan class="cls-20" x="98.65" y="116.34"> </tspan><tspan x="101.2" y="116.34">of</tspan><tspan class="cls-19" x="113.31" y="116.34"> </tspan><tspan x="115.86" y="116.34">the</tspan><tspan class="cls-20" x="134.65" y="116.34"> </tspan><tspan x="137.19" y="116.34">crime-so</tspan><tspan class="cls-21" x="187" y="116.34">l</tspan><tspan x="190.39" y="116.34">ving </tspan><tspan x="0" y="130.88">duo. </tspan></text><text class="cls-22" transform="translate(347.15 106.52) scale(0.99 1)">2018<tspan class="cls-23" x="22.78" y="0"> </tspan><tspan class="cls-24" x="25.93" y="0">|</tspan><tspan class="cls-25" x="29.52" y="0"> </tspan><tspan x="33.46" y="0">Di</tspan><tspan class="cls-7" x="45.22" y="0">r</tspan><tspan x="48.97" y="0" xml:space="preserve">. Etan Cohen  </tspan><tspan x="0" y="18.18">Sher</tspan><tspan class="cls-5" x="25.69" y="18.18">l</tspan><tspan x="29.81" y="18.18">ock:</tspan><tspan class="cls-9" x="52.59" y="18.18"> </tspan><tspan x="55.74" y="18.18">Wi</tspan><tspan class="cls-5" x="71.98" y="18.18">l</tspan><tspan x="76.1" y="18.18">l Ferrel</tspan><tspan class="cls-26" x="0" y="36.36">W</tspan><tspan class="cls-5" x="12.12" y="36.36">a</tspan><tspan x="18.06" y="36.36">tson: John C Rei</tspan><tspan class="cls-5" x="111.61" y="36.36">l</tspan><tspan class="cls-9" x="115.73" y="36.36">l</tspan><tspan x="119.61" y="36.36">y </tspan></text><text class="cls-27" transform="translate(346.5 60.55) scale(0.99 1)">Holmes &amp;<tspan class="cls-28" x="92.7" y="0"> </tspan><tspan class="cls-29" x="97.96" y="0">W</tspan><tspan class="cls-30" x="118.15" y="0">a</tspan><tspan x="128.05" y="0">tson</tspan></text><path class="cls-31" d="M300,376c-.16-.65-.44-1.39-.75-1,.32.64.19.8.57,1.49,0,.55-.11,1-.23.86.08.2-.08.86.13,1.15a4.67,4.67,0,0,0,.06-2.56C299.8,375.76,299.89,376,300,376Z"/><path class="cls-31" d="M300.46,322.3l0,.35A1.25,1.25,0,0,0,300.46,322.3Z"/><path class="cls-31" d="M300.65,289c0,.25,0,.36.07.37C300.69,289.16,300.67,289,300.65,289Z"/><path class="cls-31" d="M301,283.35c0,.12,0,.22,0,.33A.78.78,0,0,0,301,283.35Z"/><path class="cls-31" d="M300.46,322.3l.11-.89C300.46,321.35,300.49,321.87,300.46,322.3Z"/><path class="cls-31" d="M299.15,368.6a2.75,2.75,0,0,0,.09.48c0-.15,0-.3,0-.45Z"/><path class="cls-31" d="M300.73,337v.27a1.64,1.64,0,0,0,.14.22Z"/><path class="cls-31" d="M300.78,348.23c0-.26-.27-.35-.39-.44a1,1,0,0,1,.19.55C300.64,348.35,300.7,348.31,300.78,348.23Z"/><path class="cls-31" d="M300.29,366.08l0,.31A2.91,2.91,0,0,1,300.29,366.08Z"/><path class="cls-31" d="M300.79,328.91a.24.24,0,0,0,.1-.1S300.82,328.85,300.79,328.91Z"/><path class="cls-31" d="M298.68,14.05h.05C298.7,14,298.68,14,298.68,14.05Z"/><path class="cls-31" d="M300.07,1l0,.18a.42.42,0,0,0,.16,0Z"/><path class="cls-31" d="M301.37,273s0,0,0,0C301.4,273.27,301.39,273.11,301.37,273Z"/><path class="cls-31" d="M301.16,177.5c-.25,1.08-.32-1.76-.6-.13C300.67,177.22,301,178.85,301.16,177.5Z"/><path class="cls-31" d="M299.19,368.31c0-.15,0-.31,0-.46A3.1,3.1,0,0,0,299.19,368.31Z"/><path class="cls-31" d="M300.56,177.37h0l0,.17C300.54,177.47,300.55,177.43,300.56,177.37Z"/><path class="cls-31" d="M301.2,249a.65.65,0,0,0-.12.25S301.14,249.17,301.2,249Z"/><path class="cls-31" d="M300.8,266.84l0-.44A2.47,2.47,0,0,0,300.8,266.84Z"/><path class="cls-31" d="M300.8,239.73a2.21,2.21,0,0,0,0-.65.3.3,0,0,0,0,.1A1,1,0,0,1,300.8,239.73Z"/><path class="cls-31" d="M300.8,230.08s0,.12-.05.18,0,.21,0,.3Z"/><path class="cls-31" d="M298.82,43.36a1.18,1.18,0,0,1,.25-.44C298.87,43.06,298.8,41.65,298.82,43.36Z"/><path class="cls-31" d="M299.31,368.6a.38.38,0,0,1-.12-.29c0,.11,0,.22,0,.32S299.28,368.66,299.31,368.6Z"/><path class="cls-31" d="M298.59,239.33l0-1.53C298.6,238.23,298.59,238.79,298.59,239.33Z"/><path class="cls-31" d="M298.86,112.55l0-.35A.91.91,0,0,0,298.86,112.55Z"/><path class="cls-31" d="M298.59,233.25a4,4,0,0,0,.19-.86.75.75,0,0,0-.07-.18Z"/><path class="cls-31" d="M299.07,42.91h0Z"/><path class="cls-31" d="M298.4,32.82c0,1.46.37.68.58,1,.1,1.75-.27.81-.46,1.4.09,1.09.43,1.93.42,2.74-.06.06-.08.22-.16,0,.29,1.15,0,3.42.38,4.76a.31.31,0,0,1-.09.17c.19-.21.37-.25.51-.2,0,.65.23,1.21,0,1.46a.93.93,0,0,0-.17-.62l.11.68c-.35.62-.12-.94-.38-.94a26.39,26.39,0,0,1,.3,3.93c-.34.21-.11-2.4-.41-1l.13-1.59c-.54,1.21,0-1-.54.15-.1,2.09.18,2.34.08,4.42.18.47.28-.16.46.31.34,3-.85,2.33-.4,4.5a2.89,2.89,0,0,1,.43,2.33l-.38-.52c0,2,.55,1.15.29,3.27-.15-.38-.13-1.59-.17-1.29-.31,1.37.22,1,.22,2l-.34.22c.05,2.15.29,4.52.36,6.9-.1-.13-.21-.54-.31,0a77.67,77.67,0,0,1-.25,9.31l.3,1.11c0,.25-.14.47-.19.19-.12,1.13.18.06.3.61s-.17.84-.26.44a35.26,35.26,0,0,1,.22,7.77l-.08-.4c-.12,1.63.6,1.84.32,3.36l0-.29c-.13,3.55.14,7.47-.3,10.18.42.51-.19,3.51.4,3.74a28.9,28.9,0,0,0-.59,4.3c0,.76.36,1.13.43,2.08l-.31,0,.32,1.28-.37.68.08.88c0-.35.14-.75.23-.69a8.36,8.36,0,0,1-.37,3.4l.26,3.26c-.13-.07-.17-.61-.25-1,.32,1.75-.32.32,0,1.92.07-.22.18.11.24.15a18.14,18.14,0,0,0-.11,4l-.21-.26c-.05,2.43.1,5.11.1,7.83.1-1,.46-.75.5,0l-.33.31c.21.52.13-.83.37.23,0,1-.37.68-.47.1l.11,1.23c-.1.08-.15-.21-.27-.29.2.51-.33,2.13,0,2.86l-.09.07c0,2.72.1,3.95.12,6.17.28,0,.22.91.45,1.57-.09,1.63-.31,3.43-.29,5.39.14,1.38.24.4.41,1-.26.11-.24,2.06-.42,1.05,0,2.35,0,3,.26,6,.1-.32.15-.69.24-.5,0,.54-.11,1.23-.23,1.15l0-.14c.38,3.34-.75,7.71-.21,10.37l0-.15.28,2.76c-.05,1.27-.19-.76-.35.18.42,3-.06,4.7.22,7.15-.76,1.9.05,6.73-.43,9.29l.18-.15c.17.67-.1.8-.14,1.29.13-.07.16-.72.25-.3.22,5.6-.26,11.57-.42,17.31-.05,2.1.92,1.2.5,3.85l-.33-.76c.39,4.25,0,8.68.32,12.83-.08-.25-.18-.26-.17-.66a7.13,7.13,0,0,0,.18,3.26c0,.64-.18.15-.28.55-.14.88.31,2.2.07,2.67,0,.08-.08-.25-.1-.41.12.58,0,2.67.25,2.13-.13,1.55.13,3,0,4.22.31.81-.15,2.67.29,2.93-.45-.12-.36,2.73-.15,3.71-.14-.33-.14.86-.33.47,0,1.13.09,2.16.32,2-.54,2.08.44,4.17-.26,5.33.24,3.34.41,6.44.52,9.44-.46-.11-.05-3.32-.52-3.19a62.28,62.28,0,0,1,.46,7.32c-.06.73-.19-.42-.27-.66.18,2.85,0,5.5.2,8a1.44,1.44,0,0,1-.12-.54c0,.5-.07,1.16.14,1.11l-.06-.49c.3-.8.63,2,.78,2.07-.59-.85-.15,2.5-.89,1.16,0,.33.14.74.28.66,0,.49-.12.65-.28.15a25.83,25.83,0,0,1,.32,2.78c-.1,0-.13-.34-.25-.5a9.07,9.07,0,0,1,.3,3c-.06-.08-.13.08-.13-.33,0,2.35.51,4,.33,6.59-.44-.76-.15.88-.52,1l.11,1.39.18-.56a33.16,33.16,0,0,1,.15,3.34l-.16-.91.07,2.28.14-1.29c.2,1.23.48-.13.37,1.49a15,15,0,0,1-.22,1.85h0a6.47,6.47,0,0,1,.15,2.11c-.12.24-.41-.18-.49,0,.31.59.08,2.84.42,3.6-.08-.25-.28-.27-.32-.18l.25.49c-.08.57-.12.65-.27.56-.05,1.69.47-.54.27,1.47,0-.16-.06-.08-.1-.41-.11,2,.16,3.9,0,5.75-.38.55-.1-1.62-.41-1,.07,2.67.45,5.54.36,8.13l0-.48c.53.35-.26,1.92,0,3.23,0-.32-.3-.42-.24-.33-.08,1.77.13,3.62.3,6.31l-.14-.33c-.12,1-.07,2.75-.13,3.88.14.33.12,1,.31.58-.77,3.48.42,6.64-.23,9.73,0-.37-.11-.88-.12-.59l.13,2.63c.23-.21.14-.34.32-.9A5.56,5.56,0,0,1,300,338c-.15-1.18-.37,0-.5.52.07-.08.15.09.22.05-.41,1.37.47.23.19,2.1l-.12-.09a15.61,15.61,0,0,1,.19,2.1c-.27.31-.13-.75-.35-.79,0,1.06.51,2.09.24,3.06-.07-.46-.07-1.11-.15-1.56a5.87,5.87,0,0,0-.28,1.95v-.08l-.14,1.8.08-.45c.7,1.33.13,2.71.58,4.5-.43-1.74-.25-.29-.55-.42-.08.45-.18,1.15-.26.95.24.85-.19,1.42.16,2.61-.09,0,0,.91-.25.72.07,1.1.17-.26.29-.17.33,1.7-.4,4,.05,6.43.19,2.11.52,2.5.68,4.45-.15.66-.35-.54-.35-.54a11,11,0,0,0,0,2.87c-.08-.21-.15,0-.26.31,0,.8.35.54.21,1.6a2.9,2.9,0,0,1-.39-.81c.09.95.27,1.89.36,2.87-.17.26-.26-.59-.37-.94a11.41,11.41,0,0,0,.42,3.2l.1-.71c0,.4-.23.21-.28-.09-.21-.94.09-1.36.19-1.41l.06.69c.57-.71-.09-2.8-.06-4.21l.42.59-.35-1.45c.11-.3.34-.51.4.18.21-1-.14-.89.09-1.76,0-.09,0-.05.07,0l-.13-1c.09.2.3-.16.24.44.24-1.77-.31-2.85,0-3.52l0,.15c-.14-2.45-.31-.23-.67-2.08l.76-1.24-.31-.24c0-.25,0-.75.16-.66-.21-.94-.14.16-.33-.38.27-1.22-.13-3.37.35-3.64-.23-.44-.18,1.17-.34-.14.53-.37-.09-1.5.15-2.61.27.34.13,1.39.37.28-.46-.67.1-2.17,0-3.11-.36,0-.15-2-.27-3.62.12.1.2-3,.33-4.43l.06,0c-.36-.29-.29-1.8-.37-2.9.22,0,.31.24.4.84v-1a3.26,3.26,0,0,1-.22-1.24l.28.26a31,31,0,0,1-.14-4.55c-.26-.1-.72,1.41-.89-.46.14-.07.38-.14.43.35a3.36,3.36,0,0,1-.05-.9l.23.75c.1-.8-.19-.42-.17-1.06.19,0,.14-.48.29-.39a3.64,3.64,0,0,0,0,.81,6.81,6.81,0,0,1,.3-1.9c-.11.07-.26,0-.29-.53,0-1.38.24-.47.34-1.28-.14-.33,0-1.21-.29-1.23a.92.92,0,0,1,.22-.63c-.13-.72,0-3.34-.35-2.53l0,.18s0-.07,0-.12h0c-.29-2.33.17-4.85.05-7.17h.09a40.47,40.47,0,0,0-.28-4.07c0-.41.19-1,.3-.79a10.28,10.28,0,0,1,0-2.7c.17,1.06.15-.37.13,1.09a9.66,9.66,0,0,0,0-3.17c.25.51.32-1,.24-1.68l-.18,1c0-.74,0-1.38,0-2l.33.35c.41-2.81-.69-5.07,0-7.21-.23-.75-.16,1.52-.44.86a29.58,29.58,0,0,1,.53-3c.18-1.77-.49-1.65-.36-3.51-.12.24-.44.46-.55-.92,0-1.3.5-1.6.59-.78,0,.31,0,.46-.06.45,0,.42.09,1,.22.45l-.12-.16c.12-.65.11-2.43.3-2-.11-1-.19-.42-.25.31.17-1.67,0-2.6.12-4.31-.07.27-.21.52-.21.25.15-2.51-.22-1.1-.27-2.8.18-1,.43.34.28-1.37.12-1,.31-.22.41.2a15.71,15.71,0,0,1,.19-3.8l.1.82a10.17,10.17,0,0,1-.06-1.31l-.24.47c.05-.48.05-.89.15-.88-.16-.5-.4.38-.61-.6.12-.65-.13-2,.18-2.18-.1,2,.32-.23.37,1.48a6.16,6.16,0,0,1,0-1.21c0-.07.06.07.08.2.28-1.94-.36-.89-.35-2.89.18.25.34-.47.3-.8,0,.81-.3.39-.43-.35a8.71,8.71,0,0,0-.09-2.07l-.06.77a5.11,5.11,0,0,1-.21-1.8c.13-.08.09.81.15.49-.31-1,.33-2.25.11-3.63.13-.65.34-.06.42-.63-.23-1.55.24-1.68.05-3.32-.24.47-.18.56-.41-.59l.17,2.68-.35-1.72c0,.81.15,1.71.11,2.19-.19-.82-.13-.73-.33-.34.36-1.11-.21-2.2,0-3.49l.59,0c.26-1.92-.3-3.42-.15-5.93l-.11.81c-.23-.34,0-1.55-.12-2.36.19.08.27-.43.39-.77-.15,0,0-1.84-.38-2.06l.26-1.12c.1-2-.57-2.31-.5-4.25.22.58.36-.3.51,1,0-.65,0-1.23-.1-1.24.12-.38-.26-1.8-.08-2.39a2,2,0,0,1-.27-1.1c0-.08.09,0,.09,0s-.13-1.14-.35-.51c.62-2,0-5.58.49-7.32-.07-1.42-.13-3.12-.15-4.41.06.08.1,0,.08.25.18-1.77-.57-1.09-.36-3.11.32-1,.17,1.07.29.43.65-.28-.09-2.43.29-3.79l0,.33c.22-1-.25-2.54-.2-4.23,0,0,.06.08.1,0a29,29,0,0,1-.53-5c.25.51.13.74.39.43,0-.73-.42.22-.49-1.24.14-.48.26-1.53.54-1.67v1.38c.36-.71,0-1.78.05-2.51l.16.09c-.05-2.11-.44-2.14-.42-4.4l-.11.23c-.39-1.24.21-1-.08-2.27l.4-.38c-.1-.82-.38-2.86-.46-4.33a26.75,26.75,0,0,1,.62,3.61,15.62,15.62,0,0,0-.22-3.18,4.24,4.24,0,0,1,.07,1.06,13.49,13.49,0,0,1-.46-3.91c.77.28.2-4.21.79-5.38-.28-2.86.12-5.67.08-9-.6,1.18,0-1-.63-.77a4,4,0,0,1,0-1.14l.36-2.35c.18-.56.14.74.28.67,0-1.7.26-.71.42-1.84-.22.23-.32-.59-.23-1.56l-.28,1.37c-.33-2.38.51-2,.19-4.44l.19.75c-.11-1.23,0-4.52-.49-5.73.07-.21.24-.5.28,0,.08-2.93-.52-6.53-.22-8.81l.15.22a4.47,4.47,0,0,1-.13-1.63c.06,0,.15.22.16,0a9,9,0,0,1-.17-2.17l.16.62c.2-2.87-.41-4.39-.51-6.79.44,0,.59-2.25.66-3.37l.06,0c.05-3.33-.37-5.66-.54-8.74.48-1.92.2-6.49.47-9.57-.08.47-.34-.07-.39-.62.09-.72-.3-2,.1-1.88v.26c.4-.55.29-2,.3-3.19l-.52-.19c.76-3-.29-7.94.4-9.6-.13-.73-.13-1.64-.26-2.36l.28,0c.07-2,.11-3,0-5.54l.21.51c0-1.42-.82-1.79-.84-3.09l.42-.39c0-2.47.37-5,0-7.4.06,0,.18.11.2.51,0-1.16.28-4.49-.3-4.06.38,0,0-2.55-.13-3.88l.28.21a7.72,7.72,0,0,1-.55-2.73c0-.37.22-.33.15.17.15-1.24-.26-1-.11-2.47l.17.56a3.61,3.61,0,0,0-.28-1.87,5.14,5.14,0,0,1,.33-2.61,2.66,2.66,0,0,1-.29-1.62c.09-.1.15.17.18.31.19-2.13-.32-3.17-.05-4.64.09,0,.14-.12.17-.25,0,1.7,0,3.06,0,2.93.25,0,.3-1.36.65-.28a18.69,18.69,0,0,1-.49-4.31.56.56,0,0,1,.09-.17l0,.14a3.33,3.33,0,0,0-.05-.85,8.26,8.26,0,0,0,.08-1.1c.21-.16.12-1.57.13-2.25-.28.05-.24-.84-.47,0,0-.11,0,.13,0,.58,0,.1,0,.22,0,.29a.08.08,0,0,0,0,0c0,.44,0,1,0,1.69a3.63,3.63,0,0,1-.11-1.86,10.48,10.48,0,0,1-.45-1c.39-.93.6-2.73.84-3-.15-2.08-.1-4.91-.63-6.22a1.14,1.14,0,0,1,.24-.9,5.76,5.76,0,0,0,.12.93c-.14-1.18-.06-3.5-.43-3.79.17-1.49.34.84.28-1.21l.12.28c.59-4-.95-6.56-.19-11a1.19,1.19,0,0,1-.13.53c.34-5.1-.31-10.51.22-15.54a5.81,5.81,0,0,0-.31-2.46l.3-.31-.35-1.49c-.25-2.12.74-3.67.26-6.34l-.2.34c0-1-.12-3,.11-2.89a.86.86,0,0,1-.1-.69l.16,0-.28-2.36c.12-1.83.63.29.66-2.39-.06-1-.46-2.83-.56-2.45s-.1,1-.26,1l-.08-.91c-.47-.16-.94-.86-1.27,1.37l.28,1.55-.22.5,0-1.3A2.92,2.92,0,0,0,299,5a1.2,1.2,0,0,0-.25.65l.45,1.52c-.19.19-.37-.68-.47.34.21.72.41-.68.55.5-.21.75-.39.53-.21,1.4-.12.12-.19-.06-.25-.41a14.82,14.82,0,0,0,.31,2.46c-.26.78.07,2.62-.37,2.55a8.14,8.14,0,0,1,.36,2.08c-.52-1.3,0,2.67-.59,2.33.47,1,.21,3.48.47,5.19a.91.91,0,0,1-.09-.43,11.79,11.79,0,0,1-.27,1.86c.39.12.48,1.62.72,2.43-.37,1.18-.46-.72-.82-.35.32-.06.32,2.05.58,1.65-.23.9-.11.78-.44,1.24.49.16.09.84.39,1.59-.24,1.31-.46.34-.31,1.77C298.58,34.09,298.4,32.82,298.4,32.82Zm.85,34.1h0c0-.29,0-.54,0-.7C299.23,66.37,299.24,66.57,299.25,66.92Zm0,2.87c0-.35,0-.78,0-1.24.09-.11.19,0,.19.29C299.39,68.69,299.34,69.36,299.26,69.79Zm1.94-6.06c0,.45,0,.6-.07.66,0-.21,0-.46,0-.79l0-.05A.33.33,0,0,1,301.2,63.73Z"/><path class="cls-31" d="M300.83,62.91a1.76,1.76,0,0,0,0-.19c0,.1,0,.18-.06.27l.09.17A2,2,0,0,0,300.83,62.91Z"/><path class="cls-31" d="M300.42,322.71v-.06a.34.34,0,0,1,0,.12Z"/><polygon class="cls-31" points="298.72 109.36 298.79 109.36 298.73 109.11 298.72 109.36"/><path class="cls-31" d="M299.45,338.49a.53.53,0,0,0-.07.21A.47.47,0,0,0,299.45,338.49Z"/><path class="cls-31" d="M299.39,345.31l-.1,1C299.35,345.86,299.37,345.55,299.39,345.31Z"/><path class="cls-31" d="M299.25,350.55a.36.36,0,0,0,.12.11h0Z"/><path class="cls-31" d="M298.92,267.2a1.27,1.27,0,0,0,0-.2C298.85,266.52,298.87,266.85,298.92,267.2Z"/><path class="cls-31" d="M299.58,292c-.05-.27-.1-.53-.14-.8C299.42,291.65,299.42,292,299.58,292Z"/><path class="cls-31" d="M298.58,239.5h0v0Z"/><path class="cls-31" d="M299.45,290.05a5,5,0,0,0,0,1.16A7.48,7.48,0,0,0,299.45,290.05Z"/><path class="cls-31" d="M299.12,373.28v.25s0,0,.05,0Z"/><path class="cls-31" d="M299.16,373.56l0,.28A.64.64,0,0,0,299.16,373.56Z"/><path class="cls-31" d="M299.26,374.43l-.07-.59A1.37,1.37,0,0,0,299.26,374.43Z"/><path class="cls-31" d="M299.25,366.34l-.1-.08A.16.16,0,0,0,299.25,366.34Z"/><path class="cls-31" d="M299.22,364.23a13.5,13.5,0,0,0-.15,2l.08.07C299,365.93,299.4,364.7,299.22,364.23Z"/><path class="cls-31" d="M300.48,355.42l-.08,1.77c.11-.31.26-.71.28.09C301,355.05,300.44,357.74,300.48,355.42Z"/><path class="cls-31" d="M300.64,349.94c.05.95.16,0,.22,0C300.76,349.38,300.74,349.23,300.64,349.94Z"/><path class="cls-31" d="M300.64,310.34l.26.1C300.86,309.71,300.8,310.43,300.64,310.34Z"/><polygon class="cls-31" points="299.32 302.77 299.16 303.49 299.4 303.83 299.32 302.77"/><polygon class="cls-31" points="301.14 298.3 301.18 298.62 301.09 297.4 301.14 298.3"/><path class="cls-31" d="M301.05,231.8l-.31.22C300.79,232.51,301.15,232.62,301.05,231.8Z"/><path class="cls-31" d="M300.73,203.08a2.67,2.67,0,0,0,.1-1.61C300.81,202.11,300.69,202.76,300.73,203.08Z"/><polygon class="cls-31" points="301.24 116.98 301.35 117.56 301.26 116.47 301.24 116.98"/><polygon class="cls-32" points="94.28 155.44 110.17 201.18 133.39 185.53 142.46 161.76 133.39 143.4 94.28 155.44"/><polygon class="cls-33" points="82.08 115.66 84.64 124.51 80.15 126.09 90.42 143.47 93.31 150.11 110.96 163.7 124.44 161.81 136.63 136.21 134.7 131.46 137.91 129.57 134.7 110.61 129.57 112.82 117.7 87.22 110.08 88.28 85.93 91.64 82.08 115.66"/><path class="cls-34" d="M89.42,100c-10.23,9-4.78,24.5-4.78,24.5-8.53-1.39-14.23-11.23-12.83-16.43C79.51,79.32,94.27,79,94.27,79s34.43,1.71,41.08,9.8c5.13,6.24.93,32.09.93,32.09l-1.9-8.39-2.88,15.17c-4.5-30-21.83-37.61-21.83-37.61s-7.06,13-10.91,13.28C94.44,103.69,89.42,100,89.42,100Z"/><polygon class="cls-35" points="102.05 157.28 105.82 179.82 110.96 179.82 115.45 194.67 118.98 180.14 133.42 178.87 115.13 315.09 84 320.78 92.99 149.48 102.05 157.28"/><polygon class="cls-36" points="93.31 150.11 39.39 180.14 26 231 25 298 47 283 29.86 351.75 29.86 378.62 86.25 378.62 102.29 227.54 93.31 150.11"/><polygon class="cls-36" points="140.48 159.91 133.74 179.5 119.3 180.77 122.51 243.35 166.15 222.17 174.5 182.98 140.48 159.91"/><polyline class="cls-37" points="166.15 222.17 104.06 249.33 84.51 320.35 85.73 378.12 253.17 378.12 250.72 372.1 287.53 348.69 260.5 258.96 206.43 226.07 182.28 277.01"/><path class="cls-38" d="M161.68,376.69a.16.16,0,0,0,.24-.18l-.33-.14Z"/><path class="cls-38" d="M162.28,375.27c-.17-.24-.45-.51-.76-.35.33.24.19.3.58.55,0,.21-.1.37-.23.33.09.08-.06.33.15.44a.78.78,0,0,0,0-1C162.13,375.18,162.22,375.26,162.28,375.27Z"/><path class="cls-38" d="M162.49,354.9l0,.14A.57.57,0,0,0,162.49,354.9Z"/><path class="cls-38" d="M162.48,342.29c0,.09,0,.13.07.14S162.51,342.26,162.48,342.29Z"/><path class="cls-38" d="M162.81,340.13l0,.12S162.84,340.16,162.81,340.13Z"/><path class="cls-38" d="M162.49,354.9l.1-.34C162.48,354.54,162.51,354.74,162.49,354.9Z"/><path class="cls-38" d="M161.44,372.48a.38.38,0,0,0,.09.18l0-.17Z"/><path class="cls-38" d="M162.84,360.46v.1l.14.09Z"/><path class="cls-38" d="M163,364.73c0-.1-.27-.13-.39-.16a.33.33,0,0,1,.2.2A.54.54,0,0,0,163,364.73Z"/><path class="cls-38" d="M162.56,371.5l0,.12Z"/><path class="cls-38" d="M162.86,357.4a.13.13,0,0,0,.09,0A.18.18,0,0,0,162.86,357.4Z"/><path class="cls-38" d="M160.63,237.83h.05S160.64,237.79,160.63,237.83Z"/><path class="cls-38" d="M164.13,234.07h-.06a.76.76,0,0,0,0,.15A.88.88,0,0,1,164.13,234.07Z"/><path class="cls-38" d="M163.12,336.18v0C163.14,336.3,163.14,336.24,163.12,336.18Z"/><path class="cls-38" d="M162.37,300c-.25.41-.33-.66-.6-.05C161.87,299.9,162.21,300.51,162.37,300Z"/><path class="cls-38" d="M161.47,372.37a1.08,1.08,0,0,1,0-.18A.53.53,0,0,0,161.47,372.37Z"/><path class="cls-38" d="M161.77,300h0l0,.07Z"/><path class="cls-38" d="M162.81,327.1a.29.29,0,0,0-.12.1S162.75,327.17,162.81,327.1Z"/><path class="cls-38" d="M162.51,333.87l0-.17A.41.41,0,0,0,162.51,333.87Z"/><path class="cls-38" d="M162.36,323.59c0-.09.06-.12,0-.24l0,0A.17.17,0,0,1,162.36,323.59Z"/><path class="cls-38" d="M162.31,319.94a.34.34,0,0,0-.06.06l0,.12Z"/><path class="cls-38" d="M159.59,249.1a.66.66,0,0,1,.26-.16C159.65,249,159.6,248.44,159.59,249.1Z"/><path class="cls-38" d="M161.59,372.48a.15.15,0,0,1-.12-.11l0,.12A.11.11,0,0,0,161.59,372.48Z"/><path class="cls-38" d="M160.14,323.47l0-.58A3.37,3.37,0,0,0,160.14,323.47Z"/><path class="cls-38" d="M159.69,275.39l0-.14A.17.17,0,0,0,159.69,275.39Z"/><path class="cls-38" d="M160.11,321.16a.79.79,0,0,0,.19-.33s0-.05-.08-.06Z"/><path class="cls-38" d="M159.85,248.94Z"/><path class="cls-38" d="M159.42,245c0,.56.34.29.54.42,0,.67-.3.29-.5.5.06.43.39.77.36,1.08-.07,0-.09.08-.16,0,.27.46-.06,1.31.29,1.84l-.1.06a1,1,0,0,1,.51-.06c0,.25.21.47,0,.56,0-.15-.08-.17-.15-.25l.09.27c-.36.22-.1-.36-.36-.37a4.65,4.65,0,0,1,.25,1.5c-.34.07-.09-.92-.41-.41l.15-.59c-.55.44.06-.37-.53,0-.13.79.14.9,0,1.69.18.18.28-.05.46.13.31,1.14-.88.87-.45,1.71.23.22.65.31.41.9l-.38-.21c0,.77.55.45.28,1.25-.15-.15-.12-.61-.17-.49-.3.51.22.37.22.77l-.35.08c0,.82.29,1.72.34,2.63-.1-.05-.2-.21-.31,0a11.59,11.59,0,0,1-.2,3.53l.3.42c0,.1-.13.18-.18.07-.11.43.18,0,.3.23s-.16.32-.25.17a5.31,5.31,0,0,1,.26,2.95l-.09-.16c-.11.62.61.7.35,1.28l0-.11c-.11,1.34.18,2.83-.25,3.86.43.19-.17,1.33.42,1.42a5,5,0,0,0-.57,1.63c0,.29.38.43.45.79h-.31l.33.48-.37.26.09.33c0-.13.13-.28.22-.26.15.52-.19,1.28-.35,1.29l.28,1.24c-.13,0-.17-.24-.25-.4.32.66-.33.12,0,.73.07-.09.18,0,.25,0a2.62,2.62,0,0,0-.09,1.5l-.21-.1c0,.92.13,1.94.14,3,.09-.37.46-.28.5,0l-.32.12c.2.2.11-.32.37.08,0,.39-.37.26-.48,0l.12.47c-.1,0-.15-.08-.27-.11.2.19-.32.81,0,1.09l-.1,0c0,1,.13,1.5.16,2.34.28,0,.23.35.46.59a11.46,11.46,0,0,0-.26,2.05c.15.52.24.15.41.39-.25,0-.22.78-.41.4a13.43,13.43,0,0,0,.29,2.26c.11-.12.15-.26.24-.19s-.1.47-.22.44l0,0c.4,1.26-.7,2.92-.16,3.93l0-.06.29,1c0,.48-.2-.29-.35.07.44,1.12,0,1.78.26,2.71-.74.72.1,2.55-.37,3.53l.17-.06c.18.25-.09.3-.13.49.14,0,.16-.28.25-.12a38.36,38.36,0,0,1-.32,6.57c0,.8.93.44.52,1.45l-.34-.28c.42,1.61,0,3.29.4,4.86-.08-.09-.18-.09-.18-.25-.23.34,0,1.23.2,1.24,0,.24-.17.06-.27.21-.14.33.32.83.08,1,0,0-.08-.09-.1-.15.12.21,0,1,.26.8-.12.59.14,1.13,0,1.6.31.31-.14,1,.3,1.11-.45,0-.35,1-.13,1.41-.14-.12-.14.33-.33.18,0,.43.11.82.34.74-.53.79.46,1.58-.23,2,.26,1.26.44,2.43.57,3.57-.46,0-.07-1.26-.54-1.21a9.39,9.39,0,0,1,.51,2.78c-.06.27-.2-.16-.28-.25.2,1.08,0,2.09.25,3,0,0-.09-.1-.13-.2,0,.19-.06.44.15.42l-.06-.18c.29-.31.63.74.79.77-.59-.31-.13.95-.88.45,0,.13.14.28.27.25,0,.19-.11.25-.27.06.12.68.33.43.34,1.05-.1,0-.14-.13-.26-.19a1.48,1.48,0,0,1,.32,1.14c-.06,0-.13,0-.14-.12.05.89.54,1.51.37,2.49-.44-.28-.14.34-.51.39l.12.53.18-.22c0,.47.28.87.16,1.27l-.16-.34.08.86.14-.49c.2.46.47-.06.38.56,0-.13,0,.46-.22.7h0a1,1,0,0,1,.16.8c-.11.09-.41-.06-.49,0,.32.22.1,1.08.44,1.36a.32.32,0,0,0-.31-.06l.25.18c-.08.22-.11.25-.27.22,0,.64.47-.21.28.55,0-.06-.06,0-.1-.15-.1.76.18,1.47.07,2.18-.38.21-.11-.61-.42-.37a22.06,22.06,0,0,1,.41,3.08l0-.19c.53.13-.25.74,0,1.23,0-.12-.29-.16-.23-.12a9,9,0,0,0,.33,2.38l-.14-.12a13.91,13.91,0,0,0-.11,1.47c.14.13.12.37.32.22-.76,1.33.45,2.51-.18,3.69,0-.14-.12-.33-.12-.22l.14,1c.23-.09.14-.14.31-.35a1,1,0,0,1,.26.65c-.16-.44-.37,0-.5.21.07,0,.15,0,.22,0-.4.53.47.08.2.8l-.12,0a2.24,2.24,0,0,1,.2.8c-.27.12-.13-.28-.35-.3,0,.4.52.79.26,1.16-.08-.17-.09-.42-.16-.59a1,1,0,0,0-.27.75v0l-.13.68.08-.17c.71.49.15,1,.61,1.69-.44-.65-.25-.1-.55-.15-.08.18-.17.44-.26.37.25.32-.19.54.18,1-.1,0,0,.34-.25.27.08.42.17-.1.29-.07.34.64-.38,1.52.09,2.44.2.8.53.94.7,1.68-.15.25-.35-.2-.35-.2a1.54,1.54,0,0,0,0,1.08c-.09-.07-.16,0-.27.13,0,.3.36.2.22.6a1.28,1.28,0,0,1-.39-.3c.09.36.28.71.37,1.08-.17.1-.26-.22-.37-.35.08.42.17,1.08.44,1.21l.09-.27c0,.15-.23.08-.28,0a.33.33,0,0,1,.18-.54l.07.26c.57-.28-.11-1.06-.08-1.59l.42.21-.36-.54c.11-.12.34-.2.41.06.2-.39-.16-.34.07-.67,0,0,0,0,.07,0l-.13-.37c.09.07.29-.07.24.17.23-.68-.33-1.08,0-1.34l0,.06c-.16-.93-.31-.09-.68-.78l.75-.48-.31-.09c0-.1,0-.29.15-.25-.21-.36-.13.06-.33-.14.27-.47-.15-1.28.34-1.39-.24-.16-.18.45-.34,0,.52-.15-.1-.57.13-1,.27.13.14.53.37.1-.46-.24.09-.82,0-1.18-.37,0-.17-.77-.3-1.36.13,0,.19-1.13.31-1.69l.06,0c-.37-.1-.31-.68-.39-1.1.22,0,.31.09.41.32v-.4a.67.67,0,0,1-.23-.46l.28.09c0-.52-.34-1.05-.17-1.72-.25,0-.7.55-.88-.16.14,0,.37-.06.43.12,0-.06-.12-.21-.06-.34l.24.28c.09-.3-.2-.15-.18-.4.2,0,.14-.18.29-.15s-.08.22,0,.31a1.3,1.3,0,0,1,.3-.73.22.22,0,0,1-.3-.19c0-.52.24-.19.33-.49-.14-.13,0-.46-.29-.47,0-.15.13-.18.21-.24-.13-.27-.06-1.26-.36-.95l0,.07,0-.05h0c-.3-.88.14-1.84,0-2.72h.1a6.57,6.57,0,0,0-.3-1.54c0-.15.17-.36.29-.3a1.51,1.51,0,0,1,0-1c.18.41.16-.14.14.42.07-.53.23-.65,0-1.2.26.18.32-.4.24-.65l-.18.37a3.3,3.3,0,0,1,0-.77l.33.13c.39-1.07-.72-1.91-.05-2.73-.24-.28-.16.58-.43.33,0-.49.51-1,.5-1.16.18-.68-.49-.62-.38-1.33-.11.09-.43.18-.55-.34,0-.49.49-.61.59-.3,0,.11,0,.17-.07.17s.1.36.23.17l-.12-.07c.12-.24.1-.92.29-.76-.12-.37-.19-.16-.25.12a14.75,14.75,0,0,0,.09-1.64c-.06.11-.2.2-.2.1.13-1-.23-.41-.29-1.06.17-.37.43.13.27-.52.12-.4.31-.09.41.07-.23-.59.14-1.11.17-1.44l.11.31a1.54,1.54,0,0,1-.07-.5l-.23.18c0-.18,0-.33.13-.33-.15-.19-.39.15-.61-.22.12-.25-.14-.74.18-.83-.1.77.31-.09.37.56a.89.89,0,0,1,0-.46s.07,0,.09.07c.27-.74-.37-.33-.37-1.09.18.09.33-.18.29-.31,0,.31-.29.15-.43-.12.13-.49-.11-.53-.1-.79l-.06.29c-.18-.09-.16-.34-.22-.68.14,0,.1.31.16.19-.32-.37.31-.86.09-1.38.12-.24.34,0,.41-.24-.24-.59.24-.64,0-1.26-.24.18-.18.21-.42-.22l.18,1-.35-.64c0,.3.16.64.12.83-.2-.31-.14-.28-.34-.13.36-.43-.22-.83,0-1.32h.59c.25-.74-.32-1.3-.19-2.25l-.1.31c-.23-.13,0-.59-.14-.9.2,0,.27-.16.39-.29-.15,0,0-.7-.39-.78l.25-.43c.1-.76-.57-.87-.52-1.6.22.22.35-.12.51.37,0-.24,0-.47-.1-.47.12-.14-.28-.68-.09-.91-.09-.1-.3-.13-.29-.41a.11.11,0,0,1,.1,0c-.1,0-.14-.43-.35-.18.6-.77-.08-2.12.44-2.79-.07-.53-.15-1.18-.17-1.66.06,0,.1,0,.08.09.17-.68-.57-.41-.38-1.18.31-.39.18.41.3.16.64-.11-.11-.92.27-1.44l0,.13c.21-.4-.26-1-.23-1.6a.11.11,0,0,0,.1,0,4.65,4.65,0,0,1-.56-1.89c.26.19.14.28.39.16,0-.27-.41.09-.49-.46.14-.19.25-.59.53-.64l0,.52c.35-.27,0-.67,0-.95l.15,0c-.06-.8-.45-.8-.44-1.66l-.12.09c-.39-.47.22-.4-.08-.87l.39-.14a12.08,12.08,0,0,1-.48-1.64,5.15,5.15,0,0,1,.64,1.36c0-.3,0-1-.24-1.2,0,.13.14.28.08.4a2.2,2.2,0,0,1-.48-1.48c.77.1.17-1.6.76-2-.3-1.09.09-2.15,0-3.42-.59.46,0-.36-.63-.28,0-.3,0-.41,0-.43l.36-.9c.17-.21.13.28.27.25,0-.64.26-.27.41-.7-.22.09-.31-.22-.24-.58l-.27.51c-.34-.89.5-.78.17-1.68l.19.28c-.12-.46,0-1.71-.52-2.16.07-.09.24-.2.28,0,.06-1.11-.56-2.47-.27-3.34l.15.08c0-.2-.28-.36-.13-.62.06,0,.15.09.15,0a1.39,1.39,0,0,1-.18-.82l.17.23c.18-1.09-.44-1.66-.55-2.57.44,0,.57-.85.63-1.28h.06a15.59,15.59,0,0,0-.58-3.31c.46-.73.16-2.46.41-3.62-.08.17-.34,0-.39-.24s-.32-.76.09-.71v.09c.4-.2.28-.77.29-1.2l-.53-.08c.75-1.15-.33-3,.35-3.63-.14-.28-.14-.62-.28-.9h.29a9.78,9.78,0,0,0,0-2.1l.21.2c0-.54-.83-.68-.85-1.17l.42-.15c0-.94.34-1.88-.06-2.8a.22.22,0,0,1,.2.19c0-.44.26-1.7-.31-1.54.37,0,0-1-.16-1.47l.28.08c-.36-.43-.46-.44-.56-1,0-.14.22-.12.15.07.14-.47-.27-.37-.13-.94l.18.21c0-.48-.08-.44-.29-.71s.06-.91.31-1a.56.56,0,0,1-.3-.61c.1,0,.16.06.19.12.17-.81-.35-1.2-.08-1.76a.19.19,0,0,0,.16-.09,7.69,7.69,0,0,1,0,1.11c.26,0,.29-.52.65-.11-.19-.42-.64-1.13-.5-1.63a.22.22,0,0,1,.09-.07l0,.05a.41.41,0,0,0,0-.31,1.67,1.67,0,0,0,.09-.42c.21-.06.12-.59.13-.85-.28,0-.24-.32-.47,0,0,0,0,0,0,.22l0,.11,0,0c0,.17,0,.39,0,.64a.6.6,0,0,1-.1-.7c-.18-.14-.36-.28-.45-.37.39-.35.61-1,.85-1.11-.15-.79-.08-1.86-.59-2.36-.06-.23.16-.26.25-.34.05.13,0,.28.11.36-.12-.45,0-1.33-.38-1.45.18-.56.33.33.29-.45l.11.11c.62-1.49-.83-2.51,0-4.16,0,.11-.08.17-.14.19.45-1.89,0-4,.74-5.8.19-.52,0-.61-.17-1l.32-.07-.26-.6c-.11-.84,1-1.21.73-2.26l-.23.07c.13-.33.18-1.12.4-1,0,0-.16-.18,0-.27l.15,0a6.27,6.27,0,0,1,.07-.88c.19-.27.32-.17.45-.11s.28.1.47-.17a.45.45,0,0,0,0-.16c0-.05-.07-.1,0-.17s.17-.22.11-.29-.31-.07-.38-.2a.47.47,0,0,1,.28-.14,3,3,0,0,0,0-.67.47.47,0,0,0-.27-.31,1.61,1.61,0,0,0-.31-.07,1.94,1.94,0,0,0-.59.17,2.27,2.27,0,0,0-.42.86l-.33.08a3.94,3.94,0,0,1,.42-.57c-.46.19-.43.52-.46.8a.44.44,0,0,0-.35.15,5,5,0,0,0,.13.8c-.2,0-.24-.41-.48,0,.09.35.48-.12.44.39-.3.21-.44.08-.39.47-.13,0-.18-.08-.18-.23,0,.35-.17.82,0,1-.35.24-.18,1-.6.9a1.78,1.78,0,0,1,.19.87c-.43-.59-.22,1-.74.8.42.45,0,1.38.19,2.07,0,0-.1-.13-.07-.18a2.05,2.05,0,0,1-.35.68c.38.09.41.68.62,1-.43.41-.43-.32-.81-.22.32,0,.23.82.51.69-.26.32-.13.29-.47.44.48.1.06.33.33.64-.28.48-.46.09-.36.65C159.55,245.54,159.42,245,159.42,245Zm.42,13h0v-.27Zm0,1.09a3.67,3.67,0,0,0,0-.47c.1,0,.2,0,.2.11C160,258.75,159.93,259,159.85,259.17Zm2-2.29c0,.17,0,.23-.08.25a1.89,1.89,0,0,0,0-.3l0,0A.37.37,0,0,1,161.8,256.88Z"/><path class="cls-38" d="M161.43,256.57a.19.19,0,0,0,0-.07l-.06.1.09.06Z"/><path class="cls-38" d="M162.45,355.06v0l0,0Z"/><polygon class="cls-38" points="159.54 274.18 159.61 274.18 159.54 274.08 159.54 274.18"/><path class="cls-38" d="M161.57,361.06a.14.14,0,0,0-.07.08A.3.3,0,0,0,161.57,361.06Z"/><path class="cls-38" d="M161.55,363.65l-.1.36A2.3,2.3,0,0,0,161.55,363.65Z"/><path class="cls-38" d="M161.44,365.64l.12,0h0Z"/><path class="cls-38" d="M160.63,334a.17.17,0,0,0,0-.07C160.56,333.78,160.59,333.9,160.63,334Z"/><path class="cls-38" d="M161.43,343.43c-.05-.1-.1-.2-.14-.3C161.27,343.3,161.27,343.43,161.43,343.43Z"/><polygon class="cls-38" points="160.14 323.53 160.14 323.53 160.14 323.47 160.14 323.53"/><path class="cls-38" d="M161.29,342.69a.73.73,0,0,0,0,.44A.94.94,0,0,0,161.29,342.69Z"/><path class="cls-38" d="M161.44,374.25v.1h0Z"/><path class="cls-38" d="M161.47,374.36l0,.11A.12.12,0,0,0,161.47,374.36Z"/><path class="cls-38" d="M161.58,374.69l-.07-.22C161.51,374.54,161.5,374.64,161.58,374.69Z"/><path class="cls-38" d="M161.53,371.62l-.1,0A.13.13,0,0,0,161.53,371.62Z"/><path class="cls-38" d="M161.49,370.82c0,.19-.21.48-.15.75l.09,0C161.27,371.47,161.66,371,161.49,370.82Z"/><path class="cls-38" d="M162.7,367.46l-.08.67c.11-.12.26-.27.29,0C163.22,367.31,162.67,368.34,162.7,367.46Z"/><path class="cls-38" d="M162.82,365.38c.06.36.16,0,.22,0C162.94,365.16,162.91,365.11,162.82,365.38Z"/><path class="cls-38" d="M162.6,350.37l.26,0C162.82,350.12,162.76,350.4,162.6,350.37Z"/><polygon class="cls-38" points="161.24 347.52 161.08 347.79 161.32 347.91 161.24 347.52"/><polygon class="cls-38" points="163.03 345.8 163.07 345.92 162.97 345.45 163.03 345.8"/><path class="cls-38" d="M162.56,320.58l-.31.09C162.31,320.86,162.66,320.89,162.56,320.58Z"/><path class="cls-38" d="M162.08,309.7a.46.46,0,0,0,.1-.61C162.16,309.33,162,309.58,162.08,309.7Z"/><polygon class="cls-38" points="162.11 277.06 162.22 277.28 162.12 276.86 162.11 277.06"/><path class="cls-39" d="M139.2,198.15l-9.31-30.66-3.53,21.18-24.71,9.48,1.6,6.32s21.51,27.5,29.59,35.11l9.25-2.87Z"/><path class="cls-39" d="M92.43,164.38c-.09,2.48-7.79,57.79-7.79,57.79S77.9,233.55,84,242.71l24.71-21.49-5.13-31.92-3.53-1.89-4.18-32.56Z"/><polygon class="cls-40" points="165.17 181.92 159.06 147.01 192.06 150.63 204.28 136.18 234.84 156.64 232.39 172.29 244.61 191.55 220.17 209.61 165.17 181.92"/><path class="cls-41" d="M183.5,168.68s-28.11-7.22-24.44,15.65S168.23,214,168.23,214s41.6,40.83,59.27-5.59c1.22-6,10.06-13.44-3.66-18.05C209.66,185.58,183.5,168.68,183.5,168.68Z"/><path class="cls-42" d="M179.23,168.08c-2.74,2.69-4.89,14.44-4.89,14.44h-8.56l-3.67,15.65,6.12,2.41-3.67,26.48,34.22,15.65s18.94-34.31,25.06-52.36C214.06,159.05,183.5,163.87,179.23,168.08Z"/><path class="cls-43" d="M123.68,115.85c.07,0,.19-.21.13-.21l-.24.23Z"/><path class="cls-43" d="M123.75,115.14a1.31,1.31,0,0,0-.51.55c.23-.23.17-.11.45-.37.07,0,0,.14-.06.24.07-.06,0,.11.18,0s0-.32-.19-.21A.59.59,0,0,1,123.75,115.14Z"/><path class="cls-43" d="M118.06,113l0,0Z"/><path class="cls-43" d="M114.38,114.49s0,0,0-.08S114.36,114.47,114.38,114.49Z"/><path class="cls-43" d="M113.64,114.58h0S113.63,114.55,113.64,114.58Z"/><path class="cls-43" d="M118.06,113a.54.54,0,0,0-.12-.09C118,113,118,113,118.06,113Z"/><path class="cls-43" d="M122.66,115.38a.15.15,0,0,0,.08,0h0Z"/><path class="cls-43" d="M119.84,112.76h0l0-.13Z"/><path class="cls-43" d="M121.2,113s-.12.25-.16.37c0-.11.08-.16.12-.17S121.19,113.07,121.2,113Z"/><path class="cls-43" d="M123,114.25h0Z"/><path class="cls-43" d="M118.85,112.63a.28.28,0,0,0,0-.1S118.85,112.6,118.85,112.63Z"/><path class="cls-43" d="M86.59,124h0S86.59,123.94,86.59,124Z"/><polygon class="cls-43" points="88.24 122.32 88.25 122.35 88.4 122.4 88.24 122.32"/><path class="cls-43" d="M112.47,115h0S112.47,115,112.47,115Z"/><path class="cls-43" d="M104,120c.11.25-.15.33,0,.6C104,120.52,104.1,120.19,104,120Z"/><path class="cls-43" d="M122.65,115.33a.05.05,0,0,1,0,0S122.63,115.34,122.65,115.33Z"/><path class="cls-43" d="M104,120.63h0l0,0Z"/><path class="cls-43" d="M110.42,116.74l.09.08A.38.38,0,0,0,110.42,116.74Z"/><path class="cls-43" d="M112.25,115.86h-.06S112.24,115.87,112.25,115.86Z"/><path class="cls-43" d="M109.82,117.66s-.06,0-.07,0l0,0S109.77,117.64,109.82,117.66Z"/><path class="cls-43" d="M109,118.27l0,0,0,0Z"/><path class="cls-43" d="M90.45,126.09a1,1,0,0,1-.15-.21C90.38,126.06,90.16,126.21,90.45,126.09Z"/><path class="cls-43" d="M122.74,115.24c0,.06-.07.09-.09.09h0A.93.93,0,0,0,122.74,115.24Z"/><path class="cls-43" d="M111.07,119.49l-.17.07A.28.28,0,0,0,111.07,119.49Z"/><path class="cls-43" d="M97.31,122.23l0,0S97.31,122.26,97.31,122.23Z"/><path class="cls-43" d="M110.49,119.9a.5.5,0,0,0-.19-.1.64.64,0,0,1,0,.07Z"/><path class="cls-43" d="M90.3,125.88Z"/><path class="cls-43" d="M88.44,126.77c.28.06.23-.33.35-.53.31-.08.07.27.15.46.24-.11.42-.47.56-.47s0,.08,0,.16c.21-.28.61-.18.75-.59a.22.22,0,0,1,0,.08,2.55,2.55,0,0,1-.17-.48c.09,0,.08-.27.2-.06-.06,0,0,.11,0,.19l.06-.13c.21.29-.09.15,0,.4.2-.18.25-.52.39-.49.17.3-.21.24.07.44l-.26,0c.4.43-.18,0,.23.49.34,0,.21-.29.51-.32,0-.2-.15-.25-.18-.44.15-.46.68.62.68.1,0-.23-.25-.62,0-.51l.14.36c.22-.08-.16-.54.18-.44,0,.15-.1.2,0,.22.29.19,0-.24.09-.3l.19.28c.19-.17.29-.53.5-.72,0,.1,0,.21.16.27.21-.33.64-.35,1-.35l0-.32s.12.09.12.15c.17,0-.09-.16-.1-.29s.17.09.18.19c0-.33.25-.79.62-.64v.09c.22,0-.14-.62.15-.47v.06c.4-.09.63-.54,1.1-.29-.15-.4.42,0,.16-.54.33.15.32.27.67.33.08,0-.05-.38,0-.48l.13.28v-.35l.21.31.05-.11s-.12-.1-.15-.18.39.07.45.22l.21-.36a.48.48,0,0,1,0,.27c.06-.35.14.29.19,0a.71.71,0,0,1-.06-.24.24.24,0,0,0,.39,0l0,.21c.23,0,.43-.2.68-.23-.1-.09-.14-.46-.06-.5l.07.32c0-.21-.09-.11,0-.37.1,0,.11.36.07.47l.1-.12a2.42,2.42,0,0,1,0,.27c0-.2.22.31.26,0V122c.24,0,.35-.11.55-.13,0-.28.09-.22.17-.44.16.11.31.34.5.34s.07-.24.15-.4c0,.26.17.27,0,.44a1.15,1.15,0,0,0,.63-.15c0-.1,0-.16,0-.24s.1.13.06.25l0,0c.21-.13.36.1.49.31a.71.71,0,0,0,.21.26.33.33,0,0,0,.37-.06l0,0,.45-.2c.17.08-.14.17,0,.35.48-.32.68.14,1-.15.14.37.4.34.64.28s.46-.22.68,0l0-.16c0-.19.12.07.2.1,0-.14-.13-.14-.1-.24a2.74,2.74,0,0,1,1.09-.27,5.34,5.34,0,0,0,1.15-.11c.26-.07-.27-.89.21-.65l.07.33c.29-.57.92-.5,1.19-1,0,.08.06.17,0,.19.22.15.34-.19.23-.36.08,0,.11.14.2.2s0-.4.23-.23a.11.11,0,0,1,0,.11c0-.13.28-.15.07-.34.23,0,.23-.3.44-.24-.09-.31.34-.06.11-.43.25.38.47.11.44-.13.05.14.16.06.24.24.1-.08.15-.22,0-.39.51.3.14-.63.65-.15a4.29,4.29,0,0,1,.56-1c.26.36-.28.26,0,.63.16-.35.07-.77.39-.87.1,0,.08.18.1.26.15-.34.52-.34.6-.71a.22.22,0,0,1,0,.14s.14,0,0-.19v.08c-.25-.19-.19-.63-.28-.76.28.52.31,0,.64.63a.41.41,0,0,0-.11-.26c.07,0,.13,0,.18.21.1-.21-.09-.34.06-.44,0,.08,0,.13.1.23,0-.21-.08-.42.09-.44s.09.1.05.13c.19-.18.06-.68.4-.69.18.4.16,0,.39.35L115,116l-.15-.11c.11-.07.05-.37.21-.33v.18l.16-.2-.19,0c0-.23-.28-.38-.08-.39,0,0,.12-.07.3.07h0c0-.13,0-.28.11-.25s.21.35.27.41c-.12-.3.21-.24.1-.57a1.41,1.41,0,0,0,.15.28l-.08-.24c.09,0,.12.06.19.2.18-.06-.3-.38,0-.31,0,0,0,.05,0,.1.24,0,.29-.34.52-.33.23.3-.11.16.1.41.21-.21.31-.66.6-.68l-.07,0c-.15-.51.28.16.32-.12a.57.57,0,0,0,0,.23c.18,0,.26-.18.5-.42V114c.1.09.28,0,.4.1,0-.14.09-.12,0-.32.19.38.35.28.52.17s.36-.24.49.1c0,0-.1.11-.07.11l.28-.09c0-.23,0-.15-.05-.33s.15-.23.22-.22c-.15.14,0,.37,0,.5a2.07,2.07,0,0,1,0-.22c.08.44.1-.45.26-.14l0,.12c.09,0,.19-.19.27-.14,0,.26-.11.1-.16.32.12,0,.34-.45.38-.16-.07.06-.13,0-.2.1,0,.33.07.26.14.33h0l.15.18,0-.09c.32-.64.31,0,.63-.42-.31.35-.1.22-.21.51,0,.09.06.2,0,.28.16-.21.07.22.31-.07,0,.09.08,0,0,.27.13,0,0-.17.08-.28.3-.25.23.52.65.21.28-.08.46-.35.73-.4,0,.18-.22.29-.22.29,0,.18.12.2.28.16-.07.06-.08.13-.11.24s.23-.28.26-.09a3.83,3.83,0,0,1-.28.29c.13,0,.31-.13.45-.15-.07.16-.19.19-.28.26a.6.6,0,0,0,.51-.17v-.12s-.11.2-.16.22c-.2.13-.07-.15,0-.24h.09c.25-.53-.31-.09-.42-.19l.27-.33-.31.22c0-.11.11-.32.21-.34,0-.23-.16.08-.14-.17a.15.15,0,0,1,0-.06l-.16.06c.06-.07.12-.27.16-.18-.08-.31-.44.12-.37-.19l0,0c-.32,0-.16.26-.5.5l.18-.74-.15.27s-.06-.07,0-.18c-.18.15,0,.13-.16.29,0-.31-.4,0-.27-.48-.12.2.07.21-.13.31.14-.51-.19,0-.23-.24.12-.24.2-.07.15-.34-.22.41-.22-.17-.35-.12-.11.35-.28.08-.49.16,0-.13-.29-.28-.45-.43l0-.06c-.1.36-.26.24-.4.31a.62.62,0,0,1,.16-.39h-.13a.28.28,0,0,1-.18.2l.07-.27c-.18,0-.37.28-.57.09,0,.26.12.72-.1.88,0-.14,0-.37.06-.43s-.07.11-.1.05l.1-.23c-.09-.1-.06.2-.14.17,0-.19-.05-.14,0-.3s.06.09.1,0a.48.48,0,0,1-.23-.31c0,.11,0,.27-.07.29s0-.24-.15-.34c0,.14-.15,0-.15.3,0,0-.06-.14-.08-.22-.08.14-.41.06-.29.37l0,0h0c-.23.3-.62,0-.89.13l0-.1c-.13.16-.33.21-.36.45,0,0-.17-.12-.2-.24-.09.12,0,.22-.3.15,0-.21-.1-.12.07-.17-.19,0-.3-.13-.33.2-.06-.26-.26-.22-.29-.12l.19.1a.35.35,0,0,1-.22.12l-.12-.32c-.52-.17-.19.9-.75.46.06.24.24,0,.32.31-.15,0-.54-.27-.58-.24-.28,0,.1.51-.15.52.09.09.29.33.22.51s-.43-.3-.4-.43,0,0,.08,0a.16.16,0,0,0-.09-.21l0,.11c-.13-.06-.28.07-.36-.12,0,.16.08.19.18.19-.26,0-.25.17-.48.19.07,0,.17.13.15.15-.32,0,0,.26-.1.41-.2-.08-.22-.37-.29-.13-.17,0-.21-.24-.23-.35,0,.29-.36.08-.46.1l0-.13a.17.17,0,0,1-.09.13l.18.16c-.07,0-.1,0-.16,0,0,.16.27.29.31.53-.14,0-.11.23-.31,0,.24,0-.21-.24-.09-.4,0,.05,0,.08-.11.08a.09.09,0,0,1,0-.08c-.35-.09.13.35-.06.48-.08-.16-.24-.24-.25-.19s.21.21.23.37c-.2,0-.07.18-.14.21h.11c.08.16,0,.18,0,.29-.09-.11,0-.13,0-.16.1.32-.4-.1-.4.16-.13-.05-.2-.26-.3-.29,0,.29-.3-.08-.33.18.18.16.16.11.19.37l.14-.31.06.39c.07,0,.06-.24.13-.24,0,.21,0,.16.17.29-.32-.21-.08.32-.34.21l-.35-.47c-.33-.08-.12.47-.43.52l.13,0c.11.21-.12.12-.14.25a.87.87,0,0,0-.3-.26c.09.12-.17.11,0,.44l-.25-.13c-.24.05.12.6-.09.68-.07-.22-.24-.27-.21-.48-.06,0-.13,0,0,.16-.11-.08,0,.33-.17.22,0,.08.13.26.06.29l-.06-.08c.06.08,0,.18.16.32-.53-.37-.48.4-.94.06a2.18,2.18,0,0,1-.33.39s0-.08,0-.08c-.26,0,.21.54-.09.49s0-.21-.12-.27c-.37-.53-.18.22-.5,0v0c-.21-.14-.11.35-.29.4a.45.45,0,0,0,0-.09.94.94,0,0,1-.21.74c-.07-.25,0-.15-.15-.36,0,.06.22.35.11.48a1.31,1.31,0,0,1-.41-.39l.13-.08c-.24-.28-.17.09-.26.07l-.07-.14c-.17.14,0,.5-.23.58l.07.1c0,.41-.19-.15-.2.17l-.19-.35a2,2,0,0,1-.26.59,2.2,2.2,0,0,1,.13-.71.32.32,0,0,0-.23.32s0-.15.08-.1c0,.32-.07.51-.23.57-.21-.73-.49,0-.75-.6-.2.32-.56,0-.81.06.15.59-.08,0,0,.63-.08,0-.11,0-.11,0a3.61,3.61,0,0,1-.23-.36c0-.17.07-.14.07-.27s-.06-.26-.13-.41c0,.21-.07.32-.13.21a1.47,1.47,0,0,0,.08.3c-.23.3-.1-.55-.31-.26l.08-.18c-.11.09-.27,0-.57.39,0-.07,0-.24.09-.27-.34-.17-.91.27-1.11-.07l.06-.14c-.08,0-.18.25-.24.09s.06-.14,0-.16-.23.22-.3.12l.11-.15c-.33-.27-.62.31-.92.39a.64.64,0,0,0-.38-.69v-.07c-.46,0-.76.35-1.13.58-.3-.47-.86-.1-1.31-.26a.42.42,0,0,1,0,.39c-.11-.06-.16.37-.26,0h0c-.18-.36-.34-.21-.49-.17l.15.51c-.63-.6-.81.6-1.26.06,0,.16-.12.21-.15.36l-.12-.25a1,1,0,0,0-.61.27l0-.21c-.16.07.2.82.08.91l-.25-.35c-.24.15-.69,0-.74.45,0,0-.08-.16-.05-.2s-.59,0-.25.49c-.19-.32-.27.13-.3.35l-.13-.25c.08.37.13.45,0,.63-.06,0-.15-.17-.07-.14-.19-.05.05.28-.17.24l0-.18c-.13.06-.07.13,0,.35s-.27.08-.42-.12c.06.14.11.36,0,.34a.27.27,0,0,1-.07-.17c-.3,0-.13.46-.41.31l-.11-.13c.16-.09.3-.16.3-.13-.14-.22-.29-.18-.38-.54,0,.23,0,.69-.14.67l-.07-.07v0s-.06,0-.06.08a.22.22,0,0,0-.14,0c-.13-.18-.21,0-.28,0,.15.24,0,.25.24.4,0,0,0,0,0-.07a.08.08,0,0,0,0,0v0l.16-.11c0,.15,0,.29-.13.2l.15.44c-.29-.28-.57-.37-.72-.56-.12.25-.41.36-.28.89,0,.09-.13-.1-.19-.16s0-.08,0-.15c0,.17-.29.21-.15.55-.22-.08-.08-.34-.24-.19l0-.12c-.16-.08-.25-.06-.3,0a1.44,1.44,0,0,0-.07.31c0,.24-.23.53-.37.15a.35.35,0,0,1,0,.13c-.17-.14-.34,0-.57,0s-.42-.17-.22-.51c.07-.15-.16,0-.35,0l.29-.19a1.13,1.13,0,0,1-.36.06c-.14,0,0-.2.21-.3s.29-.16.06-.24l-.21,0c0-.06-.08-.28.15-.24,0,0-.2-.06-.09-.08l.15,0a2.16,2.16,0,0,1-.21-.29c.15-.16.6.17.69-.07a.94.94,0,0,0-.47-.39.28.28,0,0,1-.28,0l0-.11c-.44-.17-.86-.42-1.26-.21l.22.27H87l0-.17c-.23,0-.06.15,0,.24a.47.47,0,0,0-.26,0l.39.29c-.19,0-.34-.16-.46,0,.18.14.41,0,.52.17-.23.07-.39,0-.24.17a.23.23,0,0,1-.23-.09c.12.12,0,.35.26.43-.28.15,0,.45-.39.5.11,0,.35.18.38.29-.55-.06,0,.47-.49.65a.45.45,0,0,1,.43.25c.09.14.17.31.37.33,0,0-.12,0-.11,0,.07.16,0,.3,0,.46.29-.26.54-.17.77-.29-.06.42-.36.31-.53.63.18-.24.5-.08.58-.34a.77.77,0,0,1,0,.47c.25-.42.18,0,.43-.27.13.26-.1.44.2.35C88.73,126.65,88.44,126.77,88.44,126.77Zm4.37-2.42h0l-.06,0Zm.27-.17a.34.34,0,0,0-.12.06c-.06-.07-.1-.17-.07-.18S93,124.13,93.08,124.18Zm-1.59-1.31c0-.06.07,0,.1,0l-.06.07,0,0A.69.69,0,0,1,91.49,122.87Z"/><path class="cls-43" d="M91.6,123.23v0l.05,0,0-.09Z"/><path class="cls-43" d="M118.11,113h0s0,0,0,0Z"/><polygon class="cls-43" points="97.07 122.48 97.04 122.42 97.04 122.49 97.07 122.48"/><path class="cls-43" d="M119.83,114.05a.22.22,0,0,0,0,.08A.25.25,0,0,0,119.83,114.05Z"/><path class="cls-43" d="M120.52,114.26l.07.12A.37.37,0,0,0,120.52,114.26Z"/><path class="cls-43" d="M121,114.54l0-.11h0Z"/><path class="cls-43" d="M113.42,117.34s0,0,0,0S113.41,117.4,113.42,117.34Z"/><path class="cls-43" d="M115.26,115.19a.43.43,0,0,1,0,.16C115.32,115.34,115.35,115.33,115.26,115.19Z"/><polygon class="cls-43" points="111.09 119.49 111.08 119.48 111.07 119.49 111.09 119.49"/><path class="cls-43" d="M115.15,115.41c.08,0,.1,0,.11-.06S115.16,115.36,115.15,115.41Z"/><path class="cls-43" d="M123.05,115.65v0l0,0Z"/><path class="cls-43" d="M123.09,115.64h0S123.11,115.62,123.09,115.64Z"/><path class="cls-43" d="M123.22,115.6l-.09,0S123.17,115.66,123.22,115.6Z"/><path class="cls-43" d="M122.5,115.18l0,.08Z"/><path class="cls-43" d="M122.3,115.1c0,.05,0,.25.1.23l0-.07C122.35,115.38,122.42,115,122.3,115.1Z"/><path class="cls-43" d="M121.92,113.56l.17.15c0-.12,0-.27.11-.26C122.07,113.05,122.16,113.69,121.92,113.56Z"/><path class="cls-43" d="M121.36,113.19c.12,0,0-.15.07-.21S121.3,113.07,121.36,113.19Z"/><path class="cls-43" d="M116.56,113.23l-.1-.24C116.39,113.06,116.5,113.08,116.56,113.23Z"/><polygon class="cls-43" points="116.39 114.79 116.53 114.9 116.45 114.67 116.39 114.79"/><polygon class="cls-43" points="115.02 113.48 115.03 113.43 114.96 113.59 115.02 113.48"/><path class="cls-43" d="M109,118l.19.25C109.18,118.13,109,117.83,109,118Z"/><path class="cls-43" d="M106.47,119.79c-.1-.13-.22-.18-.2,0C106.34,119.76,106.45,119.84,106.47,119.79Z"/><path class="cls-43" d="M96.92,119.82l0-.13a1.13,1.13,0,0,0-.1.13Z"/><path class="cls-43" d="M207.34,211.74s0-.14-.12-.12l-.13.17Z"/><path class="cls-43" d="M206.55,211.44c-.18.08-.52.22-.56.37a4.22,4.22,0,0,0,.61-.28c.14,0,.2.05.15.11s.21,0,.31-.06c-.15-.13-.3-.14-.6,0C206.44,211.51,206.52,211.47,206.55,211.44Z"/><path class="cls-43" d="M203.53,208.89h0Z"/><path class="cls-43" d="M204,205.09c0,.07,0,.1,0,.09S204,205.07,204,205.09Z"/><path class="cls-43" d="M204,203.34l.08,0A.12.12,0,0,0,204,203.34Z"/><path class="cls-43" d="M203.53,208.89h.19C203.72,208.83,203.62,208.88,203.53,208.89Z"/><path class="cls-43" d="M204.08,211.84l.23-.05-.17,0Z"/><path class="cls-43" d="M204.41,208.64h.05l0-.07Z"/><path class="cls-43" d="M207.39,208.61a2.32,2.32,0,0,0-.45.2,1.08,1.08,0,0,1,.31-.1A.61.61,0,0,0,207.39,208.61Z"/><path class="cls-43" d="M205.46,211.06v0Z"/><path class="cls-43" d="M202.75,208.61l0-.05S202.73,208.59,202.75,208.61Z"/><path class="cls-43" d="M183.06,203.27l0,0S183,203.27,183.06,203.27Z"/><path class="cls-43" d="M180.43,204.16l0,0,0-.07Z"/><path class="cls-43" d="M201.56,204.75h0S201.56,204.74,201.56,204.75Z"/><path class="cls-43" d="M194.89,202.39c.13,0,.09.06.07.14s0,.12.12.09C195,202.6,195.15,202.25,194.89,202.39Z"/><path class="cls-43" d="M204,211.82h0Z"/><path class="cls-43" d="M195.08,202.62h0Z"/><path class="cls-43" d="M201.6,203.76a.52.52,0,0,0-.1.11A.6.6,0,0,0,201.6,203.76Z"/><path class="cls-43" d="M201.13,205.38h0Z"/><path class="cls-43" d="M200.6,202.77a.35.35,0,0,0-.19,0h0A.21.21,0,0,1,200.6,202.77Z"/><path class="cls-43" d="M198.6,203.43v0l0,0Z"/><path class="cls-43" d="M184.42,205.92a.12.12,0,0,1,0-.12C184.36,205.94,184,206.37,184.42,205.92Z"/><path class="cls-43" d="M204.26,211.76l-.23.06h.11Z"/><path class="cls-43" d="M200,204.14h0Z"/><path class="cls-43" d="M190.87,201.45h0Z"/><path class="cls-43" d="M199.33,204.35a.34.34,0,0,0-.2,0,.15.15,0,0,0-.06.05A1.43,1.43,0,0,1,199.33,204.35Z"/><path class="cls-43" d="M184.37,205.8Z"/><path class="cls-43" d="M183.32,204.44c0,.6.18.13.28.16.06.53-.13.41-.23.75s.22.4.21.67c0,.08,0,.16-.08.17a.83.83,0,0,1,.08.47,5.11,5.11,0,0,0,.77-.91.08.08,0,0,1,0,.05,1.33,1.33,0,0,1,.07-.43c.13-.13.25-.41.27-.26s-.09.15-.14.26l.14-.22c.1.15-.2.28-.24.51a7.11,7.11,0,0,1,.83-1c.11.14-.5.58-.17.46l-.37.27c.27.12-.24.21,0,.37.58-.5.61-.72,1.18-1.21,0-.14-.12-.08-.12-.21.32-.55.64,0,.8-.51a2.11,2.11,0,0,1,0-.25c0-.09.07-.18.15-.17a1,1,0,0,0,.08.18c.07,0-.05-.33.12-.32,0,.13-.08.17-.06.18s0-.18.11-.26v.25c.05-.08.16-.28.31-.5a3.33,3.33,0,0,1,.05.37,1.08,1.08,0,0,0-.16.39,12.83,12.83,0,0,1-.12,2.55l0,0,.3-.59c.06-.06.05,0,0,.21.21-.19.08-.27.24-.58s.12,0,0,.21c.26-.45.58-1,.86-1.4a4.12,4.12,0,0,1,.8-1l-.07.15c.4-.41.21-.76.48-.89l0,.06c.24-.26.48-.61.67-.85s.23-.26.28-.14c0-.19.06-.22.1-.24s.06-.06.15-.42a1.29,1.29,0,0,1,0,.44l-.06.23s.18-.4.22-.37l-.16.32a1.41,1.41,0,0,1,.16-.21l-.18.35,0,0,.11-.19s0,.09,0,.16a.29.29,0,0,1-.14.12s0,0,.06,0l0,.17,0,.28c-.07,0-.09-.29-.13-.33.16.54-.16.12,0,.71,0-.1.1,0,.13,0a5.68,5.68,0,0,0-.06,1.56l-.1.09c0,.81,0,1.54,0,2.31l.32-.49c-.17.16.06-.5.21-.75l-.07.38c.17-.42-.1.05.18-.58.15-.2,0,.31-.15.64l.28-.52a4.38,4.38,0,0,1-.13.44.9.9,0,0,1,.28-.38,1.28,1.28,0,0,0,.34-.56v.08c1.36-2,1-1.63,1.37-2.15,0,0,0-.09,0-.16s-.13.11-.18.08l-.06.13,0,.07a0,0,0,0,0,0,0l0,0s0,.05.07,0c.1-.27.11-.37.21-.66a2,2,0,0,0-.06.3c0,.11,0,.18-.09.3s0,0,.13.09a2.07,2.07,0,0,1,.11-.27s0,.08,0,.14a.14.14,0,0,0-.09.07v0c0-.13,0-.23,0-.33s0,0,0,0v.14a4,4,0,0,1-.11.58l0,.14v1l0,.53a1.5,1.5,0,0,0,.07.7v0l0,.17.58-.71c.29-.26-.25.37-.07.31a7.29,7.29,0,0,1,1-1.09,5.56,5.56,0,0,0,.82-.85c.54,0,1-1,1.51-1.19l-.08,0a.13.13,0,0,1,.1-.11.16.16,0,0,1,.06,0c0-.06-.07,0-.08-.1a.56.56,0,0,1,.25-.24c.07,0,.07.06,0,.2a.92.92,0,0,1-.12.2s.71-.89.35-.35l-.23.22c.21,0,0-.15-.24,1.61,0-.07-.07-.06,0-.21-.21.36-.31,1.22-.18,1.09-.07.23-.12.14-.23.34a1.19,1.19,0,0,0-.09.51c.22-.1.39-.18.4-.13s-.13.09-.2.12c.27-.15,1-.3.87-.41.51-.1,1-.4,1.44-.45.12-.21.55-.11.53-.33a.13.13,0,0,0,.12.09h.13a.35.35,0,0,0,.13-.14c0,.09,0,.07,0,.19a.84.84,0,0,0,.2-.23c-.06.14,0,.11.08,0s.14,0-.15.21c0,.05.15-.09.11.16-.13.5-.25,1-.38,1.44-.28.14.34-1.06.07-1a11.58,11.58,0,0,0-.24,1.23,4.34,4.34,0,0,1-.29,1.05c-.13.28-.12.06-.16,0a7,7,0,0,1-.24.85,15.17,15.17,0,0,0,1.54-1.09,1.17,1.17,0,0,1-.2.21c.15-.11.31-.17.36-.32l-.15.13c-.06-.05.15-.28.33-.48a2.32,2.32,0,0,0,.36-.44c-.29.54.56-.28.2.4.1-.09.21-.22.18-.28.13-.06.19,0,.06.13a2.14,2.14,0,0,0,.38-.37.83.83,0,0,1,.25-.24s0,.09,0,.16a.83.83,0,0,1,.38-.44s0,.06,0,.08A3,3,0,0,0,203,205c.12-.13.29-.29.4-.3-.17.27-.12.23-.1.24a1.35,1.35,0,0,1-.11.24s0,0,.05,0l.1-.18c0,.11.13.12.07.31l-.08-.05,0,.24.07-.2c.09.13.23-.15.18.16,0-.06,0,.21-.11.36h0a.65.65,0,0,1,.07.48c-.06.08-.2,0-.24.05a.68.68,0,0,1,.09.38,1.22,1.22,0,0,0,.6.16c-.07,0-.13.09-.12.12L204,207c.09.08.09.11,0,.17.27.16,0-.24.29,0,0,0,0,0-.08,0,.19.16.6.21.76.36-.29.07-.27-.08-.47,0l.71.2a.68.68,0,0,1-.36.18h.1c.22.06.07.08-.1.08s-.34,0-.36.06-.11-.12-.08-.1a.64.64,0,0,0-.29.13c-.09.06-.37.2-.6.32l0-.09a8,8,0,0,0-.78.19c0,.09-.17.12-.06.19a1.12,1.12,0,0,0-.45,0l-1.94.43,2,.2c.55,0,1.06-.28,1.57,0-.08,0-.18.06-.12.06l.54-.06c0-.12-.07-.07-.18-.16a.55.55,0,0,1,.35-.12c-.24.07,0,.18.11.25s0-.08,0-.11c.28.2.05-.24.43-.1l0,.06a1.32,1.32,0,0,1,.43-.09c0,.13-.16.06-.17.17s.47-.25.57-.12c-.11,0-.23,0-.32.08.08.15.1.11.19.14h0a.32.32,0,0,1,.13.07v0a1.14,1.14,0,0,1,.59-.19,1.78,1.78,0,0,0,.66-.1c-.81.22-.33.13-.72.28l-.05.05-.23.11c.21,0-.29.15,0,.13a.75.75,0,0,1-.28.1s.16,0,.27-.06,0,.07,0,.1l-.1,0s-.12.06-.2.14l-.12.14-.14.23c-.49.61-.2.55-.33.8s-.28,0-.27,0c-.31.21-.46.36-.5.48h0a.43.43,0,0,0-.24.13c.25,0,.53-.17.64-.1-.16.05-.4.14-.63.19.38,0,.8-.13,1.11-.18-.07.09-.36.13-.57.19a4,4,0,0,0,1.16-.21l-.11-.05c.1,0-.09.11-.21.14-.39.1-.29-.05-.21-.1l.21,0c.12-.14,0-.13-.28-.08a5.56,5.56,0,0,1-.78.11l.6-.21-.6.15h0c.19-.11.48-.23.46-.17.37-.22,0-.06.32-.26.05,0,.07,0,.08,0a.28.28,0,0,1,0-.09c.07,0,.31-.09.18,0,.39-.22.08-.3.35-.34h0c0-.09,0-.13,0-.16s-.11-.07,0-.26l.44.09-.07-.15s.14-.11.18-.06c.09-.24-.09,0-.08-.16a1.15,1.15,0,0,0,.41-.34,1.08,1.08,0,0,1,.49-.29c-.16,0-.36.23-.31.07.59-.22.15-.21.57-.47.29-.09-.1.19.4-.13h-.09c-.44.11-.31-.11-.64-.07s-.66.08-1.12.14c0,0-.13-.06-.37-.08l-.4,0-.27,0v0c-.06.19-.37.15-.6.19,0-.11.05-.15.17-.2h-.21a.37.37,0,0,1-.25.11l0-.14a2.79,2.79,0,0,1-.94.07c0,.13.29.36-.09.44,0-.07,0-.18.07-.21s-.12.06-.19,0l.16-.12c-.17,0-.09.1-.22.09s-.1-.07-.08-.15.12,0,.17,0a.74.74,0,0,1-.39-.15.11.11,0,0,1-.11.14c-.21,0-.17-.05-.19-.11l.11.71s0,0,.09,0,.24-.08.19-.22.12,0,.16.07.65-.24.44-.33h0a1.75,1.75,0,0,1,.7-.26,3.81,3.81,0,0,0,.86-.23l0,0c.3-.15.76-.28.79-.4a1.35,1.35,0,0,1,.49,0,1.06,1.06,0,0,1,.41-.18l-.08-.07c.43.12.18,0,.35.09l-.12,0,.15,0a1.61,1.61,0,0,0-.79-.35c.4.06,0-.17-.23-.25l.11.15a3.75,3.75,0,0,1-.53-.26l.33,0a3.2,3.2,0,0,0-1.19-.53,4.19,4.19,0,0,1-.41-.13.12.12,0,0,1-.07-.16c-.16.05.07.13-.07.21a.18.18,0,0,1-.08-.18,1.41,1.41,0,0,1,.14-.17s0,0,0-.07a1,1,0,0,0-.08-.14c-.07-.1-.13-.13-.1-.41-.06.09-.22.12-.28-.18s.25-.56.3-.34,0,.15,0,.15,0,.28.11.1l-.06,0c.06-.22,0-.81.15-.76-.06-.28-.1,0-.13.21.09-.6,0-.81.06-1.42l0,0h0c0,.14-.08.25-.08.19v0c-.55.28-.36.37-.75.66-.19,0,.17-.37-.29,0-.26.1-.05-.15.09-.3a2.2,2.2,0,0,1-.65.43l-.49.21.06-.07.12-.11a1.45,1.45,0,0,1-.28.21l.15.05c-.1,0-.17.08-.19,0-.05.12.17.12.06.32-.17,0-.21.22-.28.08.16-.05-.06-.15,0-.23s0,0-.05,0a.11.11,0,0,1,0-.05c-.07-.12,0,.21-.12.29,0-.13,0-.22,0-.19a.66.66,0,0,1-.13.34c-.05-.05-.14.16-.2.19h0a1.12,1.12,0,0,1-.29.32c.07-.13.14-.15.14-.19-.14.18-.17.15-.16.09s0-.15-.1,0l0,0,.37-.49c-.18.15.23-.31.09-.2s-.16.19-.3.26a.1.1,0,0,0,.06.08,1.11,1.11,0,0,1-.23.15c0,.1.06.05,0,.13a1,1,0,0,0-.28.31c.18-.26.15-.26.13-.29s-.06-.06.06-.22l.43-.36c.12-.14.06-.09,0-.13s-.08-.07,0-.23a.39.39,0,0,1-.08.09c-.06,0-.05-.06,0-.16a1.89,1.89,0,0,0,.12-.38c.1,0,.19-.14.31-.28-.09,0,.23-.67,0-.56l.29-.45c.14-.32.11-.43.06-.47a3.67,3.67,0,0,1-.8.42c.28-.21.09-.22.58-.46a1,1,0,0,0-.44.19c-.07,0-.62.35-.73.29s-.16.2-.34.25c0,0,0-.05,0-.05s-.3.17-.15.23a.85.85,0,0,0-.42,0,3.1,3.1,0,0,0-.4.13c-.29.1-.45.18-.53.06a3.57,3.57,0,0,1-.56.26c0-.05.06-.07.08-.07s0,0-.08,0-.35.28-.17-.08.07.06.17-.09.21-.22.2-.27a.17.17,0,0,1,.07-.22l0,0c.07-.06,0-.08,0-.17a1.65,1.65,0,0,1,0-.49s0,0,0,0a3.92,3.92,0,0,1,0-1.23c.12,0,0,.14.21-.05s-.26.21-.22-.09a6.18,6.18,0,0,1,.47-.78l-.09.4c.29-.44.13-.54.22-.78l.11-.11c.13-.64-.18-.19,0-.82l-.12.22c-.23.23.14-.37.12-.47l-.14.19.27-.54c-.27.33-.87,1.12-1.14,1.44a18.8,18.8,0,0,1,1.11-1.53,6.67,6.67,0,0,0-.84,1c.09-.11.23-.32.27-.31a8,8,0,0,1-1,1.26c.13-.39-.09-.22-.36,0s-.56.53-.78.54l-.24.29-.15.17c-.11.1-.22.2-.34.29s-.49.39-.73.63c.38,0-.14.15.11.34-.1.13-.15.17-.17.16a.5.5,0,0,1-.29,0c-.05-.07,0-.11,0-.17s-.07-.12-.09-.21c0,.13,0,.22,0,.18a.43.43,0,0,0,0,.17c-.06.17-.09.11-.08,0s0-.22,0,0l.08-.21a1.09,1.09,0,0,1-.06.11l-.21.21a.92.92,0,0,1,.14-.21v0h0v.75l0-.24-.07-.48a1.78,1.78,0,0,1,0-.26l0-.72V201a2.4,2.4,0,0,1,0-.37l.08-.07c0-.17-.14,0-.07-.44,0-.06.08-.09.08-.2a.79.79,0,0,1-.09-.54h.09a3.93,3.93,0,0,0,0-.78c-.4.69-.75,1.51-1,2,0-.25,0-.27-.18-.16s0,0-.13.13l-.23.3-.44.6v-.05l-.25.37-.12.2a3.65,3.65,0,0,0-.18.41c-.07.13.07-.06.11-.09l.17-.15s-.05.18-.09.27c0-.21,0-.22-.07-.18a2.29,2.29,0,0,1,.08-.42,1.24,1.24,0,0,1-.19.33c0-.12-.15.08.05-.18h0c.2-.28.15-.17.15-.18l-.26.07c.1-.07.14-.1.15-.49s0-.72,0-1a4.66,4.66,0,0,1,.08-1.7c-.06-.12-.06-.44-.13-.5l.14-.38,0-.28a16.64,16.64,0,0,0-1.1,1.43l.15-.36a14.16,14.16,0,0,0-.69,1.58,1.18,1.18,0,0,0-.11-.19c-.26.33-.54.63-.83,1a1.57,1.57,0,0,0-.41.66.12.12,0,0,1,0-.15c-.08.09-.25.26-.36.41s0,.06,0,.11a.38.38,0,0,0,.09.13c-.12-.16-.09.08-.19.35v-.24a1.69,1.69,0,0,1-.19.72s0-.21,0-.17-.13.38-.2.36l.1-.27c-.08.08-.1.18-.25.55a.91.91,0,0,1-.06.11,3.51,3.51,0,0,1,.17-.9c-.07.19-.18.34-.14.09a.46.46,0,0,1,.09-.19c.1-.65-.16-.17,0-.81a2.16,2.16,0,0,0,.08-.26c0,.32,0,.6,0,.6a4.61,4.61,0,0,1,.33-.93c-.1.08-.31.28-.25-.12l0-.15h0c0-.08,0-.1,0-.1a1.29,1.29,0,0,0,0-.24l-.05,0c.07-.21-.35.27-.52.43s-.26.42-.13.46,0-.06.14-.17l.08-.1,0,0,.37-.38h0c-.19.28-.33.49-.43.49l-.32.63c0-.22-.46,0-.53-.07l-.8.91a1,1,0,0,0-.27.59c-.07.11-.16,0-.22,0s.1-.12.1-.17c-.13.21-.5.53-.41.69-.19.08,0-.2-.19,0v-.08c-.16,0-.18.08-.3.31a3.34,3.34,0,0,1-.49.75,2.33,2.33,0,0,1,.11-.59.62.62,0,0,1-.07.19,3.47,3.47,0,0,0,0-1.11,12.74,12.74,0,0,1,.08-2.24h0a2,2,0,0,0-.69.63.91.91,0,0,0,0-.17l-.38.46a1.34,1.34,0,0,1-.68.32.83.83,0,0,0-.6.36l.12.05c-.18.09-.5.39-.53.28s0,.12-.09.12l-.05-.06-.33.38c-.35.16-.13-.3-.6,0-.15.14-.36.52-.26.52s.2-.08.25,0l-.14.13c.1.22.11.49.59.38l.19-.3.15,0-.23.15c.19,0,.22-.12.28-.24a.19.19,0,0,0,.18,0l.14-.35c.08,0,0,.22.18.15s-.23-.09-.06-.28c.18,0,.19.1.3-.08.05,0,0,.09,0,.15.1-.14.34-.25.34-.4.21,0,.44-.33.54-.14l.09-.18c0-.06,0-.11.06-.13,0,.31.18-.1.13.27,0-.24.13-.26.22-.36h.06l0,0a1.15,1.15,0,0,1-.14.27c.19-.23.24-.15.36-.12-.19.2-.23.06-.41.21.16-.11.16,0,.29,0a1.54,1.54,0,0,1-.22.17c.25,0,0,.25.19.48-.12.48-.23.22-.15.7C183.4,204.88,183.32,204.45,183.32,204.44Zm4.09-1.28h0v0Zm0,.63v-.29c.05-.15.1-.25.1-.18A3.4,3.4,0,0,0,187.41,203.79Zm.7-3.18c.13-.16.15-.13.14-.08l-.21.23,0,.05A1.86,1.86,0,0,1,188.11,200.61Z"/><path class="cls-43" d="M187.78,201.2l-.05.06h0l.07-.13Z"/><path class="cls-43" d="M203.44,208.9h0S203.44,208.89,203.44,208.9Z"/><polygon class="cls-43" points="190.81 201.43 190.84 201.35 190.81 201.41 190.81 201.43"/><path class="cls-43" d="M204.72,209.28l0,0Z"/><path class="cls-43" d="M205.84,209.31l.06.05S205.86,209.32,205.84,209.31Z"/><path class="cls-43" d="M206.35,209.38l.15-.06h0Z"/><path class="cls-43" d="M200.33,207l-.07.05C200.1,207.22,200.2,207.14,200.33,207Z"/><path class="cls-43" d="M203.46,205.87a.77.77,0,0,1-.07-.16C203.38,205.8,203.38,205.87,203.46,205.87Z"/><polygon class="cls-43" points="199.99 204.14 199.99 204.13 199.99 204.14 199.99 204.14"/><path class="cls-43" d="M203.39,205.55a.22.22,0,0,0,0,.16A.29.29,0,0,0,203.39,205.55Z"/><path class="cls-43" d="M205.43,211.85h.07l0,0Z"/><path class="cls-43" d="M205.54,211.83h0Z"/><path class="cls-43" d="M205.85,211.78l-.21,0A.43.43,0,0,0,205.85,211.78Z"/><path class="cls-43" d="M204.3,211.47l-.09,0Z"/><path class="cls-43" d="M204.73,211a3.8,3.8,0,0,0-.59.47h.07C204.14,211.45,204.79,211.08,204.73,211Z"/><path class="cls-43" d="M207.12,209.56l-.44.37c.12,0,.34-.15.13.07.41-.29.35-.28.25-.24S206.88,209.77,207.12,209.56Z"/><path class="cls-43" d="M207.76,208.68c.33,0,.17-.08.24-.11C207.71,208.62,207.65,208.64,207.76,208.68Z"/><path class="cls-43" d="M206.52,208l.26.05C207,208,206.67,208,206.52,208Z"/><path class="cls-43" d="M204.58,207.42a.16.16,0,0,1,0,.07l.21,0Z"/><path class="cls-43" d="M204.44,206.34h.06l-.12,0h0A.19.19,0,0,1,204.44,206.34Z"/><path class="cls-43" d="M198.75,203.25a.88.88,0,0,0,.05.15C198.84,203.35,198.79,203.18,198.75,203.25Z"/><path class="cls-43" d="M199.32,198.74c.16-.3.31-.72.21-.63S199.31,198.71,199.32,198.74Z"/><path class="cls-43" d="M192.07,201.67s0,.09.05.1,0-.14,0-.21Z"/><path class="cls-43" d="M198.38,197.31s-.1.11,0,.11l.12-.11Z"/><path class="cls-43" d="M198.42,197.71a.46.46,0,0,0,.26-.27c-.12.11-.09.05-.24.18s0-.09,0-.14,0-.06-.11,0,0,.18.14.13A.2.2,0,0,1,198.42,197.71Z"/><path class="cls-43" d="M202.44,198.43h0Z"/><path class="cls-43" d="M204,196.22s0,0,0,0S204,196.22,204,196.22Z"/><path class="cls-43" d="M204.31,195.83l0,0S204.32,195.84,204.31,195.83Z"/><path class="cls-43" d="M202.44,198.43h.09C202.5,198.38,202.48,198.42,202.44,198.43Z"/><path class="cls-43" d="M199.1,197.66l0,0h0Z"/><path class="cls-43" d="M201.28,199h0v.06Z"/><path class="cls-43" d="M200.31,199s.05-.13.07-.19a.17.17,0,0,1-.06.09A.25.25,0,0,0,200.31,199Z"/><path class="cls-43" d="M199,198.25h0Z"/><path class="cls-43" d="M202,198.84l0,0Z"/><path class="cls-43" d="M217,185.74v0S217,185.75,217,185.74Z"/><polygon class="cls-43" points="217.71 186.77 217.69 186.77 217.66 186.84 217.71 186.77"/><path class="cls-43" d="M204.69,195Z"/><path class="cls-43" d="M205.65,187.94c-.14,0-.08-.19-.25-.16C205.45,187.8,205.54,188,205.65,187.94Z"/><path class="cls-43" d="M199.11,197.68l0,0Z"/><polygon class="cls-43" points="205.4 187.78 205.39 187.78 205.38 187.78 205.4 187.78"/><path class="cls-43" d="M204.82,193.1l-.06,0Z"/><path class="cls-43" d="M204.47,194.5l0,0S204.48,194.49,204.47,194.5Z"/><path class="cls-43" d="M204.65,192.36s0,0,0-.05h0S204.68,192.34,204.65,192.36Z"/><polygon class="cls-43" points="204.68 191.6 204.65 191.61 204.66 191.63 204.68 191.6"/><path class="cls-43" d="M214.77,185.1v.13C214.78,185.13,214.9,185.13,214.77,185.1Z"/><path class="cls-43" d="M199.06,197.73s0,0,.05,0h0S199.06,197.71,199.06,197.73Z"/><path class="cls-43" d="M203.55,192.29l0-.11A.36.36,0,0,0,203.55,192.29Z"/><path class="cls-43" d="M209.23,184.57l0,0Z"/><path class="cls-43" d="M203.56,191.83l.1-.06h0Z"/><path class="cls-43" d="M214.77,185.23Z"/><path class="cls-43" d="M215.63,185.13c-.11,0-.1.16-.16.26s0-.15,0-.26-.21.17-.27.14,0,0,0-.07-.26-.07-.41.08c0,0,0,0,0-.05a1.22,1.22,0,0,1-.05.25c-.05,0-.12.09-.11,0s0,0,.07-.07l-.07,0c0-.18.09,0,.12-.17-.12,0-.27.14-.34.08s.2,0,.13-.19l.11.1c0-.29.07,0,.05-.27-.15-.08-.2,0-.35-.05-.06.09,0,.14-.08.23-.26.1-.08-.46-.3-.28-.07.1-.13.31-.23.17l.08-.18c-.15-.05-.14.25-.28.09,0-.07.13,0,.11-.06-.07-.18-.09.09-.17.07v-.17c-.17,0-.38.08-.57.08,0-.05.06-.1,0-.16a1.13,1.13,0,0,1-.72-.22l-.11.13s0-.07,0-.1,0,.1-.06.15-.06-.09,0-.13c-.18.1-.48.22-.64.05l0,0c-.13-.07-.17.29-.28.14l0,0c-.28-.08-.6.05-.82-.17,0,.21-.29-.08-.3.21-.17-.14-.12-.19-.36-.28-.07,0-.08.2-.16.24v-.16l-.09.17-.08-.17-.07,0a.12.12,0,0,1,.07.11c-.1.08-.28-.08-.3-.15l-.25.17c0-.06,0-.09.07-.13-.12.18-.06-.16-.16,0s0,.09,0,.12a.29.29,0,0,0-.34,0v-.11a5,5,0,0,0-.64.23c.1,0,.14.2.08.24l-.08-.15c0,.11.09,0,0,.18s-.11-.15-.08-.22l-.08.09s0-.07,0-.13c0,.11-.23-.09-.23.09l0,0a2.54,2.54,0,0,0-.47.28c.06.13,0,.13,0,.26a.86.86,0,0,0-.47.11c-.06.13,0,.12,0,.22-.08-.1-.22,0-.19-.12a.91.91,0,0,0-.33.42c.05,0,.09,0,.1.06s-.11,0-.14,0v0c-.09.3-.75.21-.71.57v0a1.24,1.24,0,0,0,0,.27c-.08.08,0-.11-.15-.09,0,.34-.26.33-.25.58-.41,0-.25.53-.55.63l.09,0c.06.09-.07,0-.11.08s.1,0,.13,0a7.11,7.11,0,0,1-.61,1.36c-.06.18.44.18.2.36l-.16-.08c.16.37-.11.72.05,1.07,0,0-.08,0-.08-.06s0,.27.08.27-.09,0-.14,0,.15.19,0,.22,0,0,0,0,0,.22.12.17c-.08.13.05.23,0,.33.15.06-.08.2.14.22-.23,0-.19.21-.09.28-.07,0-.07.07-.16,0s0,.17.15.16c-.28.14.21.32-.14.39a2.55,2.55,0,0,1,.21.73c-.23,0,0-.25-.23-.26.07.22.24.36.16.57,0,.05-.09,0-.13-.06.07.22-.07.4,0,.61l-.06-.05s0,.08.06.09l0,0c.15,0,.28.2.36.22-.28-.11-.1.18-.45,0a.15.15,0,0,0,.13.07s-.07,0-.14,0c0,.14.15.12.12.23s-.06,0-.11-.06.16.16.09.25-.07,0-.06,0c0,.17.18.35,0,.52-.19-.11-.08,0-.27,0l0,.12.1,0c0,.09.09.21,0,.26l-.06-.08a1,1,0,0,1,0,.17l.1-.07c.06.12.23.06.13.16s0,.09-.16.09h0c0,.07.08.13,0,.18s-.19-.09-.23-.1c.13.1,0,.21.09.33a.7.7,0,0,0-.14-.08l.11.09a.14.14,0,0,1-.15,0c-.06.11.23.07.08.16,0,0,0,0,0,0s0,.3-.19.38c-.18-.07,0-.12-.13-.17-.07.17,0,.45-.17.58h0c.19.2-.19,0-.16.15,0,0-.09-.12-.07-.09s-.13.2-.23.4l0-.07a2.58,2.58,0,0,0-.26.08c0,.07,0,.08,0,.15-.2-.12-.26,0-.35.08s-.19.17-.32,0c0,0,0-.07,0-.06l-.16.1c0,.11,0,.06.08.14s-.06.14-.11.14,0-.19-.06-.25a.4.4,0,0,1,0,.11c-.11-.21,0,.23-.15.09v-.06c-.05,0-.11.11-.16.1s.05-.07.06-.18-.17.26-.23.12l.12-.07c-.07-.16-.07-.12-.13-.15h0l-.12-.09,0,.05c-.15.32-.2,0-.38.22.17-.18.05-.11.09-.26s-.06-.1,0-.14-.07-.12-.2,0c0-.05-.06,0,0-.14s0,.08,0,.14-.2-.27-.44-.13-.28.16-.45.17c0-.1.11-.14.11-.14a.15.15,0,0,0-.19-.11s0-.07.05-.13-.12.14-.16,0a1,1,0,0,1,.15-.14c-.08,0-.19,0-.28,0s.11-.09.16-.12-.22-.05-.32,0l0,.07s.05-.1.08-.11.07.09,0,.13h-.07c-.1.28.21.07.3.14l-.14.16.18-.1c0,.06-.05.17-.11.17s.1,0,.1.1,0,0,0,0l.1,0s0,.14-.08.09c.08.17.27,0,.26.12h0c.21,0,.08-.13.28-.24l0,.39.07-.13s.05,0,0,.09,0-.07.09-.15c.05.16.27,0,.22.26.07-.1-.06-.11.06-.16,0,.26.12,0,.18.13s-.13,0-.07.17c.11-.21.17.08.26.06,0-.18.17-.05.31-.09,0,.07.23.11.36.17v0c0-.18.15-.15.23-.18s0,.15-.05.2h.09a.23.23,0,0,1,.09-.14V199c.12,0,.21-.21.38-.16,0-.12-.2-.32-.09-.43,0,.06.07.18,0,.21s0-.06.06,0l0,.12c.09,0,0-.1.07-.1s.06.06.07.14-.06,0-.06,0a.4.4,0,0,1,.2.09c0-.05,0-.13,0-.16s.08.09.17.11.1,0,0-.18.07,0,.11.07.25-.16.1-.25h0c.08-.21.36-.19.47-.36l0,0c.05-.12.18-.19.13-.33s.12,0,.15,0,0-.14.12-.2c0,.13.08,0,0,.11.1-.07.18,0,.14-.22a.1.1,0,0,0,.18-.06l-.12,0a.36.36,0,0,1,.1-.14l.13.11c.32-.12-.13-.54.25-.56-.08-.1-.12.09-.23,0,.07-.09.33-.1.34-.13s-.17-.22,0-.34c-.07,0-.22,0-.23-.16a.22.22,0,0,1,.3,0,0,0,0,0,1,0,0s0,.09.09.07l0,0c.08,0,.1-.17.19-.11,0-.09-.09-.06-.13,0,.12-.11,0-.21.14-.33s-.11,0-.1,0c.12-.18-.09-.12-.08-.26s.2.08.16-.07.16,0,.2.06c-.08-.15.13-.21.17-.28l0,.07a.14.14,0,0,1,0-.11l-.13,0s0-.07.09-.06-.2,0-.29-.11c.08,0,0-.16.13-.15-.08.15.17,0,.16.15a.13.13,0,0,1,0-.1s0,0,0,0c.16-.14-.16-.11-.14-.27.09,0,.17,0,.16,0s-.15,0-.21-.06,0-.12,0-.17l0,.06c-.08,0-.06-.09-.08-.16s0,.07.07,0c-.14-.1.18-.16.09-.28.07,0,.17,0,.22,0s.13-.12.06-.27c-.13,0-.1,0-.2-.07l0,.23-.15-.16c0,.06.06.14,0,.18s-.06-.07-.16-.05c.19-.06-.08-.18,0-.27l.29,0c.15-.15-.1-.29,0-.48l0,.06c-.12,0,0-.13-.06-.19a.37.37,0,0,0,.2,0c-.07,0,0-.15-.18-.18l.13-.08c.06-.16-.27-.19-.23-.34.1,0,.17,0,.25.09,0-.06,0-.1,0-.1s-.13-.15,0-.2-.15,0-.14-.09h.05c-.05,0-.06-.1-.17,0,.31-.15,0-.44.26-.57a2.21,2.21,0,0,1-.06-.34s0,0,0,0-.28-.09-.17-.24.08.09.14,0c.33,0,0-.18.16-.28l0,0c.12-.07-.12-.2-.08-.32h.05a.6.6,0,0,1-.22-.4c.12.06.06.06.19.06s-.2,0-.23-.13.15-.1.29-.08v.1c.18,0,0-.13,0-.18l.07,0c0-.16-.19-.2-.14-.36h-.06c-.17-.13.13-.05,0-.17l.19,0a1.51,1.51,0,0,1-.14-.38,1.45,1.45,0,0,1,.23.34.24.24,0,0,0,0-.25s0,.07,0,.08-.19-.23-.14-.34c.35.14.19-.27.5-.24-.08-.26.22-.34.29-.56-.3-.06,0-.06-.25-.2,0-.06,0-.08,0-.07l.25-.05c.1,0,0,.08.09.11s.14,0,.25,0c-.1,0-.11-.12,0-.15h-.17c0-.23.29,0,.25-.19l0,.1c0-.12.19-.22.06-.45,0,0,.11.05.1.09.14-.12.13-.5.35-.49l0,.07s0-.16,0-.13,0,.07.05.06,0-.17.07-.16v.1c.22,0,.13-.34.25-.48a.38.38,0,0,0,.37.18v0c.21-.08.27-.34.45-.49.2.16.47-.05.71,0,0,0,0-.16,0-.2s.11-.18.14,0h0c.08.19.17.12.26.11l0-.26c.27.33.56-.22.72.1.05-.07.11-.07.16-.14v.14a.77.77,0,0,0,.4,0l0,.11c.1,0,.12-.42.22-.43l0,.21c.18,0,.36.19.55,0,0,0,0,.1,0,.1s.33.17.31-.12c0,.18.19,0,.3,0l0,.14c.1-.17.11-.22.23-.26s0,.12,0,.08.09-.13.19,0l0,.09c.1,0,.09,0,.16-.13s.18.06.17.18c0-.07.09-.16.15-.12a.15.15,0,0,1,0,.09c.15.12.26-.13.35,0s0,.07,0,.08l-.22-.05c0,.12.08.16,0,.32.1-.08.27-.27.36-.19a.43.43,0,0,1,0,0h0a.06.06,0,0,0,.07,0,.18.18,0,0,0,.08.05c0,.11.1.08.15.1,0-.14.08-.11,0-.23s0,0,0,0h0l-.13,0c.05-.06.11-.11.15,0l.11-.21c0,.2.15.33.14.45.17,0,.37,0,.53-.2,0,0,0,.08,0,.13s-.06,0-.08,0,.27,0,.33-.14c.09.11-.1.15.06.16l0,.05c.22.36.61-.33.84.13a.12.12,0,0,1,0-.08c.33.27.82.08,1.1.46.09.09.14,0,.23-.08l0,.15.16-.13c.2-.06.14.44.41.29v-.1c.07,0,.25,0,.19.13s.06-.09.07,0l0,.07.22-.06c.11.11-.14.29,0,.38s.29-.13.28-.19a.14.14,0,0,1,0-.15h.08c.11-.21.26-.4.15-.62l-.17.08v-.12l.1,0c0-.12-.09,0-.15,0a.32.32,0,0,0,0-.14l-.2.16c0-.09.12-.14.06-.22-.09.07,0,.21-.13.24,0-.12,0-.2-.07-.14a.11.11,0,0,1,.08-.1c-.09,0-.17,0-.24.07,0-.14-.21,0-.13-.24a.36.36,0,0,1-.21.11c.18-.21-.2-.09-.08-.34-.15.19-.3,0-.47.09,0,0,0,0,0,0s-.07-.11-.1-.17c-.07.18-.2.19-.29.28,0-.21.12-.2.15-.38-.05.15-.2.1-.21.24,0-.14-.05-.08,0-.24-.09.23-.08,0-.18.14-.06-.14,0-.22-.09-.18S215.63,185.13,215.63,185.13Zm-2.74-.22Zm-.23,0,.1,0s0,.1,0,.09S212.69,184.93,212.66,184.88Zm.3,1s0,0,0,0H213v0Z"/><path class="cls-43" d="M213.06,185.75h0v0l0,0Z"/><path class="cls-43" d="M202.39,198.43h0l0,0Z"/><polygon class="cls-43" points="209.48 184.48 209.49 184.51 209.5 184.48 209.48 184.48"/><path class="cls-43" d="M201.11,198.35l0,0A.08.08,0,0,0,201.11,198.35Z"/><path class="cls-43" d="M200.63,198.31l-.06-.06Z"/><path class="cls-43" d="M200.28,198.17l0,.06h0Z"/><path class="cls-43" d="M203.54,194.39v0S203.52,194.36,203.54,194.39Z"/><path class="cls-43" d="M203.43,196.26a.25.25,0,0,1,0-.07S203.36,196.23,203.43,196.26Z"/><polygon class="cls-43" points="203.54 192.3 203.54 192.3 203.55 192.29 203.54 192.3"/><path class="cls-43" d="M203.43,196.11a.06.06,0,0,0,0,.08S203.44,196.14,203.43,196.11Z"/><path class="cls-43" d="M198.81,197.48v0Z"/><path class="cls-43" d="M198.79,197.48h0A0,0,0,0,0,198.79,197.48Z"/><path class="cls-43" d="M198.71,197.49h0S198.74,197.46,198.71,197.49Z"/><path class="cls-43" d="M199.22,197.78l0,0Z"/><path class="cls-43" d="M199.37,197.83s0-.13-.1-.13l0,0C199.3,197.68,199.29,197.9,199.37,197.83Z"/><path class="cls-43" d="M199.76,198.67l-.12-.09c0,.06,0,.14-.06.13C199.71,198.92,199.59,198.59,199.76,198.67Z"/><path class="cls-43" d="M200.18,198.86c-.09,0,0,.08,0,.11S200.23,198.92,200.18,198.86Z"/><path class="cls-43" d="M203.22,197.79l.1.08C203.34,197.81,203.28,197.84,203.22,197.79Z"/><polygon class="cls-43" points="203 196.94 202.9 196.94 202.99 197.02 203 196.94"/><polygon class="cls-43" points="203.96 197.03 203.96 197.06 203.96 196.95 203.96 197.03"/><path class="cls-43" d="M204.8,191.73l-.16,0S204.84,191.8,204.8,191.73Z"/><path class="cls-43" d="M204.83,189.59c.09,0,.15-.06.08-.11S204.82,189.56,204.83,189.59Z"/><polygon class="cls-43" points="209.06 185.8 209.03 185.86 209.1 185.81 209.06 185.8"/><polygon class="cls-44" points="165.79 220.22 183.6 234.71 207.95 227.66 182.28 278.22 160.28 231.27 165.79 220.22"/><polygon class="cls-45" points="176.17 239.7 177.39 245.72 171.16 255.92 182.28 278.22 192.06 261.36 184.72 246.92 190.68 240.34 185.97 234.04 180.92 233.71 176.17 239.7"/><polygon class="cls-46" points="132.17 296.27 147.43 232.34 154.17 244.51 156.62 278.22 168.84 262.57 173.72 270.99 135.84 323.96 132.17 296.27"/><polygon class="cls-46" points="210.39 331.18 173.72 270.99 174.95 266.18 190.84 280.62 204.1 236.22 210.39 252.94 216.5 307.1 210.39 331.18"/></svg>