<svg id="Layer_1" data-name="Layer 1" xmlns="http://www.w3.org/2000/svg" viewBox="0 0 602 379"><defs><style>.cls-1{fill:#ede9dd;}.cls-2{fill:#e0ddd5;}.cls-19,.cls-3{font-size:12.12px;}.cls-19,.cls-26,.cls-29,.cls-3{fill:#181713;}.cls-20,.cls-22,.cls-3{font-family:P22UndergroundMedium, P22 Underground;}.cls-4{letter-spacing:0.27em;}.cls-5{letter-spacing:0.27em;}.cls-6{letter-spacing:-0.02em;}.cls-7{letter-spacing:-0.04em;}.cls-8{letter-spacing:-0.02em;}.cls-9{letter-spacing:-0.01em;}.cls-10{letter-spacing:0.12em;}.cls-11{letter-spacing:-0.05em;}.cls-12{letter-spacing:-0.05em;}.cls-13{letter-spacing:0.29em;}.cls-14{letter-spacing:0.18em;}.cls-15{letter-spacing:0.18em;}.cls-16{letter-spacing:-0.06em;}.cls-17{letter-spacing:0.44em;}.cls-18{letter-spacing:0.44em;}.cls-19,.cls-26{font-family:P22UndergroundHeavy, P22 Underground;}.cls-21,.cls-22{font-size:15.15px;}.cls-21{font-family:PTSerif-Regular, PT Serif;}.cls-23{letter-spacing:-0.12em;}.cls-24{letter-spacing:0em;}.cls-25{letter-spacing:-0.08em;}.cls-26{font-size:20.2px;}.cls-27{fill:#b5a98a;}.cls-28{fill:#6b5c46;}.cls-30{fill:#bb7a45;}.cls-31{fill:#f4ebe6;}.cls-32{fill:#2d2824;}.cls-33{fill:#e5a064;}.cls-34{fill:#fff;}.cls-35{fill:#dcd6c9;}.cls-36{fill:#e6d7cc;}.cls-37{fill:#41413f;}.cls-38{fill:#2c2421;}.cls-39{fill:#202020;}</style></defs><title>book</title><g id="mr_holmes" data-name="mr holmes"><rect class="cls-1" x="1" y="0.01" width="601" height="378.7"/><rect class="cls-2" x="303" y="0.04" width="299" height="378.7"/><text class="cls-3" transform="translate(349.15 193.46) scale(0.99 1)">Set<tspan class="cls-4" x="17.69" y="0"> </tspan><tspan x="24.17" y="0">in</tspan><tspan class="cls-5" x="34.59" y="0"> </tspan><tspan x="41.06" y="0">1</tspan><tspan class="cls-6" x="44.21" y="0">9</tspan><tspan class="cls-7" x="50.27" y="0">4</tspan><tspan x="57.18" y="0">7,</tspan><tspan class="cls-4" x="66.63" y="0"> </tspan><tspan class="cls-6" x="73.11" y="0">f</tspan><tspan x="77.71" y="0">o</tspan><tspan class="cls-8" x="84.98" y="0">ll</tspan><tspan class="cls-9" x="92.74" y="0">o</tspan><tspan x="99.89" y="0">wing</tspan><tspan class="cls-4" x="126.06" y="0"> </tspan><tspan x="132.54" y="0">a</tspan><tspan class="cls-4" x="138.48" y="0"> </tspan><tspan class="cls-8" x="144.95" y="0">l</tspan><tspan x="148.83" y="0">ong-retired </tspan><tspan x="0" y="14.54">and</tspan><tspan class="cls-10" x="20.48" y="14.54"> </tspan><tspan x="25.07" y="14.54">near</tspan><tspan class="cls-10" x="49.91" y="14.54"> </tspan><tspan x="54.5" y="14.54">the</tspan><tspan class="cls-10" x="73.28" y="14.54"> </tspan><tspan x="77.87" y="14.54">end</tspan><tspan class="cls-10" x="98.96" y="14.54"> </tspan><tspan x="103.55" y="14.54">of</tspan><tspan class="cls-10" x="115.67" y="14.54"> </tspan><tspan x="120.26" y="14.54">his</tspan><tspan class="cls-10" x="136.37" y="14.54"> </tspan><tspan x="140.96" y="14.54">life</tspan><tspan class="cls-10" x="159.63" y="14.54"> </tspan><tspan x="164.22" y="14.54">Sher</tspan><tspan class="cls-6" x="189.3" y="14.54">l</tspan><tspan x="193.18" y="14.54">ock </tspan><tspan x="0" y="29.08">Holmes. </tspan><tspan x="0" y="58.17">The</tspan><tspan class="cls-11" x="21.33" y="58.17"> </tspan><tspan x="23.88" y="58.17">detective</tspan><tspan class="cls-12" x="76.11" y="58.17" xml:space="preserve">  </tspan><tspan x="81.2" y="58.17">g</tspan><tspan class="cls-7" x="87.26" y="58.17">r</tspan><tspan x="91.86" y="58.17">apples</tspan><tspan class="cls-11" x="128.7" y="58.17"> </tspan><tspan x="131.25" y="58.17">with</tspan><tspan class="cls-12" x="156.34" y="58.17"> </tspan><tspan x="158.88" y="58.17">an</tspan><tspan class="cls-11" x="172.09" y="58.17"> </tspan><tspan x="174.64" y="58.17">unreli</tspan><tspan x="208.09" y="58.17">-</tspan><tspan x="0" y="72.71">able</tspan><tspan class="cls-13" x="23.87" y="72.71"> </tspan><tspan x="30.48" y="72.71">memory</tspan><tspan class="cls-13" x="78.11" y="72.71"> </tspan><tspan x="84.71" y="72.71">and</tspan><tspan class="cls-13" x="105.19" y="72.71"> </tspan><tspan x="111.8" y="72.71">mu</tspan><tspan class="cls-6" x="130.1" y="72.71">s</tspan><tspan x="135.55" y="72.71">t</tspan><tspan class="cls-13" x="140.52" y="72.71"> </tspan><tspan x="147.13" y="72.71">re</tspan><tspan class="cls-7" x="158.76" y="72.71">l</tspan><tspan x="162.4" y="72.71">y</tspan><tspan class="cls-13" x="169.06" y="72.71"> </tspan><tspan x="175.67" y="72.71">on</tspan><tspan class="cls-13" x="190.21" y="72.71"> </tspan><tspan x="196.82" y="72.71">his </tspan><tspan x="0" y="87.25">housekeeper&apos;s</tspan><tspan class="cls-14" x="81.19" y="87.25"> </tspan><tspan x="86.58" y="87.25">son</tspan><tspan class="cls-14" x="106.81" y="87.25"> </tspan><tspan x="112.2" y="87.25">as</tspan><tspan class="cls-14" x="123.83" y="87.25"> </tspan><tspan x="129.21" y="87.25">he</tspan><tspan class="cls-15" x="143.03" y="87.25"> </tspan><tspan x="148.41" y="87.25">revisits</tspan><tspan class="cls-14" x="188.76" y="87.25"> </tspan><tspan x="194.15" y="87.25">the </tspan><tspan class="cls-6" x="0" y="101.79">s</tspan><tspan x="5.45" y="101.79">ti</tspan><tspan class="cls-8" x="13.57" y="101.79">l</tspan><tspan x="17.45" y="101.79">l-unso</tspan><tspan class="cls-16" x="53.93" y="101.79">l</tspan><tspan x="57.32" y="101.79">ved</tspan><tspan class="cls-17" x="77.19" y="101.79"> </tspan><tspan x="85.65" y="101.79">case</tspan><tspan class="cls-17" x="110.01" y="101.79"> </tspan><tspan x="118.47" y="101.79">th</tspan><tspan class="cls-6" x="130.71" y="101.79">a</tspan><tspan x="136.41" y="101.79">t</tspan><tspan class="cls-18" x="141.38" y="101.79"> </tspan><tspan x="149.84" y="101.79">led</tspan><tspan class="cls-17" x="167.77" y="101.79"> </tspan><tspan class="cls-9" x="176.24" y="101.79">t</tspan><tspan x="181.08" y="101.79">o</tspan><tspan class="cls-17" x="188.35" y="101.79"> </tspan><tspan x="196.82" y="101.79">his </tspan><tspan x="0" y="116.34">retireme</tspan><tspan class="cls-6" x="48.96" y="116.34">n</tspan><tspan x="55.99" y="116.34">t.</tspan></text><text class="cls-19" transform="translate(349.15 106.52) scale(0.99 1)">2015<tspan class="cls-20" x="22.78" y="0"> </tspan><tspan class="cls-21" x="25.93" y="0">|</tspan><tspan class="cls-22" x="29.52" y="0"> </tspan><tspan x="33.46" y="0">Di</tspan><tspan class="cls-23" x="45.22" y="0">r</tspan><tspan x="48.97" y="0">. Bi</tspan><tspan class="cls-6" x="65.58" y="0">l</tspan><tspan x="69.7" y="0" xml:space="preserve">l Condon  </tspan><tspan x="0" y="18.18">Sher</tspan><tspan class="cls-6" x="25.69" y="18.18">l</tspan><tspan x="29.81" y="18.18">ock: Ian McKe</tspan><tspan class="cls-8" x="107.85" y="18.18">l</tspan><tspan class="cls-24" x="111.97" y="18.18">len</tspan><tspan class="cls-25" x="0" y="36.36">W</tspan><tspan class="cls-6" x="12.12" y="36.36">a</tspan><tspan x="18.06" y="36.36">tson: Colin </tspan><tspan class="cls-6" x="84.34" y="36.36">S</tspan><tspan x="90.65" y="36.36">tarkey </tspan></text><text class="cls-26" transform="translate(348.5 60.55) scale(0.99 1)">Mr Holmes</text><path class="cls-27" d="M301.33,379.7c.09.2.29.09.25-.46l-.33-.39Z"/><path class="cls-27" d="M302,376c-.16-.65-.44-1.39-.75-1,.32.64.19.8.57,1.49,0,.55-.11,1-.23.86.08.2-.08.86.13,1.15a4.67,4.67,0,0,0,.06-2.56C301.8,375.76,301.89,376,302,376Z"/><path class="cls-27" d="M302.46,322.3l0,.35A1.25,1.25,0,0,0,302.46,322.3Z"/><path class="cls-27" d="M302.65,289c0,.25,0,.36.07.37C302.69,289.16,302.67,289,302.65,289Z"/><path class="cls-27" d="M303,283.35c0,.12,0,.22,0,.33A.78.78,0,0,0,303,283.35Z"/><path class="cls-27" d="M302.46,322.3l.11-.89C302.46,321.35,302.49,321.87,302.46,322.3Z"/><path class="cls-27" d="M301.15,368.6a2.75,2.75,0,0,0,.09.48c0-.15,0-.3,0-.45Z"/><path class="cls-27" d="M302.73,337v.27a1.64,1.64,0,0,0,.14.22Z"/><path class="cls-27" d="M302.78,348.23c0-.26-.27-.35-.39-.44a1,1,0,0,1,.19.55C302.64,348.35,302.7,348.31,302.78,348.23Z"/><path class="cls-27" d="M302.29,366.08l0,.31A2.91,2.91,0,0,1,302.29,366.08Z"/><path class="cls-27" d="M302.79,328.91a.24.24,0,0,0,.1-.1S302.82,328.85,302.79,328.91Z"/><path class="cls-27" d="M300.68,14.05h.05C300.7,14,300.68,14,300.68,14.05Z"/><path class="cls-27" d="M302.07,1l0,.18a.42.42,0,0,0,.16,0Z"/><path class="cls-27" d="M303.37,273s0,0,0,0C303.4,273.27,303.39,273.11,303.37,273Z"/><path class="cls-27" d="M303.16,177.5c-.25,1.08-.32-1.76-.6-.13C302.67,177.22,303,178.85,303.16,177.5Z"/><path class="cls-27" d="M301.19,368.31c0-.15,0-.31,0-.46A3.1,3.1,0,0,0,301.19,368.31Z"/><path class="cls-27" d="M302.56,177.37h0l0,.17C302.54,177.47,302.55,177.43,302.56,177.37Z"/><path class="cls-27" d="M303.2,249a.65.65,0,0,0-.12.25S303.14,249.17,303.2,249Z"/><path class="cls-27" d="M302.8,266.84l0-.44A2.47,2.47,0,0,0,302.8,266.84Z"/><path class="cls-27" d="M302.8,239.73a2.21,2.21,0,0,0,0-.65.3.3,0,0,0,0,.1A1,1,0,0,1,302.8,239.73Z"/><path class="cls-27" d="M302.8,230.08s0,.12-.05.18,0,.21,0,.3Z"/><path class="cls-27" d="M300.82,43.36a1.18,1.18,0,0,1,.25-.44C300.87,43.06,300.8,41.65,300.82,43.36Z"/><path class="cls-27" d="M301.31,368.6a.38.38,0,0,1-.12-.29c0,.11,0,.22,0,.32S301.28,368.66,301.31,368.6Z"/><path class="cls-27" d="M300.59,239.33l0-1.53C300.6,238.23,300.59,238.79,300.59,239.33Z"/><path class="cls-27" d="M300.86,112.55l0-.35A.91.91,0,0,0,300.86,112.55Z"/><path class="cls-27" d="M300.59,233.25a4,4,0,0,0,.19-.86.75.75,0,0,0-.07-.18Z"/><path class="cls-27" d="M301.07,42.91h0Z"/><path class="cls-27" d="M300.4,32.82c0,1.46.37.68.58,1,.1,1.75-.27.81-.46,1.4.09,1.09.43,1.93.42,2.74-.06.06-.08.22-.16,0,.29,1.15,0,3.42.38,4.76a.31.31,0,0,1-.09.17c.19-.21.37-.25.51-.2,0,.65.23,1.21,0,1.46a.93.93,0,0,0-.17-.62l.11.68c-.35.62-.12-.94-.38-.94a26.39,26.39,0,0,1,.3,3.93c-.34.21-.11-2.4-.41-1l.13-1.59c-.54,1.21,0-1-.54.15-.1,2.09.18,2.34.08,4.42.18.47.28-.16.46.31.34,3-.85,2.33-.4,4.5a2.89,2.89,0,0,1,.43,2.33l-.38-.52c0,2,.55,1.15.29,3.27-.15-.38-.13-1.59-.17-1.29-.31,1.37.22,1,.22,2l-.34.22c.05,2.15.29,4.52.36,6.9-.1-.13-.21-.54-.31,0a77.67,77.67,0,0,1-.25,9.31l.3,1.11c0,.25-.14.47-.19.19-.12,1.13.18.06.3.61s-.17.84-.26.44a35.26,35.26,0,0,1,.22,7.77l-.08-.4c-.12,1.63.6,1.84.32,3.36l0-.29c-.13,3.55.14,7.47-.3,10.18.42.51-.19,3.51.4,3.74a28.9,28.9,0,0,0-.59,4.3c0,.76.36,1.13.43,2.08l-.31,0,.32,1.28-.37.68.08.88c0-.35.14-.75.23-.69a8.36,8.36,0,0,1-.37,3.4l.26,3.26c-.13-.07-.17-.61-.25-1,.32,1.75-.32.32,0,1.92.07-.22.18.11.24.15a18.14,18.14,0,0,0-.11,4l-.21-.26c-.05,2.43.1,5.11.1,7.83.1-1,.46-.75.5,0l-.33.31c.21.52.13-.83.37.23,0,1-.37.68-.47.1l.11,1.23c-.1.08-.15-.21-.27-.29.2.51-.33,2.13,0,2.86l-.09.07c0,2.72.1,3.95.12,6.17.28,0,.22.91.45,1.57-.09,1.63-.31,3.43-.29,5.39.14,1.38.24.4.41,1-.26.11-.24,2.06-.42,1.05,0,2.35,0,3,.26,6,.1-.32.15-.69.24-.5,0,.54-.11,1.23-.23,1.15l0-.14c.38,3.34-.75,7.71-.21,10.37l0-.15.28,2.76c-.05,1.27-.19-.76-.35.18.42,3-.06,4.7.22,7.15-.76,1.9.05,6.73-.43,9.29l.18-.15c.17.67-.1.8-.14,1.29.13-.07.16-.72.25-.3.22,5.6-.26,11.57-.42,17.31-.05,2.1.92,1.2.5,3.85l-.33-.76c.39,4.25,0,8.68.32,12.83-.08-.25-.18-.26-.17-.66a7.13,7.13,0,0,0,.18,3.26c0,.64-.18.15-.28.55-.14.88.31,2.2.07,2.67,0,.08-.08-.25-.1-.41.12.58,0,2.67.25,2.13-.13,1.55.13,3,0,4.22.31.81-.15,2.67.29,2.93-.45-.12-.36,2.73-.15,3.71-.14-.33-.14.86-.33.47,0,1.13.09,2.16.32,2-.54,2.08.44,4.17-.26,5.33.24,3.34.41,6.44.52,9.44-.46-.11-.05-3.32-.52-3.19a62.28,62.28,0,0,1,.46,7.32c-.06.73-.19-.41-.27-.66.18,2.85,0,5.5.2,8a1.44,1.44,0,0,1-.12-.54c0,.5-.07,1.16.14,1.11l-.06-.49c.3-.8.63,2,.78,2.07-.59-.85-.15,2.5-.89,1.16,0,.33.14.74.28.66,0,.49-.12.65-.28.15a25.83,25.83,0,0,1,.32,2.78c-.1,0-.13-.34-.25-.5a9.07,9.07,0,0,1,.3,3c-.06-.08-.13.08-.13-.33,0,2.35.51,4,.33,6.59-.44-.76-.15.88-.52,1l.11,1.39.18-.56a33.16,33.16,0,0,1,.15,3.34l-.16-.91.07,2.28.14-1.29c.2,1.23.48-.13.37,1.49a15,15,0,0,1-.22,1.85h0a6.47,6.47,0,0,1,.15,2.11c-.12.24-.41-.18-.49,0,.31.59.08,2.84.42,3.6-.08-.25-.28-.27-.32-.18l.25.49c-.08.57-.12.65-.27.56-.05,1.69.47-.54.27,1.47,0-.16-.06-.08-.1-.41-.11,2,.16,3.9,0,5.75-.38.55-.1-1.62-.41-1,.07,2.67.45,5.54.36,8.13l0-.48c.53.35-.26,1.92,0,3.23,0-.32-.3-.42-.24-.33-.08,1.77.13,3.62.3,6.31l-.14-.33c-.12,1-.07,2.75-.13,3.88.14.33.12,1,.31.58-.77,3.48.42,6.64-.23,9.73,0-.37-.11-.88-.12-.59l.13,2.63c.23-.21.14-.34.32-.9A5.56,5.56,0,0,1,302,338c-.15-1.18-.37,0-.5.52.07-.08.15.09.22.05-.41,1.37.47.23.19,2.1l-.12-.09a15.61,15.61,0,0,1,.19,2.1c-.27.31-.13-.75-.35-.79,0,1.06.51,2.09.24,3.06-.07-.46-.07-1.11-.15-1.56a5.87,5.87,0,0,0-.28,1.95v-.08l-.14,1.8.08-.45c.7,1.33.13,2.71.58,4.5-.43-1.74-.25-.29-.55-.42-.08.45-.18,1.15-.26.95.24.85-.19,1.42.16,2.61-.09,0,0,.91-.25.72.07,1.1.17-.26.29-.17.33,1.7-.4,4,.05,6.43.19,2.11.52,2.5.68,4.45-.15.66-.35-.54-.35-.54a11,11,0,0,0,0,2.87c-.08-.21-.15,0-.26.31,0,.8.35.54.21,1.6a2.9,2.9,0,0,1-.39-.81c.09.95.27,1.89.36,2.87-.17.26-.26-.59-.37-.94a11.41,11.41,0,0,0,.42,3.2l.1-.71c0,.4-.23.21-.28-.09-.21-.94.09-1.36.19-1.41l.06.69c.57-.71-.09-2.8-.06-4.21l.42.59-.35-1.45c.11-.3.34-.51.4.18.21-1-.14-.89.09-1.76,0-.09,0-.05.07,0l-.13-1c.09.2.3-.16.24.44.24-1.77-.31-2.85,0-3.52l0,.15c-.14-2.45-.31-.23-.67-2.08l.76-1.24-.31-.24c0-.25,0-.75.16-.66-.21-.94-.14.16-.33-.38.27-1.22-.13-3.37.35-3.64-.23-.44-.18,1.17-.34-.14.53-.37-.09-1.5.15-2.61.27.34.13,1.39.37.28-.46-.67.1-2.17,0-3.11-.36,0-.15-2-.27-3.62.12.1.2-3,.33-4.43l.06,0c-.36-.29-.29-1.8-.37-2.9.22,0,.31.24.4.84v-1a3.26,3.26,0,0,1-.22-1.24l.28.26a31,31,0,0,1-.14-4.55c-.26-.1-.72,1.41-.89-.46.14-.07.38-.14.43.35a3.36,3.36,0,0,1-.05-.9l.23.75c.1-.8-.19-.42-.17-1.06.19,0,.14-.48.29-.39a3.64,3.64,0,0,0,0,.81,6.81,6.81,0,0,1,.3-1.9c-.11.07-.26,0-.29-.53,0-1.38.24-.47.34-1.28-.14-.33,0-1.21-.29-1.23a.92.92,0,0,1,.22-.63c-.13-.72,0-3.34-.35-2.53l0,.18s0-.07,0-.12h0c-.29-2.33.17-4.85.05-7.17h.09a40.47,40.47,0,0,0-.28-4.07c0-.41.19-1,.3-.79a10.28,10.28,0,0,1,0-2.7c.17,1.06.15-.37.13,1.09a9.66,9.66,0,0,0,0-3.17c.25.51.32-1,.24-1.68l-.18,1c0-.74,0-1.38,0-2l.33.35c.41-2.81-.69-5.07,0-7.21-.23-.75-.16,1.52-.44.86a29.58,29.58,0,0,1,.53-3c.18-1.77-.49-1.65-.36-3.51-.12.24-.44.46-.55-.92,0-1.3.5-1.6.59-.78,0,.31,0,.46-.06.45,0,.42.09,1,.22.45l-.12-.16c.12-.65.11-2.43.3-2-.11-1-.19-.42-.25.31.17-1.67,0-2.6.12-4.31-.07.27-.21.52-.21.25.15-2.51-.22-1.1-.27-2.8.18-1,.43.34.28-1.37.12-1,.31-.22.41.2a15.71,15.71,0,0,1,.19-3.8l.1.82a10.17,10.17,0,0,1-.06-1.31l-.24.47c.05-.48.05-.89.15-.88-.16-.5-.4.38-.61-.6.12-.65-.13-2,.18-2.18-.1,2,.32-.23.37,1.48a6.16,6.16,0,0,1,0-1.21c0-.07.06.07.08.2.28-1.94-.36-.89-.35-2.89.18.25.34-.47.3-.8,0,.81-.3.39-.43-.35a8.71,8.71,0,0,0-.09-2.07l-.06.77a5.11,5.11,0,0,1-.21-1.8c.13-.08.09.81.15.49-.31-1,.33-2.25.11-3.63.13-.65.34-.06.42-.63-.23-1.55.24-1.68.05-3.32-.24.47-.18.56-.41-.59l.17,2.68-.35-1.72c0,.81.15,1.71.11,2.19-.19-.82-.13-.73-.33-.34.36-1.11-.21-2.2,0-3.49l.59,0c.26-1.92-.3-3.42-.15-5.92l-.11.8c-.23-.34,0-1.55-.12-2.36.19.08.27-.43.39-.77-.15,0,0-1.84-.38-2.06l.26-1.12c.1-2-.57-2.31-.5-4.25.22.58.36-.3.51,1,0-.65,0-1.23-.1-1.24.12-.38-.26-1.8-.08-2.39a2,2,0,0,1-.27-1.1c0-.08.09,0,.09,0s-.13-1.14-.35-.51c.62-2,0-5.58.49-7.32-.07-1.42-.13-3.12-.15-4.41.06.08.1,0,.08.25.18-1.77-.57-1.09-.36-3.11.32-1,.17,1.07.29.43.65-.28-.09-2.43.29-3.79l0,.33c.22-1-.25-2.54-.2-4.23,0,0,.06.08.1,0a29,29,0,0,1-.53-5c.25.51.13.74.39.43,0-.73-.42.22-.49-1.24.14-.48.26-1.53.54-1.67v1.38c.36-.71,0-1.78.05-2.51l.16.09c-.05-2.11-.44-2.14-.42-4.4l-.11.23c-.39-1.24.21-1-.08-2.27l.4-.38c-.1-.82-.38-2.86-.46-4.33a26.75,26.75,0,0,1,.62,3.61,15.62,15.62,0,0,0-.22-3.18,4.24,4.24,0,0,1,.07,1.06,13.49,13.49,0,0,1-.46-3.91c.77.28.2-4.21.79-5.38-.28-2.86.12-5.67.08-9-.6,1.18,0-1-.63-.77a4,4,0,0,1,0-1.14l.36-2.35c.18-.56.14.74.28.67,0-1.7.26-.71.42-1.84-.22.23-.32-.59-.23-1.56l-.28,1.37c-.33-2.38.51-2,.19-4.44l.19.75c-.11-1.23,0-4.52-.49-5.73.07-.21.24-.5.28,0,.08-2.93-.52-6.53-.22-8.81l.15.22a4.47,4.47,0,0,1-.13-1.63c.06,0,.15.22.16,0a9,9,0,0,1-.17-2.17l.16.62c.2-2.87-.41-4.39-.51-6.79.44,0,.59-2.25.66-3.37l.06,0c.05-3.33-.37-5.66-.54-8.74.48-1.92.2-6.49.47-9.57-.08.47-.34-.07-.39-.62.09-.72-.3-2,.1-1.88v.26c.4-.55.29-2,.3-3.19l-.52-.19c.76-3-.29-7.94.4-9.6-.13-.73-.13-1.64-.26-2.36l.28,0c.07-2,.11-3,0-5.54l.21.51c0-1.42-.82-1.79-.84-3.09l.42-.39c0-2.47.37-5,0-7.4.06,0,.18.11.2.51,0-1.16.28-4.49-.3-4.06.38,0,0-2.55-.13-3.88l.28.21a7.72,7.72,0,0,1-.55-2.73c0-.37.22-.33.15.17.15-1.24-.26-1-.11-2.47l.17.56a3.61,3.61,0,0,0-.28-1.87,5.14,5.14,0,0,1,.33-2.61,2.66,2.66,0,0,1-.29-1.62c.09-.1.15.17.18.31.19-2.13-.32-3.17-.05-4.64.09,0,.14-.12.17-.25,0,1.7,0,3.06,0,2.93.25,0,.3-1.36.65-.28a18.69,18.69,0,0,1-.49-4.31.56.56,0,0,1,.09-.17l0,.14a3.33,3.33,0,0,0-.05-.85,8.26,8.26,0,0,0,.08-1.1c.21-.16.12-1.57.13-2.25-.28.05-.24-.84-.47,0,0-.11,0,.13,0,.58,0,.1,0,.22,0,.29a.08.08,0,0,0,0,0c0,.44,0,1,0,1.69a3.63,3.63,0,0,1-.11-1.86,10.48,10.48,0,0,1-.45-1c.39-.93.6-2.73.84-3-.15-2.08-.1-4.91-.63-6.22a1.14,1.14,0,0,1,.24-.9,5.76,5.76,0,0,0,.12.93c-.14-1.18-.06-3.5-.43-3.79.17-1.49.34.84.28-1.21l.12.28c.59-4-.95-6.56-.19-11a1.19,1.19,0,0,1-.13.53c.34-5.1-.31-10.51.22-15.54a5.81,5.81,0,0,0-.31-2.46l.3-.31-.35-1.49c-.25-2.12.74-3.67.26-6.34l-.2.34c0-1-.12-3,.11-2.89a.86.86,0,0,1-.1-.69l.16,0-.28-2.36c.12-1.83.63.29.66-2.39-.06-1-.46-2.83-.56-2.45s-.1,1-.26,1l-.08-.91c-.47-.16-.94-.86-1.27,1.37l.28,1.55-.22.5,0-1.3A2.92,2.92,0,0,0,301,5a1.2,1.2,0,0,0-.25.65l.45,1.52c-.19.19-.37-.68-.47.34.21.72.41-.68.55.5-.21.75-.39.53-.21,1.4-.12.12-.19-.06-.25-.41a14.82,14.82,0,0,0,.31,2.46c-.26.78.07,2.62-.37,2.55a8.14,8.14,0,0,1,.36,2.08c-.52-1.3,0,2.67-.59,2.33.47,1,.21,3.48.47,5.19a.91.91,0,0,1-.09-.43,11.79,11.79,0,0,1-.27,1.86c.39.12.48,1.62.72,2.43-.37,1.18-.46-.72-.82-.35.32-.06.32,2.05.58,1.65-.23.9-.11.78-.44,1.24.49.16.09.84.39,1.59-.24,1.31-.46.34-.31,1.77C300.58,34.09,300.4,32.82,300.4,32.82Zm.85,34.1h0c0-.29,0-.54,0-.7C301.23,66.37,301.24,66.57,301.25,66.92Zm0,2.87c0-.35,0-.78,0-1.24.09-.11.19,0,.19.29C301.39,68.69,301.34,69.36,301.26,69.79Zm1.94-6.06c0,.45,0,.6-.07.66,0-.21,0-.46,0-.79l0-.05A.33.33,0,0,1,303.2,63.73Z"/><path class="cls-27" d="M302.83,62.91a1.76,1.76,0,0,0,0-.19c0,.1,0,.18-.06.27l.09.17A2,2,0,0,0,302.83,62.91Z"/><path class="cls-27" d="M302.42,322.71v-.06a.34.34,0,0,1,0,.12Z"/><polygon class="cls-27" points="300.72 109.36 300.79 109.36 300.73 109.11 300.72 109.36"/><path class="cls-27" d="M301.45,338.49a.53.53,0,0,0-.07.21A.47.47,0,0,0,301.45,338.49Z"/><path class="cls-27" d="M301.39,345.31l-.1,1C301.35,345.86,301.37,345.55,301.39,345.31Z"/><path class="cls-27" d="M301.25,350.55a.36.36,0,0,0,.12.11h0Z"/><path class="cls-27" d="M300.92,267.2a1.27,1.27,0,0,0,0-.2C300.85,266.52,300.87,266.85,300.92,267.2Z"/><path class="cls-27" d="M301.58,292c-.05-.27-.1-.53-.14-.8C301.42,291.65,301.42,292,301.58,292Z"/><path class="cls-27" d="M300.58,239.5h0v0Z"/><path class="cls-27" d="M301.45,290.05a5,5,0,0,0,0,1.16A7.48,7.48,0,0,0,301.45,290.05Z"/><path class="cls-27" d="M301.12,373.28v.25s0,0,.05,0Z"/><path class="cls-27" d="M301.16,373.56l0,.28A.64.64,0,0,0,301.16,373.56Z"/><path class="cls-27" d="M301.26,374.43l-.07-.59A1.37,1.37,0,0,0,301.26,374.43Z"/><path class="cls-27" d="M301.25,366.34l-.1-.08A.16.16,0,0,0,301.25,366.34Z"/><path class="cls-27" d="M301.22,364.23a13.5,13.5,0,0,0-.15,2l.08.07C301,365.93,301.4,364.7,301.22,364.23Z"/><path class="cls-27" d="M302.48,355.42l-.08,1.77c.11-.31.26-.71.28.09C303,355.05,302.44,357.74,302.48,355.42Z"/><path class="cls-27" d="M302.64,349.94c.05.95.16,0,.22,0C302.76,349.38,302.74,349.23,302.64,349.94Z"/><path class="cls-27" d="M302.64,310.34l.26.1C302.86,309.71,302.8,310.43,302.64,310.34Z"/><polygon class="cls-27" points="301.32 302.77 301.16 303.49 301.4 303.83 301.32 302.77"/><polygon class="cls-27" points="303.14 298.3 303.18 298.62 303.09 297.4 303.14 298.3"/><path class="cls-27" d="M303.05,231.8l-.31.22C302.79,232.51,303.15,232.62,303.05,231.8Z"/><path class="cls-27" d="M302.73,203.08a2.67,2.67,0,0,0,.1-1.61C302.81,202.11,302.69,202.76,302.73,203.08Z"/><polygon class="cls-27" points="303.24 116.98 303.35 117.56 303.26 116.47 303.24 116.98"/><polygon class="cls-28" points="117.07 378.99 148.6 378.99 149.07 356.73 164.66 357.55 165.19 378.99 198.39 378.99 196.73 350.77 112.09 344.13 117.07 378.99"/><polygon class="cls-29" points="143.62 91.87 145.28 62 186.77 68.64 181.79 95.19 191.75 95.19 183.45 105.15 140.3 100.17 135.32 88.55 143.62 91.87"/><polygon class="cls-30" points="211.66 246.22 196.73 256.18 193.41 234.6 200.05 234.6 211.66 246.22"/><polygon class="cls-31" points="143.62 138.34 161.81 146.09 171.83 143.32 165.19 184.81 143.62 138.34"/><polygon class="cls-32" points="161.88 151.62 158.56 167.43 163.53 183.15 170.17 154.94 165.19 151.62 168.31 146.22 166.85 143.32 160.22 144.98 161.88 151.62"/><path class="cls-29" d="M248.18,203.07l-49.79-49.79-26.56-16.6-8.29,43.15L143.62,131.7l-39.83,19.92L59,284.39l23.23,5,31.54-81.32L95.49,355.75l107.88,3.32-3-124.15,11.3,11.3Zm-48.62-1.19,13.76,2.85-13.18,21.09Z"/><polygon class="cls-33" points="141.96 105.15 138.64 106.81 143.62 123.41 145.28 123.41 146.94 130.04 161.09 143.92 167.9 144.72 176.81 125.06 178.47 125.06 186.77 108.47 178.47 108.47 176.81 98.51 145.28 96.85 141.96 105.15"/><polygon class="cls-34" points="145.28 128.38 161.88 143.32 165.19 143.32 171.02 136.03 171.83 135.02 169.75 148.37 166.85 144.98 161.88 144.98 159.51 147.94 155.24 153.28 143.59 133.33 145.28 128.38"/><path class="cls-35" d="M173.82,98s-.33,15.42,11.29,10.44l-5-10Z"/><path class="cls-35" d="M153.58,96.85s-3.32,13.28-14.94,8.3l5.3-8.3Z"/><path class="cls-36" d="M158.35,107.07s.09-.11.06-.1l-.11.12Z"/><path class="cls-36" d="M158.45,106.76a1.13,1.13,0,0,0-.26.27c.11-.11.08,0,.21-.19s0,.06-.05.11,0,0,.07,0,.05-.14,0-.07A.16.16,0,0,1,158.45,106.76Z"/><path class="cls-36" d="M157.21,105.52v0Z"/><path class="cls-36" d="M156.33,104.88l0,0Z"/><path class="cls-36" d="M156.26,104.63h0S156.27,104.62,156.26,104.63Z"/><path class="cls-36" d="M157.21,105.52v0S157.2,105.51,157.21,105.52Z"/><path class="cls-36" d="M158,106.93l0,0h0Z"/><path class="cls-36" d="M157.67,105.7h0l.05,0Z"/><path class="cls-36" d="M158,105.89s-.09.11-.13.15l.07-.06Z"/><path class="cls-36" d="M158.29,106.44h0Z"/><path class="cls-36" d="M157.47,105.52l0,0Z"/><path class="cls-36" d="M149.35,106.66h0Z"/><polygon class="cls-36" points="148.56 106.8 148.56 106.79 148.48 106.77 148.56 106.8"/><path class="cls-36" d="M156.05,104.29h0S156.06,104.29,156.05,104.29Z"/><path class="cls-36" d="M152.92,103.33c0,.13-.08.15,0,.3C152.88,103.58,153,103.42,152.92,103.33Z"/><path class="cls-36" d="M158,106.91h0S158,106.92,158,106.91Z"/><polygon class="cls-36" points="152.88 103.63 152.88 103.63 152.88 103.65 152.88 103.63"/><path class="cls-36" d="M155.28,104l0,.06S155.27,104.05,155.28,104Z"/><path class="cls-36" d="M155.73,104.46v0Z"/><path class="cls-36" d="M154.92,104.07s0,0,0,0v0S154.92,104.05,154.92,104.07Z"/><polygon class="cls-36" points="154.63 103.95 154.62 103.97 154.63 103.97 154.63 103.95"/><path class="cls-36" d="M149.66,105.91l-.11-.06C149.64,105.9,149.65,106,149.66,105.91Z"/><path class="cls-36" d="M158.06,106.87s0,0-.05,0h0Z"/><path class="cls-36" d="M154.48,105.09l0,0S154.47,105.08,154.48,105.09Z"/><path class="cls-36" d="M151,104.69v0A0,0,0,0,0,151,104.69Z"/><path class="cls-36" d="M154.32,105a.46.46,0,0,0,0-.1l0,0Z"/><path class="cls-36" d="M149.55,105.85Z"/><path class="cls-36" d="M149.69,106.26s-.15-.11-.24-.17.13,0,.22.09-.16-.16-.14-.18l.07,0c-.11-.1,0-.08-.09-.21l0,0-.22-.13s-.07-.1,0,0,0,0,.06.06l0,0c.15.08,0,0,.14.12s-.12-.18-.06-.18,0,.09.15.14h-.08c.25.11,0,0,.23.14.07,0,0-.11,0-.12l-.19-.14c-.08-.17.39.2.24,0s-.24-.22-.13-.19l.14.14s-.19-.2-.05-.17,0,.08,0,.08-.07-.09-.05-.11l.14.1c0-.06,0-.19,0-.26a.38.38,0,0,0,.11.11c0-.12.15-.11.27-.09l-.08-.13.07.07c.05,0-.06-.07-.09-.13s.07,0,.09.09c-.05-.13-.05-.31.1-.21v0c.07,0-.13-.27,0-.19v0c.12,0,.14-.18.31,0-.09-.19.13,0,0-.22.13.11.14.16.25.22s-.06-.18,0-.22l.06.14,0-.16.09.16v0l-.06-.1c0-.08.13.06.15.13l0-.15a.26.26,0,0,1,0,.12c0-.16.07.15,0,0s0-.09,0-.12.09.06.12,0l0,.1c.07,0,.12-.07.19-.09a.39.39,0,0,1-.06-.24l0,.16c0-.1,0-.06,0-.18s.06.17.06.23v-.07a.58.58,0,0,1,0,.14c0-.1.08.15.07,0v.05c.07,0,.09-.08.14-.1s0-.12,0-.23c.05,0,.12.15.17.13s0-.11,0-.2c0,.13.07.12,0,.21s.08,0,.16-.13,0-.08,0-.12,0,.05,0,.11h0c.1-.19.21.37.29.1h0a.57.57,0,0,1,.08-.13s0,.09,0,.18c.1-.2.12,0,.21-.08,0,.38.19,0,.23.25v-.09c0-.08,0,.05,0,.08s0-.09,0-.13c.18-.08.3.17.43.31s.15-.44.17-.21l-.06.15c.17-.15.23.09.4,0,0,0,0,.09,0,.08s.08,0,.12-.06,0,.09,0,.14.11-.13.08,0,0,0,0,0,.06,0,.1-.1c0,.08.1,0,.11.06.08-.13,0,.1.13-.1-.08.21,0,.21.08.12s0,.08,0,.16.07,0,.11-.12c0,.27.2-.15.1.19a1.08,1.08,0,0,1,.36-.12c-.1.21-.1,0-.19.2.11,0,.24-.2.3-.12s-.06.09-.08.12.14.09.27,0l-.05,0s0,0,.07,0l0,0c.05-.15.2-.25.24-.32-.16.25,0,.1-.18.41a.27.27,0,0,0,.09-.11.21.21,0,0,1-.06.12c.07,0,.11-.13.15-.1l-.08.1c.07-.07.14-.14.16-.08s0,.06,0,0,.24-.16.26,0,0,.08-.1.25l.07,0,0-.09s.12-.08.12,0l-.06.06H156v-.08c.08-.06.11-.21.13-.13s0,0,0,.12h0c.05,0,.1-.08.1,0s-.11.18-.13.21.1,0,.21-.12c0,0-.08.12-.09.13l.08-.1a.22.22,0,0,1-.06.13s.11-.21.11-.09l0,0c0,.07.14,0,.16.07s-.07,0-.13.16.26-.1.31,0v0c.15-.22,0,.14.08,0l-.07.1c0,.06.13,0,.25,0l-.05.05c0,.06.06.08.07.12s.05,0,.1-.12c-.13.39.29,0,.18.28,0,0-.06,0,0,0h.1c.07-.1,0-.07.07-.15s.1-.08.12-.07-.11.16-.13.22l.06-.09c-.08.19.14-.19.11,0l0,0s.1-.07.11,0-.05,0-.12.13.2-.17.15,0l-.08,0c-.07.15,0,.12,0,.15h0v0c.24-.26.11,0,.29-.15-.18.14-.08.09-.18.21a.26.26,0,0,1-.05.12c.09-.08,0,.11.11,0,0,0,0,0-.05.11s0-.07.08-.12,0,.24.18.1.22-.16.32-.19a.35.35,0,0,1-.12.14c0,.07,0,.08.07,0a.52.52,0,0,0-.08.11s.13-.13.11,0l-.14.14.18-.09a.43.43,0,0,1-.14.13.32.32,0,0,0,.22-.11v0a.39.39,0,0,1-.09.11c-.09.07,0-.06,0-.1h0c.16-.24-.1,0-.13-.06l.15-.15-.15.11s.09-.15.13-.16-.07,0,0-.07l0,0-.06,0s.09-.12.08-.09c0-.13-.17.07-.09-.07h0c-.1,0-.09.11-.25.22l.19-.32-.09.11s0,0,0-.07,0,0-.11.12c.05-.13-.13,0,0-.21-.08.09,0,.1-.11.13.15-.21-.06,0,0-.11s.08,0,.12-.14c-.15.17,0-.08-.08-.06s-.1,0-.17,0,0-.14,0-.22l0,0c-.12.15-.14.09-.19.1a.7.7,0,0,1,.14-.15l0,0a.17.17,0,0,1-.09.07l.08-.11s-.16.08-.16,0c-.07.1-.16.32-.26.36a1.06,1.06,0,0,1,.13-.18s0,0,0,0l.09-.08c0-.06-.07.07-.08.05s0-.07.08-.13,0,0,0,0a.26.26,0,0,1,0-.16s-.07.11-.09.11.05-.11.06-.17,0,0-.11.1,0-.07,0-.11-.1,0-.16.1h0c-.15.08-.09-.16-.19-.14l0,0c-.07,0-.1,0-.19,0s0-.09.06-.13-.08,0-.08,0,0-.07.06,0,0-.13-.09,0c.08-.1,0-.15,0-.13l0,.09s0,0,0,0l.1-.14c0-.22-.33.21-.21-.12-.08.09,0,.1-.09.2s.06-.27.05-.27-.17.18-.19.09-.1.2-.16.22.08-.24.12-.27,0,0,0,0a.14.14,0,0,0,.07-.09l0,0c0-.06,0-.09,0-.17a.11.11,0,0,0,0,.12c0-.1-.07,0-.09-.13s0,.1-.05.1-.08.07-.14.07.11-.18,0-.15a.29.29,0,0,1,.1-.17c-.1.07,0-.12-.06-.15l0,0s0,0,0,0l-.05.11a.1.1,0,0,1,0-.07c-.05.06-.08.18-.16.25s-.09,0,0-.11c0,.07.07-.15.13-.14s0,0,0,0a.05.05,0,0,1,0,0c0-.15-.11.15-.17.11s.07-.15.05-.14-.06.14-.11.19-.07,0-.09,0v0c-.05.07-.06,0-.1.06s.05,0,.05-.06c-.1.13,0-.17-.08-.1s.07-.15.07-.19,0-.14-.09-.08,0,.09-.11.18l.12,0-.13.13s.09,0,.09,0a.25.25,0,0,0-.08.14c.05-.17-.11.06-.1-.06l.13-.27c0-.14-.17.09-.21,0v.06c-.06.1-.05,0-.09,0a.59.59,0,0,0,0-.19c0,.07,0,0-.14.15l0-.14c0-.08-.18.23-.22.17s.06-.17.13-.22,0,0-.06,0-.11.09-.09,0-.07.13-.08.11a.1.1,0,0,1,0,0s-.05,0-.08.15c.06-.31-.17-.06-.13-.32l-.16,0s0,0,0,0-.13.26-.16.14.06-.07.06-.13c.1-.31-.09,0-.07-.18h0c0-.12-.12.09-.16,0a.2.2,0,0,0,0,0,.46.46,0,0,1-.23.21.42.42,0,0,0,.06-.19s-.05.2-.1.22a.94.94,0,0,1,0-.27h0c0-.18-.06,0-.07-.05l0-.08c-.07,0-.12.2-.19.16v.06c-.09.17,0-.12-.08,0l0-.2a1.7,1.7,0,0,1-.19.19,1.13,1.13,0,0,1,.18-.27s-.09,0-.13.08,0-.06.05,0-.13.22-.18.21c.09-.38-.12-.12-.11-.42-.12.13-.19-.09-.31-.08,0,.3,0,0-.06.3,0,0,0,0,0,0l-.06-.19c0-.09,0-.06,0-.13s0-.14-.05-.22c0,.11,0,.15-.06.1l0,.15c-.09.15-.05-.26-.15-.12l0-.09c0,.05-.17,0-.22.24,0,0,0-.12,0-.14s-.23.27-.32.12v-.08s0,.15-.06.07,0-.07,0-.08-.05.13-.08.09l0-.08c-.11-.1-.15.21-.22.26,0-.22-.11-.29-.16-.31v0c-.14,0-.19.22-.28.33-.12-.22-.25,0-.4-.14a.26.26,0,0,1,0,.19s0,.16-.08,0h0c-.08-.19-.12-.12-.16-.1l.09.25c-.25-.32-.21.24-.41,0,0,.08,0,.09,0,.16l-.06-.13a.22.22,0,0,0-.2.07l0-.09c-.06,0,.14.38.11.42l-.12-.18c-.08,0-.26,0-.22.17a.31.31,0,0,1-.05-.1s-.22,0,0,.21c-.12-.15-.09,0-.08.13l-.08-.11c.08.16.1.19.1.27s-.08-.08,0-.06.06.12,0,.1l-.05-.08s0,.06.05.15-.08,0-.17,0,.1.15,0,.14a.18.18,0,0,1,0-.07c-.12,0,0,.19-.1.13l-.07-.06c.05,0,.09-.06.09,0s-.14-.07-.24-.23c0,.1.14.29.07.28l0,0h0s0,0,0,0h-.06c-.09-.06-.08,0-.1,0s.07.11.17.16a0,0,0,0,1,0,0s0,0,0,0h0l0,0c0,.06.07.11,0,.08l.15.18c-.16-.11-.28-.12-.38-.19,0,.1-.07.17.11.36,0,0-.08,0-.11,0s0,0,0-.06-.06.11.09.22c-.1,0-.12-.12-.14,0l0,0c-.33,0,.27.44-.13.37a.1.1,0,0,1,.07,0c-.25.06,0,.38-.35.41-.07,0,0,.08.11.14l-.15,0,.15.12c.09.11-.39,0-.21.15l.1,0s0,.12-.08.07.09,0,0,0l-.08,0,.11.12c-.08,0-.3-.11-.34,0a.46.46,0,0,0,.24.17s.06,0,.14,0l0,0a2.29,2.29,0,0,0,.62.13l-.13-.07.12,0v0c.11,0,0,0,0-.06a.35.35,0,0,0,.12,0l-.2-.11c.09,0,.17.08.23.07-.1,0-.2,0-.26-.1.11,0,.19,0,.11,0a.27.27,0,0,1,.11.06c-.06,0,0-.07-.12-.12.14,0,0-.08.21,0-.05,0-.15-.1-.15-.12.23.13,0-.07.3,0-.21-.12-.06-.13-.16-.23l0,0a.36.36,0,0,1,.14,0,1.27,1.27,0,0,1-.29-.23c.19.06.2.13.36.2-.14-.07-.11-.12-.23-.18l.21.07c-.22-.11,0,0-.15-.13.12,0,.2.1.16,0A.42.42,0,0,1,149.69,106.26Zm.21-1h0v0Zm.06-.06,0,0s-.07-.07-.06-.07Zm-.85-.53s0,0,0,0v0h0Z"/><path class="cls-36" d="M149.23,104.81h0l0,0Z"/><path class="cls-36" d="M157.21,105.55h0v0Z"/><polygon class="cls-36" points="151 104.78 150.98 104.75 150.99 104.78 151 104.78"/><path class="cls-36" d="M157.34,106.25s0,0,0,0Z"/><path class="cls-36" d="M157.49,106.4v0Z"/><path class="cls-36" d="M157.58,106.56l0,0h0Z"/><path class="cls-36" d="M155.31,105.3Z"/><path class="cls-36" d="M156.14,105.39l0,0S156.1,105.46,156.14,105.39Z"/><polygon class="cls-36" points="154.49 105.09 154.49 105.09 154.48 105.09 154.49 105.09"/><path class="cls-36" d="M156.06,105.42s0,0,0,0S156.08,105.4,156.06,105.42Z"/><polygon class="cls-36" points="158.12 107.03 158.12 107.04 158.14 107.02 158.12 107.03"/><path class="cls-36" d="M158.14,107h0Z"/><path class="cls-36" d="M158.19,107l0,0S158.16,107,158.19,107Z"/><path class="cls-36" d="M158,106.85l0,0Z"/><path class="cls-36" d="M157.92,106.82s0,.11,0,.1l0,0S158,106.76,157.92,106.82Z"/><path class="cls-36" d="M158.08,106.15l0,.07s.06-.12.08-.11C158.22,105.94,158.12,106.22,158.08,106.15Z"/><path class="cls-36" d="M158,106s.05-.06.07-.08S158,105.93,158,106Z"/><path class="cls-36" d="M156.92,105.25l.08-.11S157,105.18,156.92,105.25Z"/><polygon class="cls-36" points="156.37 105.68 156.34 105.76 156.41 105.67 156.37 105.68"/><polygon class="cls-36" points="156.72 104.83 156.74 104.82 156.68 104.84 156.72 104.83"/><path class="cls-36" d="M154.73,103.85l0,.15S154.77,103.81,154.73,103.85Z"/><path class="cls-36" d="M153.75,103.71c0-.08,0-.14,0-.07S153.73,103.72,153.75,103.71Z"/><polygon class="cls-36" points="150.73 103.52 150.73 103.46 150.71 103.52 150.73 103.52"/><path class="cls-36" d="M166,120.92s0,0,0,0v0Z"/><path class="cls-36" d="M166,120.67s0-.09-.05-.06,0,0,.05.09,0,.07,0,.06a.73.73,0,0,1,0,.08,1.68,1.68,0,0,0,0-.18Z"/><path class="cls-36" d="M165.82,117l0,0A0,0,0,0,0,165.82,117Z"/><path class="cls-36" d="M165.8,114.73a0,0,0,0,0,0,0Z"/><path class="cls-36" d="M166,114.35v0S166,114.35,166,114.35Z"/><path class="cls-36" d="M165.82,117l.05-.07C165.81,116.93,165.83,117,165.82,117Z"/><path class="cls-36" d="M165.82,120.18l0,0,0,0Z"/><path class="cls-36" d="M166,118v0h.06Z"/><path class="cls-36" d="M166,118.75s-.09,0-.13,0,.05,0,.06,0Z"/><path class="cls-36" d="M166,120v0Z"/><path class="cls-36" d="M166,117.43h0Z"/><path class="cls-36" d="M176.8,104h0Z"/><polygon class="cls-36" points="177.64 104.32 177.63 104.32 177.63 104.32 177.64 104.32"/><path class="cls-36" d="M166.14,113.65Z"/><path class="cls-36" d="M167.07,107.54c-.15,0-.09-.17-.26-.15C166.86,107.41,167,107.57,167.07,107.54Z"/><path class="cls-36" d="M165.82,120.16v0A0,0,0,0,0,165.82,120.16Z"/><polygon class="cls-36" points="166.81 107.39 166.81 107.39 166.79 107.39 166.81 107.39"/><path class="cls-36" d="M166.11,112l-.06,0Z"/><path class="cls-36" d="M165.87,113.23l0,0S165.87,113.22,165.87,113.23Z"/><path class="cls-36" d="M166,111.41s0,0,0,0h0S166,111.39,166,111.41Z"/><polygon class="cls-36" points="166.03 110.77 166 110.78 166 110.8 166.03 110.77"/><path class="cls-36" d="M174.78,103.46l0,.12C174.8,103.48,174.9,103.47,174.78,103.46Z"/><path class="cls-36" d="M165.84,120.17s0,0,0,0v0S165.84,120.18,165.84,120.17Z"/><path class="cls-36" d="M164.85,111.28l0-.1A.3.3,0,0,0,164.85,111.28Z"/><path class="cls-36" d="M169.92,104.2l0,0A0,0,0,0,0,169.92,104.2Z"/><path class="cls-36" d="M164.9,110.85a.19.19,0,0,0,.11,0h0Z"/><path class="cls-36" d="M174.81,103.58Z"/><path class="cls-36" d="M175.52,103.47c-.1,0-.05.11-.08.18s-.05-.11-.09-.19-.14.14-.19.12,0,0,0-.06-.24,0-.34.1a.06.06,0,0,1,0,0,2,2,0,0,1,0,.23s-.09.1-.1,0,0,0,0-.08l0,0c0-.17.07,0,.07-.17-.1,0-.2.16-.28.11s.17,0,.08-.19l.11.08c-.09-.27.07,0,0-.26-.15-.08-.17,0-.32,0,0,.09,0,.14,0,.23-.2.18-.17-.43-.32-.19s0,.34-.16.23l0-.19c-.14,0-.07.27-.22.15,0-.07.11-.07.09-.09s-.07.11-.14.12l0-.17c-.15,0-.31.18-.47.22,0,0,0-.11,0-.16a.87.87,0,0,1-.67,0l-.06.16s0-.06,0-.09,0,.09,0,.15-.07-.07,0-.12c-.12.14-.35.33-.53.21l0,0c-.12,0-.07.32-.2.21l0,0c-.26,0-.5.18-.74,0,0,.21-.27,0-.2.27-.18-.1-.16-.16-.39-.19-.06,0,0,.19-.07.24l-.05-.14,0,.18-.11-.15,0,.06s.07,0,.08.09-.26,0-.29-.09l-.17.22c0-.06,0-.1,0-.15-.05.2-.08-.14-.13,0,0,0,0,.09,0,.12a.22.22,0,0,0-.29.06l0-.11c-.17,0-.31.22-.49.31.09,0,.16.18.12.22l-.1-.13c0,.1.08,0,.07.17s-.13-.14-.11-.21l-.06.09a1,1,0,0,1,0-.13c0,.11-.22-.06-.18.12l0,0a1.8,1.8,0,0,0-.36.28c.08.12,0,.13,0,.26a.82.82,0,0,0-.4.1c-.05.11,0,.11,0,.21-.08-.1-.19,0-.18-.13a.72.72,0,0,0-.26.37c.05,0,.08,0,.1.07s-.1,0-.14,0v0c-.05.31-.67.1-.63.42h0l-.05.19,0,.06c-.11.09,0-.13-.14-.1,0,.37-.27.32-.25.57-.42,0-.21.48-.5.56l.09,0c.07.08-.07,0-.1.07s.09,0,.13,0c-.05.42-.4.76-.57,1.16-.06.14.42.19.17.33l-.14-.09c.11.34-.13.61,0,.93,0,0-.08,0-.08-.06s0,.23.06.24-.09,0-.15,0,.13.18,0,.19a0,0,0,0,1,0,0s0,.18.1.16c-.08.1,0,.22-.05.29.14.08-.1.18.12.23-.23,0-.21.17-.11.25-.06,0-.07,0-.17,0a.15.15,0,0,0,.16.16c-.28.12.19.3-.16.36a2.44,2.44,0,0,1,.21.67c-.22,0,0-.23-.24-.23.08.2.27.32.21.52,0,0-.1,0-.13,0,.08.2,0,.38.09.56a.08.08,0,0,1-.06,0s0,.08.06.08l0,0c.15,0,.3.15.38.15-.29-.06-.07.17-.44.08a.18.18,0,0,0,.13,0s-.06,0-.14,0c.06.13.17.09.16.2s-.07,0-.12,0,.19.12.15.21-.07,0-.07,0c0,.16.26.27.17.45-.21,0-.07.06-.25.08l.05.09.09,0c0,.09.14.16.08.23l-.08-.06,0,.16.07-.09c.1.08.24,0,.19.09s0,.09-.11.13h0c.06,0,.12.08.08.15s-.21,0-.25,0c.16,0,0,.2.21.24a.38.38,0,0,0-.15,0l.13,0a.15.15,0,0,1-.14,0c0,.12.23,0,.14.09,0,0,0,0,0,0,0,.14.1.26,0,.39s-.05-.11-.21-.06c.05.19.25.37.22.55l0,0c.26,0-.13.14,0,.22,0,0-.15,0-.12,0s.08.24.18.42l-.07,0c-.06.08,0,.19,0,.27s.06.06.16,0c-.38.27.23.44,0,.67,0,0-.07,0-.06,0l.09.17c.1,0,.06,0,.13-.07a.16.16,0,0,1,.13.1c-.08-.07-.17,0-.22.06h.1c-.16.12.2,0,.1.14h-.05s.1.08.09.13-.05,0-.14,0,.21.13.12.2,0-.07-.07-.1-.08.09-.09.15h0l0,.13,0,0c.26.07.08.18.24.29-.15-.11-.08,0-.17,0s0,.08-.07.07,0,.1.09.17,0,.06-.06.06.05,0,.08,0,0,.28.11.43.14.15.18.28-.06,0-.06,0a.28.28,0,0,0,0,.2s0,0,0,0,.05,0,.05.11l-.06-.05a1.08,1.08,0,0,1,.08.19s0,0,0-.06a1.94,1.94,0,0,0,.08.21v0s0,0,0,0,0-.1,0-.1v0s0-.18-.06-.28l.06,0-.06-.09s.05,0,.06,0,0-.06,0-.12h0l0-.07s0,0,0,0c0-.13-.07-.19,0-.24h0c0-.17-.06,0-.16-.13l.16-.1h-.07s0,0,0,0,0,0-.08,0-.06-.22.07-.26c-.07,0,0,.09-.09,0,.14,0,0-.1,0-.19s0,.09.11,0c-.14,0,0-.15,0-.21s0-.14-.1-.24.07-.21.12-.32h0c-.16,0-.13-.11-.17-.18a.26.26,0,0,1,.18,0V118a.13.13,0,0,1-.1-.07H166c0-.09-.15-.17-.07-.3-.13,0-.35.13-.45,0,.07,0,.19,0,.22,0s-.06,0,0-.06l.12,0c0-.06-.1,0-.09-.06s.07,0,.15,0,0,0,0,0a.27.27,0,0,1,.14-.14c-.05,0-.13,0-.15,0s.12,0,.16-.1,0-.08-.15-.07.06,0,.1-.06,0-.22-.19-.15h0c-.16-.15.06-.33,0-.49h0c-.06-.09,0-.21-.15-.27s.08-.07.14-.06-.1-.07,0-.18c.09.06.07,0,.07.07,0-.1.11-.12,0-.22.13,0,.15-.07.11-.12l-.08.07a.33.33,0,0,1,0-.14l.17,0c.19-.2-.37-.33,0-.49-.12,0-.08.11-.22.07,0-.09.26-.19.26-.22s-.25-.1-.19-.23-.21,0-.27,0,.25-.12.3-.06,0,0,0,0a.08.08,0,0,0,.11,0h-.06c.06,0,.06-.17.15-.14s-.09,0-.12,0c.08-.11,0-.17.05-.29s-.1,0-.1,0c.07-.17-.12-.08-.14-.19s.21,0,.13-.09.16,0,.21,0c-.12-.11.07-.2.09-.26l0,.06a.12.12,0,0,1,0-.09l-.12,0s0-.06.07-.06-.2,0-.3,0c.06,0-.06-.13.1-.15-.06.14.15,0,.18.1s0,0,0-.08a.05.05,0,0,1,0,0c.15-.13-.17-.06-.17-.2.09,0,.17,0,.15,0s-.15,0-.21,0,0-.09,0-.14l0,0c-.08,0-.07-.06-.1-.12s.05.06.08,0c-.16-.08.16-.15.06-.25.06,0,.17,0,.21,0-.11-.11.12-.11,0-.23-.12,0-.09,0-.21,0l.08.18-.17-.12c0,.05.08.12.05.15s-.06,0-.16,0c.18-.07-.1-.15,0-.24l.29,0c.14-.13-.13-.24,0-.4l-.05.05c-.12,0,0-.11-.06-.16a.37.37,0,0,0,.2,0c-.07,0,0-.13-.18-.15l.13-.07c.07-.13-.27-.18-.22-.31.1,0,.17,0,.25.09s0-.08-.05-.08-.12-.14,0-.17-.14,0-.13-.08a.07.07,0,0,1,.05,0c-.05,0-.05-.08-.17-.05.32-.1,0-.38.3-.46a1.76,1.76,0,0,1,0-.31s0,0,0,0-.27-.11-.15-.23.07.08.14,0c.32,0,0-.17.19-.23v0c.12,0-.09-.19-.05-.3s0,0,.05,0a.52.52,0,0,1-.2-.38c.12.06,0,.07.18.07s-.2,0-.22-.13a.6.6,0,0,1,.29,0v.09c.18,0,0-.12.06-.16l.07,0c0-.14-.18-.19-.13-.34h-.06c-.17-.13.12,0,0-.15l.2,0a1.26,1.26,0,0,1-.14-.33.89.89,0,0,1,.23.31s0-.18-.05-.23.05.07,0,.08-.18-.22-.15-.32c.36.14.19-.23.49-.2-.07-.23.19-.31.25-.5-.3-.07,0,0-.25-.18,0,0,0-.07,0-.06l.23,0c.1,0,0,.07.1.11s.13,0,.23,0c-.1,0-.11-.11-.05-.12l-.16,0c-.06-.2.26,0,.18-.07v0l0,0v0c0-.07.18-.17.09-.37,0,0,.1.06.09.1.16-.09.14-.47.35-.45l0,.06s0-.15,0-.12,0,.07.05.07,0-.16.06-.15l0,.09c.21,0,.11-.33.21-.46a.34.34,0,0,0,.36.15l0,0c.18-.11.2-.35.34-.52.22.15.41-.11.65-.08a.2.2,0,0,1-.05-.19c.06,0,.06-.19.13,0h0c.11.17.18.08.25.06l-.09-.25c.32.29.42-.33.65,0,0-.08.08-.09.1-.17l0,.14a.65.65,0,0,0,.35-.09v.11c.08,0,0-.43.07-.46l.08.2c.16-.06.36.1.47-.13,0,0,0,.1,0,.11s.31.08.23-.2c0,.18.16,0,.23-.12l0,.14c0-.19,0-.24.13-.3s0,.11,0,.08,0-.14.15-.08l0,.09c.08,0,.07,0,.1-.16s.17,0,.2.14c0-.08,0-.19.08-.16a.08.08,0,0,1,0,.09c.16.08.19-.19.31-.06s0,.07,0,.08a.47.47,0,0,1-.19,0c0,.13.1.14.05.33.06-.11.16-.33.26-.28s0,0,0,0h0s0,0,0,0l.07,0c0,.11.11,0,.16,0s0-.12,0-.23,0,0,0,0l0,0h0l-.11,0c0-.08.06-.14.11-.07l.05-.23c.08.19.2.29.23.41.13-.1.32-.06.4-.33,0,0,0,.08.06.12s-.05,0-.06.06.23,0,.25-.22c.1.08-.06.18.08.14l0,.06c.26.22.45-.46.74-.15,0,0,0,0,0,0,.34.09.72-.11,1,0,.09,0,.11,0,.17-.07l0,.06.11-.06c.15,0,.23.14.42.07l0,0c.07,0,.21,0,.2,0a0,0,0,0,1,.05,0v0h.16c.13,0,0,0,.16,0h.16l-.09,0-.1,0,0,0,.09,0-.12,0,0,0h-.1s0,0,0,0,0,.05,0,0,0,0-.09,0,0,0,0,0-.13,0-.16,0-.18,0-.17-.11a.28.28,0,0,1-.14,0c.1-.07-.18-.06-.15-.17-.07.08-.24,0-.36,0s0,0,0,0a.43.43,0,0,1-.12-.11c0,.1-.12.1-.18.17-.07-.13.06-.13,0-.24,0,.09-.15.06-.13.15-.05-.09-.05,0-.07-.16,0,.15-.06,0-.12.1-.08-.1,0-.16-.12-.14S175.52,103.47,175.52,103.47Zm-2.4.22h0Zm-.2,0H173s0,.1,0,.1S173,103.74,172.92,103.7Zm.5.94s0,0,0,0l.05,0v0A.15.15,0,0,1,173.42,104.64Z"/><path class="cls-36" d="M173.46,104.45a0,0,0,0,0,0,0l0,0v0Z"/><path class="cls-36" d="M165.8,117h0s0,0,0,0Z"/><polygon class="cls-36" points="170.11 104.05 170.13 104.09 170.13 104.05 170.11 104.05"/><path class="cls-36" d="M165.45,118.14l0,0Z"/><path class="cls-36" d="M165.51,118.61l0,.07S165.51,118.62,165.51,118.61Z"/><path class="cls-36" d="M165.54,119h0Z"/><path class="cls-36" d="M164.93,113.24h0S164.9,113.21,164.93,113.24Z"/><path class="cls-36" d="M165.27,115a.18.18,0,0,1-.07,0S165.19,115,165.27,115Z"/><polygon class="cls-36" points="164.85 111.29 164.85 111.3 164.85 111.28 164.85 111.29"/><path class="cls-36" d="M165.2,114.82a.05.05,0,0,0,0,.08S165.22,114.84,165.2,114.82Z"/><polygon class="cls-36" points="165.9 120.49 165.91 120.51 165.91 120.51 165.9 120.49"/><path class="cls-36" d="M165.91,120.51v0A0,0,0,0,0,165.91,120.51Z"/><path class="cls-36" d="M165.93,120.56v0A.1.1,0,0,0,165.93,120.56Z"/><path class="cls-36" d="M165.79,120h0Z"/><path class="cls-36" d="M165.75,119.88s0,.09,0,.14h0S165.79,119.91,165.75,119.88Z"/><path class="cls-36" d="M165.94,119.25v.13s.06-.06.07,0C166.08,119.21,165.94,119.41,165.94,119.25Z"/><path class="cls-36" d="M166,118.87c0,.07.05,0,.07,0S166,118.82,166,118.87Z"/><path class="cls-36" d="M165.86,116.18H166C166,116.13,165.94,116.18,165.86,116.18Z"/><polygon class="cls-36" points="165.17 115.7 165.09 115.75 165.21 115.77 165.17 115.7"/><polygon class="cls-36" points="166.06 115.35 166.08 115.37 166.03 115.29 166.06 115.35"/><path class="cls-36" d="M166.14,110.9H166S166.18,111,166.14,110.9Z"/><path class="cls-36" d="M166.31,109c.08,0,.14,0,.07-.09S166.3,109,166.31,109Z"/><polygon class="cls-36" points="170.08 105.43 170.06 105.49 170.11 105.42 170.08 105.43"/><path class="cls-37" d="M75.24,379c.05,0,.15,0,.12-.1l-.18-.06Z"/><path class="cls-37" d="M75.47,378.28c-.1-.12-.25-.25-.39-.15.17.11.11.14.31.26,0,.1,0,.19-.1.18s0,.16.1.21a.41.41,0,0,0,0-.5S75.44,378.27,75.47,378.28Z"/><path class="cls-37" d="M74.55,367.89V368S74.55,367.92,74.55,367.89Z"/><path class="cls-37" d="M73.91,361.47s0,.06,0,.06S73.92,361.45,73.91,361.47Z"/><path class="cls-37" d="M74,360.35a.15.15,0,0,0,0,.07S74,360.36,74,360.35Z"/><path class="cls-37" d="M74.55,367.89l0-.17S74.55,367.81,74.55,367.89Z"/><path class="cls-37" d="M74.91,376.89a.19.19,0,0,0,0,.09.24.24,0,0,1,0-.08Z"/><path class="cls-37" d="M75,370.71v.05l.07,0Z"/><path class="cls-37" d="M75.27,372.87c0-.05-.14-.05-.2-.06a.16.16,0,0,1,.11.1Z"/><path class="cls-37" d="M75.42,376.34l0,.06Z"/><path class="cls-37" d="M74.86,369.15l0,0S74.87,369.13,74.86,369.15Z"/><path class="cls-37" d="M66.91,308.55h0Z"/><path class="cls-37" d="M67.31,306l0,0h.07Z"/><path class="cls-37" d="M73.92,358.32h0C73.94,358.38,73.93,358.36,73.92,358.32Z"/><path class="cls-37" d="M71.72,339.93c-.1.22-.2-.32-.3,0C71.47,339.9,71.67,340.2,71.72,339.93Z"/><path class="cls-37" d="M74.92,376.84s0-.06,0-.09A.22.22,0,0,0,74.92,376.84Z"/><path class="cls-37" d="M71.42,339.94h0v0Z"/><path class="cls-37" d="M73.31,353.71l-.06.06S73.28,353.75,73.31,353.71Z"/><path class="cls-37" d="M73.5,357.18v-.09A.31.31,0,0,0,73.5,357.18Z"/><path class="cls-37" d="M72.91,352c0-.05,0-.07,0-.13l0,0A.13.13,0,0,1,72.91,352Z"/><path class="cls-37" d="M72.7,350.09l0,0,0,.06Z"/><path class="cls-37" d="M67.62,314.2a.26.26,0,0,1,.11-.1C67.64,314.14,67.57,313.87,67.62,314.2Z"/><path class="cls-37" d="M75,376.88a.07.07,0,0,1-.07,0l0,.06S75,376.9,75,376.88Z"/><path class="cls-37" d="M71.8,352l0-.3C71.78,351.79,71.79,351.89,71.8,352Z"/><path class="cls-37" d="M69.15,327.54l0-.07A.14.14,0,0,0,69.15,327.54Z"/><path class="cls-37" d="M71.66,350.83a.36.36,0,0,0,.08-.18l0,0Z"/><path class="cls-37" d="M67.73,314.1Z"/><path class="cls-37" d="M67.18,312.19c0,.28.2.11.31.16.09.33-.12.17-.2.29s.26.35.27.51,0,0-.08,0c.17.21.08.66.3.9l0,0A.53.53,0,0,1,68,314c0,.13.14.22,0,.28s-.05-.08-.1-.11l.07.13c-.16.14-.08-.18-.21-.16.09.25.27.53.24.74-.16.06-.11-.46-.23-.18l0-.31c-.24.26,0-.19-.26.06,0,.41.13.44.13.85.1.08.14-.05.24,0,.23.55-.37.5-.1.89.12.1.34.11.26.43l-.2-.08c0,.39.3.19.22.61-.09-.06-.1-.3-.12-.24-.12.28.13.18.16.38l-.17.06c.08.41.25.86.33,1.31,0,0-.11-.09-.15,0a5.8,5.8,0,0,1,.08,1.81l.17.2c0,.05-.05.1-.09.05,0,.22.1,0,.17.1s-.07.17-.12.1a2.81,2.81,0,0,1,.28,1.48l0-.07c0,.32.33.32.23.63l0-.05a7.94,7.94,0,0,1,.07,2c.22.07,0,.68.28.7a2.72,2.72,0,0,0-.2.86c0,.15.21.2.26.37l-.15,0,.19.22-.17.16.06.16c0-.07.05-.15.1-.14a.75.75,0,0,1-.11.67l.2.62c-.07,0-.1-.11-.15-.19.2.32-.15.08,0,.37,0-.05.09,0,.12,0a1.54,1.54,0,0,0,0,.76l-.11,0c0,.47.16,1,.22,1.5,0-.19.22-.17.25,0l-.15.08c.11.09,0-.17.19,0,0,.2-.17.15-.24.05l.09.23s-.08,0-.15,0c.12.09-.11.43.08.55l0,0c.06.52.14.75.2,1.18.14,0,.13.16.26.28a6,6,0,0,0,0,1.05c.1.26.13.07.22.18-.12,0-.07.41-.18.22a6.21,6.21,0,0,0,.26,1.14c.05-.07.06-.14.11-.11s0,.25-.09.24l0,0c.27.62-.2,1.53.12,2v0l.2.51c0,.25-.12-.13-.17.06.27.55.07.91.26,1.36-.33.41.18,1.3,0,1.82l.09,0c.1.12,0,.16,0,.26s.06-.15.12-.08a20.85,20.85,0,0,1,.17,3.37c0,.4.48.17.33.71l-.18-.13c.29.8.18,1.68.44,2.46,0-.05-.09,0-.1-.12-.1.18.06.63.16.62s-.08,0-.12.12.2.41.09.51,0,0-.06-.07,0,.51.17.39c0,.31.13.57.07.82.17.14,0,.52.21.55-.23,0-.12.55,0,.72-.08-.05-.06.18-.16.11,0,.22.09.41.2.36-.22.43.31.78,0,1a18.53,18.53,0,0,1,.47,1.8c-.23,0-.1-.64-.33-.59a5,5,0,0,1,.39,1.38c0,.15-.11-.06-.15-.11.15.54.1,1.07.28,1.54,0,0-.05-.05-.08-.1s0,.23.1.21l0-.09c.13-.17.35.35.43.35-.31-.13,0,.5-.42.28,0,.06.09.13.15.11s0,.13-.13.05c.1.33.19.2.22.51,0,0-.07,0-.13-.08a.8.8,0,0,1,.21.56s-.06,0-.07-.05c.06.45.34.74.3,1.25-.23-.12,0,.18-.23.22l.09.27.07-.12c0,.23.19.42.15.63l-.1-.16.09.43,0-.25c.12.22.23-.06.22.26,0-.06,0,.24-.08.37h0a.53.53,0,0,1,.13.4c-.06.05-.21,0-.25,0,.17.1.11.55.29.67a.19.19,0,0,0-.16,0l.13.09c0,.11,0,.13-.12.12,0,.33.22-.13.16.27,0,0,0,0-.05-.08,0,.4.16.75.14,1.11-.17.13-.08-.31-.22-.17a11.11,11.11,0,0,1,.35,1.55V366c.28,0-.08.39.07.63,0-.06-.16-.07-.12,0a4.66,4.66,0,0,0,.28,1.2l-.07-.06a4.86,4.86,0,0,0,0,.76c.07.05.07.18.16.09-.31.72.36,1.26.1,1.89,0-.07-.08-.16-.07-.11l.12.5c.11-.05.06-.07.14-.19a.61.61,0,0,1,.16.32c-.1-.22-.19,0-.24.13s.08,0,.11,0c-.17.29.24,0,.14.39h-.06a1.36,1.36,0,0,1,.14.4c-.13.07-.08-.14-.19-.14,0,.21.3.38.19.58,0-.08-.07-.21-.11-.29a.5.5,0,0,0-.1.39v0l0,.36,0-.09c.38.21.12.51.39.83-.25-.31-.13,0-.28-.05s-.07.23-.11.2c.14.15-.07.28.14.49,0,0,0,.18-.11.16.06.2.07-.06.14,0,.2.31-.12.79.16,1.24s.32.45.44.81c-.06.14-.19-.08-.19-.08a.79.79,0,0,0,.06.55s-.08,0-.12.08.18.08.14.3A.8.8,0,0,1,75,377c.07.18.18.35.24.53s-.14-.09-.2-.16c.06.21.14.55.28.6l0-.14c0,.07-.11.05-.14,0a.17.17,0,0,1,.07-.28l0,.13c.27-.17-.1-.53-.12-.81l.22.09-.2-.26c0-.06.16-.12.2,0,.08-.2-.09-.16,0-.34,0,0,0,0,0,0l-.08-.18s.14-.05.12.07c.08-.35-.21-.53-.07-.68v0c-.12-.46-.15,0-.37-.36l.35-.28-.16,0c0-.05,0-.15.06-.14-.12-.17-.06,0-.17-.06.11-.25-.14-.64.1-.72-.13-.07-.07.24-.18,0,.26-.1-.07-.29,0-.52.14,0,.1.27.19,0-.24-.11,0-.43-.06-.6-.18,0-.12-.39-.22-.69.07,0,0-.58.07-.87h0c-.19,0-.19-.33-.25-.54.11,0,.16,0,.22.14l0-.2a.38.38,0,0,1-.14-.23l.14,0c0-.27-.22-.52-.17-.87-.12,0-.32.31-.44,0,.06,0,.18-.05.22,0s-.07-.1-.05-.17l.13.13c0-.16-.1-.07-.11-.19s.06-.1.14-.09,0,.11,0,.15a.59.59,0,0,1,.11-.38.11.11,0,0,1-.16-.09c0-.26.11-.1.14-.26s0-.24-.17-.22.06-.1.09-.14-.09-.64-.23-.47v0h0c-.2-.44,0-.95-.14-1.39h.05a3.51,3.51,0,0,0-.23-.77c0-.08.07-.2.13-.17a.83.83,0,0,1-.07-.52c.11.19.07-.08.09.2,0-.27.08-.34-.08-.61.13.09.13-.21.08-.34l-.07.2a2.72,2.72,0,0,1,0-.39l.17.05c.14-.57-.45-.94-.16-1.39-.13-.13,0,.3-.2.19,0-.25.21-.54.2-.62,0-.35-.28-.29-.26-.66,0,.06-.21.12-.29-.14s.21-.34.28-.19,0,.09,0,.09.07.18.12.08l-.06,0c0-.13,0-.47.11-.4-.08-.18-.11-.07-.12.07a7.69,7.69,0,0,0,0-.83c0,.05-.09.11-.09.06,0-.5-.14-.2-.2-.53s.22,0,.11-.28.15-.06.21,0c-.15-.29,0-.57,0-.75l.06.15a.74.74,0,0,1,0-.24l-.11.1c0-.09,0-.17,0-.18s-.19.1-.31-.08c0-.13-.11-.37,0-.43,0,.4.15-.06.22.27a.45.45,0,0,1,0-.24s0,0,0,0c.09-.38-.2-.15-.24-.53.09,0,.16-.11.13-.17,0,.15-.14.09-.22-.05s-.08-.26-.09-.39v.15c-.1,0-.1-.16-.15-.33s.07.15.09.08c-.18-.17.11-.45,0-.71,0-.13.16,0,.19-.14-.15-.29.08-.34,0-.64-.11.1-.08.11-.22-.09l.15.5-.21-.31c0,.16.11.32.1.42-.12-.15-.08-.14-.17-.05.15-.23-.16-.41-.06-.67l.29,0c.09-.39-.23-.64-.21-1.13l0,.16c-.12-.05,0-.3-.12-.45.1,0,.13-.1.18-.17s0-.36-.23-.38l.1-.23c0-.39-.33-.41-.34-.79.12.1.17-.08.28.17,0-.13,0-.24-.08-.24s-.17-.33-.09-.46-.15,0-.16-.19,0,0,0,0-.09-.22-.19-.08c.26-.42-.14-1.08.08-1.44-.06-.27-.13-.6-.17-.84,0,0,0,0,0,0,0-.35-.31-.18-.25-.58.14-.22.11.2.15.07.32-.09-.09-.47.07-.75l0,.06c.09-.21-.18-.47-.19-.8a.05.05,0,0,0,.05,0,2.36,2.36,0,0,1-.37-.93c.13.09.08.14.2.06,0-.14-.2.07-.27-.21.06-.1.1-.31.23-.35l0,.26c.16-.15,0-.34,0-.48h.08c-.07-.41-.27-.39-.31-.83l0,0c-.22-.22.09-.21-.08-.43l.18-.1a6.5,6.5,0,0,1-.32-.81,2.73,2.73,0,0,1,.39.66c0-.15-.08-.53-.18-.6s.08.14.06.2a1.15,1.15,0,0,1-.32-.73c.39,0,0-.82.28-1.08a7.87,7.87,0,0,1-.16-1.74c-.27.27,0-.18-.33-.11,0-.15,0-.2,0-.22l.13-.47c.08-.12.08.13.15.11,0-.33.11-.15.17-.38-.1.06-.17-.09-.15-.28l-.11.27c-.21-.44.21-.42,0-.86l.11.13c-.08-.23-.1-.87-.37-1.08,0,0,.11-.11.14,0,0-.57-.4-1.23-.3-1.69l.08,0c0-.1-.16-.16-.1-.3s.08,0,.08,0-.17-.27-.14-.41l.1.11c0-.56-.3-.82-.4-1.28.22,0,.24-.47.25-.69h0a8.82,8.82,0,0,0-.46-1.66c.2-.39,0-1.26,0-1.87,0,.1-.17,0-.2-.1s-.2-.36,0-.36v.05c.18-.13.1-.41.08-.64h-.27c.32-.63-.31-1.52,0-1.88-.08-.13-.1-.3-.18-.44h.14a5.39,5.39,0,0,0-.1-1.07l.11.09c0-.27-.44-.3-.48-.55l.2-.1a3.8,3.8,0,0,0-.17-1.42.11.11,0,0,1,.11.09c0-.23,0-.89-.23-.77.18,0,0-.49-.15-.74l.14,0a.78.78,0,0,1-.33-.49c0-.08.1-.08.07,0,0-.25-.15-.17-.11-.47l.1.1c0-.25-.06-.22-.18-.35s0-.47.11-.52a.28.28,0,0,1-.18-.29s.08,0,.1.05c0-.43-.23-.6-.13-.9a.12.12,0,0,0,.08-.05,5.47,5.47,0,0,1,0,.56c.13,0,.12-.28.32-.09-.12-.2-.37-.54-.34-.8l0,0,0,0a.27.27,0,0,0,0-.16.83.83,0,0,0,0-.22c.11,0,0-.31,0-.44-.14,0-.14-.15-.24,0,0,0,0,0,0,.11s0,0,0,.06h0c0,.09,0,.2,0,.33a.32.32,0,0,1-.09-.35l-.25-.16c.18-.2.24-.56.36-.63-.13-.39-.16-.94-.45-1.16,0-.11.06-.14.09-.19s0,.15.08.18c-.09-.22-.1-.68-.29-.71,0-.3.19.14.11-.25l.07.05c.2-.81-.62-1.21-.34-2.12,0,.06,0,.09,0,.11,0-1-.39-2-.23-3,0-.28-.1-.3-.21-.45l.14-.08-.2-.27c-.18-.39.29-.75,0-1.24l-.1.08c0-.19-.12-.58,0-.56s-.12-.05-.07-.13h.08l-.19-.44c0-.36.32,0,.28-.5-.06-.19-.3-.52-.34-.44s0,.2-.1.21l-.06-.17c-.24,0-.49-.11-.6.34l.17.28-.1.11,0-.25c-.09.16,0,.24.09.33a.26.26,0,0,0-.11.14l.26.27c-.09,0-.2-.11-.22.09s.18-.15.28.07c-.09.15-.18.12-.07.28-.06,0-.1,0-.13-.07.08.14.07.4.2.46-.11.16.09.5-.13.51a.91.91,0,0,1,.23.38c-.29-.22,0,.52-.25.48.26.16.18.67.35,1,0,0-.06-.05-.05-.08a1,1,0,0,1-.1.38c.2,0,.28.28.42.42-.16.25-.25-.11-.42,0,.16,0,.2.38.33.29-.1.18,0,.15-.2.26.25,0,.06.16.23.29-.09.26-.22.09-.11.36C67.3,312.43,67.18,312.19,67.18,312.19Zm1.17,6.53h0a1.06,1.06,0,0,0,0-.14A.78.78,0,0,1,68.35,318.72Zm.06.55a2.32,2.32,0,0,0,0-.24s.1,0,.1.05S68.45,319.18,68.41,319.27Zm.84-1.28c0,.09,0,.12,0,.13l0-.15h0Z"/><path class="cls-37" d="M69.05,317.85l0,0s0,0,0,.06l0,0Z"/><path class="cls-37" d="M74.53,368h0l0,0Z"/><polygon class="cls-37" points="69.02 326.93 69.05 326.93 69.01 326.88 69.02 326.93"/><path class="cls-37" d="M74.4,371.07a.11.11,0,0,0,0,.05Z"/><path class="cls-37" d="M74.52,372.39l0,.19A.81.81,0,0,0,74.52,372.39Z"/><path class="cls-37" d="M74.56,373.41h0Z"/><path class="cls-37" d="M72.57,357.35a0,0,0,0,0,0,0C72.53,357.23,72.54,357.29,72.57,357.35Z"/><path class="cls-37" d="M73.44,362.1a.71.71,0,0,1-.08-.15C73.36,362,73.36,362.11,73.44,362.1Z"/><path class="cls-37" d="M71.8,352h0v0Z"/><path class="cls-37" d="M73.34,361.73a.32.32,0,0,0,0,.22A.55.55,0,0,0,73.34,361.73Z"/><path class="cls-37" d="M75,377.8v.05a0,0,0,0,1,0,0Z"/><path class="cls-37" d="M75,377.85l0,0S75,377.86,75,377.85Z"/><path class="cls-37" d="M75.09,378l0-.11S75.05,378,75.09,378Z"/><path class="cls-37" d="M74.91,376.45h0Z"/><path class="cls-37" d="M74.85,376.05c0,.09-.08.25,0,.38h0C74.78,376.39,75,376.13,74.85,376.05Z"/><path class="cls-37" d="M75.28,374.28v.34c0-.06.11-.15.14,0C75.54,374.18,75.31,374.73,75.28,374.28Z"/><path class="cls-37" d="M75.24,373.21c.05.18.08,0,.11,0S75.27,373.07,75.24,373.21Z"/><path class="cls-37" d="M74.37,365.58h.13C74.47,365.44,74.45,365.58,74.37,365.58Z"/><polygon class="cls-37" points="73.55 364.19 73.49 364.34 73.61 364.39 73.55 364.19"/><polygon class="cls-37" points="74.36 363.23 74.39 363.29 74.31 363.06 74.36 363.23"/><path class="cls-37" d="M72.86,350.41l-.15.06C72.74,350.56,72.92,350.56,72.86,350.41Z"/><path class="cls-37" d="M72.07,344.89a.24.24,0,0,0,0-.32C72.09,344.7,72,344.83,72.07,344.89Z"/><polygon class="cls-37" points="70.44 328.26 70.5 328.36 70.43 328.16 70.44 328.26"/><polygon class="cls-30" points="63.19 284.85 58.15 293.52 61.47 310.11 76.41 306.79 83.04 293.52 81.38 285.22 63.19 284.85"/><polygon class="cls-38" points="77.23 294.35 70.6 294.35 55.66 314.26 70.42 335.78 80.55 320.9 77.23 294.35"/><path class="cls-39" d="M176.28,225.91c0,.09.21.18.26,0l-.2-.28Z"/><path class="cls-39" d="M177.36,225.42a.71.71,0,0,0-.46-.66c.16.33,0,.29.23.67a.19.19,0,0,1-.32.06c0,.1-.2.16-.08.35.32,0,.48-.22.45-.56C177.28,225.28,177.31,225.37,177.36,225.42Z"/><path class="cls-39" d="M185.71,212.87l-.08.07A.18.18,0,0,0,185.71,212.87Z"/><path class="cls-39" d="M189.83,204.45c0,.07,0,.11,0,.12S189.86,204.44,189.83,204.45Z"/><path class="cls-39" d="M190.75,203.08l-.05.09S190.77,203.11,190.75,203.08Z"/><path class="cls-39" d="M185.71,212.87l.21-.17C185.83,212.63,185.79,212.77,185.71,212.87Z"/><path class="cls-39" d="M177.88,223.25a.3.3,0,0,0,0,.16s0-.08,0-.12Z"/><path class="cls-39" d="M184,216.63l0,.06a.47.47,0,0,0,.09.12Z"/><path class="cls-39" d="M182.38,219.38c.05,0-.18-.22-.27-.31a.3.3,0,0,1,.09.24A.52.52,0,0,0,182.38,219.38Z"/><path class="cls-39" d="M179.21,223.32l0,.09Z"/><path class="cls-39" d="M185.15,214.69l.11,0A.22.22,0,0,0,185.15,214.69Z"/><path class="cls-39" d="M184.87,150.26l0,0S184.85,150.24,184.87,150.26Z"/><path class="cls-39" d="M183.51,146.59l0,0,.13-.09Z"/><path class="cls-39" d="M192.09,200.43h0C192.09,200.53,192.09,200.48,192.09,200.43Z"/><path class="cls-39" d="M196.67,173.78c-.24.31-.33-.5-.6,0C196.18,173.7,196.51,174.16,196.67,173.78Z"/><path class="cls-39" d="M178,223.21l.07-.11A.28.28,0,0,0,178,223.21Z"/><path class="cls-39" d="M196.07,173.74h0l0,0Z"/><path class="cls-39" d="M194,193.88a.33.33,0,0,0-.14,0A.25.25,0,0,0,194,193.88Z"/><path class="cls-39" d="M192.13,198.62l.08-.11A.59.59,0,0,0,192.13,198.62Z"/><path class="cls-39" d="M194.17,191.23c0-.06.08-.08.06-.18l0,0C194.22,191.12,194.23,191.16,194.17,191.23Z"/><path class="cls-39" d="M194.76,188.57l-.06,0v.09Z"/><path class="cls-39" d="M190.29,156.25l.17-.18c-.08.06-.13.1-.2.08S190.25,156.23,190.29,156.25Z"/><path class="cls-39" d="M178,223.34c0-.05-.07-.09-.06-.13l0,.08A.16.16,0,0,0,178,223.34Z"/><path class="cls-39" d="M192,190.62l.14-.4A2.64,2.64,0,0,0,192,190.62Z"/><path class="cls-39" d="M184.65,157.75l-.2-.15A.62.62,0,0,0,184.65,157.75Z"/><path class="cls-39" d="M192.42,189a.67.67,0,0,0,.24-.19s0-.05-.06-.06Z"/><path class="cls-39" d="M190.46,156.06h0Z"/><path class="cls-39" d="M188.12,154.4c.26.32.4-.09.62-.17.4.3-.06.35-.09.6.27.17.68.12.82.3,0,.05,0,.1-.11.11.43,0,.64.72,1.16.75l-.06.07a3.81,3.81,0,0,1,.37-.35c.08.09.38.08.19.23-.05-.06-.14,0-.22,0l.17,0c-.25.24-.22-.07-.43.08.19.05.71.2.72.37-.41,0-.37-.26-.6-.06a1,1,0,0,0,0-.19c-.45.3,0-.07-.52.23-.06.07.28.05.23.14.31.07.41,0,.73.12s.12.21-.22.12-.7-.21-.21,0,1.44.65,1.09.59l-.91-.46s1.39.76.92.61-.43-.3-.53-.34c-.69-.33.61.37.71.48l-.91-.52.87.66c.1.1.15.18.09.19-.25-.19-.51-.39-.84-.61.11.13-.09,0-.32-.09a2.82,2.82,0,0,1-.36-.24l-.09-.06.34.07.77.18.4.28.08.07s0,0,0,0l-.1,0c-.06,0-.08-.17,0-.2-.26-.2-.07.18-.25.24a.15.15,0,0,1,0-.29,4.38,4.38,0,0,1-1.13,0,5.08,5.08,0,0,1-1.61-.65l.31,0a1.61,1.61,0,0,0-1.22-.18c-.2.08-.31.16-.95-.2,0,0,0,0,.07,0-.91-.37-1.56-.55-2.31-.81a20.88,20.88,0,0,1-2.85-1.23c.64.46,0,.15-.5,0a5.8,5.8,0,0,0,1.44,1.06c-.22,0-.43-.08-.56-.09s-.19,0,0,.4,1.47,1,1.92,1.32l-.83-.4,1.27.82-.7-.19.5.39c-.08-.11.08-.11.32,0,.39.29.51.49.53.64s-.07.24-.23.19l1.61,1.24a3.1,3.1,0,0,1-.78-.43c1.15.7-.43,0,.63.68,0-.07.32.06.43.08,0,.24.66.92,1.2,1.36l-.32,0c.21.23.45.46.69.7l.37.35.24.2c.28.24.57.48.84.75a.27.27,0,0,1,.37-.35l-.17.3c.24,0-.08-.25.3-.22.18.23-.12.4-.31.36l.32.16c-.05.08-.15.06-.25.14.24,0,.19.65.59.55l-.06.08c.54.54.86.7,1.31,1.13.21-.19.34,0,.63,0a6.47,6.47,0,0,0,.86,1.27c.38.17.25-.09.49-.08-.09.27,0,.32-.19.39.09,0,.1.09.14.15a1.25,1.25,0,0,1,.1.28l.19.49c.09-.1.12-.2.22-.16s-.08.35-.2.34l0,0c.48.88-.58,2.15,0,2.85l0,0c.11.25.22.49.31.75s-.19-.21-.35.06c.44.8,0,1.29.25,2-.74.51,0,1.86-.49,2.54l.17,0c.17.19-.1.22-.15.35.14,0,.17-.19.26-.07a7.33,7.33,0,0,1-.22,2.36c-.19.78-.38,1.58-.57,2.35-.12.57.87.43.36,1.11l-.3-.25c.24,1.21-.29,2.37-.18,3.55-.07-.08-.17-.1-.14-.21-.28.2-.17.88,0,.92-.05.17-.18,0-.3.1s.19.65-.06.73c0,0-.07-.08-.08-.12.09.17-.16.72.14.62-.21.4,0,.84-.25,1.14.25.28-.31.68.1.85-.44-.13-.53.65-.39,1-.11-.12-.19.19-.35,0-.06.3-.05.6.19.6-.65.43.16,1.23-.58,1.37a14.8,14.8,0,0,1-.22,2.65c-.42-.16.22-.9-.25-1,0,.8.2,1.35-.12,2.07-.12.18-.16-.17-.21-.25-.05.81-.47,1.45-.45,2.19,0,0,0-.1-.06-.18,0,.14-.17.28,0,.33v-.14c.36-.12.4.71.54.79-.48-.41-.38.61-.95,0a.28.28,0,0,0,.19.27c-.08.11-.17.13-.27,0-.06.5.2.4,0,.83-.09,0-.09-.14-.19-.22a.88.88,0,0,1,0,.89s-.13,0-.09-.13c-.2.62.1,1.22-.32,1.83-.33-.35-.21.18-.57.08l0,.41.22-.08c-.11.31,0,.69-.21.91l0-.29-.19.61.28-.27c0,.38.45.14.17.51,0-.09-.14.32-.41.39h0a.58.58,0,0,1-.1.6c-.13,0-.36-.21-.45-.2.23.28-.23.76,0,1.09a.36.36,0,0,0-.27-.17l.18.22c-.14.12-.18.12-.31,0-.23.41.49.05.08.48,0-.05,0,0,0-.14-.32.47-.29,1.06-.61,1.48-.4,0,.1-.45-.26-.42a7.89,7.89,0,0,1-.64,2.2l.1-.11c.43.32-.48.37-.42.8,0-.09-.21-.23-.17-.19a5.38,5.38,0,0,0-.54,1.71l-.07-.15a5.08,5.08,0,0,0-.61.9c.08.15,0,.3.2.29a1.41,1.41,0,0,0-.78,1.17c-.12.44-.23.89-.73,1.1.05-.09,0-.27,0-.2l-.27.69c.23.06.17,0,.41-.06a.61.61,0,0,1,0,.54c0-.36-.32-.18-.5-.13.07,0,.11.1.18.13-.55.12.37.29-.14.6l-.09-.09c0,.2,0,.44-.14.6-.27-.06,0-.24-.18-.36-.14.26.13.76-.23.85,0-.14.09-.3.09-.45-.42.09-.37.16-.52.33l0,0-.38.36.14-.07c.4.69-.28.72-.15,1.39-.11-.65-.17-.2-.41-.4-.13.07-.31.19-.35.09.08.34-.37.24-.24.72-.08,0-.15.2-.32,0-.11.3.18,0,.27.12,0,.57-1,.7-1,1.51-.18.58,0,.86-.14,1.4-.23.07-.21-.32-.21-.32a.88.88,0,0,0-.46.65c0-.09-.13-.08-.27-.08-.1.2.21.33-.07.49a1.31,1.31,0,0,1-.2-.41c-.07.27-.07.59-.16.87-.18,0-.11-.29-.15-.43-.11.3-.33.75-.16,1l.19-.11c-.05.1-.22-.08-.21-.18,0-.34.29-.26.38-.22l-.06.2c.58.17.37-.7.62-1l.24.37-.05-.53c.14,0,.36.07.3.27.33-.12,0-.29.35-.36,0,0,.05,0,.05,0l.06-.3c0,.09.27.13.12.23.48-.27.2-.83.56-.81v.05c.28-.65-.21-.23-.22-.85l.83.13-.22-.22c0-.06.15-.16.23-.07,0-.33-.13,0-.21-.27.42-.13.43-.84.87-.65-.13-.23-.32.18-.27-.22.5.19.14-.41.51-.55.18.23-.1.4.27.26-.29-.4.39-.47.46-.74-.31-.2.16-.58.28-1,.09.09.6-.61.93-.9l0,0c-.27-.26,0-.59.1-.89a.41.41,0,0,1,.23.4l.14-.25a.48.48,0,0,1,0-.41l.2.2c.19-.34.12-.83.53-1.17-.21-.15-.82,0-.7-.54.13,0,.35.15.33.29,0-.05,0-.19.08-.24l.09.29c.21-.14-.11-.19,0-.34.17.1.19-.05.31,0s-.14.1-.11.2a.84.84,0,0,1,.51-.33c-.1,0-.23-.13-.18-.28.16-.35.27,0,.46-.16-.08-.14.16-.3-.1-.44,0-.1.18-.06.28-.06,0-.24.39-.85,0-.8l0,0v0h0c0-.72.77-1.14.95-1.78l.09.05c.08-.4.34-.8.27-1.14.05-.11.29-.17.37-.07.07-.3,0-.38.33-.69,0,.34.18,0,0,.33.26-.31.43-.33.35-.83.17.24.41-.13.41-.33l-.27.17a2.05,2.05,0,0,1,.23-.52l.27.23c.68-.57-.07-1.6.8-1.88-.13-.29-.33.33-.5,0,.19-.32.78-.48.82-.59.37-.39-.26-.61.06-1a.35.35,0,0,1-.4-.44c.19-.32.64-.23.64,0,0,.08-.08.11-.12.09,0,.13,0,.29.16.2l-.09-.09c.18-.12.37-.58.51-.4,0-.3-.14-.18-.28,0,.36-.36.27-.68.55-1.09-.09,0-.24.06-.22,0,.38-.61-.1-.37,0-.84.26-.2.37.24.4-.27.21-.23.31,0,.36.2-.06-.5.43-.73.55-.95v.25a1,1,0,0,1,.08-.37l-.27,0c.08-.12.12-.23.22-.19-.1-.19-.41,0-.52-.36.18-.14.07-.57.39-.52-.3.5.32,0,.2.51a.58.58,0,0,1,.12-.32s.06,0,.06.08c.45-.42-.25-.35-.05-.88a.24.24,0,0,0,.36-.12c-.08.21-.32,0-.38-.23.26-.3,0-.4.11-.58l-.13.18c-.14-.12-.06-.29-.05-.55.14,0,0,.25.11.19-.21-.37.49-.51.4-.95.17-.14.33.08.45-.05-.1-.49.37-.39.32-.89-.27.06-.22.1-.35-.28l-.06.78-.19-.57c-.07.22,0,.51-.07.63-.12-.28-.07-.24-.29-.2.43-.19,0-.65.31-.93l.56.18c.41-.45,0-1,.33-1.65l-.16.19c-.2-.15.09-.43.06-.67.19.07.3-.05.44-.11-.13,0,.14-.51-.23-.67l.33-.24c.23-.53-.4-.77-.21-1.29.17.21.36,0,.43.4,0-.18.12-.33,0-.37.15-.07-.14-.55.08-.68-.06-.09-.26-.16-.2-.36a.16.16,0,0,1,.1,0c-.1,0-.06-.34-.31-.21.72-.42.33-1.53.92-1.92a12.39,12.39,0,0,1,.07-1.25c.06,0,.1,0,.07.08.27-.46-.5-.4-.2-.92.36-.23.11.33.26.17.66,0,0-.69.48-1l0,.1c.27-.26-.11-.75,0-1.21a.14.14,0,0,0,.09,0,3,3,0,0,1-.35-1.48c.23.18.11.23.37.18,0-.21-.41,0-.44-.41.16-.12.32-.4.6-.4l0,.38c.38-.15.05-.5.14-.69l.15,0c0-.6-.36-.65-.26-1.28l-.12.05c-.34-.38.25-.27,0-.64l.4-.07a6.47,6.47,0,0,1-.36-1.26,3.59,3.59,0,0,1,.54,1.07c0-.23,0-.78-.16-.92,0,.1.12.22,0,.31a1.44,1.44,0,0,1-.37-1.14c.75.13.3-1.17.89-1.47-.26-.83.17-1.61.15-2.56-.6.33,0-.28-.62-.22,0-.22,0-.31,0-.33l.36-.66c.17-.16.13.21.27.18,0-.48.26-.2.42-.52-.22.06-.32-.17-.24-.45l-.28.4c-.33-.67.51-.6.18-1.28l.19.21c-.11-.34-.05-1.3-.56-1.62.07-.06.23-.15.28,0,.05-.85-.66-1.83-.42-2.51l.15,0c-.06-.16-.31-.24-.19-.46.07,0,.16,0,.16,0l-.07-.1-.11-.24a1.31,1.31,0,0,1-.13-.57l.21.23,0-.27a.24.24,0,0,0-.08-.22,3.28,3.28,0,0,0-.34-.31,3,3,0,0,0-.33-.24,1.09,1.09,0,0,0-.23-.09,3.52,3.52,0,0,1-.9-.38c.32-.31,0-.86-.2-1.13l.05,0a8.9,8.9,0,0,0-2.11-1.35,2,2,0,0,0-.64-1.08l-.51-.56-.12-.14a.05.05,0,0,1,0-.05.1.1,0,0,1,0-.09.66.66,0,0,1-.41.14c.06-.07-.53-.1,0-.16h0c.45-.11.3-.11.27-.15l-.86-.12c.49,0,.35-.09,0-.3s-.72-.48.2-.05c-.41-.22-.46-.27-.92-.54l.88.48c.12,0,.23.09,0-.1l0,0,.64.4.09.06h0l-1.4-.91a10,10,0,0,1-1.22-.85l1.39.91a6.88,6.88,0,0,1,.65.36c.19.11.2.11-.06-.18l.36.33.13.09.08.05-.28-.08c-.42-.15-.75-.34-.84-.67.13.24-.11.17-.36,0l-.08-.06c-.05,0,0,0,0,0h.19l.36,0-.15.25c.42-.24.46-.33.9-.28.09.07,0,.24-.09.13.29.25.34-.17.69.11l-.2.12c.33.13.34,0,.59-.1a2.88,2.88,0,0,1,1,.35,5.43,5.43,0,0,1,1.1.68c-.15-.21-.22-.45.16-.25.2.17.2.23.2.26.58.3.76.27.87.23s.19-.07.8.28c.24.17.39.27.51.34l-.91-.32a2,2,0,0,1-.37-.15c.49.43,1.24.73,1.45,1.18.09-.08.11-.23.18-.33s.21-.13.65.08l.33.21v0c.21.1.27.09.26,0,.31.15.53.26.72.33a5.5,5.5,0,0,0,.7.37c-.1-.15-.43-.48-.55-.62a8,8,0,0,0-1.4-.89,1.18,1.18,0,0,1,.3.27l.17.15-.09-.07.25.28-.33-.1c-.11-.12-.22-.23-.18-.24-.14-.13-.19-.2-.06-.16l-1.6-1.14c1,.51,1,.24,1.57.5a15.91,15.91,0,0,0-3.17-2.66c-.27-.2.12-.09.21-.12a4.1,4.1,0,0,0,.48.37c-.58-.46-1.09-1.16-1.7-1.3-.13-.4.72.3.09-.32l.23.09a3.54,3.54,0,0,0-1.61-1.61,1.55,1.55,0,0,1-1.08-1.19.27.27,0,0,1,0,.2c-.69-1.3-2.18-2-2.71-3.42-.18-.38-.39-.25-.68-.32l.17-.26-.54-.09c-.58-.28-.12-1.26-1-1.51l-.09.21c-.15-.23-.65-.56-.44-.68-.05,0-.22.07-.21-.08l.11-.11-.64-.32c-.25-.46.53-.35.06-.94-.23-.17-.87-.29-.88-.14a.32.32,0,0,1,0,.39l-.23-.14c-.38.27-.87.44-.7,1.12l.5.14-.08.26-.25-.27c0,.3.21.27.4.3a.39.39,0,0,0-.07.3l.62,0c-.1.16-.4.09-.29.38.29,0,.18-.42.51-.26,0,.3-.2.37.1.43a.19.19,0,0,1-.26.08c.25.07.42.39.68.32-.05.33.54.5.19.78a1.08,1.08,0,0,1,.66.2c-.64.07.47.58,0,.88.54-.11.8.6,1.32.79-.05,0-.14,0-.15,0,.15.23.09.38.14.57.32-.23.66,0,1,0-.07.5-.48.15-.68.47.23-.22.61.22.74,0,0,.35.06.24-.1.55.4-.28.22.13.58.09.06.43-.28.37.09.57C188.49,154.56,188.12,154.4,188.12,154.4Zm4.14,3.79h0Zm-.4-.13a.8.8,0,0,0,.21.08c.25.19.48.37.41.34S192.11,158.23,191.86,158.06Zm7,4.32.11.11a3.76,3.76,0,0,1-.47-.25l.16,0-.18-.17-.12-.09Z"/><path class="cls-39" d="M197.43,161.35l-.12-.1-.12,0,.32.22Z"/><path class="cls-39" d="M185.62,213h0Z"/><polygon class="cls-39" points="183.19 156.49 183.38 156.58 183.12 156.41 183.19 156.49"/><path class="cls-39" d="M182.64,216.35a.2.2,0,0,0-.1,0A.22.22,0,0,0,182.64,216.35Z"/><path class="cls-39" d="M181.61,218l-.22.17A1.93,1.93,0,0,0,181.61,218Z"/><path class="cls-39" d="M180.75,219.14a.59.59,0,0,0,.08.08h0Z"/><path class="cls-39" d="M190.32,198.13v-.06C190.31,197.93,190.3,198,190.32,198.13Z"/><path class="cls-39" d="M188.51,204.81a.74.74,0,0,1,0-.25C188.41,204.66,188.36,204.75,188.51,204.81Z"/><polygon class="cls-39" points="192.02 190.67 192.02 190.67 192.03 190.62 192.02 190.67"/><path class="cls-39" d="M188.61,204.26a.39.39,0,0,0-.13.3A.67.67,0,0,0,188.61,204.26Z"/><path class="cls-39" d="M177.12,224.31l-.05.05,0,0Z"/><path class="cls-39" d="M177.1,224.39l0,.09S177.12,224.42,177.1,224.39Z"/><path class="cls-39" d="M177.05,224.65l0-.17S177,224.58,177.05,224.65Z"/><path class="cls-39" d="M178.32,222.79l-.07-.07A.22.22,0,0,0,178.32,222.79Z"/><path class="cls-39" d="M178.63,222.29c-.1.11-.38.17-.44.37l.06.06C178.17,222.56,178.69,222.5,178.63,222.29Z"/><path class="cls-39" d="M181.07,221l-.35.36c.14,0,.33,0,.22.18C181.57,221.15,180.67,221.47,181.07,221Z"/><path class="cls-39" d="M182,219.73c-.09.25.14.08.18.12C182.2,219.65,182.2,219.6,182,219.73Z"/><path class="cls-39" d="M187.4,210l.22.13C187.68,209.88,187.53,210,187.4,210Z"/><polygon class="cls-39" points="187.08 207.46 186.86 207.58 187.03 207.76 187.08 207.46"/><polygon class="cls-39" points="189.25 207.05 189.25 207.15 189.3 206.79 189.25 207.05"/><path class="cls-39" d="M194.92,189.09h-.32C194.62,189.24,195,189.34,194.92,189.09Z"/><path class="cls-39" d="M195.84,181c.17-.07.3-.29.15-.45C196,180.74,195.81,180.91,195.84,181Z"/><polygon class="cls-39" points="190.43 160.16 190.64 160.22 190.44 160.14 190.43 160.16"/><path class="cls-39" d="M157.31,216c.1,0,.19-.2.06-.27l-.28.18Z"/><path class="cls-39" d="M157,214.88a.7.7,0,0,0-.69.37c.34-.11.28,0,.67-.14a.2.2,0,0,1,0,.33c.1,0,.12.22.32.11a.43.43,0,0,0-.47-.51C156.84,214.94,156.94,214.92,157,214.88Z"/><path class="cls-39" d="M148.64,203.51l0,.1A.3.3,0,0,0,148.64,203.51Z"/><path class="cls-39" d="M143.89,196.16c.05.05.09.06.12,0S143.91,196.13,143.89,196.16Z"/><path class="cls-39" d="M143.37,194.72l0,.08S143.41,194.72,143.37,194.72Z"/><path class="cls-39" d="M148.64,203.51l0-.25C148.49,203.31,148.59,203.4,148.64,203.51Z"/><path class="cls-39" d="M155,214a.28.28,0,0,0,.15,0l-.1-.07Z"/><path class="cls-39" d="M151.09,206.49l0,0,.14,0Z"/><path class="cls-39" d="M152.89,208.82c0-.06-.26.09-.38.15.12,0,.19,0,.24,0A.46.46,0,0,0,152.89,208.82Z"/><path class="cls-39" d="M155.44,212.76l.08,0Z"/><path class="cls-39" d="M149.91,204.74l.07-.08A.19.19,0,0,0,149.91,204.74Z"/><path class="cls-39" d="M125.64,145.43l0,0S125.65,145.41,125.64,145.43Z"/><polygon class="cls-39" points="127.92 142.51 127.92 142.56 128.07 142.61 127.92 142.51"/><path class="cls-39" d="M142.19,192.23h0C142.26,192.28,142.23,192.25,142.19,192.23Z"/><path class="cls-39" d="M128.73,171.05c-.07.38-.52-.23-.53.28C128.27,171.24,128.77,171.44,128.73,171.05Z"/><path class="cls-39" d="M155,213.94a.24.24,0,0,1-.08-.09C155,213.9,155,213.93,155,213.94Z"/><path class="cls-39" d="M128.2,171.33h0v0Z"/><path class="cls-39" d="M138.65,187a.47.47,0,0,0-.07.12A.19.19,0,0,0,138.65,187Z"/><path class="cls-39" d="M140.84,191.19l0-.12A.35.35,0,0,0,140.84,191.19Z"/><path class="cls-39" d="M137,185.17c0-.06,0-.1-.07-.16a.09.09,0,0,0,0,.05S137,185.09,137,185.17Z"/><path class="cls-39" d="M135.67,183a.19.19,0,0,0,0,.07l0,.06Z"/><path class="cls-39" d="M123.41,153.75a2.22,2.22,0,0,1,.34-.3C123.5,153.6,123.6,153,123.41,153.75Z"/><path class="cls-39" d="M155.14,213.92a.13.13,0,0,1-.14,0l.07.06A.18.18,0,0,0,155.14,213.92Z"/><path class="cls-39" d="M135.08,186.26l-.18-.36A2.41,2.41,0,0,0,135.08,186.26Z"/><path class="cls-39" d="M124.46,157.58l.06-.08A.09.09,0,0,0,124.46,157.58Z"/><path class="cls-39" d="M134.23,184.9a.53.53,0,0,0,.05-.29.27.27,0,0,0-.09,0Z"/><path class="cls-39" d="M123.76,153.45h0Z"/><path class="cls-39" d="M124,150.11c-.12.37.3.27.48.41,0,.47-.32.13-.55.22,0,.31.28.61.21.81-.06,0-.09,0-.15,0a.45.45,0,0,1,0,.34,3.49,3.49,0,0,1-.12.54c-.09.37-.18.75,0,.95l-.12.1a2,2,0,0,1,.6-.26c-.06.22.17.26-.15.48.05-.14-.06-.1-.13-.12l0,.17c-.48.42,0-.25-.35-.14,0,.44.15.73,0,1.08h.09a.69.69,0,0,1-.35.18c0-.14.16-.63-.24,0l.35-.72c-.81.86.16-.45-.68.41a3.38,3.38,0,0,0-.24,1,4.62,4.62,0,0,1,1.14,0c.39-.19.2-.28.57-.47.72-.16.77.05.9.25s.27.38.84.16c.25-.23.56-.66.69-.43a1.78,1.78,0,0,0-.1.38c.1,0,.26-.55.4-.29-.14.15-.23.13-.22.17,0,.3.19-.22.34-.22l-.24.34a6.1,6.1,0,0,1,1.15-.36,5.29,5.29,0,0,0-.59.31c.28-.08.43-.07.4,0a1.32,1.32,0,0,1-.53.26l1.1-.3-.25.08-.43.11c-.34.11.69-.18,1.16-.3,0,0,0,0,0,0l-1,.25a2.43,2.43,0,0,1,.83-.1c.06,0-.15.15-.65.26h-.2c-.22.05.15,0,.42,0s.47,0,.07.09h-.09a2.87,2.87,0,0,0-.64.33.88.88,0,0,1-.72.1c.15.15,0,.18-.06.19s-.37.18-.23.43c-.6,0-.52-.15-1.27.05-.19.08-.08.47-.27.64l-.15-.26-.14.45-.33-.23-.17.18a.24.24,0,0,1,.27.11.83.83,0,0,1-1,.12l-.61.65c0-.12,0-.23.11-.35-.24.5-.23-.24-.45.22.08,0,.06.17.09.23a1.43,1.43,0,0,0-1,.44.62.62,0,0,0,0-.24c-.49.25-1.06.61-1.58.94l-.78.51-.2.12c0,.05.07.14.1.2l.26.42c-.12-.38.44-.17.63.1l-.33.07c.35.21,0-.28.5.12.15.33-.28.25-.55,0l.41.49c-.09,0-.21-.07-.37-.1.18.1.21.33.29.59s.2.54.45.62l-.07.07c.41.7.64.87,1,1.38.25-.14.31.09.6.13a5.16,5.16,0,0,0,.48,1.36c.3.24.26,0,.48,0-.2.15.08.58-.21.45a6.18,6.18,0,0,0,1,1.22c0-.13,0-.24.14-.24a.25.25,0,0,1,0,.38l0,0c.78.56.41,2.13,1.23,2.45l0,0,.61.48c.13.31-.27-.07-.28.22.77.45.59,1.1,1.17,1.5-.39.82,1,1.49.9,2.32l.13-.13c.24.06,0,.23.06.37.11-.09,0-.25.18-.21a19.47,19.47,0,0,1,2,4.12c.25.49.95-.22.95.6h-.38c.92.75,1.18,2,2.05,2.71-.1,0-.18,0-.24-.05-.08.32.44.73.61.63.07.15-.13.12-.16.27s.57.33.43.56c0,0-.1,0-.13,0,.17.06.34.61.5.34.11.42.52.6.56,1,.37,0,.24.67.65.5-.4.21.07.8.39.91-.16,0,0,.27-.21.28.16.25.38.43.55.27-.17.75,1,.69.53,1.32a20,20,0,0,1,1.77,1.83c-.4.22-.51-.72-.89-.43.56.53,1.12.69,1.42,1.38.06.19-.22,0-.32,0,.56.53.75,1.24,1.32,1.67,0,0-.11,0-.18-.05.09.1.11.29.28.17l-.12-.08c.14-.34.81.1.95,0-.61.13.24.64-.58.74a.27.27,0,0,0,.32,0c0,.13,0,.21-.21.18.35.34.44.08.67.44-.08.06-.16,0-.28,0,.28.08.56.15.68.5-.06,0-.1.09-.16,0,.36.51,1,.61,1.22,1.28-.47.07,0,.27-.28.51l.29.24.07-.22c.18.27.56.36.61.65l-.26-.11.39.46-.07-.36c.34.16.38-.29.53.12-.08-.05.17.27.08.53h0c.18.07.38.14.43.38s-.37.19-.41.27c.34,0,.48.58.87.56a.44.44,0,0,0-.29.13l.29,0c0,.17,0,.21-.15.28.2.39.31-.39.43.17,0,0-.06,0-.14,0,.21.5.7.77.88,1.24-.23.33-.32-.3-.49,0,.46.54,1.2,1,1.51,1.56l0-.13c.49-.22.07.57.48.71-.08,0-.31.08-.25.07.2.43.65.71,1.19,1.2h-.16a5.32,5.32,0,0,0,.47.92c.16,0,.25.15.35-.05-.1,1.19,1.36,1.18,1.31,2.22-.06-.08-.24-.12-.19-.06l.51.49c.15-.18.06-.15.12-.38a.58.58,0,0,1,.46.23c-.31-.16-.3.22-.32.41,0-.06.13-.07.18-.12-.12.53.41-.23.48.34l-.12.05c.16.11.39.16.48.33-.16.23-.22-.08-.4,0,.18.22.74.14.68.5-.13-.05-.24-.19-.37-.24-.08.41,0,.39.09.58v0l.18.47v-.15c.77-.14.54.49,1.19.59-.62-.1-.24.09-.51.25,0,.15.05.35,0,.36.33,0,.08.42.55.45-.07.07.14.19-.08.31.24.18.09-.16.2-.22.52.15.33,1.09,1.12,1.29.51.31.82.17,1.28.46,0,.23-.36.12-.36.12a.81.81,0,0,0,.49.58c-.1,0-.12.11-.14.25.15.14.35-.13.43.18a1.7,1.7,0,0,1-.43.1,7.41,7.41,0,0,0,.8.31c-.07.17-.31.07-.45.08.27.16.67.44.92.31l-.07-.21c.09.07-.12.21-.21.19-.34,0-.2-.33-.14-.4l.18.08c.27-.53-.61-.45-.82-.77l.41-.16-.5-.06c0-.13.16-.33.33-.23,0-.34-.27-.08-.24-.41,0,0,0-.05.06,0l-.26-.11c.1,0,.19-.23.25-.07-.12-.51-.72-.36-.6-.7h0c-.53-.4-.27.15-.86,0l.37-.72-.28.14c0-.06-.1-.17,0-.23-.32-.06-.08.12-.32.13,0-.43-.64-.62-.31-1-.25,0,0,.36-.29.18.36-.4-.31-.26-.3-.64.27-.09.33.22.34-.16-.47.14-.27-.51-.49-.66-.29.22-.44-.33-.79-.58.12-.06-.32-.74-.43-1.13l.06,0c-.34.16-.52-.21-.75-.4a.44.44,0,0,1,.46-.06l-.16-.22a.4.4,0,0,1-.37-.13l.26-.1c-.22-.29-.69-.41-.81-.89-.22.13-.36.72-.79.41.1-.09.28-.24.41-.17,0,0-.19-.06-.19-.16l.31,0c0-.23-.23,0-.31-.12.17-.12,0-.19.19-.26s0,.17.12.18a.71.71,0,0,1-.05-.58c-.08.07-.21.15-.32,0-.22-.28.12-.24.08-.47-.16,0-.18-.26-.42-.09-.06-.09,0-.18.08-.26-.22-.08-.53-.7-.67-.35v.06l0,0h0c-.58-.34-.58-1.15-1-1.58l.08-.06c-.3-.23-.51-.63-.83-.72A.26.26,0,0,1,147,201c-.22-.19-.33-.15-.42-.57.3.13.07-.17.26.16-.13-.34-.05-.5-.49-.67.28,0,.11-.4-.05-.5v.31a1.57,1.57,0,0,1-.29-.45l.33-.11c-.07-.84-1.31-.72-1.06-1.57-.3,0,.09.43-.24.43-.15-.31.06-.87,0-1-.11-.49-.65-.09-.81-.56a.37.37,0,0,1-.59.09c-.16-.3.18-.62.38-.49s0,.11,0,.13.22.16.25,0l-.12,0c0-.21-.27-.59,0-.61-.24-.15-.23,0-.17.21-.1-.46-.38-.57-.53-1,0,.1-.09.23-.13.17-.24-.63-.35-.12-.63-.47,0-.31.41-.16,0-.45-.05-.3.23-.22.37-.18-.42-.22-.29-.73-.38-1l.19.13a.92.92,0,0,1-.23-.26l-.13.24c0-.13-.09-.22,0-.27-.2,0-.27.29-.59.19,0-.21-.39-.36-.16-.58.2.5.23-.22.52.13a.45.45,0,0,1-.17-.27s.07,0,.1,0c0-.58-.42,0-.7-.45.18,0,.21-.29.13-.34.12.18-.19.25-.41.16-.07-.36-.29-.26-.37-.41l.06.2c-.19,0-.26-.11-.44-.28.11-.09.2.13.2,0-.4,0,0-.67-.42-.86,0-.21.27-.19.26-.36-.41-.22,0-.51-.42-.77-.14.24-.08.22-.44.09l.52.51-.53-.2c.11.19.37.3.4.43-.28-.08-.22-.09-.33.1.15-.43-.48-.37-.46-.79l.5-.31c-.05-.57-.74-.59-1-1.23l0,.23c-.24.06-.24-.32-.44-.45.18-.09.17-.24.22-.38-.11.08-.24-.42-.61-.26l.07-.38c-.2-.51-.81-.22-1-.68.26,0,.26-.26.57,0-.09-.15-.14-.29-.26-.22,0-.15-.48-.26-.4-.49-.11,0-.3.07-.39-.1a.12.12,0,0,1,.08-.05c-.08.05-.27-.19-.36.07.24-.77-.82-1.22-.61-1.89a8.45,8.45,0,0,1-.74-.91c.06,0,.08-.05.1,0-.09-.5-.63.05-.74-.51.13-.39.3.15.31-.05.51-.41-.42-.5-.28-1l.08.05c0-.35-.56-.44-.76-.84a.16.16,0,0,0,.09,0,2.57,2.57,0,0,1-1.15-.84c.29,0,.22.1.4-.11-.13-.14-.33.27-.59,0,0-.18,0-.48.23-.66l.2.31c.21-.35-.26-.4-.3-.59l.14-.06c-.33-.45-.67-.25-1-.77l-.07.11c-.5-.07,0-.35-.37-.47l.28-.29a5.34,5.34,0,0,1-1-.74,3.7,3.7,0,0,1,1,.49c-.11-.18-.4-.6-.63-.59.08.05.22.09.21.2a1.23,1.23,0,0,1-.92-.65c.69-.33-.42-1-.07-1.61-.63-.5-.67-1.34-1.17-2.06-.34.57-.14-.21-.64.15-.14-.16-.17-.23-.14-.26v-.72c.08-.22.21.09.32,0-.19-.41.13-.3.11-.63-.15.16-.34,0-.4-.24l-.06.46c-.6-.37.16-.73-.44-1.1l.27.07c-.27-.22-.62-1-1.2-1,0-.09.14-.24.25-.14-.34-.7-1.33-1.2-1.38-1.87l.16,0c-.12-.1-.37-.07-.34-.3.06,0,.16,0,.13-.09s-.42-.19-.44-.4l.23.05c-.22-.74-1-.78-1.36-1.27.38-.22.2-.8.11-1.09l.06,0a3,3,0,0,0-.76-.91l-.44-.37c-.14-.12-.19-.09-.3-.18.19-.16.2-.23.18-.33s.25-.12.39-.05c-.07,0-.23-.26-.19-.33s.12-.11.19-.19.14-.12.23.06l-.06,0c.32.27.6,0,.88-.16l-.22-.48c1.07.27,1.67-1.28,2.39-.9.1-.21.31-.33.41-.54l.13.25a6.61,6.61,0,0,0,.63-.27l.3-.17.47-.31-.11.3c.67-.37.21-1.06.58-1.29l.55.17c.47-.27,1.06-.5,1.63-.78s1.1-.58,1.18-.85c.11,0,.33,0,.2.12.46-.25,2.58-1.15.92-.87,1-.12,1.12-.59,1-.73l.78-.13c-.68,0-1,.05-.84-.15s.88-.25.47-.1c.92-.36-.57,0,.33-.33h0l.1,0,.42-.06.18-.1a10.82,10.82,0,0,0-1.55.29c-.66.11-.59-.07.1-.33a5.48,5.48,0,0,1-1.47.29,3.38,3.38,0,0,1,.64-.18,2.64,2.64,0,0,0-1.13,0c-.44.07-.78.13-.76,0,.19-.1.25-.14.26-.17a7,7,0,0,1,1.07,0c.69-.25.15-.3,1.56-.65l-1.85.36a3.55,3.55,0,0,1-1.23.13l.09-.09.11,0a1.24,1.24,0,0,0-.44,0,.88.88,0,0,0-.36-.07c.25-.22-.57-.12-.87-.13-.31.28-.61.24-.54.47,0,0,.09,0,.29,0l.15,0-.05,0,.71,0c-.45.14-.8.26-.88.11l-.87.45c.16-.39-.43-.6-.41-.84-.51.07-1,.1-1.54.17-.3,0-.24.09-.35.16l-.27.3c-.13.07,0-.15,0-.24s.12,0,.17-.12c-.21.14-.45.06-.87.42-.09-.16.47-.34.1-.27l.16-.12a.17.17,0,0,0,0-.12c.15-.23-.13-.17-.25-.38a.48.48,0,0,1-.07-.4,1.13,1.13,0,0,1,.38-.56c-.07.07-.1.1-.17.1.69-1.2.46-2.74,1.34-3.87.2-.33,0-.44-.12-.71h.31l-.23-.48c-.09-.6,1-.72.71-1.53l-.22,0c.11-.23.11-.81.32-.7,0,0-.18-.14,0-.2l.15,0-.09-.67c.24-.43.58.24.81-.43,0-.26-.24-.84-.37-.77a.29.29,0,0,1-.32.19l0-.25c-.43-.17-.84-.48-1.31,0l.16.47-.26.07.09-.34c-.26.13-.12.3,0,.47a.39.39,0,0,0-.29.1l.32.51c-.19,0-.3-.28-.47-.05.15.24.44-.06.49.28-.26.13-.41,0-.3.3a.21.21,0,0,1-.21-.17c.09.23-.09.53.12.7-.31.13-.12.69-.54.55a1.09,1.09,0,0,1,.2.62c-.41-.47-.22.67-.74.43.38.37-.05.94.08,1.44,0,0-.09-.1-.06-.13-.11.23-.26.26-.39.4.36.13.34.54.51.81-.44.19-.39-.31-.76-.31.31.07.16.6.44.57-.29.17-.17.17-.51.2.46.17,0,.23.25.5-.33.27-.46,0-.42.37C124.09,150.48,124,150.11,124,150.11Zm4.37,4.75h0l-.13,0Zm.41,0h-.15a3,3,0,0,1,.47-.19A2,2,0,0,0,128.8,154.85Zm1.82-1.94c.27,0,.26,0,.2.07l-.4,0-.07,0A1.16,1.16,0,0,1,130.62,152.91Z"/><path class="cls-39" d="M129.79,153.27l-.1,0s0,.05,0,.07l.17-.09Z"/><path class="cls-39" d="M148.66,203.62h0a.06.06,0,0,1,0,0S148.66,203.64,148.66,203.62Z"/><polygon class="cls-39" points="125.12 157.04 125.16 157.1 125.18 157.01 125.12 157.04"/><path class="cls-39" d="M150.3,207.57a.11.11,0,0,0,0,.08A.22.22,0,0,0,150.3,207.57Z"/><path class="cls-39" d="M151.32,209.05l.07.27A1.43,1.43,0,0,0,151.32,209.05Z"/><path class="cls-39" d="M152.05,210.24l.11-.05h0Z"/><path class="cls-39" d="M139.31,192.29l0,0C139.16,192.17,139.22,192.23,139.31,192.29Z"/><path class="cls-39" d="M143.44,197.4l-.23-.1C143.26,197.41,143.3,197.49,143.44,197.4Z"/><polygon class="cls-39" points="135.1 186.31 135.11 186.3 135.08 186.26 135.1 186.31"/><path class="cls-39" d="M143.05,197a.32.32,0,0,0,.16.26A.63.63,0,0,0,143.05,197Z"/><path class="cls-39" d="M155.89,215l0,.05,0,0Z"/><path class="cls-39" d="M156,215l.08,0S156,215,156,215Z"/><path class="cls-39" d="M156.22,215.09l-.17-.06S156.13,215.12,156.22,215.09Z"/><path class="cls-39" d="M154.71,213.5l-.09.05Z"/><path class="cls-39" d="M154.32,213.09c.07.12.05.4.22.5l.08,0C154.44,213.58,154.53,213.07,154.32,213.09Z"/><path class="cls-39" d="M153.8,210.5l.22.42c0-.14.09-.31.24-.16C154.15,210.1,154.14,211,153.8,210.5Z"/><path class="cls-39" d="M153.06,209.26c.19.17.12-.1.17-.12C153.06,209.07,153,209.06,153.06,209.26Z"/><path class="cls-39" d="M147,200.82l.22-.13C147.1,200.56,147.15,200.75,147,200.82Z"/><polygon class="cls-39" points="144.79 199.91 144.76 200.16 145.01 200.1 144.79 199.91"/><polygon class="cls-39" points="145.66 197.92 145.73 197.97 145.48 197.75 145.66 197.92"/><path class="cls-39" d="M136.12,183.27l-.24.22C136,183.57,136.31,183.4,136.12,183.27Z"/><path class="cls-39" d="M131.87,177c.09-.15.06-.38-.14-.41C131.8,176.76,131.79,177,131.87,177Z"/><polygon class="cls-39" points="124.63 160.23 124.55 160.39 124.76 160.18 124.63 160.23"/><path class="cls-39" d="M160.38,260.35c.09.06.28,0,.24-.15l-.33-.11Z"/><path class="cls-39" d="M161,259.17a.66.66,0,0,0-.75-.28c.32.19.19.24.57.44a.21.21,0,0,1-.22.28c.09.06-.06.28.15.36a.55.55,0,0,0,0-.81C160.81,259.1,160.9,259.15,161,259.17Z"/><path class="cls-39" d="M161.29,242.33l0,.11A.36.36,0,0,0,161.29,242.33Z"/><path class="cls-39" d="M161.74,231.92c0,.08,0,.11.07.11S161.77,231.9,161.74,231.92Z"/><path class="cls-39" d="M162.19,230.16l0,.1S162.21,230.18,162.19,230.16Z"/><path class="cls-39" d="M161.29,242.33l.11-.28C161.29,242,161.32,242.19,161.29,242.33Z"/><path class="cls-39" d="M160.1,256.87a.34.34,0,0,0,.09.15,1,1,0,0,1,0-.14Z"/><path class="cls-39" d="M161.53,246.92V247l.13.07Z"/><path class="cls-39" d="M161.6,250.45c0-.08-.27-.11-.39-.14.11.05.17.1.19.17Z"/><path class="cls-39" d="M161.21,256l0,.1Z"/><path class="cls-39" d="M161.59,244.4a.24.24,0,0,0,.1,0A.17.17,0,0,0,161.59,244.4Z"/><path class="cls-39" d="M172,147.44H172S172,147.42,172,147.44Z"/><path class="cls-39" d="M171.89,143.28l.05,0,.14-.07Z"/><path class="cls-39" d="M162.72,226.93h0C162.74,227,162.73,227,162.72,226.93Z"/><path class="cls-39" d="M165.34,197.22c-.29.3-.24-.59-.59-.13C164.87,197.06,165.12,197.61,165.34,197.22Z"/><path class="cls-39" d="M160.13,256.78s0-.1,0-.15A.62.62,0,0,0,160.13,256.78Z"/><path class="cls-39" d="M164.75,197.09h0l0,0Z"/><path class="cls-39" d="M163,219.44a.33.33,0,0,0-.13.07A.23.23,0,0,0,163,219.44Z"/><path class="cls-39" d="M162.25,225l0-.14A.27.27,0,0,0,162.25,225Z"/><path class="cls-39" d="M162.86,216.52c0-.07.07-.09,0-.2l0,0A.12.12,0,0,1,162.86,216.52Z"/><path class="cls-39" d="M163.12,213.51l-.06.05v.1Z"/><path class="cls-39" d="M172.65,156.23a1.11,1.11,0,0,1,.27-.13C172.71,156.14,172.67,155.7,172.65,156.23Z"/><path class="cls-39" d="M160.25,256.86a.14.14,0,0,1-.12-.08l0,.1A.15.15,0,0,0,160.25,256.86Z"/><path class="cls-39" d="M160.67,216.22l.08-.48A2.08,2.08,0,0,0,160.67,216.22Z"/><path class="cls-39" d="M168.09,177v-.12A.13.13,0,0,0,168.09,177Z"/><path class="cls-39" d="M160.83,214.31a.64.64,0,0,0,.21-.26A.34.34,0,0,0,161,214Z"/><path class="cls-39" d="M172.92,156.1Z"/><path class="cls-39" d="M172.31,153c0,.44.36.2.57.29.11.54-.27.25-.46.43.1.33.44.59.42.84-.06,0-.08.06-.16,0,.31.35,0,1,.33,1.46a.14.14,0,0,1-.09,0,1.14,1.14,0,0,1,.51,0c0,.2.21.39,0,.45,0-.13-.08-.14-.15-.2l.09.21c-.36.17-.1-.29-.36-.31.09.42.34.92.22,1.23-.34,0-.06-.74-.39-.34l.16-.48c-.56.33.06-.3-.54,0-.14.63.13.72,0,1.35.18.16.28,0,.46.14.24.94-.94.62-.57,1.33.21.2.62.32.34.77l-.36-.21c-.12.61.5.42.16,1-.13-.14-.06-.51-.12-.42-.35.38.18.33.14.65l-.35,0c0,.66,0,1.42,0,2.16-.09-.06-.18-.21-.31-.06a6.53,6.53,0,0,1-.8,2.77l.2.4c0,.07-.16.11-.2,0-.19.31.18.05.25.24s-.22.22-.28.08a3.59,3.59,0,0,1-.35,2.39l-.06-.14c-.23.46.45.71,0,1.09l0-.1c-.44,1-.53,2.27-1.19,3,.36.28-.49,1,.05,1.23-.46.51-.52.31-1,1.08-.11.22.23.45.19.75l-.29-.09.17.48-.41.08,0,.28c0-.09.21-.17.29-.13,0,.46-.55.92-.7.88l-.09,1c-.11-.06-.09-.23-.12-.39.11.62-.34,0-.23.55.08,0,.16.1.21.13a2.07,2.07,0,0,0-.53,1.11l-.17-.15c-.33.68-.49,1.51-.8,2.3a.25.25,0,0,1,.46.2l-.34,0c.13.22.21-.2.32.2-.16.28-.43.06-.46-.15l0,.4c-.09,0-.11-.11-.22-.18.13.22-.54.49-.3.83h-.1a8.23,8.23,0,0,0-.32,1l-.12.42-.13.36-.06.37c.28.07.16.33.35.57a7.44,7.44,0,0,0-.58,1.63c.06.45.21.17.34.39-.26,0-.34.6-.47.25a8.83,8.83,0,0,0-.05,1.9c.12-.08.18-.19.26-.11s-.17.36-.29.32l0-.05c.21,1.09-1.1,2.28-.71,3.19l0-.05.15.9c-.1.39-.16-.26-.36,0,.3,1-.26,1.45-.09,2.26-.84.49-.24,2.1-.81,2.84l.18,0c.15.23-.13.24-.19.38.14,0,.18-.2.26-.06a30.1,30.1,0,0,1-1.07,5.36c-.12.66.87.48.36,1.26l-.3-.27c.23,1.37-.3,2.71-.1,4-.07-.09-.17-.1-.15-.23-.27.26-.12,1,.08,1,0,.2-.18,0-.29.15s.23.72,0,.84c0,0-.07-.08-.08-.13.09.19-.11.83.18.68-.18.48,0,1-.16,1.32.29.29-.22.83.21.95-.44-.08-.43.82-.25,1.15-.12-.12-.16.26-.34.12,0,.35,0,.68.27.64-.59.61.32,1.34-.4,1.65a25.91,25.91,0,0,1,.31,3c-.45-.06,0-1-.45-1a6.33,6.33,0,0,1,.31,2.33c-.08.23-.19-.14-.26-.22.13.9-.17,1.72,0,2.53,0,0-.08-.09-.12-.17,0,.15-.08.36.13.35l-.05-.15c.31-.24.59.65.74.69-.57-.3-.19.78-.91.31,0,.11.13.24.27.23,0,.15-.14.19-.28,0,.08.57.31.38.28.89-.1,0-.14-.11-.25-.17a1.08,1.08,0,0,1,.25,1s-.14,0-.13-.11c0,.74.45,1.28.22,2.08-.42-.26-.15.27-.53.3l.09.44.19-.17c0,.38.23.73.1,1.06l-.14-.29,0,.71.16-.4c.18.4.47,0,.35.49,0-.11,0,.38-.24.57h0a.71.71,0,0,1,.13.67c-.12.07-.41-.08-.49,0,.31.2.06.89.38,1.14a.38.38,0,0,0-.31-.07l.25.17c-.09.17-.13.2-.28.16-.07.53.47-.15.25.47,0,0-.06,0-.09-.13-.13.63.12,1.23,0,1.81-.38.16-.07-.51-.4-.32a16.36,16.36,0,0,1,.3,2.56l0-.15c.53.12-.27.6,0,1,0-.11-.29-.14-.24-.11a6.64,6.64,0,0,0,.27,2l-.13-.1a6.79,6.79,0,0,0-.15,1.21c.13.11.11.31.31.19-.8,1.09.38,2.09-.26,3.06,0-.12-.12-.28-.12-.19l.13.83c.23-.07.14-.11.32-.28a.71.71,0,0,1,.25.54c-.16-.37-.37,0-.5.16.07,0,.15,0,.22,0-.41.43.47.07.19.66l-.12,0c.06.22.23.42.19.66-.26.1-.12-.24-.34-.25,0,.33.51.65.24,1-.07-.14-.08-.35-.15-.49a.76.76,0,0,0-.28.61v0l-.14.57.08-.15c.7.41.13.85.59,1.41-.43-.54-.25-.09-.55-.13-.08.15-.18.37-.26.31.25.26-.19.45.17.82-.1,0,0,.28-.25.22.08.35.16-.08.29,0,.34.52-.37,1.26.1,2,.21.65.54.77.72,1.38-.15.21-.36-.16-.36-.16a1.13,1.13,0,0,0,0,.9c-.08-.06-.15,0-.26.1,0,.25.36.16.23.5a1.42,1.42,0,0,1-.4-.24c.1.29.29.58.38.89-.16.08-.26-.18-.37-.29.08.35.18.9.45,1l.09-.22c0,.12-.23.07-.28,0-.22-.29.08-.43.17-.45l.07.22c.57-.25-.11-.88-.09-1.32l.42.17-.36-.45c.11-.09.34-.17.4,0,.2-.32-.15-.28.07-.56,0,0,.06,0,.07,0l-.13-.3c.09.06.29-.06.24.13.22-.56-.34-.88,0-1.1l0,0c-.17-.76-.31-.06-.69-.63l.75-.41-.31-.07c0-.08,0-.23.15-.21-.22-.29-.13.06-.33-.11.26-.39-.16-1,.33-1.15-.23-.13-.18.37-.34,0,.52-.13-.09-.47.14-.83.27.11.13.44.37.09-.46-.21.1-.68,0-1-.36,0-.16-.63-.28-1.13.12,0,.19-.93.32-1.39l.06,0c-.36-.09-.3-.57-.38-.91a.42.42,0,0,1,.41.26V247a.56.56,0,0,1-.23-.39l.28.08c0-.43-.33-.87-.15-1.42-.26,0-.71.44-.88-.15.13,0,.37,0,.43.11,0-.05-.12-.18-.06-.28l.23.23c.11-.25-.19-.13-.16-.33.19,0,.14-.15.29-.12s-.08.18,0,.25a1,1,0,0,1,.31-.59c-.11,0-.27,0-.29-.17,0-.43.24-.14.34-.39-.13-.11,0-.38-.28-.39,0-.13.14-.15.22-.2-.13-.22,0-1-.34-.79l0,0v0h0c-.28-.74.19-1.52.07-2.25h.1c-.11-.43,0-1-.26-1.28,0-.13.18-.3.3-.24-.07-.33-.18-.37,0-.85.16.34.15-.11.11.35.1-.43.26-.53,0-1,.24.16.33-.32.26-.53l-.19.3a2.17,2.17,0,0,1,0-.63l.32.12c.44-.87-.63-1.61.07-2.26-.22-.24-.18.47-.44.25,0-.4.55-.8.55-.93.2-.55-.47-.54-.32-1.11-.12.07-.44.12-.54-.31.06-.41.52-.48.6-.22,0,.1,0,.14-.07.13s.08.31.22.16l-.12-.06c.13-.2.13-.75.32-.62-.1-.31-.19-.13-.25.09.18-.51,0-.81.18-1.34-.07.08-.21.15-.21.07.19-.78-.21-.36-.23-.89.2-.29.43.13.3-.41.14-.33.32-.06.41.08-.2-.5.2-.91.26-1.18l.08.26a1.21,1.21,0,0,1,0-.41l-.24.13c0-.14.06-.27.15-.26-.14-.17-.4.09-.59-.22.13-.2-.1-.62.22-.68-.14.63.32-.05.34.49a.64.64,0,0,1,0-.38s.06,0,.08.07c.31-.59-.34-.3-.3-.93.17.09.34-.12.31-.23,0,.26-.31.11-.43-.13.16-.4-.08-.44-.05-.65l-.08.23c-.17-.09-.14-.29-.18-.57.14,0,.08.26.15.16-.3-.33.37-.68.19-1.13.13-.19.33,0,.42-.17-.19-.5.28-.51.13-1-.25.13-.19.16-.4-.21l.11.85-.31-.56c0,.25.11.54.06.69-.17-.27-.12-.24-.32-.13.38-.32-.16-.7.11-1.09l.58.06c.31-.59-.22-1.09,0-1.87l-.12.25c-.23-.12,0-.49-.08-.75.2,0,.28-.11.41-.21-.15,0,0-.57-.34-.67l.29-.33c.16-.62-.5-.76-.38-1.37.2.2.36-.06.48.36,0-.2.07-.38-.07-.4.14-.11-.22-.58,0-.75-.08-.09-.29-.14-.25-.36a.11.11,0,0,1,.1,0c-.1,0-.1-.36-.34-.18.67-.57.11-1.75.68-2.25a10.69,10.69,0,0,1,0-1.38c.06,0,.1,0,.07.08.24-.53-.53-.39-.26-1,.35-.29.14.35.28.16.65,0,0-.77.4-1.15l0,.1c.25-.3-.16-.81-.06-1.33a.11.11,0,0,0,.09,0,3.41,3.41,0,0,1-.37-1.61c.24.19.11.25.38.18,0-.23-.43,0-.45-.44.16-.14.32-.45.6-.46l0,.43c.38-.18,0-.56.14-.78l.15,0c0-.66-.36-.72-.25-1.42l-.13.06c-.34-.43.26-.3,0-.72l.41-.07a7.3,7.3,0,0,1-.3-1.4,4,4,0,0,1,.48,1.2c0-.25.07-.86-.11-1,0,.11.11.25,0,.34a1.61,1.61,0,0,1-.31-1.27c.75.18.36-1.29,1-1.57-.16-.93.33-1.75.44-2.78-.64.28,0-.31-.59-.33,0-.24,0-.33.06-.35l.46-.67c.2-.15.11.24.24.24.13-.52.29-.18.5-.51-.22,0-.28-.23-.16-.51l-.34.38c-.21-.78.6-.56.39-1.35l.15.26c-.05-.39.22-1.39-.21-1.84.08-.05.26-.12.28.06.2-.9-.21-2.1.21-2.75l.13.09c0-.18-.22-.34,0-.53.06,0,.13.09.16,0s-.19-.49-.07-.7l.14.22c.34-.85-.17-1.42-.14-2.18.43.08.7-.58.83-.91l.06,0c0-.12,0-.24.07-.36s0,0,0-.07a5.65,5.65,0,0,0,.11-.68c.05-.45.08-.91.18-1.39.66-.39.94-1.83,1.55-2.64-.13.11-.31-.15-.29-.32.17-.18-.06-.69.31-.52l0,.07c.44,0,.49-.5.62-.84l-.47-.24c1-.65.56-2.46,1.38-2.73-.05-.26,0-.54,0-.79l.27.1a5.87,5.87,0,0,0,.58-1.66l.14.21c.15-.42-.61-.78-.51-1.18h.44c.21-.75.79-1.41.64-2.25.06,0,.17.08.15.21.12-.35.68-1.3.07-1.32.37.09.23-.78.17-1.23l.25.14c-.26-.44-.35-.47-.33-1,.06-.1.24-.05.13.09.24-.35-.18-.36.07-.78l.14.21c.11-.39,0-.38-.14-.64s.25-.73.51-.73a.48.48,0,0,1-.17-.56c.09,0,.14.08.16.13.31-.63-.14-1.05.22-1.45a.23.23,0,0,0,.17,0,5.66,5.66,0,0,1-.21.91c.25,0,.38-.37.66,0-.12-.39-.43-1-.23-1.45l.1,0,0,.05a.42.42,0,0,0,0-.27,1.56,1.56,0,0,0,.14-.33c.22,0,.2-.47.25-.69-.28,0-.18-.3-.46-.07,0,0,0,0,0,.19a.25.25,0,0,0,0,.09l0,0-.08.54c-.11-.2-.19-.39,0-.6a5.12,5.12,0,0,1-.39-.37c.45-.22.72-.76,1-.81-.07-.68.1-1.57-.38-2,0-.19.18-.2.27-.26,0,.12,0,.24.09.31-.09-.39.09-1.11-.29-1.24.2-.46.32.3.3-.36l.11.1c.65-1.26-.74-2.12,0-3.52-.05.1-.07.15-.13.17.36-1.64-.35-3.32,0-5,0-.48-.2-.49-.41-.74l.28-.15-.41-.41c-.4-.6.51-1.31-.2-2l-.16.16c-.05-.31-.39-.91-.15-.93,0,0-.23,0-.17-.18l.15-.06-.52-.63c-.12-.59.63-.14.29-1-.19-.28-.89-.67-.91-.49s.1.36,0,.44c-.07-.07-.13-.14-.21-.21-.42.22-.89.33-.91,1a3.48,3.48,0,0,1,.44.27l-.15.22-.16-.33c-.11.28.11.31.29.4a.43.43,0,0,0-.16.27l.57.25c-.16.12-.41-.06-.4.25.26.13.31-.32.56,0-.12.27-.31.26-.07.46a.19.19,0,0,1-.27,0c.2.17.23.56.5.61-.18.28.26.74-.18.82a1.17,1.17,0,0,1,.48.54c-.6-.28.14.78-.45.78.51.21.35,1,.68,1.48-.05,0-.13-.07-.11-.12,0,.29-.13.39-.21.58.39,0,.51.45.77.68-.36.39-.48-.18-.83,0,.31-.05.36.59.61.45-.21.29-.1.25-.41.4.49,0,.1.25.41.47-.23.4-.45.11-.31.55C172.48,153.41,172.31,153,172.31,153Zm-.12,10.46h0l0-.21Zm-.16.88a3.14,3.14,0,0,0,.08-.38c.1,0,.2,0,.17.13C172.23,164.05,172.14,164.24,172,164.36Zm2.27-1.53c0,.15-.05.19-.11.2s0-.15,0-.25l0,0Z"/><path class="cls-39" d="M174,162.52s0,0,0-.06a.27.27,0,0,0-.08.07l.08.06Z"/><path class="cls-39" d="M161.24,242.46v0l0,0S161.23,242.46,161.24,242.46Z"/><polygon class="cls-39" points="168.28 176.06 168.35 176.08 168.31 175.98 168.28 176.06"/><path class="cls-39" d="M160.25,247.4a.15.15,0,0,0-.07.07Z"/><path class="cls-39" d="M160.2,249.54l-.1.31A1.53,1.53,0,0,0,160.2,249.54Z"/><path class="cls-39" d="M160.07,251.19l.12,0h0Z"/><path class="cls-39" d="M160.36,225v-.07C160.31,224.77,160.33,224.87,160.36,225Z"/><path class="cls-39" d="M160.64,232.81c0-.09-.09-.17-.12-.26C160.49,232.69,160.48,232.8,160.64,232.81Z"/><polygon class="cls-39" points="160.66 216.27 160.66 216.27 160.66 216.22 160.66 216.27"/><path class="cls-39" d="M160.54,232.19a.46.46,0,0,0,0,.36A.73.73,0,0,0,160.54,232.19Z"/><path class="cls-39" d="M160.11,258.34v.08h.05Z"/><path class="cls-39" d="M160.15,258.43l0,.08S160.18,258.44,160.15,258.43Z"/><path class="cls-39" d="M160.26,258.7l-.08-.19C160.19,258.58,160.18,258.66,160.26,258.7Z"/><path class="cls-39" d="M160.18,256.15l-.1,0Z"/><path class="cls-39" d="M160.13,255.49c0,.16-.2.4-.13.62l.08,0C159.92,256,160.31,255.64,160.13,255.49Z"/><path class="cls-39" d="M161.31,252.7l-.06.56c.1-.1.25-.23.28,0C161.83,252.58,161.29,253.43,161.31,252.7Z"/><path class="cls-39" d="M161.46,251c0,.3.16,0,.22,0C161.58,250.81,161.55,250.76,161.46,251Z"/><path class="cls-39" d="M161.52,238.59l.26,0C161.75,238.39,161.68,238.62,161.52,238.59Z"/><polygon class="cls-39" points="160.27 236.18 160.1 236.4 160.34 236.51 160.27 236.18"/><polygon class="cls-39" points="162.14 234.84 162.17 234.94 162.09 234.55 162.14 234.84"/><path class="cls-39" d="M163.32,214.07l-.32,0C163,214.27,163.39,214.33,163.32,214.07Z"/><path class="cls-39" d="M163.91,205.1a.35.35,0,0,0,.17-.49C164,204.81,163.89,205,163.91,205.1Z"/><polygon class="cls-39" points="169.88 179.15 169.92 179.35 169.95 179 169.88 179.15"/></g></svg>