<svg id="Layer_1" data-name="Layer 1" xmlns="http://www.w3.org/2000/svg" viewBox="0 0 600 377"><defs><style>.cls-1{fill:#a7ced7;}.cls-2{fill:#a1c3c9;}.cls-24,.cls-3{font-size:12.12px;}.cls-3,.cls-47{fill:#1e3e47;}.cls-25,.cls-27,.cls-3{font-family:P22UndergroundMedium, P22 Underground;}.cls-4{letter-spacing:0.52em;}.cls-5{letter-spacing:-0.02em;}.cls-6{letter-spacing:0.52em;}.cls-7{letter-spacing:-0.03em;}.cls-8{letter-spacing:-0.03em;}.cls-9{letter-spacing:0.83em;}.cls-10{letter-spacing:0.83em;}.cls-11{letter-spacing:-0.02em;}.cls-12{letter-spacing:-0.02em;}.cls-13{letter-spacing:-0.06em;}.cls-14{letter-spacing:-0.12em;}.cls-15{letter-spacing:0.22em;}.cls-16{letter-spacing:-0.04em;}.cls-17{letter-spacing:0.3em;}.cls-18{letter-spacing:-0.01em;}.cls-19{letter-spacing:-0.02em;}.cls-20{letter-spacing:-0.01em;}.cls-21{letter-spacing:0.01em;}.cls-22{letter-spacing:0.01em;}.cls-23{letter-spacing:0.11em;}.cls-24,.cls-29,.cls-32{fill:#0a252e;}.cls-24,.cls-29{font-family:P22UndergroundHeavy, P22 Underground;}.cls-26,.cls-27{font-size:15.15px;}.cls-26{font-family:PTSerif-Regular, PT Serif;}.cls-28{letter-spacing:-0.08em;}.cls-29{font-size:20.2px;}.cls-30{letter-spacing:-0.02em;}.cls-31{fill:#5b6b70;}.cls-33{fill:#202020;}.cls-34{fill:#030b11;}.cls-35{fill:#bca084;}.cls-36{fill:#fff;}.cls-37{fill:#21251b;}.cls-38{fill:#36555e;}.cls-39{fill:#cdb295;}.cls-40{fill:#102d33;}.cls-41{fill:#032737;}.cls-42{fill:#2a485a;}.cls-43{fill:#041931;}.cls-44{fill:#af947b;}.cls-45{fill:#000308;}.cls-46{fill:#826826;}</style></defs><title>bookArtboard 8</title><rect class="cls-1" x="-1" y="-0.99" width="601" height="378.7"/><rect class="cls-2" x="301" y="-0.96" width="299" height="378.7"/><text class="cls-3" transform="translate(347.15 192.46) scale(0.99 1)">When<tspan class="cls-4" x="32.96" y="0"> </tspan><tspan x="42.42" y="0">a</tspan><tspan class="cls-4" x="48.36" y="0"> </tspan><tspan class="cls-5" x="57.81" y="0">s</tspan><tspan x="63.26" y="0">tring</tspan><tspan class="cls-4" x="89.8" y="0"> </tspan><tspan x="99.26" y="0">of</tspan><tspan class="cls-6" x="111.38" y="0"> </tspan><tspan x="120.83" y="0">brutal</tspan><tspan class="cls-4" x="155.49" y="0"> </tspan><tspan x="164.95" y="0">murders </tspan><tspan x="0" y="14.54">ter</tspan><tspan class="cls-5" x="16.6" y="14.54">r</tspan><tspan x="21.45" y="14.54">orizes</tspan><tspan class="cls-7" x="54.65" y="14.54"> </tspan><tspan x="57.4" y="14.54">London,</tspan><tspan class="cls-7" x="103.44" y="14.54"> </tspan><tspan x="106.19" y="14.54">it</tspan><tspan class="cls-8" x="114.31" y="14.54"> </tspan><tspan x="117.05" y="14.54">doesn&apos;t</tspan><tspan class="cls-7" x="159.22" y="14.54"> </tspan><tspan x="161.96" y="14.54">take</tspan><tspan class="cls-7" x="185.71" y="14.54"> </tspan><tspan class="cls-5" x="188.45" y="14.54">l</tspan><tspan x="192.33" y="14.54">ong </tspan><tspan class="cls-5" x="0" y="29.08">f</tspan><tspan x="4.61" y="29.08">or</tspan><tspan class="cls-9" x="16.97" y="29.08"> </tspan><tspan x="30.14" y="29.08">legendary</tspan><tspan class="cls-10" x="85.64" y="29.08"> </tspan><tspan x="98.82" y="29.08">detective</tspan><tspan class="cls-9" x="151.05" y="29.08"> </tspan><tspan x="164.22" y="29.08">Sher</tspan><tspan class="cls-5" x="189.31" y="29.08">l</tspan><tspan x="193.18" y="29.08">ock </tspan><tspan x="0" y="43.63">Holmes</tspan><tspan class="cls-11" x="43.63" y="43.63"> </tspan><tspan x="46.54" y="43.63">and</tspan><tspan class="cls-11" x="67.02" y="43.63"> </tspan><tspan x="69.93" y="43.63">his</tspan><tspan class="cls-12" x="86.05" y="43.63"> </tspan><tspan x="88.96" y="43.63">crime-so</tspan><tspan class="cls-13" x="138.77" y="43.63">l</tspan><tspan x="142.16" y="43.63">ving</tspan><tspan class="cls-11" x="164.7" y="43.63"> </tspan><tspan x="167.61" y="43.63">partner, </tspan><tspan x="0" y="58.17">D</tspan><tspan class="cls-14" x="8.97" y="58.17">r</tspan><tspan x="12.6" y="58.17">.</tspan><tspan class="cls-15" x="15.75" y="58.17"> </tspan><tspan class="cls-16" x="21.53" y="58.17">W</tspan><tspan class="cls-5" x="32.92" y="58.17">a</tspan><tspan x="38.61" y="58.17">tson,</tspan><tspan class="cls-17" x="66.97" y="58.17"> </tspan><tspan class="cls-18" x="73.79" y="58.17">t</tspan><tspan x="78.64" y="58.17">o</tspan><tspan class="cls-17" x="85.91" y="58.17"> </tspan><tspan x="92.73" y="58.17">find</tspan><tspan class="cls-17" x="115.27" y="58.17"> </tspan><tspan x="122.1" y="58.17">the</tspan><tspan class="cls-17" x="140.88" y="58.17"> </tspan><tspan x="147.7" y="58.17">ki</tspan><tspan class="cls-19" x="157.15" y="58.17">l</tspan><tspan x="161.03" y="58.17">ler,</tspan><tspan class="cls-17" x="179.94" y="58.17"> </tspan><tspan x="186.76" y="58.17">Lord </tspan><tspan x="0" y="72.71">Blac</tspan><tspan class="cls-5" x="23.51" y="72.71">k</tspan><tspan class="cls-20" x="29.57" y="72.71">w</tspan><tspan x="39.14" y="72.71">ood.</tspan><tspan class="cls-13" x="0" y="101.79">A</tspan><tspan class="cls-21" x="7.51" y="101.79"> </tspan><tspan x="10.75" y="101.79">de</tspan><tspan class="cls-19" x="24.56" y="101.79">vo</tspan><tspan x="37.41" y="101.79">tee</tspan><tspan class="cls-22" x="55.46" y="101.79"> </tspan><tspan x="58.7" y="101.79">of</tspan><tspan class="cls-21" x="70.82" y="101.79"> </tspan><tspan x="74.05" y="101.79">the</tspan><tspan class="cls-21" x="92.83" y="101.79"> </tspan><tspan x="96.07" y="101.79">dark</tspan><tspan class="cls-22" x="120.67" y="101.79"> </tspan><tspan x="123.9" y="101.79">arts,</tspan><tspan class="cls-21" x="148.74" y="101.79"> </tspan><tspan x="151.98" y="101.79">Blac</tspan><tspan class="cls-5" x="175.49" y="101.79">k</tspan><tspan class="cls-20" x="181.55" y="101.79">w</tspan><tspan x="191.12" y="101.79">ood </tspan><tspan x="0" y="116.34">has</tspan><tspan class="cls-23" x="18.9" y="116.34"> </tspan><tspan x="23.44" y="116.34">a</tspan><tspan class="cls-23" x="29.38" y="116.34"> </tspan><tspan x="33.92" y="116.34">bigger</tspan><tspan class="cls-23" x="68.09" y="116.34"> </tspan><tspan x="72.63" y="116.34">scheme</tspan><tspan class="cls-23" x="115.89" y="116.34"> </tspan><tspan x="120.43" y="116.34">in</tspan><tspan class="cls-23" x="130.85" y="116.34"> </tspan><tspan x="135.39" y="116.34">mind,</tspan><tspan class="cls-23" x="167.26" y="116.34"> </tspan><tspan x="171.8" y="116.34">and</tspan><tspan class="cls-23" x="192.28" y="116.34"> </tspan><tspan x="196.82" y="116.34">his </tspan><tspan x="0" y="130.88">execution pl</tspan><tspan class="cls-5" x="69.56" y="130.88">ay</tspan><tspan x="81.68" y="130.88">s right i</tspan><tspan class="cls-19" x="123.37" y="130.88">n</tspan><tspan class="cls-18" x="130.39" y="130.88">t</tspan><tspan x="135.24" y="130.88">o his plans. ยง</tspan></text><text class="cls-24" transform="translate(347.15 105.52) scale(0.99 1)">2009<tspan class="cls-25" x="27.02" y="0"> </tspan><tspan class="cls-26" x="30.17" y="0">|</tspan><tspan class="cls-27" x="33.76" y="0"> </tspan><tspan x="37.7" y="0">Di</tspan><tspan class="cls-14" x="49.46" y="0">r</tspan><tspan x="53.21" y="0" xml:space="preserve">. Guy Ritchie  </tspan><tspan x="0" y="18.18">Sher</tspan><tspan class="cls-5" x="25.69" y="18.18">l</tspan><tspan x="29.81" y="18.18">ock: </tspan><tspan class="cls-5" x="56.23" y="18.18">R</tspan><tspan x="63.74" y="18.18">obert D</tspan><tspan class="cls-19" x="107.61" y="18.18">o</tspan><tspan x="114.4" y="18.18">wney J</tspan><tspan class="cls-14" x="154.99" y="18.18">r</tspan><tspan x="158.75" y="18.18">.</tspan><tspan class="cls-28" x="0" y="36.36">W</tspan><tspan class="cls-5" x="12.12" y="36.36">a</tspan><tspan x="18.06" y="36.36">tson: Jude L</tspan><tspan class="cls-5" x="87.49" y="36.36">a</tspan><tspan x="93.43" y="36.36">w </tspan></text><text class="cls-29" transform="translate(346.5 59.55) scale(0.99 1)">Sher<tspan class="cls-30" x="42.82" y="0">l</tspan><tspan x="49.69" y="0">ock Holmes</tspan></text><path class="cls-31" d="M300,375c-.16-.65-.44-1.39-.75-1,.32.64.19.8.57,1.49,0,.55-.11,1-.23.86.08.2-.08.86.13,1.15a4.67,4.67,0,0,0,.06-2.56C299.8,374.76,299.89,375,300,375Z"/><path class="cls-31" d="M300.46,321.3l0,.35A1.25,1.25,0,0,0,300.46,321.3Z"/><path class="cls-31" d="M300.65,288c0,.25,0,.36.07.37C300.69,288.16,300.67,288,300.65,288Z"/><path class="cls-31" d="M301,282.35c0,.12,0,.22,0,.33A.78.78,0,0,0,301,282.35Z"/><path class="cls-31" d="M300.46,321.3l.11-.89C300.46,320.35,300.49,320.87,300.46,321.3Z"/><path class="cls-31" d="M299.15,367.6a2.75,2.75,0,0,0,.09.48c0-.15,0-.3,0-.45Z"/><path class="cls-31" d="M300.73,336v.27a1.64,1.64,0,0,0,.14.22Z"/><path class="cls-31" d="M300.78,347.23c0-.26-.27-.35-.39-.44a1,1,0,0,1,.19.55C300.64,347.35,300.7,347.31,300.78,347.23Z"/><path class="cls-31" d="M300.29,365.08l0,.31A2.91,2.91,0,0,1,300.29,365.08Z"/><path class="cls-31" d="M300.79,327.91a.24.24,0,0,0,.1-.1S300.82,327.85,300.79,327.91Z"/><path class="cls-31" d="M298.68,13.05h.05C298.7,13,298.68,13,298.68,13.05Z"/><path class="cls-31" d="M300.07,0l0,.18a.42.42,0,0,0,.16,0Z"/><path class="cls-31" d="M301.37,272s0,0,0,0C301.4,272.27,301.39,272.11,301.37,272Z"/><path class="cls-31" d="M301.16,176.5c-.25,1.08-.32-1.76-.6-.13C300.67,176.22,301,177.85,301.16,176.5Z"/><path class="cls-31" d="M299.19,367.31c0-.15,0-.31,0-.46A3.1,3.1,0,0,0,299.19,367.31Z"/><path class="cls-31" d="M300.56,176.37h0l0,.17C300.54,176.47,300.55,176.43,300.56,176.37Z"/><path class="cls-31" d="M301.2,248a.65.65,0,0,0-.12.25S301.14,248.17,301.2,248Z"/><path class="cls-31" d="M300.8,265.84l0-.44A2.47,2.47,0,0,0,300.8,265.84Z"/><path class="cls-31" d="M300.8,238.73a2.21,2.21,0,0,0,0-.65.3.3,0,0,0,0,.1A1,1,0,0,1,300.8,238.73Z"/><path class="cls-31" d="M300.8,229.08s0,.12-.05.18,0,.21,0,.3Z"/><path class="cls-31" d="M298.82,42.36a1.18,1.18,0,0,1,.25-.44C298.87,42.06,298.8,40.65,298.82,42.36Z"/><path class="cls-31" d="M299.31,367.6a.38.38,0,0,1-.12-.29c0,.11,0,.22,0,.32S299.28,367.66,299.31,367.6Z"/><path class="cls-31" d="M298.59,238.33l0-1.53C298.6,237.23,298.59,237.79,298.59,238.33Z"/><path class="cls-31" d="M298.86,111.55l0-.35A.91.91,0,0,0,298.86,111.55Z"/><path class="cls-31" d="M298.59,232.25a4,4,0,0,0,.19-.86.75.75,0,0,0-.07-.18Z"/><path class="cls-31" d="M299.07,41.91h0Z"/><path class="cls-31" d="M298.4,31.82c0,1.46.37.68.58,1,.1,1.75-.27.81-.46,1.4.09,1.09.43,1.93.42,2.74-.06.06-.08.22-.16,0,.29,1.15,0,3.42.38,4.76a.31.31,0,0,1-.09.17c.19-.21.37-.25.51-.2,0,.65.23,1.21,0,1.46a.93.93,0,0,0-.17-.62l.11.68c-.35.62-.12-.94-.38-.94a26.39,26.39,0,0,1,.3,3.93c-.34.21-.11-2.4-.41-1l.13-1.59c-.54,1.21,0-1-.54.15-.1,2.09.18,2.34.08,4.42.18.47.28-.16.46.31.34,3-.85,2.33-.4,4.5a2.89,2.89,0,0,1,.43,2.33l-.38-.52c0,2,.55,1.15.29,3.27-.15-.38-.13-1.59-.17-1.29-.31,1.37.22,1,.22,2l-.34.22c.05,2.15.29,4.52.36,6.9-.1-.13-.21-.54-.31,0a77.67,77.67,0,0,1-.25,9.31l.3,1.11c0,.25-.14.47-.19.19-.12,1.13.18.06.3.61s-.17.84-.26.44a35.26,35.26,0,0,1,.22,7.77l-.08-.4c-.12,1.63.6,1.84.32,3.36l0-.29c-.13,3.55.14,7.47-.3,10.18.42.51-.19,3.51.4,3.74a28.9,28.9,0,0,0-.59,4.3c0,.76.36,1.13.43,2.08l-.31,0,.32,1.28-.37.68.08.88c0-.35.14-.75.23-.69a8.36,8.36,0,0,1-.37,3.4l.26,3.26c-.13-.07-.17-.61-.25-1,.32,1.75-.32.32,0,1.92.07-.22.18.11.24.15a18.14,18.14,0,0,0-.11,4l-.21-.26c-.05,2.43.1,5.11.1,7.83.1-1,.46-.75.5,0l-.33.31c.21.52.13-.83.37.23,0,1-.37.68-.47.1l.11,1.23c-.1.08-.15-.21-.27-.29.2.51-.33,2.13,0,2.86l-.09.07c0,2.72.1,3.95.12,6.17.28,0,.22.91.45,1.57-.09,1.63-.31,3.43-.29,5.39.14,1.38.24.4.41,1-.26.11-.24,2.06-.42,1.05,0,2.35,0,3,.26,6,.1-.32.15-.69.24-.5,0,.54-.11,1.23-.23,1.15l0-.14c.38,3.34-.75,7.71-.21,10.37l0-.15.28,2.76c-.05,1.27-.19-.76-.35.18.42,3-.06,4.7.22,7.15-.76,1.9.05,6.73-.43,9.29l.18-.15c.17.67-.1.8-.14,1.29.13-.07.16-.72.25-.3.22,5.6-.26,11.57-.42,17.31-.05,2.1.92,1.2.5,3.85l-.33-.76c.39,4.25,0,8.68.32,12.83-.08-.25-.18-.26-.17-.66a7.13,7.13,0,0,0,.18,3.26c0,.64-.18.15-.28.55-.14.88.31,2.2.07,2.67,0,.08-.08-.25-.1-.41.12.58,0,2.67.25,2.13-.13,1.55.13,3,0,4.22.31.81-.15,2.67.29,2.93-.45-.12-.36,2.73-.15,3.71-.14-.33-.14.86-.33.47,0,1.13.09,2.16.32,2-.54,2.08.44,4.17-.26,5.33.24,3.34.41,6.44.52,9.44-.46-.11-.05-3.32-.52-3.19a62.28,62.28,0,0,1,.46,7.32c-.06.73-.19-.42-.27-.66.18,2.85,0,5.5.2,8a1.44,1.44,0,0,1-.12-.54c0,.5-.07,1.16.14,1.11l-.06-.49c.3-.8.63,2,.78,2.07-.59-.85-.15,2.5-.89,1.16,0,.33.14.74.28.66,0,.49-.12.65-.28.15a25.83,25.83,0,0,1,.32,2.78c-.1,0-.13-.34-.25-.5a9.07,9.07,0,0,1,.3,3c-.06-.08-.13.08-.13-.33,0,2.35.51,4,.33,6.59-.44-.76-.15.88-.52,1l.11,1.39.18-.56a33.16,33.16,0,0,1,.15,3.34l-.16-.91.07,2.28.14-1.29c.2,1.23.48-.13.37,1.49a15,15,0,0,1-.22,1.85h0a6.47,6.47,0,0,1,.15,2.11c-.12.24-.41-.18-.49,0,.31.59.08,2.84.42,3.6-.08-.25-.28-.27-.32-.18l.25.49c-.08.57-.12.65-.27.56-.05,1.69.47-.54.27,1.47,0-.16-.06-.08-.1-.41-.11,2,.16,3.9,0,5.75-.38.55-.1-1.62-.41-1,.07,2.67.45,5.54.36,8.13l0-.48c.53.35-.26,1.92,0,3.23,0-.32-.3-.42-.24-.33-.08,1.77.13,3.62.3,6.31l-.14-.33c-.12,1-.07,2.75-.13,3.88.14.33.12,1,.31.58-.77,3.48.42,6.64-.23,9.73,0-.37-.11-.88-.12-.59l.13,2.63c.23-.21.14-.34.32-.9A5.56,5.56,0,0,1,300,337c-.15-1.18-.37,0-.5.52.07-.08.15.09.22.05-.41,1.37.47.23.19,2.1l-.12-.09a15.61,15.61,0,0,1,.19,2.1c-.27.31-.13-.75-.35-.79,0,1.06.51,2.09.24,3.06-.07-.46-.07-1.11-.15-1.56a5.87,5.87,0,0,0-.28,1.95v-.08l-.14,1.8.08-.45c.7,1.33.13,2.71.58,4.5-.43-1.74-.25-.29-.55-.42-.08.45-.18,1.15-.26.95.24.85-.19,1.42.16,2.61-.09,0,0,.91-.25.72.07,1.1.17-.26.29-.17.33,1.7-.4,4,.05,6.43.19,2.11.52,2.5.68,4.45-.15.66-.35-.54-.35-.54a11,11,0,0,0,0,2.87c-.08-.21-.15,0-.26.31,0,.8.35.54.21,1.6a2.9,2.9,0,0,1-.39-.81c.09.95.27,1.89.36,2.87-.17.26-.26-.59-.37-.94a11.41,11.41,0,0,0,.42,3.2l.1-.71c0,.4-.23.21-.28-.09-.21-.94.09-1.36.19-1.41l.06.69c.57-.71-.09-2.8-.06-4.21l.42.59-.35-1.45c.11-.3.34-.51.4.18.21-1-.14-.89.09-1.76,0-.09,0-.05.07,0l-.13-1c.09.2.3-.16.24.44.24-1.77-.31-2.85,0-3.52l0,.15c-.14-2.45-.31-.23-.67-2.08l.76-1.24-.31-.24c0-.25,0-.75.16-.66-.21-.94-.14.16-.33-.38.27-1.22-.13-3.37.35-3.64-.23-.44-.18,1.17-.34-.14.53-.37-.09-1.5.15-2.61.27.34.13,1.39.37.28-.46-.67.1-2.17,0-3.11-.36,0-.15-2-.27-3.62.12.1.2-3,.33-4.43l.06,0c-.36-.29-.29-1.8-.37-2.9.22,0,.31.24.4.84v-1a3.26,3.26,0,0,1-.22-1.24l.28.26a31,31,0,0,1-.14-4.55c-.26-.1-.72,1.41-.89-.46.14-.07.38-.14.43.35a3.36,3.36,0,0,1-.05-.9l.23.75c.1-.8-.19-.42-.17-1.06.19,0,.14-.48.29-.39a3.64,3.64,0,0,0,0,.81,6.81,6.81,0,0,1,.3-1.9c-.11.07-.26,0-.29-.53,0-1.38.24-.47.34-1.28-.14-.33,0-1.21-.29-1.23a.92.92,0,0,1,.22-.63c-.13-.72,0-3.34-.35-2.53l0,.18s0-.07,0-.12h0c-.29-2.33.17-4.85.05-7.17h.09a40.47,40.47,0,0,0-.28-4.07c0-.41.19-1,.3-.79a10.28,10.28,0,0,1,0-2.7c.17,1.06.15-.37.13,1.09a9.66,9.66,0,0,0,0-3.17c.25.51.32-1,.24-1.68l-.18,1c0-.74,0-1.38,0-2l.33.35c.41-2.81-.69-5.07,0-7.21-.23-.75-.16,1.52-.44.86a29.58,29.58,0,0,1,.53-3c.18-1.77-.49-1.65-.36-3.51-.12.24-.44.46-.55-.92,0-1.3.5-1.6.59-.78,0,.31,0,.46-.06.45,0,.42.09,1,.22.45l-.12-.16c.12-.65.11-2.43.3-2-.11-1-.19-.42-.25.31.17-1.67,0-2.6.12-4.31-.07.27-.21.52-.21.25.15-2.51-.22-1.1-.27-2.8.18-1,.43.34.28-1.37.12-1,.31-.22.41.2a15.71,15.71,0,0,1,.19-3.8l.1.82a10.17,10.17,0,0,1-.06-1.31l-.24.47c.05-.48.05-.89.15-.88-.16-.5-.4.38-.61-.6.12-.65-.13-2,.18-2.18-.1,2,.32-.23.37,1.48a6.16,6.16,0,0,1,0-1.21c0-.07.06.07.08.2.28-1.94-.36-.89-.35-2.89.18.25.34-.47.3-.8,0,.81-.3.39-.43-.35a8.71,8.71,0,0,0-.09-2.07l-.06.77a5.11,5.11,0,0,1-.21-1.8c.13-.08.09.81.15.49-.31-1,.33-2.25.11-3.63.13-.65.34-.06.42-.63-.23-1.55.24-1.68.05-3.32-.24.47-.18.56-.41-.59l.17,2.68-.35-1.72c0,.81.15,1.71.11,2.19-.19-.82-.13-.73-.33-.34.36-1.11-.21-2.2,0-3.49l.59,0c.26-1.92-.3-3.42-.15-5.93l-.11.81c-.23-.34,0-1.55-.12-2.36.19.08.27-.43.39-.77-.15,0,0-1.84-.38-2.06l.26-1.12c.1-2-.57-2.31-.5-4.25.22.58.36-.3.51,1,0-.65,0-1.23-.1-1.24.12-.38-.26-1.8-.08-2.39a2,2,0,0,1-.27-1.1c0-.08.09,0,.09,0s-.13-1.14-.35-.51c.62-2,0-5.58.49-7.32-.07-1.42-.13-3.12-.15-4.41.06.08.1,0,.08.25.18-1.77-.57-1.09-.36-3.11.32-1,.17,1.07.29.43.65-.28-.09-2.43.29-3.79l0,.33c.22-1-.25-2.54-.2-4.23,0,0,.06.08.1,0a29,29,0,0,1-.53-5c.25.51.13.74.39.43,0-.73-.42.22-.49-1.24.14-.48.26-1.53.54-1.67v1.38c.36-.71,0-1.78.05-2.51l.16.09c-.05-2.11-.44-2.14-.42-4.4l-.11.23c-.39-1.24.21-1-.08-2.27l.4-.38c-.1-.82-.38-2.86-.46-4.33a26.75,26.75,0,0,1,.62,3.61,15.62,15.62,0,0,0-.22-3.18,4.24,4.24,0,0,1,.07,1.06,13.49,13.49,0,0,1-.46-3.91c.77.28.2-4.21.79-5.38-.28-2.86.12-5.67.08-9-.6,1.18,0-1-.63-.77a4,4,0,0,1,0-1.14l.36-2.35c.18-.56.14.74.28.67,0-1.7.26-.71.42-1.84-.22.23-.32-.59-.23-1.56l-.28,1.37c-.33-2.38.51-2,.19-4.44l.19.75c-.11-1.23,0-4.52-.49-5.73.07-.21.24-.5.28,0,.08-2.93-.52-6.53-.22-8.81l.15.22a4.47,4.47,0,0,1-.13-1.63c.06,0,.15.22.16,0a9,9,0,0,1-.17-2.17l.16.62c.2-2.87-.41-4.39-.51-6.79.44,0,.59-2.25.66-3.37l.06,0c.05-3.33-.37-5.66-.54-8.74.48-1.92.2-6.49.47-9.57-.08.47-.34-.07-.39-.62.09-.72-.3-2,.1-1.88v.26c.4-.55.29-2,.3-3.19l-.52-.19c.76-3-.29-7.94.4-9.6-.13-.73-.13-1.64-.26-2.36l.28,0c.07-2,.11-3,0-5.54l.21.51c0-1.42-.82-1.79-.84-3.09l.42-.39c0-2.47.37-5,0-7.4.06,0,.18.11.2.51,0-1.16.28-4.49-.3-4.06.38,0,0-2.55-.13-3.88l.28.21a7.72,7.72,0,0,1-.55-2.73c0-.37.22-.33.15.17.15-1.24-.26-1-.11-2.47l.17.56a3.61,3.61,0,0,0-.28-1.87,5.14,5.14,0,0,1,.33-2.61,2.66,2.66,0,0,1-.29-1.62c.09-.1.15.17.18.31.19-2.13-.32-3.17-.05-4.64.09,0,.14-.12.17-.25,0,1.7,0,3.06,0,2.93.25,0,.3-1.36.65-.28a18.69,18.69,0,0,1-.49-4.31.56.56,0,0,1,.09-.17l0,.14a3.33,3.33,0,0,0-.05-.85,8.26,8.26,0,0,0,.08-1.1c.21-.16.12-1.57.13-2.25-.28.05-.24-.84-.47,0,0-.11,0,.13,0,.58,0,.1,0,.22,0,.29a.08.08,0,0,0,0,0c0,.44,0,1,0,1.69a3.63,3.63,0,0,1-.11-1.86,10.48,10.48,0,0,1-.45-1c.39-.93.6-2.73.84-3-.15-2.08-.1-4.91-.63-6.22a1.14,1.14,0,0,1,.24-.9,5.76,5.76,0,0,0,.12.93c-.14-1.18-.06-3.5-.43-3.79.17-1.49.34.84.28-1.21l.12.28c.59-4-.95-6.56-.19-11a1.19,1.19,0,0,1-.13.53c.34-5.1-.31-10.51.22-15.54a5.81,5.81,0,0,0-.31-2.46l.3-.31-.35-1.49c-.25-2.12.74-3.67.26-6.34l-.2.34c0-1-.12-3,.11-2.89a.86.86,0,0,1-.1-.69l.16,0-.28-2.36c.12-1.83.63.29.66-2.39-.06-1-.46-2.83-.56-2.45s-.1,1-.26,1.05l-.08-.91c-.47-.16-.94-.86-1.27,1.37l.28,1.55-.22.5,0-1.3A2.92,2.92,0,0,0,299,4a1.2,1.2,0,0,0-.25.65l.45,1.52c-.19.19-.37-.68-.47.34.21.72.41-.68.55.5-.21.75-.39.53-.21,1.4-.12.12-.19-.06-.25-.41a14.82,14.82,0,0,0,.31,2.46c-.26.78.07,2.62-.37,2.55a8.14,8.14,0,0,1,.36,2.08c-.52-1.3,0,2.67-.59,2.33.47,1,.21,3.48.47,5.19a.91.91,0,0,1-.09-.43,11.79,11.79,0,0,1-.27,1.86c.39.12.48,1.62.72,2.43-.37,1.18-.46-.72-.82-.35.32-.06.32,2.05.58,1.65-.23.9-.11.78-.44,1.24.49.16.09.84.39,1.59-.24,1.31-.46.34-.31,1.77C298.58,33.09,298.4,31.82,298.4,31.82Zm.85,34.1h0c0-.29,0-.54,0-.7C299.23,65.37,299.24,65.57,299.25,65.92Zm0,2.87c0-.35,0-.78,0-1.24.09-.11.19,0,.19.29C299.39,67.69,299.34,68.36,299.26,68.79Zm1.94-6.06c0,.45,0,.6-.07.66,0-.21,0-.46,0-.79l0-.05A.33.33,0,0,1,301.2,62.73Z"/><path class="cls-31" d="M300.83,61.91a1.76,1.76,0,0,0,0-.19c0,.1,0,.18-.06.27l.09.17A2,2,0,0,0,300.83,61.91Z"/><path class="cls-31" d="M300.42,321.71v-.06a.34.34,0,0,1,0,.12Z"/><polygon class="cls-31" points="298.72 108.36 298.79 108.36 298.73 108.11 298.72 108.36"/><path class="cls-31" d="M299.45,337.49a.53.53,0,0,0-.07.21A.47.47,0,0,0,299.45,337.49Z"/><path class="cls-31" d="M299.39,344.31l-.1,1C299.35,344.86,299.37,344.55,299.39,344.31Z"/><path class="cls-31" d="M299.25,349.55a.36.36,0,0,0,.12.11h0Z"/><path class="cls-31" d="M298.92,266.2a1.27,1.27,0,0,0,0-.2C298.85,265.52,298.87,265.85,298.92,266.2Z"/><path class="cls-31" d="M299.58,291c-.05-.27-.1-.53-.14-.8C299.42,290.65,299.42,291,299.58,291Z"/><path class="cls-31" d="M298.58,238.5h0v0Z"/><path class="cls-31" d="M299.45,289.05a5,5,0,0,0,0,1.16A7.48,7.48,0,0,0,299.45,289.05Z"/><path class="cls-31" d="M299.12,372.28v.25s0,0,.05,0Z"/><path class="cls-31" d="M299.16,372.56l0,.28A.64.64,0,0,0,299.16,372.56Z"/><path class="cls-31" d="M299.26,373.43l-.07-.59A1.37,1.37,0,0,0,299.26,373.43Z"/><path class="cls-31" d="M299.25,365.34l-.1-.08A.16.16,0,0,0,299.25,365.34Z"/><path class="cls-31" d="M299.22,363.23a13.5,13.5,0,0,0-.15,2l.08.07C299,364.93,299.4,363.7,299.22,363.23Z"/><path class="cls-31" d="M300.48,354.42l-.08,1.77c.11-.31.26-.71.28.09C301,354.05,300.44,356.74,300.48,354.42Z"/><path class="cls-31" d="M300.64,348.94c.05.95.16,0,.22,0C300.76,348.38,300.74,348.23,300.64,348.94Z"/><path class="cls-31" d="M300.64,309.34l.26.1C300.86,308.71,300.8,309.43,300.64,309.34Z"/><polygon class="cls-31" points="299.32 301.77 299.16 302.49 299.4 302.83 299.32 301.77"/><polygon class="cls-31" points="301.14 297.3 301.18 297.62 301.09 296.4 301.14 297.3"/><path class="cls-31" d="M301.05,230.8l-.31.22C300.79,231.51,301.15,231.62,301.05,230.8Z"/><path class="cls-31" d="M300.73,202.08a2.67,2.67,0,0,0,.1-1.61C300.81,201.11,300.69,201.76,300.73,202.08Z"/><polygon class="cls-31" points="301.24 115.98 301.35 116.56 301.26 115.47 301.24 115.98"/><polygon class="cls-32" points="46.25 354.16 44.89 383 118.68 380.49 137.81 302.75 64.02 272.65 46.25 354.16"/><path class="cls-33" d="M159.11,152.29c.07-.1,0-.28-.24-.2l-.11.36Z"/><path class="cls-33" d="M157.39,152c-.25.2-.53.54-.29.81.22-.37.31-.25.54-.68.24-.08.44,0,.42.16.07-.1.39,0,.48-.22a1,1,0,0,0-1.13.15C157.31,152.15,157.38,152.05,157.39,152Z"/><path class="cls-33" d="M133.85,155.75H134A.24.24,0,0,0,133.85,155.75Z"/><path class="cls-33" d="M119.29,158.21c.1,0,.14-.07.15-.1S119.26,158.19,119.29,158.21Z"/><path class="cls-33" d="M116.74,158.3h.15C116.83,158.28,116.77,158.27,116.74,158.3Z"/><path class="cls-33" d="M133.85,155.75l-.41,0C133.43,155.82,133.65,155.76,133.85,155.75Z"/><path class="cls-33" d="M154.3,153.36a.52.52,0,0,0,.19-.12l-.19.07Z"/><path class="cls-33" d="M140.2,154.32l.12,0a1,1,0,0,0,.08-.15Z"/><path class="cls-33" d="M145.11,153.37c-.11,0-.1.29-.12.42a.35.35,0,0,1,.21-.23A.46.46,0,0,0,145.11,153.37Z"/><path class="cls-33" d="M153,152.44l.13-.06Z"/><path class="cls-33" d="M136.67,154.9a.16.16,0,0,0-.06-.09A.24.24,0,0,0,136.67,154.9Z"/><path class="cls-33" d="M112.14,158.78h0C112.27,158.72,112.2,158.74,112.14,158.78Z"/><path class="cls-33" d="M70.5,166.56c.51.17-.71.46,0,.61C70.46,167.07,71.11,166.62,70.5,166.56Z"/><path class="cls-33" d="M154.16,153.35l-.2,0A.62.62,0,0,0,154.16,153.35Z"/><path class="cls-33" d="M70.55,167.17Z"/><path class="cls-33" d="M101.71,160.85a.4.4,0,0,0,.12.1S101.79,160.89,101.71,160.85Z"/><path class="cls-33" d="M109.57,159.82h-.2A.67.67,0,0,0,109.57,159.82Z"/><path class="cls-33" d="M97.73,162a.51.51,0,0,0-.29,0l0,0A.24.24,0,0,1,97.73,162Z"/><path class="cls-33" d="M93.52,162.74l.09,0,.13,0Z"/><path class="cls-33" d="M12.35,179.53a.71.71,0,0,1-.24-.21C12.21,179.51,11.6,179.69,12.35,179.53Z"/><path class="cls-33" d="M154.27,153.2a.16.16,0,0,1-.11.15l.14,0A.1.1,0,0,0,154.27,153.2Z"/><path class="cls-33" d="M98,164.19l-.68.08A6.51,6.51,0,0,0,98,164.19Z"/><path class="cls-33" d="M42.55,174l-.14.06A.26.26,0,0,0,42.55,174Z"/><path class="cls-33" d="M95.3,164.67a.92.92,0,0,0-.41-.12.24.24,0,0,0-.06.08Z"/><path class="cls-33" d="M12.11,179.32Z"/><path class="cls-33" d="M7.82,180.78c.64-.11.23-.41.33-.65.74-.24.4.21.69.35.46-.19.77-.59,1.12-.64,0,.06.11.07,0,.16.45-.38,1.48-.29,2-.76a.29.29,0,0,1,.1.08.82.82,0,0,1-.18-.48c.28-.06.48-.33.64-.11-.18,0-.18.12-.25.21l.28-.16c.34.3-.38.2-.34.45a5.57,5.57,0,0,1,1.66-.61c.15.32-1,.3-.37.49h-.72c.62.43-.43,0,.16.51.93-.06,1-.35,1.92-.42.17-.22-.12-.26.05-.48,1.23-.57,1.17.65,2,0,.2-.27.22-.71.94-.6l-.16.42c.89-.13.4-.64,1.37-.55-.14.17-.67.25-.53.27.66.19.39-.29.85-.38l.15.32c.93-.22,1.92-.65,2.95-.9,0,.11-.2.24.07.3a15.47,15.47,0,0,1,4.11-.5l.43-.38c.11,0,.23.1.12.17.51,0,0-.18.21-.34s.4.1.23.22A7.15,7.15,0,0,1,31.1,176l-.16.12c.73,0,.7-.74,1.41-.59l-.12.07c1.57-.15,3.24-.73,4.5-.51.15-.45,1.57-.09,1.56-.69a6.27,6.27,0,0,0,2,.24c.34,0,.43-.45.83-.59l.07.31.5-.42.36.31.38-.15c-.16,0-.36-.08-.35-.17a1.79,1.79,0,0,1,1.55.1l1.38-.52c0,.13-.24.21-.41.32.7-.44.19.3.84-.11-.11-.05,0-.19,0-.26a3.77,3.77,0,0,0,1.75-.2l-.08.23c1.07-.14,2.21-.51,3.4-.72-.44,0-.41-.4-.07-.5l.2.3c.19-.24-.39-.06,0-.39.45,0,.37.31.13.47l.52-.21c0,.09-.07.16-.08.29.19-.24,1,.15,1.25-.25l0,.09c1.19-.22,1.71-.43,2.67-.62,0-.28.36-.29.61-.56a14.64,14.64,0,0,0,2.4-.15c.58-.25.14-.26.38-.48.09.25.94.07.53.33a17.26,17.26,0,0,0,2.56-.73c-.16-.08-.32-.1-.26-.2.23-.08.56,0,.55.14l-.06,0c1.39-.65,3.5.12,4.57-.62l-.06,0,1.15-.49c.56-.06-.3.25.14.33,1.22-.66,2.07-.31,3.08-.79,1,.59,2.93-.59,4.14-.32l-.1-.16c.26-.22.37,0,.59,0-.06-.13-.34-.1-.18-.23a53,53,0,0,1,7.64-1c.92-.12.35-1,1.59-.8l-.27.39c1.78-.73,3.79-.68,5.54-1.34-.1.1-.08.2-.26.23.43.16,1.42-.25,1.39-.44.29,0,.1.16.29.23.41.06.91-.48,1.16-.28,0,0-.1.09-.16.12.23-.16,1.17-.18.88-.41.7,0,1.28-.36,1.85-.29.3-.37,1.19-.07,1.23-.52,0,.45,1.25.14,1.65-.15-.12.16.4.07.26.29.49-.09.93-.26.8-.47,1,.37,1.74-.76,2.37-.17,1.42-.51,2.74-.91,4-1.26,0,.46-1.44.31-1.3.77a12.51,12.51,0,0,1,3.11-1c.33,0-.14.22-.24.32,1.21-.41,2.41-.4,3.48-.84,0,0-.11.11-.22.16.22,0,.52,0,.46-.22l-.2.09c-.4-.23.75-.77.76-.93-.26.65,1.12-.05.67.78.14-.06.3-.19.24-.32.22,0,.3.07.11.26.77-.25.45-.41,1.16-.54,0,.1-.12.16-.17.29a2,2,0,0,1,1.26-.54c0,.07.06.13-.12.17,1-.22,1.65-.83,2.82-.85-.26.48.4.07.53.42l.59-.22-.28-.13c.53-.09,1-.44,1.43-.41l-.37.23,1-.25-.59,0c.5-.29-.14-.45.58-.48-.14.06.53-.09.85.07h0a1.33,1.33,0,0,1,.9-.32c.12.1,0,.42.07.49.2-.36,1.23-.32,1.49-.7a.29.29,0,0,0,0,.32l.17-.29c.26,0,.31.07.29.23.75-.09-.32-.42.6-.38-.07,0,0,.06-.16.13.9-.06,1.67-.47,2.5-.5.31.33-.69.22-.36.48a29.11,29.11,0,0,1,3.49-1h-.22c.06-.55.89.1,1.41-.25-.13.07-.13.33-.1.26a12.51,12.51,0,0,0,2.7-.79l-.12.16a14.77,14.77,0,0,0,1.72-.18c.12-.16.41-.19.2-.35,1.66.48,2.82-.94,4.29-.55-.16,0-.37.19-.24.16l1.13-.33c-.13-.21-.18-.11-.45-.24a1.28,1.28,0,0,1,.71-.38c-.49.25.07.37.32.45,0-.06,0-.15,0-.22.67.3,0-.47.88-.35l0,.13a3.14,3.14,0,0,1,.89-.36c.18.24-.31.19-.29.41.46-.1.83-.67,1.3-.48-.19.11-.47.16-.66.27a1.31,1.31,0,0,0,.91.12h.77l-.21-.05c.45-.79,1.16-.34,1.86-.93-.69.56-.08.27-.09.58.22,0,.54.08.47.18.32-.31.65.08,1.11-.37,0,.09.39-.06.35.19.47-.16-.14-.14-.12-.27.68-.46,1.81.08,2.8-.56.88-.36,1-.71,1.82-1,.31.1-.17.4-.17.4a2.21,2.21,0,0,0,1.25-.23c-.07.1,0,.16.18.24.35-.09.17-.39.66-.33a1.42,1.42,0,0,1-.28.45c.4-.17.78-.42,1.19-.59.14.15-.21.3-.34.44.46-.16,1.22-.38,1.32-.67l-.33,0c.17,0,.13.21,0,.29a.4.4,0,0,1-.65-.08l.29-.12c-.41-.5-1.21.32-1.83.4l.18-.46-.56.45c-.16-.08-.29-.29,0-.41-.48-.12-.36.22-.78.06-.05,0,0,0,0-.07l-.41.2c.07-.1-.12-.28.15-.27-.81-.09-1.18.54-1.53.28l.06,0c-1,.34,0,.32-.79.82l-.68-.64,0,.32c-.11,0-.33,0-.31-.1-.38.28.09.12-.11.35-.59-.17-1.45.4-1.66-.06-.14.27.55.09,0,.35-.26-.49-.64.21-1.17.06.1-.3.58-.24.05-.39-.21.51-1,.08-1.35.24,0,.36-.87.31-1.54.55a12.38,12.38,0,0,0-2,0v-.06c-.06.38-.73.43-1.2.59,0-.21.05-.32.29-.46l-.45.08a.76.76,0,0,1-.5.32l.06-.29a6.53,6.53,0,0,1-2,.5c0,.26.75.59,0,.91-.06-.14-.13-.36.08-.46-.07,0-.23.16-.39.13l.29-.29c-.37,0-.15.23-.44.26,0-.2-.23-.11-.22-.27s.26,0,.36-.06a1.56,1.56,0,0,1-.89-.14c.05.1.05.26-.18.33-.6.12-.24-.2-.61-.24-.12.16-.53.09-.49.39-.18,0-.23-.1-.32-.17-.29.19-1.44.3-1,.55h.09l-.05,0h0c-1,.47-2.15.22-3.14.53l0-.1a8.92,8.92,0,0,0-1.73.6c-.17,0-.45-.1-.39-.23a2.09,2.09,0,0,1-1.18.23c.43-.25-.19-.12.45-.21-.61,0-.78-.1-1.37.28.17-.29-.51-.23-.79-.11l.46.11a5,5,0,0,1-.89.15l.09-.35c-1.3-.18-2.09,1.08-3.14.58-.29.29.69,0,.45.36a6.44,6.44,0,0,1-1.42-.27c-.81,0-.64.61-1.47.63.12.1.28.39-.31.61-.57.06-.78-.36-.44-.52.13,0,.2,0,.21,0,.17-.07.4-.17.15-.25l0,.13c-.3-.07-1.08.08-.93-.14-.41.19-.15.22.18.23-.75,0-1.13.2-1.9.22.13,0,.26.16.15.18-1.13.05-.45.31-1.18.49-.45-.1.08-.45-.64-.16-.48,0-.16-.29,0-.42-.64.35-1.3.08-1.7.11l.34-.16a1.84,1.84,0,0,1-.56.16l.25.19c-.22,0-.39,0-.41-.06-.19.19.24.35-.15.64-.31-.07-.84.28-1,0,.9,0-.15-.29.58-.48a1,1,0,0,1-.53.09s0-.07.08-.09c-.9-.13-.33.42-1.21.57.08-.2-.26-.3-.39-.23.35-.06.22.26-.08.45-.59,0-.59.21-.89.25h.35c-.09.2-.37.23-.75.35-.06-.13.34-.15.19-.19-.38.39-1-.14-1.61.18-.3-.07-.09-.32-.35-.36-.64.35-.78-.11-1.46.21.25.2.28.13-.18.46l1.14-.38-.69.47c.35-.06.72-.28.94-.28-.33.26-.3.19-.09.36-.55-.27-.93.38-1.53.24l-.09-.58c-.89-.11-1.44.57-2.56.62l.37,0c-.1.26-.67.15-1,.31,0-.2-.23-.23-.41-.32,0,.14-.8.13-.83.54l-.53-.17c-.9.05-.91.74-1.77.82.22-.25-.19-.32.35-.58-.28.05-.55.06-.53.2-.18-.09-.73.4-1,.27-.1.1-.1.32-.42.36a.08.08,0,0,1,0-.1c0,.1-.47.22-.16.39-1-.45-2.43.48-3.28.1-.61.18-1.34.38-1.9.49,0-.06,0-.09.09-.09-.8,0-.37.64-1.29.6-.51-.23.44-.25.14-.32-.24-.62-1.05.28-1.71,0l.13-.06c-.49-.13-1.06.44-1.81.53a.09.09,0,0,0,0-.1,6.12,6.12,0,0,1-2.08.93c.18-.29.3-.2.12-.43-.32.1.17.4-.46.58-.23-.1-.71-.13-.82-.39l.6-.13c-.38-.29-.78.16-1.11.15v-.16c-.91.22-.85.61-1.85.76l.13.1c-.47.48-.49-.13-1,.25l-.24-.36a14.54,14.54,0,0,1-1.81.79,7.1,7.1,0,0,1,1.47-.89,3.12,3.12,0,0,0-1.35.47c.14-.06.3-.19.45-.15a3,3,0,0,1-1.63.76c0-.78-1.87.14-2.49-.35-1.19.5-2.49.33-3.94.64.62.49-.42.09-.22.68-.33.1-.46.11-.5.08L69.46,167c-.28-.13.3-.19.24-.32-.75.09-.36-.2-.88-.27.14.19-.2.35-.64.35l.65.17c-1,.5-1-.35-2,.16l.29-.25c-.51.21-2,.36-2.41.94-.11-.06-.27-.2,0-.28-1.29.16-2.75,1-3.8.91l.07-.16c-.23.08-.37.35-.69.26,0-.07.06-.17-.05-.16a1.79,1.79,0,0,1-.92.35l.24-.22c-1.28,0-1.84.76-2.87,1.05-.08-.44-1.08-.4-1.59-.38v-.06a21.62,21.62,0,0,0-3.72,1.22c-.92-.32-2.87.32-4.26.3.22,0,0,.34-.2.43s-.82.46-.84.05h.11c-.31-.35-.94-.12-1.44,0v.53c-1.46-.51-3.42.91-4.27.37-.29.18-.69.25-1,.44l0-.28a14.57,14.57,0,0,0-2.43.4l.19-.24c-.63.1-.64,1-1.2,1.07l-.25-.39c-1.08.2-2.23,0-3.23.61a.24.24,0,0,1,.19-.24c-.51.08-2,.07-1.72.61-.08-.37-1.12.17-1.67.44l0-.29a2,2,0,0,1-1.09.76c-.17,0-.18-.2,0-.17-.56,0-.37.34-1.05.31l.21-.22c-.56.08-.5.17-.77.43s-1.07.12-1.19-.11a.72.72,0,0,1-.66.41c-.06-.09.05-.17.1-.2-1,0-1.32.57-2,.41a.2.2,0,0,0-.14-.14,10.64,10.64,0,0,1,1.28-.19c0-.25-.65-.19-.23-.63a3.92,3.92,0,0,1-1.8.83l-.09-.07.05,0a.66.66,0,0,0-.36.11,2,2,0,0,0-.49,0c-.11-.2-.71,0-1,.05.08.28-.32.3.09.47-.05,0,0-.05.24-.1a.27.27,0,0,0,.12-.05v0l.74-.15a.83.83,0,0,1-.8.25,4.93,4.93,0,0,1-.33.52c-.48-.31-1.3-.37-1.45-.59-.89.32-2.13.49-2.61,1.11-.24.12-.32-.09-.43-.16.14-.08.32-.1.38-.19-.49.23-1.52.33-1.57.72-.69,0,.3-.4-.58-.18l.1-.13c-1.87-.26-2.7,1.44-4.79,1.05.15,0,.22,0,.26.09-2.29.08-4.53,1.14-6.83,1-.64,0-.66.25-1,.5l-.19-.27L.93,180c-.88.42-1.73-.44-2.82.25l.19.17c-.43,0-1.31.36-1.28.12,0,0-.1.23-.29.16l0-.16-1,.46c-.82,0,0-.64-1.16-.46-.42.14-1.15.68-1,.75s.46,0,.51.17l-.39.15c0,.48-.21,1,.83,1.14l.63-.4.25.18-.56.12c.36.15.53-.07.74-.24a.43.43,0,0,0,.33.19l.58-.56c.12.17-.23.41.23.43.28-.26-.37-.35.12-.57.37.14.3.33.65.08.08.11,0,.2-.13.28.31-.2.88-.22,1-.5.38.2,1.13-.27,1.17.17a2.11,2.11,0,0,1,.85-.53c-.48.63,1.17-.18,1.12.41.34-.55,1.49-.49,2.19-.88,0,0-.11.13-.18.12a2.5,2.5,0,0,1,.86.12c0-.4.62-.6.93-.91.59.28-.23.51,0,.84-.08-.31.84-.47.62-.7.43.16.36.05.62.33,0-.49.35-.15.62-.5.61.13.23.42.83.16C8.34,180.51,7.82,180.78,7.82,180.78Zm14.74-3.55h0l-.31.07Zm1.25-.23-.55.09a.13.13,0,0,1,.1-.21C23.3,177,23.61,177,23.81,177Zm-3-1.43c.19-.08.27,0,.31,0l-.34.09a.08.08,0,0,0,0,0A.33.33,0,0,1,20.81,175.57Z"/><path class="cls-33" d="M20.52,176a.15.15,0,0,1-.08,0l.13,0,.06-.1Z"/><path class="cls-33" d="M134,155.76h0a.09.09,0,0,1,.07,0Z"/><polygon class="cls-33" points="41.18 174.39 41.17 174.32 41.07 174.4 41.18 174.39"/><path class="cls-33" d="M141.1,155.45a.16.16,0,0,0,.1.06A.21.21,0,0,0,141.1,155.45Z"/><path class="cls-33" d="M144.09,155l.43,0A3.82,3.82,0,0,0,144.09,155Z"/><path class="cls-33" d="M146.4,154.69a.3.3,0,0,0,0-.12h0Z"/><path class="cls-33" d="M110.06,161.64l-.08,0C109.78,161.76,109.92,161.72,110.06,161.64Z"/><path class="cls-33" d="M120.78,159a2.17,2.17,0,0,1-.33.19C120.65,159.21,120.8,159.18,120.78,159Z"/><path class="cls-33" d="M98,164.18h0l-.07,0Z"/><path class="cls-33" d="M120,159.31a1,1,0,0,0,.5-.09A1.43,1.43,0,0,0,120,159.31Z"/><path class="cls-33" d="M156.34,153h.12a0,0,0,0,1,0,0Z"/><path class="cls-33" d="M156.46,153l.12-.06C156.52,152.91,156.47,152.92,156.46,153Z"/><path class="cls-33" d="M156.82,152.79l-.24.11C156.67,152.89,156.78,152.88,156.82,152.79Z"/><path class="cls-33" d="M153.29,153.44l0,.1A.15.15,0,0,0,153.29,153.44Z"/><path class="cls-33" d="M152.37,153.63a2.41,2.41,0,0,0,.89,0v-.09C153.16,153.72,152.55,153.43,152.37,153.63Z"/><path class="cls-33" d="M148.31,153.09l.78-.06c-.15-.08-.36-.19,0-.28C148.05,152.61,149.32,153,148.31,153.09Z"/><path class="cls-33" d="M145.88,153.37c.41-.12,0-.15,0-.21C145.62,153.3,145.56,153.34,145.88,153.37Z"/><path class="cls-33" d="M128.59,156.52v-.26C128.28,156.35,128.6,156.36,128.59,156.52Z"/><polygon class="cls-33" points="125.53 158.42 125.86 158.52 125.97 158.26 125.53 158.42"/><polygon class="cls-33" points="123.25 156.99 123.38 156.92 122.86 157.11 123.25 156.99"/><path class="cls-33" d="M94.22,162.36l.16.29C94.58,162.56,94.56,162.2,94.22,162.36Z"/><path class="cls-33" d="M81.75,165a.62.62,0,0,0-.73,0A5.1,5.1,0,0,0,81.75,165Z"/><polygon class="cls-33" points="44.06 171.29 44.29 171.15 43.83 171.32 44.06 171.29"/><polygon class="cls-34" points="7.99 201.17 16.19 189.89 18.92 173.59 16.19 171.08 6.62 182.36 12.09 163.55 5.26 163.55 1.16 172.33 -0.21 208.7 7.99 201.17"/><polygon class="cls-35" points="202.04 151.01 200.67 184.87 165.07 183.56 162.41 149.76 202.04 151.01"/><polygon class="cls-36" points="162.41 152.27 174.71 174.84 180.17 174.84 180.17 178.6 181.54 174.84 189.74 174.84 202.04 153.52 204.77 159.79 208.87 174.84 185.64 217.47 165.14 184.87 159.68 151.01 162.41 152.27"/><path class="cls-37" d="M166.51,125.93s-9.57,18.81-16.4,0,5.47-32.6,5.47-32.6c-2.74-1.25-4.1-6.27-4.1-6.27a17.26,17.26,0,0,0,12.3,0s23.23-8.78,30.06-5,26,22.58,24.6,32.61-8.18,13.11-13.67,15"/><polygon class="cls-38" points="159.68 151.01 182.91 209.95 206.2 166.16 218.99 294.05 139.18 292.71 159.68 151.01"/><path class="cls-39" d="M206.14,114.65V151L187,168.57h-12.3L158.31,151V113.39l21.86-6.27S204.77,103.36,206.14,114.65Z"/><path class="cls-33" d="M197.71,126.81a.08.08,0,0,0,0-.15l-.17.07Z"/><path class="cls-33" d="M197.4,126.1c-.15,0-.35,0-.39.15.2,0,.17,0,.4,0s.1.17,0,.2.1.14.21.1a.37.37,0,0,0-.34-.35C197.31,126.12,197.37,126.12,197.4,126.1Z"/><path class="cls-33" d="M188,125.29h0Z"/><path class="cls-33" d="M182.68,127.74s0-.06,0-.06S182.66,127.76,182.68,127.74Z"/><path class="cls-33" d="M182.58,128.85v-.07A.08.08,0,0,0,182.58,128.85Z"/><path class="cls-33" d="M188,125.29l-.18,0C187.81,125.33,187.9,125.29,188,125.29Z"/><path class="cls-33" d="M196.08,125.43a.17.17,0,0,0,.1,0l-.08,0Z"/><path class="cls-33" d="M190.72,124.59h.05l0-.07Z"/><path class="cls-33" d="M192.84,124.14c-.05,0,0,.14-.05.2a.17.17,0,0,1,.09-.11A.36.36,0,0,0,192.84,124.14Z"/><path class="cls-33" d="M196.11,124.68l.06,0Z"/><path class="cls-33" d="M189.2,124.87l0,0A.05.05,0,0,0,189.2,124.87Z"/><path class="cls-33" d="M167.38,125.35v0S167.37,125.35,167.38,125.35Z"/><polygon class="cls-33" points="165.15 124.02 165.19 124.02 165.22 123.94 165.15 124.02"/><path class="cls-33" d="M182.55,130.85h0C182.54,130.79,182.54,130.82,182.55,130.85Z"/><path class="cls-33" d="M179.29,143.53c.21.13-.34.17,0,.31C179.23,143.78,179.55,143.62,179.29,143.53Z"/><path class="cls-33" d="M196.05,125.38l-.07-.06Z"/><path class="cls-33" d="M179.26,143.84Z"/><path class="cls-33" d="M183,135.44a.1.1,0,0,0,.05-.06A.16.16,0,0,0,183,135.44Z"/><path class="cls-33" d="M182.93,132v.09A.31.31,0,0,0,182.93,132Z"/><path class="cls-33" d="M183.33,137.2a.16.16,0,0,0,0,.12l0,0S183.31,137.25,183.33,137.2Z"/><polygon class="cls-33" points="183.48 139.04 183.5 139.01 183.49 138.95 183.48 139.04"/><path class="cls-33" d="M172.83,126.78a.39.39,0,0,1-.05-.14C172.79,126.74,172.51,126.71,172.83,126.78Z"/><path class="cls-33" d="M196.13,125.37a.08.08,0,0,1-.08,0l0,0S196.13,125.39,196.13,125.37Z"/><path class="cls-33" d="M184.44,137.19v.29C184.45,137.4,184.45,137.29,184.44,137.19Z"/><path class="cls-33" d="M177,134.88v-.07A.08.08,0,0,0,177,134.88Z"/><path class="cls-33" d="M184.53,138.35a.44.44,0,0,0-.08.17s0,0,0,0Z"/><path class="cls-33" d="M172.78,126.64Z"/><path class="cls-33" d="M170.83,126.44c.26.08.17-.13.26-.22.33,0,.11.17.19.29s.42-.11.57-.06c0,0,0,0,0,.08.25-.09.64.16.93,0a.08.08,0,0,1,0,.06.69.69,0,0,1,0-.26c.13,0,.26,0,.27.08s-.09,0-.13.05l.14,0c.06.2-.19,0-.23.14a2.08,2.08,0,0,1,.77.05c0,.18-.46-.07-.25.15l-.27-.14c.15.32-.18-.07-.05.26.38.16.46,0,.83.19.11-.06,0-.14.12-.21.59,0,.32.53.78.43.14-.08.23-.28.49-.09l-.15.16c.37.12.29-.21.65,0-.09.06-.31,0-.26,0,.21.22.21-.06.4,0v.17c.4.09.87.09,1.32.18,0,0-.12.07,0,.15a3.71,3.71,0,0,1,.73.18c.11,0,.13.09.14.13a.28.28,0,0,1-.06.08.22.22,0,0,1,.14,0s-.07,0-.09,0,.09,0,.14,0-.1.12-.13,0a2.7,2.7,0,0,1-.14,1.49l0-.08c-.11.3.24.4.06.66l0-.06a7.88,7.88,0,0,1-.47,1.9c.19.14-.21.66.08.75a2.63,2.63,0,0,0-.43.76c0,.15.14.25.14.43l-.15,0,.12.27-.2.1v.17c0-.06.09-.13.13-.11,0,.27-.21.62-.29.61l0,.64c-.05,0-.06-.13-.08-.22.1.36-.17,0-.08.36,0,0,.08,0,.11,0a1.55,1.55,0,0,0-.18.74l-.09-.06c-.11.45-.11,1-.2,1.49.08-.18.25-.11.24.05l-.17,0c.09.12.09-.15.18.08s-.21.09-.24,0l0,.25s-.07-.06-.13-.08c.09.11-.23.38-.08.54h0c-.09.51-.07.76-.13,1.18.14,0,.08.19.17.33a5.34,5.34,0,0,0-.31,1c0,.27.1.1.16.23-.13,0-.18.37-.24.16,0,.23,0,.37-.05.53s0,.37,0,.7c.07-.1.11-.19.14-.13s-.11.33-.17.33v-.05a3.63,3.63,0,0,1-.2,1.17c.31,0,.66.12,1,.15a3.36,3.36,0,0,0,.53,0,.77.77,0,0,0,.27-.07h0l.53-.14c.24,0-.15.1,0,.18.57-.22.9,0,1.37-.11.37.37,1.3,0,1.79.21l0-.09c.13-.09.16,0,.25.07s-.14-.08-.06-.13a7.86,7.86,0,0,1,1.53,0l.39,0,.19,0h.29l1.54.08c0-.15,0-.31,0-.46,0-.79-.51-.67-.35-1.35.06.06.11.06.18.17-.27-.87-.13-1.68-.36-2.48,0,0,.09,0,.1.12.1-.18-.05-.62-.14-.62s.08,0,.13-.11-.19-.41-.08-.51,0,0,.06.07,0-.51-.16-.4c0-.3-.1-.56,0-.81-.17-.14,0-.51-.19-.55.23,0,.14-.53,0-.71.08.05.06-.17.16-.11,0-.21-.08-.41-.19-.36.24-.42-.28-.78.05-1-.17-.63-.3-1.22-.4-1.79.23,0,.07.64.31.59a4.65,4.65,0,0,1-.34-1.38c0-.15.1.07.14.11-.13-.53-.06-1-.22-1.53,0,0,.05.05.07.1,0-.1,0-.23-.08-.21l0,.09c-.14.17-.34-.35-.42-.36.31.14,0-.49.43-.26,0-.06-.08-.14-.15-.12s.05-.12.14,0c-.09-.34-.18-.21-.21-.52.05,0,.08.05.14.08a.77.77,0,0,1-.2-.56s.07,0,.07.05c-.05-.44-.31-.74-.26-1.24.23.12.06-.18.24-.22l-.07-.26-.08.11c0-.23-.17-.43-.12-.63l.09.17-.07-.44-.06.26c-.11-.23-.23,0-.2-.27,0,.07,0-.27.09-.34h0a.45.45,0,0,1-.11-.35c.06,0,.22.15.26.15a.42.42,0,0,1-.1-.17c.09,0,.24-.06.26-.18,0,0,0,.13.05.15a.57.57,0,0,1,0-.13c.09,0,.1,0,.11.12.28,0-.16-.21.23-.19,0,0,0,0-.07.07.39,0,.72-.23,1.08-.24.14.16-.29.1-.14.24a9.27,9.27,0,0,1,1.49-.49h-.09c0-.27.38.06.61-.11-.06,0,0,.16,0,.12a4.67,4.67,0,0,0,1.16-.38l0,.08c.21,0,.52-.08.74-.09.05-.08.17-.09.08-.17.73.24,1.21-.46,1.85-.26-.07,0-.15.09-.09.08l.48-.17c-.06-.1-.08,0-.2-.12a.48.48,0,0,1,.3-.18c-.21.12,0,.18.15.22s0-.08,0-.11c.3.15,0-.24.38-.17v.06a1.17,1.17,0,0,1,.38-.17c.09.12-.13.09-.11.2.19,0,.34-.33.55-.24-.08.06-.2.08-.28.14a.51.51,0,0,0,.4.06h.33l-.09,0c.18-.4.5-.17.79-.46-.29.28,0,.13,0,.28s.24,0,.21.1c.14-.16.29,0,.48-.18,0,0,.17,0,.16.09.2-.08-.07-.07-.07-.13.25-.2.76,0,.88-.15h.09l.37.1a1.27,1.27,0,0,1,.41.16c0,.14-.19.06-.19.06a.8.8,0,0,0,.4.37c-.06,0,0,.06,0,.14s.19-.06.29.13a.57.57,0,0,1-.24,0c.16.09.36.15.53.24,0,.1-.18,0-.26,0,.18.11.45.31.59.26l-.06-.13c.06.05,0,.11-.11.09-.21,0-.16-.21-.14-.25l.12.06c.09-.3-.43-.33-.61-.52l.22-.08-.32-.06c0-.08,0-.19.16-.13-.07-.2-.18-.06-.22-.25,0,0,0,0,0,0l-.18-.08s.07-.13.14,0c-.18-.32-.49-.24-.52-.47h0c-.43-.3-.18,0-.41,0l-.06,0a.86.86,0,0,0-.22-.34l0,.17c-.06,0-.16,0-.15,0-.16.14,0,.06,0,.17-.26-.09-.62.2-.72,0-.06.13.23,0,0,.17-.13-.24-.28.1-.51,0,0-.15.25-.12,0-.19-.08.25-.41,0-.58.11,0,.18-.37.15-.66.27a5,5,0,0,0-.86,0v0c0,.19-.31.21-.51.29a.2.2,0,0,1,.12-.23l-.2,0c0,.07-.09.11-.21.16l0-.15c-.25.06-.49.27-.84.25,0,.13.34.29,0,.45,0-.07-.06-.18,0-.23a.22.22,0,0,1-.16.07l.12-.15c-.16,0-.06.11-.18.13s-.11,0-.11-.13.12,0,.16,0a.65.65,0,0,1-.39-.08.12.12,0,0,1-.07.17c-.26.06-.12-.1-.28-.12s-.23,0-.2.19-.1,0-.14-.08-.62.14-.44.26h0c-.41.23-.93.1-1.35.25v0a3.17,3.17,0,0,0-.74.29c-.08,0-.2,0-.18-.12a.73.73,0,0,1-.5.12c.18-.13-.09-.06.19-.11-.27,0-.34,0-.6.14.07-.14-.22-.12-.34-.06l.2.06a1.8,1.8,0,0,1-.38.07l0-.18c-.6-.08-.76.51-1.64.35-.12.14.5,0,.38.14a3.64,3.64,0,0,1-.72,0,.39.39,0,0,0-.07.22c-.06.53.29.66.26,1,0,0,.21-.11.28.15s-.22.33-.28.17,0-.08,0-.08-.07-.19-.12-.08l.06,0c-.05.12,0,.46-.12.39.07.18.1.07.12-.07-.06.33,0,.5,0,.83,0-.05.1-.11.1-.05,0,.48.13.2.18.52s-.22-.05-.12.28-.15.05-.2,0c.13.29,0,.57,0,.74l-.06-.15a.75.75,0,0,1,0,.24l.11-.1c0,.1,0,.18-.05.18s.19-.09.31.09c0,.13.09.37-.06.43,0-.4-.16,0-.21-.27a.41.41,0,0,1,0,.23s0,0,0,0c-.11.38.2.16.22.54-.09,0-.16.11-.14.17,0-.16.15-.09.22.05s.08.26.08.39l0-.15c.09.05.09.17.13.34s-.06-.15-.08-.09c.17.18-.13.44,0,.7-.05.13-.16,0-.19.14.13.29-.1.33,0,.63.11-.09.08-.11.21.1l-.12-.51.2.32c0-.15-.1-.32-.09-.41.11.14.08.13.17.05-.16.23.14.41,0,.67h-.3c-.1.38.21.65.17,1.13l0-.16c.12.06,0,.3.1.45-.1,0-.13.09-.19.16s0,.36.22.38l-.11.23c0,.39.32.42.31.79-.11-.1-.17.07-.27-.17,0,.13,0,.24.07.24s.16.33.08.45.15.06.15.2-.05,0-.05,0,.08.22.18.09c-.27.4.11,1.06-.13,1.42.06.27.11.59.14.84,0,0,0,0,0,0-.07.35.3.19.22.58-.14.21-.1-.2-.15-.07-.32.08.08.47-.09.74l0-.06c-.1.21.16.47.16.8h-.05a2.44,2.44,0,0,1,.34.94c-.13-.09-.08-.14-.2-.07,0,.14.2-.06.26.22-.06.1-.11.3-.24.34l0-.26c-.17.14,0,.36,0,.4l-.08,0c0,.14.2.26.24.5h-.07l.08.06c0,.19-.22-.11-.3,0a2.14,2.14,0,0,1-.13-.19.57.57,0,0,1-.23.11,2,2,0,0,1-.46.11,1.13,1.13,0,0,1,.33-.17l.19-.07a.35.35,0,0,0,.09-.06h-.25a.53.53,0,0,0-.28.1c.06,0,.14-.07.21,0a1.17,1.17,0,0,1-.76.23c.06-.38-.81-.1-1-.39a8.48,8.48,0,0,1-1.73,0c.23.3-.19,0-.15.31-.15,0-.2,0-.22,0l-.45-.19c-.11-.09.14-.06.13-.13-.33,0-.14-.13-.35-.21,0,.11-.12.15-.3.11l.26.14c-.46.17-.39-.25-.85-.09l.14-.1c-.21.06-1,0-.92.25a.21.21,0,0,1,.05-.15s-.09,0-.21.06-.12-.17,0-.33l.06.05c0-.1-.1-.2,0-.32s.07.06.08,0a.75.75,0,0,1,0-.43l.07.13c.18-.52-.07-.86,0-1.33.22,0,.36-.37.43-.58h0a8.06,8.06,0,0,0,0-1.7c.3-.32.31-1.21.54-1.77-.06.08-.17-.05-.17-.15s-.09-.41.1-.35v0c.21-.07.21-.36.25-.58l-.25-.08c.47-.51.11-1.53.5-1.79,0-.15,0-.32-.05-.47l.14,0a4.72,4.72,0,0,0,.19-1l.09.11c0-.27-.35-.4-.32-.65l.22,0a3.57,3.57,0,0,0,.23-1.41s.09,0,.08.12c.05-.22.29-.83,0-.8.18,0,.1-.48.06-.74l.13.06a.8.8,0,0,1-.19-.56c0-.07.12,0,.07,0,.11-.23-.1-.19,0-.49a1,1,0,0,0,.06.14.51.51,0,0,0-.06-.48,1.24,1.24,0,0,1,.19-.62.08.08,0,0,1,0-.09.86.86,0,0,1-.55,0s.09-.06.14-.06a1.86,1.86,0,0,0-.66-.15.56.56,0,0,1-.39-.11.08.08,0,0,0,0-.09l.56.17c0-.13-.23-.22,0-.33-.23,0-.63.14-.86,0a.08.08,0,0,1,0,0h0a.32.32,0,0,0-.16,0,.88.88,0,0,0-.2-.09c0-.11-.27-.14-.4-.18,0,.14-.19.08-.06.23,0,0,0,0,.11,0h.05l.32.08a.31.31,0,0,1-.36-.05l-.24.17c-.12-.23-.43-.43-.44-.56-.41,0-.92-.2-1.24,0-.11,0-.1-.11-.13-.16s.14,0,.19,0c-.24,0-.66-.15-.76,0-.25-.16.2-.12-.19-.2l.07,0c-.67-.49-1.34.12-2.07-.47.05,0,.08.06.08.09-.9-.42-2-.39-2.85-.9-.25-.12-.31,0-.5,0v-.17l-.33.1c-.42,0-.58-.55-1.14-.45l0,.11c-.17-.06-.58-.09-.52-.2s-.09.09-.14,0v-.08h-.47c-.32-.15.14-.29-.35-.44-.2,0-.59.08-.53.15s.17.1.16.18h-.18c-.1.22-.29.41.08.68l.33-.06.06.14-.24-.06c.11.14.22.07.33,0a.24.24,0,0,0,.09.16l.34-.14c0,.1-.17.14,0,.24.16-.06-.07-.23.17-.24.11.14.05.22.23.17,0,.07,0,.1-.11.1.17,0,.39.08.5,0,.11.17.49.1.42.31a.81.81,0,0,1,.44-.07c-.32.19.49.15.35.41.24-.18.67.07,1,0a.08.08,0,0,1-.09,0c.17.07.21.16.31.23.07-.18.36-.15.55-.22.16.24-.2.18-.18.37,0-.15.42,0,.38-.19.14.16.13.09.18.27.09-.22.16,0,.34-.1.21.18,0,.24.29.24C171.08,126.43,170.83,126.44,170.83,126.44Zm6.43,1.34h0l-.14,0Zm.53.14-.23-.07a.07.07,0,0,1,.08-.08S177.72,127.86,177.79,127.92Zm-.87-1.25c.09,0,.11,0,.12.07l-.15,0h0S176.9,126.68,176.92,126.67Z"/><path class="cls-33" d="M176.72,126.81h0l0,0,0,0Z"/><path class="cls-33" d="M188.07,125.29h0s0,0,0,0Z"/><polygon class="cls-33" points="177.07 134.27 177.11 134.27 177.09 134.22 177.07 134.27"/><path class="cls-33" d="M191.14,125.16s0,0,0,0Z"/><path class="cls-33" d="M192.43,124.93h0Z"/><path class="cls-33" d="M193.43,124.8v-.07h0Z"/><path class="cls-33" d="M183.86,131.86v0C183.9,132,183.89,131.93,183.86,131.86Z"/><path class="cls-33" d="M183.17,127.17a.41.41,0,0,1,.07.11C183.25,127.2,183.25,127.18,183.17,127.17Z"/><polygon class="cls-33" points="184.44 137.15 184.44 137.15 184.44 137.19 184.44 137.15"/><path class="cls-33" d="M183.26,127.5a.32.32,0,0,0,0-.22A.55.55,0,0,0,183.26,127.5Z"/><path class="cls-33" d="M196.73,126.05l0,0,0,0Z"/><path class="cls-33" d="M196.78,126.07l.06,0A.09.09,0,0,0,196.78,126.07Z"/><path class="cls-33" d="M196.94,126.15l-.1-.05S196.9,126.16,196.94,126.15Z"/><path class="cls-33" d="M195.79,125.1l0,0S195.78,125.12,195.79,125.1Z"/><path class="cls-33" d="M195.49,124.84c.06.07.1.24.22.31l0,0C195.65,125.14,195.61,124.83,195.49,124.84Z"/><path class="cls-33" d="M194.22,124l.34,0c-.07,0-.16-.1,0-.14C194.1,123.76,194.66,123.94,194.22,124Z"/><path class="cls-33" d="M193.17,124.14c.18-.06,0-.08,0-.11S193,124.12,193.17,124.14Z"/><path class="cls-33" d="M185.72,125.66v-.13C185.58,125.58,185.72,125.58,185.72,125.66Z"/><polygon class="cls-33" points="184.42 126.6 184.57 126.65 184.62 126.52 184.42 126.6"/><polygon class="cls-33" points="183.33 125.89 183.43 125.85 183.06 125.97 183.33 125.89"/><path class="cls-33" d="M183.33,138.73l.15-.06C183.45,138.58,183.27,138.57,183.33,138.73Z"/><path class="cls-33" d="M183.84,143.75c-.12-.08-.21-.13-.2-.05S183.82,143.77,183.84,143.75Z"/><polygon class="cls-33" points="178.08 135.92 178.11 136.04 178.1 135.82 178.08 135.92"/><polygon class="cls-40" points="79.05 287.7 99.21 297.81 125.51 198.66 105.01 193.65 79.05 287.7"/><polygon class="cls-41" points="118.68 331.59 115.95 380.49 259.43 380.49 237.57 301.49 136.44 300.24 118.68 331.59"/><polygon class="cls-42" points="143.28 290.2 221.17 288.95 222.81 307.81 137.81 302.75 143.28 290.2"/><polygon class="cls-43" points="204.77 159.79 212.97 256.35 221.17 305.25 238.94 334.1 233.47 377.98 269 377.98 251.24 316.54 269 277.67 251.24 184.87 204.77 159.79"/><polygon class="cls-44" points="95.45 162.3 91.35 140.98 129.61 140.98 129.61 177.35 99.55 177.35 95.45 162.3"/><polygon class="cls-36" points="95.45 162.3 110.48 171.08 115.95 171.08 129.61 161.04 130.98 162.3 128.25 192.39 110.48 193.65 100.91 186.12 95.45 167.31 95.45 162.3"/><path class="cls-33" d="M138.94,293c.06,0,.11-.09,0-.15l-.17.06Z"/><path class="cls-33" d="M138.64,292.22c-.15,0-.35,0-.4.13.2,0,.18,0,.41,0s.09.17,0,.2.09.15.21.12a.42.42,0,0,0-.35-.38C138.55,292.23,138.61,292.23,138.64,292.22Z"/><path class="cls-33" d="M131.24,284.54l0,.07A.09.09,0,0,0,131.24,284.54Z"/><path class="cls-33" d="M126.61,279.84s.06,0,.07,0S126.61,279.82,126.61,279.84Z"/><path class="cls-33" d="M125.93,278.92l0,.05A0,0,0,0,0,125.93,278.92Z"/><path class="cls-33" d="M131.24,284.54l-.09-.16C131.1,284.41,131.19,284.47,131.24,284.54Z"/><path class="cls-33" d="M137.31,291.47a.19.19,0,0,0,.1,0l-.08-.05Z"/><path class="cls-33" d="M133.4,286.49l0,0,.08,0Z"/><path class="cls-33" d="M135,288.05s-.14,0-.2.07a.19.19,0,0,1,.15,0A.28.28,0,0,0,135,288.05Z"/><path class="cls-33" d="M137.36,290.71l0,0Z"/><path class="cls-33" d="M132.29,285.35l0-.05A.08.08,0,0,0,132.29,285.35Z"/><path class="cls-33" d="M121.4,227.58h0S121.4,227.56,121.4,227.58Z"/><path class="cls-33" d="M122.13,225v0h.08Z"/><path class="cls-33" d="M124.59,277.34h0C124.65,277.37,124.62,277.35,124.59,277.34Z"/><path class="cls-33" d="M122.2,260c-.13.22-.16-.35-.3,0C122,260,122.11,260.29,122.2,260Z"/><path class="cls-33" d="M137.28,291.41l-.06-.06Z"/><path class="cls-33" d="M121.9,260h0l0,0Z"/><path class="cls-33" d="M122,274.21l-.07,0S122,274.24,122,274.21Z"/><path class="cls-33" d="M123.53,276.69l0-.08A.28.28,0,0,0,123.53,276.69Z"/><path class="cls-33" d="M121.85,272.37c0-.05,0-.07,0-.13l0,0S121.88,272.31,121.85,272.37Z"/><polygon class="cls-33" points="121.88 270.45 121.85 270.49 121.86 270.55 121.88 270.45"/><path class="cls-33" d="M121.39,233.39a.35.35,0,0,1,.13-.08C121.42,233.34,121.38,233.05,121.39,233.39Z"/><path class="cls-33" d="M137.37,291.41a.07.07,0,0,1-.09,0l.05,0S137.37,291.43,137.37,291.41Z"/><path class="cls-33" d="M120.75,272.27l0-.3A2.51,2.51,0,0,0,120.75,272.27Z"/><path class="cls-33" d="M121.22,247.12v-.07A.08.08,0,0,0,121.22,247.12Z"/><path class="cls-33" d="M120.76,271.07a.5.5,0,0,0,.1-.17l0,0Z"/><path class="cls-33" d="M121.52,233.31Z"/><path class="cls-33" d="M121.21,231.3c0,.29.18.14.29.2,0,.35-.14.16-.24.28s.21.38.21.54,0,0-.08,0c.14.23,0,.67.17.94l0,0a.48.48,0,0,1,.25,0c0,.13.12.24,0,.29s0-.09-.08-.13l0,.14c-.17.12,0-.19-.18-.19a2.43,2.43,0,0,1,.14.78c-.17,0,0-.47-.21-.2l.07-.32c-.27.24,0-.19-.27,0,0,.41.08.46,0,.88.09.09.14,0,.23.06.16.59-.43.46-.21.89.11.11.32.16.21.47l-.19-.11c0,.4.27.23.13.65-.07-.08-.06-.32-.08-.26-.15.27.11.2.1.41l-.17,0c0,.43.14.9.17,1.37,0,0-.11-.11-.16,0a6,6,0,0,1-.15,1.85l.15.22c0,.05-.07.09-.1,0-.06.22.09,0,.15.12s-.09.17-.13.08a2.92,2.92,0,0,1,.09,1.55l0-.08c-.07.32.29.37.15.67l0-.06a7.91,7.91,0,0,1-.18,2c.21.1-.1.69.19.74a2.93,2.93,0,0,0-.31.85c0,.15.18.23.21.42h-.15l.16.25-.19.14,0,.17c0-.07.07-.15.11-.13a.76.76,0,0,1-.19.67l.12.65c-.06,0-.08-.13-.12-.21.15.35-.17.06,0,.38,0,0,.1,0,.13,0a1.49,1.49,0,0,0-.07.78l-.1-.05c0,.48,0,1,0,1.55.06-.19.24-.14.26,0l-.17.06c.1.1.06-.17.19,0,0,.2-.19.14-.24,0l0,.25s-.07-.05-.14-.06c.1.1-.16.42,0,.56l-.05,0c0,.54,0,.78.05,1.22.14,0,.1.18.22.32a5.49,5.49,0,0,0-.16,1.06c.06.28.12.09.2.21-.13,0-.12.41-.21.2a6,6,0,0,0,.11,1.19c0-.06.08-.13.12-.1s-.06.25-.12.23v0c.18.67-.4,1.53-.14,2.06v0l.13.55c0,.25-.09-.15-.17,0,.2.59,0,.93.09,1.42-.38.37,0,1.34-.24,1.84l.09,0c.08.14,0,.16-.08.26s.09-.14.13-.06a21.08,21.08,0,0,1-.25,3.43c0,.42.45.25.23.77l-.16-.15c.19.84,0,1.72.13,2.54,0-.05-.09-.05-.09-.13-.12.17,0,.65.09.65s-.09,0-.14.11.14.44,0,.53,0-.05,0-.08,0,.53.12.42c-.07.31.06.59,0,.84.15.16-.08.53.14.58-.23,0-.19.54-.09.74-.07-.07-.07.16-.17.09,0,.22,0,.42.16.39-.28.4.21.83-.14,1.05,0,.25.07.49.11.72s0,.24,0,.36,0,.35,0,.52l.51.44c-.07,0-.11,0-.23-.06l-.37-.34c0-.16,0-.27-.12-.24l0,.27.49.37.27.16a1.84,1.84,0,0,1,.5.44c.08.12-.12,0-.19,0,.47.33.77.78,1.21,1.05,0,0-.07,0-.12,0s.14.18.21.1l-.09-.05c0-.21.5.06.56,0-.32.09.3.4-.15.47.06,0,.16.06.19,0s0,.13-.07.12c.29.21.28,0,.5.27,0,0-.09,0-.16,0a.85.85,0,0,1,.54.31s0,.06-.1,0c.34.32.75.38,1.05.81-.26,0,.07.17,0,.32l.23.16v-.15c.17.18.41.23.52.42l-.18-.07.34.29-.13-.23c.24.1.15-.19.34.08-.06,0,.17.17.18.33h0a.55.55,0,0,1,.35.24c0,.08-.17.13-.17.17.19,0,.43.37.65.36a.14.14,0,0,0-.13.08l.16,0c0,.11,0,.14,0,.18.22.25.09-.24.3.11,0,0,0,0-.09,0,.24.31.6.48.82.79-.05.21-.26-.2-.28,0a10.63,10.63,0,0,1,1.27,1l0-.09c.24-.13.18.37.45.46-.06,0-.16.05-.13,0a4.77,4.77,0,0,0,1,.77h-.1a6.8,6.8,0,0,0,.5.59c.1,0,.18.1.19,0,.22.76,1.09.78,1.3,1.44-.06,0-.17-.08-.13,0l.42.32c0-.11,0-.09,0-.23a.48.48,0,0,1,.33.15c-.22-.11-.13.13-.1.25,0,0,.06,0,.08-.07.05.34.2-.14.37.22l-.06,0c.12.08.27.11.36.23s-.15-.06-.23,0c.16.15.47.12.52.34-.09,0-.19-.12-.28-.16a.53.53,0,0,0,.18.37h0l.21.3,0-.09c.43-.06.43.33.84.42-.4-.09-.13.05-.25.14s.1.22,0,.22c.2,0,.13.27.43.31,0,0,.12.13,0,.19.18.12,0-.1.08-.13.35.12.42.7.92.88s.54.16.87.38c0,.15-.2.05-.2.05a.86.86,0,0,0,.4.4c-.06,0,0,.06,0,.14s.2-.05.3.15a.65.65,0,0,1-.25,0c.17.1.36.17.53.28,0,.09-.17,0-.26,0,.18.12.46.34.6.29l-.07-.13c.06.05-.05.11-.11.09-.21-.06-.16-.23-.13-.27l.12.08c.1-.31-.43-.36-.62-.57l.23-.07-.32-.08c0-.08.05-.19.17-.11-.07-.22-.18-.08-.22-.28,0,0,0,0,0,0l-.19-.09c.06,0,.08-.13.15,0-.17-.34-.51-.29-.5-.5l0,0c-.39-.3-.14.07-.52-.06l.09-.44-.15.08s-.09-.12,0-.15c-.21-.06,0,.07-.17.06-.08-.27-.53-.42-.39-.63-.15,0,.1.22-.14.1.13-.24-.25-.18-.32-.42.14-.05.24.15.17-.09-.25.07-.27-.34-.43-.44-.14.12-.34-.23-.61-.41.06,0-.35-.48-.51-.73l0,0c-.17.09-.36-.14-.54-.27.08-.07.14-.07.26,0l-.15-.14a.33.33,0,0,1-.25-.09l.13-.06c-.2-.19-.5-.28-.69-.59-.1.08,0,.45-.37.25,0-.06.11-.15.2-.1s-.12,0-.15-.11l.19,0c-.08-.15-.13,0-.21-.08.07-.07,0-.12.05-.16s0,.1.11.11a.65.65,0,0,1-.16-.37.12.12,0,0,1-.18,0c-.2-.19,0-.15-.06-.3-.1,0-.17-.17-.28-.07-.05-.06,0-.12,0-.17-.15,0-.48-.45-.48-.22l0,0h0c-.43-.22-.63-.74-1-1l0,0a3.21,3.21,0,0,0-.68-.47c0-.06-.07-.2,0-.22-.18-.12-.23-.1-.39-.37.21.09,0-.1.19.11-.16-.22-.15-.32-.45-.43.16,0,0-.26-.15-.32l.07.2a2,2,0,0,1-.29-.29l.17-.07c-.25-.54-1-.46-1-1-.19,0,.16.27,0,.27-.17-.19-.19-.55-.25-.61-.18-.31-.4-.06-.62-.36,0,.08-.09.22-.32.07s0-.4.1-.32,0,.07,0,.08.17.11.15,0l-.07,0c-.05-.14-.3-.38-.17-.39-.18-.1-.13,0,0,.13-.18-.29-.37-.36-.57-.64,0,.06,0,.15,0,.11-.31-.4-.24-.08-.5-.29-.07-.2.2-.11-.09-.29-.1-.19.08-.15.17-.12-.3-.14-.36-.46-.47-.6l.15.08a1.16,1.16,0,0,1-.2-.16l0,.15c0-.09-.11-.14-.07-.18-.13,0-.09.2-.3.13,0-.13-.32-.22-.24-.37.24.32.08-.14.34.08a.46.46,0,0,1-.17-.17s0,0,0,0c-.17-.37-.25,0-.53-.28.1,0,0-.19,0-.22.11.12,0,.16-.21.11-.13-.23-.23-.16-.32-.26l.09.13c-.1,0-.19-.07-.33-.18,0-.06.15.08.12,0-.25,0-.2-.43-.47-.55,0-.13.11-.13.06-.24-.3-.13-.15-.32-.45-.48,0,.15,0,.14-.23.06l.44.32-.37-.12c.11.12.3.19.35.27-.18-.05-.15-.05-.17.07,0-.28-.38-.23-.48-.5l.22-.2a.79.79,0,0,0-.24-.27l-.18-.06c0-.07,0-.06,0-.24a.53.53,0,0,1-.06.13c-.11,0,0-.3,0-.44s.13-.09.19-.16,0-.36-.18-.41l.13-.22c.06-.4-.27-.46-.23-.84.1.11.17-.06.25.2,0-.13,0-.24-.05-.25s-.13-.36,0-.47-.15-.08-.14-.22.05,0,.05,0-.06-.23-.17-.1c.31-.4,0-1.11.26-1.45,0-.28-.06-.62-.06-.88,0,0,0,0,0,.05.09-.35-.28-.22-.18-.62.17-.2.09.22.15.09.33-.05,0-.48.16-.75v.06c.12-.2-.11-.5-.08-.84,0,0,0,0,0,0a2.58,2.58,0,0,1-.25-1c.13.11.07.15.2.09s-.21,0-.24-.25c.07-.09.13-.3.27-.32v.27c.18-.14,0-.36,0-.5l.08,0c0-.42-.21-.43-.19-.88l-.06,0c-.19-.25.11-.21,0-.45l.2-.07a5.19,5.19,0,0,1-.22-.87,3.31,3.31,0,0,1,.3.72,1.37,1.37,0,0,0-.1-.63c0,.07.06.15,0,.21a1.2,1.2,0,0,1-.22-.78c.38.06.11-.83.41-1.06a9.9,9.9,0,0,1,.06-1.78c-.3.23,0-.2-.31-.16,0-.15,0-.21,0-.23l.19-.46c.09-.11.06.15.13.13,0-.33.13-.14.22-.36-.11.05-.16-.12-.11-.31l-.15.27c-.15-.47.26-.4.11-.88l.09.15c0-.24,0-.9-.22-1.14,0,0,.12-.1.14,0,0-.58-.25-1.3-.09-1.75l.07,0c0-.11-.13-.19-.06-.33s.08,0,.08,0a.89.89,0,0,1-.08-.44l.08.13c.11-.57-.19-.88-.23-1.35.22,0,.29-.45.33-.67h0a8.29,8.29,0,0,0-.24-1.74c.24-.37.12-1.28.26-1.89,0,.09-.17,0-.19-.13s-.15-.4,0-.37V249c.19-.1.15-.4.15-.63l-.26,0c.39-.6-.12-1.58.23-1.9-.06-.15-.06-.33-.12-.47h.14a5.54,5.54,0,0,0,0-1.1l.1.1c0-.28-.4-.36-.41-.62l.22-.07a4,4,0,0,0,0-1.47s.09,0,.1.1c0-.23.15-.89-.14-.81.19,0,0-.5,0-.77l.13,0a.84.84,0,0,1-.26-.55c0-.07.11-.06.07,0,.08-.25-.13-.2,0-.49l.09.11c0-.25,0-.23-.14-.38s0-.47.17-.51a.3.3,0,0,1-.14-.32s.08,0,.09.06c.1-.42-.15-.63,0-.92a.1.1,0,0,0,.08,0,4.55,4.55,0,0,1,0,.58c.13,0,.16-.27.33,0-.09-.22-.3-.59-.23-.86l0,0,0,0a.31.31,0,0,0,0-.17.93.93,0,0,0,0-.22c.11,0,.06-.31.07-.45-.14,0-.12-.16-.24,0,0,0,0,0,0,.12a.07.07,0,0,0,0,.05h0v.33a.33.33,0,0,1,0-.37l-.22-.19c.2-.18.31-.54.43-.59-.07-.41,0-1-.3-1.23,0-.12.08-.14.12-.18s0,.15.06.19c-.07-.24,0-.7-.2-.76.09-.29.17.17.14-.24l.06.06c.3-.8-.46-1.31-.07-2.19,0,.06,0,.09-.06.1.18-1-.13-2.08.15-3.08,0-.28-.06-.31-.15-.49l.15-.06-.17-.3c-.12-.42.38-.72.15-1.25l-.1.06c0-.19-.06-.6.06-.57s-.1-.06,0-.14h.08l-.13-.47c.06-.36.31.06.34-.47,0-.2-.23-.57-.28-.49s0,.2-.13.21l0-.19c-.23,0-.47-.17-.64.27l.14.31-.11.1v-.26c-.11.14,0,.24,0,.34a.27.27,0,0,0-.13.13l.22.31c-.09,0-.18-.14-.23.06s.21-.13.27.1c-.11.15-.19.1-.11.28-.06,0-.09,0-.12-.08.07.15,0,.4.15.49-.13.15,0,.52-.19.5a.92.92,0,0,1,.17.41c-.26-.26,0,.53-.3.46.23.2.09.69.22,1,0,0-.06-.06,0-.09a1.69,1.69,0,0,1-.14.37c.19,0,.23.32.35.48-.19.23-.23-.14-.41-.07.16,0,.15.41.29.33-.12.18-.06.15-.23.24.25,0,0,.17.19.32-.12.26-.23.06-.16.35C121.29,231.55,121.21,231.3,121.21,231.3Zm.33,6.77h0v0Zm0,.57c0-.07,0-.16,0-.25a.06.06,0,0,1,.09.06S121.58,238.56,121.54,238.64Zm1-1.19c0,.09,0,.12,0,.13l0-.15v0Z"/><path class="cls-33" d="M122.35,237.29a.06.06,0,0,1,0,0l0,.05,0,0Z"/><path class="cls-33" d="M131.28,284.62h0a0,0,0,0,1,0,0Z"/><polygon class="cls-33" points="121.16 246.49 121.2 246.49 121.17 246.44 121.16 246.49"/><path class="cls-33" d="M133.17,287.16s0,0,0,0S133.17,287.19,133.17,287.16Z"/><path class="cls-33" d="M134.11,288.13l.1.17A1.94,1.94,0,0,0,134.11,288.13Z"/><path class="cls-33" d="M134.8,288.91a.11.11,0,0,0,.06,0h0Z"/><path class="cls-33" d="M122.92,277.41l0,0C122.8,277.34,122.85,277.37,122.92,277.41Z"/><path class="cls-33" d="M126.65,280.63a1,1,0,0,1-.16-.06C126.55,280.64,126.59,280.69,126.65,280.63Z"/><polygon class="cls-33" points="120.74 272.31 120.75 272.31 120.75 272.27 120.74 272.31"/><path class="cls-33" d="M126.33,280.41a.41.41,0,0,0,.16.16A.41.41,0,0,0,126.33,280.41Z"/><path class="cls-33" d="M138,292.13l0,0h0Z"/><path class="cls-33" d="M138,292.16l.06,0S138,292.15,138,292.16Z"/><path class="cls-33" d="M138.17,292.24l-.1-.06S138.13,292.25,138.17,292.24Z"/><path class="cls-33" d="M137,291.11l-.05,0Z"/><path class="cls-33" d="M136.72,290.83c.06.08.1.25.22.33l0,0C136.88,291.15,136.85,290.84,136.72,290.83Z"/><path class="cls-33" d="M135.92,289.16l.22.27c0-.08,0-.19.11-.09C136.05,288.92,136.23,289.49,135.92,289.16Z"/><path class="cls-33" d="M135.2,288.33c.15.12.06-.05.09-.07C135.17,288.21,135.14,288.2,135.2,288.33Z"/><path class="cls-33" d="M129.61,282.81l.11-.08C129.6,282.64,129.68,282.77,129.61,282.81Z"/><polygon class="cls-33" points="128.08 282.23 128.13 282.38 128.26 282.35 128.08 282.23"/><polygon class="cls-33" points="128.09 280.95 128.15 280.99 127.94 280.85 128.09 280.95"/><path class="cls-33" d="M122,270.79l-.16,0C121.87,270.93,122,271,122,270.79Z"/><path class="cls-33" d="M121.91,265.1a.25.25,0,0,0,.06-.32C122,264.9,121.9,265,121.91,265.1Z"/><polygon class="cls-33" points="122.4 248.02 122.45 248.13 122.41 247.91 122.4 248.02"/><polygon class="cls-45" points="83.15 88.31 125.51 80.79 129.61 102.11 148.74 107.12 130.98 130.95 88.61 137.22 65.38 118.41 83.15 110.89 83.15 88.31"/><path class="cls-46" d="M172,287.36c-.05.05,0,.15.13.13l.1-.17Z"/><path class="cls-46" d="M173,287.67c.17-.08.37-.22.26-.37-.17.16-.21.09-.4.28-.14,0-.25-.05-.23-.11s-.23,0-.3.06a.68.68,0,0,0,.68,0C173,287.6,173,287.64,173,287.67Z"/><path class="cls-46" d="M187.24,287.93l-.09,0Z"/><path class="cls-46" d="M196.09,288c-.07,0-.1,0-.1,0S196.11,288,196.09,288Z"/><path class="cls-46" d="M197.6,288.2h-.09A.1.1,0,0,0,197.6,288.2Z"/><path class="cls-46" d="M187.24,287.93l.24.05C187.49,287.93,187.36,287.94,187.24,287.93Z"/><path class="cls-46" d="M174.93,287.27l-.13.05.12,0Z"/><path class="cls-46" d="M183.34,288.06h-.07l-.06.07Z"/><path class="cls-46" d="M180.35,288.09c.06,0,.09-.14.11-.2a.22.22,0,0,1-.14.1A.11.11,0,0,0,180.35,288.09Z"/><path class="cls-46" d="M175.6,287.84l-.09,0Z"/><path class="cls-46" d="M185.48,288.09l0,.05A.09.09,0,0,0,185.48,288.09Z"/><path class="cls-46" d="M170.63,291h0S170.64,290.94,170.63,291Z"/><path class="cls-46" d="M172,287.7v.05l.07,0Z"/><path class="cls-46" d="M199.89,288.38Z"/><path class="cls-46" d="M194.34,307.18c.28.13-.47.16,0,.3C194.26,307.43,194.7,307.26,194.34,307.18Z"/><path class="cls-46" d="M175,287.29h.13A.28.28,0,0,0,175,287.29Z"/><path class="cls-46" d="M194.3,307.48Z"/><path class="cls-46" d="M199.66,293.71s.05,0,.07-.06S199.69,293.66,199.66,293.71Z"/><path class="cls-46" d="M200.18,289l0,.11A.52.52,0,0,0,200.18,289Z"/><path class="cls-46" d="M199.69,296.18a.42.42,0,0,0,0,.17l0,0A.16.16,0,0,1,199.69,296.18Z"/><polygon class="cls-46" points="199.52 298.74 199.55 298.69 199.55 298.61 199.52 298.74"/><path class="cls-46" d="M169.14,298.62a.3.3,0,0,1,.15-.09C169.18,298.54,169.22,298.17,169.14,298.62Z"/><path class="cls-46" d="M174.93,287.35a.11.11,0,0,1,.07-.06h-.08S174.91,287.34,174.93,287.35Z"/><path class="cls-46" d="M200.79,296.36l0,.4A4,4,0,0,0,200.79,296.36Z"/><path class="cls-46" d="M177.07,308.33l-.1,0A.16.16,0,0,0,177.07,308.33Z"/><path class="cls-46" d="M200.68,298a.76.76,0,0,0-.11.22l0,.05Z"/><path class="cls-46" d="M169.29,298.53Z"/><path class="cls-46" d="M169.5,295.83c-.08.38.14.21.23.32,0,.46-.18.18-.3.31,0,.3.11.55.06.76,0,0-.05,0-.08,0,.08.33-.18.89-.07,1.28l-.05,0a.39.39,0,0,1,.26,0c0,.17,0,.34-.08.38,0-.1,0-.12-.05-.18v.19c-.2.13,0-.25-.13-.28a4.27,4.27,0,0,1-.06,1.05c-.18,0,.07-.63-.15-.31l.15-.4c-.33.27.07-.24-.27,0-.16.53,0,.62-.2,1.16.06.14.14,0,.21.12,0,.81-.54.53-.44,1.14.08.17.28.27.09.65l-.16-.18c-.13.53.21.36,0,.88-.06-.11,0-.42,0-.35-.22.33.06.28,0,.55l-.18,0c-.09.57-.09,1.21-.19,1.84,0-.05-.07-.16-.15,0a7.85,7.85,0,0,1-.24,1.23l-.18.6c-.1.35-.2.69-.29,1a3.66,3.66,0,0,0,.07.42c0,.11-.13.27-.13.17a1,1,0,0,0-.06.22c.11,0,.08-.06.12-.1l0,0,.12,0c.28,0,.3.08.06.13l.87-.1.8-.07a3.46,3.46,0,0,1,1,0l-.11.05c.44.06.49-.3.9-.17l-.08,0a14.27,14.27,0,0,1,2.71.15c.13-.21.93.1,1-.2a4.48,4.48,0,0,0,1.15.3c.2,0,.3-.19.55-.22v.16l.34-.16.18.18.23,0c-.09,0-.2-.07-.18-.11a1.26,1.26,0,0,1,.9.18l.87-.13c0,.06-.16.09-.28.13.46-.16.08.16.51,0-.06,0,0-.09,0-.12a2.87,2.87,0,0,0,1,.06l-.07.1c.65,0,1.36-.05,2.08-.05-.26-.05-.2-.23,0-.25l.08.16c.14-.1-.22-.06.06-.18s.18.18,0,.24l.33-.06c0,.05-.06.08-.08.14.13-.1.56.16.76,0l0,.05c.72,0,1-.05,1.64-.06,0-.14.24-.11.41-.22a12.13,12.13,0,0,0,1.44.14c.37-.07.11-.12.27-.2,0,.13.55.11.28.21a12.8,12.8,0,0,0,1.59-.13c-.09-.06-.18-.08-.13-.12s.32.05.3.11l0,0c.88-.2,2.05.37,2.75.1l0,0,.74-.14c.33,0-.21.09,0,.17.8-.21,1.25,0,1.91-.11.5.38,1.79,0,2.47.22l0-.09c.17-.09.21.05.34.07,0-.07-.19-.08-.08-.13a11.18,11.18,0,0,1,1.16,0l1.77.06c.17-1.59.27-2,.37-2.85.06-.55-.44-.35-.18-1l.15.21c-.12-1.14.16-2.3.07-3.42,0,.07.08.08.08.18.13-.22.06-.86,0-.87,0-.17.09,0,.15-.13s-.11-.6,0-.72,0,.07,0,.12c-.05-.16.06-.71-.09-.58.1-.4,0-.79.1-1.12-.14-.22.12-.7-.09-.78.22,0,.23-.71.14-1,.06.09.09-.23.17-.12,0-.29,0-.57-.12-.53.31-.53-.14-1.12.22-1.4-.06-.9-.08-1.72-.08-2.52.22,0,0,.88.2.86a8.63,8.63,0,0,1-.1-2c0-.19.09.12.12.19,0-.76.12-1.46.05-2.14,0,0,0,.07,0,.14,0-.13.05-.3,0-.29l0,.13c-.08.1-.15,0-.21-.2s-.1-.43-.14-.43c.28.2.14-.91.49-.68,0-.14-.05-.27-.12-.17v0c-.14,0-.16-.07.12-.14a12.11,12.11,0,0,1-1.27.16c0-.05.15-.06.24-.12a2.65,2.65,0,0,1-1,.15s0-.07.09-.07a8.35,8.35,0,0,1-1.76.16c.21-.21-.23-.07-.27-.25l-.36.05.14.09a4.71,4.71,0,0,1-.88.08l.24-.08-.61,0,.34.07c-.32.1,0,.24-.39.19.09,0-.32,0-.49-.11h0a.94.94,0,0,1-.57.07c-.06-.06.05-.2,0-.24-.15.15-.75,0-1,.2a.13.13,0,0,0,.05-.15l-.14.12c-.15,0-.17-.06-.14-.13-.45,0,.14.23-.4.13.05,0,0,0,.11-.05-.53-.05-1,.08-1.53,0-.14-.19.43,0,.27-.2-.71,0-1.48.22-2.16.18l.12,0c-.09.26-.51-.13-.86,0,.09,0,.11-.15.09-.12a9.64,9.64,0,0,0-1.68.15l.09-.07c-.28-.06-.73,0-1-.06-.09.07-.26.06-.16.15-.92-.38-1.76.21-2.58-.11.1,0,.23-.06.15-.06l-.7.06c.06.12.1.07.24.16a.84.84,0,0,1-.46.12c.32-.07,0-.18-.14-.25,0,0,0,.08,0,.11-.36-.2-.06.24-.56.1l0-.06a2.11,2.11,0,0,1-.56.09c-.08-.13.2-.06.21-.17-.28,0-.56.25-.81.12.12,0,.29,0,.41-.08a1,1,0,0,0-.52-.14h0l-.48-.08.12.05c-.35.35-.72.06-1.19.29.46-.22.07-.13.11-.28-.12,0-.31-.09-.25-.13-.23.12-.38-.1-.7.08,0-.05-.24,0-.19-.12-.29,0,.07.08.05.14-.46.17-1.07-.2-1.71,0s-.67.26-1.19.34c-.17-.08.15-.18.15-.18a1.54,1.54,0,0,0-.77,0c.06,0,0-.08-.08-.13s-.14.17-.42.1a.66.66,0,0,1,.21-.19c-.25,0-.5.13-.76.18-.07-.09.15-.13.25-.19-.3,0-.76.08-.85.21l.18.05c-.1,0-.05-.12,0-.14.25-.11.36.05.37.1l-.18,0c.19.28.75-.05,1.12,0l-.16.21.39-.18c.08.06.13.17-.05.2.27.11.24-.07.47.05,0,0,0,0,0,0l.26-.06c-.05,0,0,.15-.12.12.47.12.76-.16.94,0h0c.65-.07.06-.15.55-.33l.33.38.07-.16c.06,0,.2,0,.17.08.25-.1,0-.07.1-.16.33.13.9-.07,1,.17.12-.11-.31-.09,0-.17.1.27.4,0,.69.08-.09.13-.37.06-.07.18.18-.23.58,0,.83,0,0-.18.54-.08,1-.14a8.83,8.83,0,0,0,1.18.17l0,0c.08-.18.48-.15.78-.19,0,.11-.07.16-.23.2h.28a.52.52,0,0,1,.33-.11l-.07.14a4.61,4.61,0,0,1,1.21-.07c0-.13-.38-.36.12-.44,0,.07,0,.19-.09.21a.44.44,0,0,1,.24,0l-.2.11c.21.05.11-.1.28-.08,0,.09.13.07.1.14s-.15,0-.21,0a1.1,1.1,0,0,1,.5.15s0-.13.14-.14c.37,0,.13.12.34.17s.33,0,.33-.15.13.07.17.11.89,0,.67-.17h0a13.5,13.5,0,0,1,1.91,0v0a6.18,6.18,0,0,0,1.08-.14c.11,0,.26.09.21.15a1.43,1.43,0,0,1,.72,0c-.28.08.1.07-.29.06a1.45,1.45,0,0,0,.85,0c-.14.12.27.16.44.12l-.25-.09a3.25,3.25,0,0,1,.54,0l-.1.17c.75.2,1.35-.35,1.92,0,.2-.11-.4-.08-.23-.22a4.59,4.59,0,0,1,.81.27c.48.09.44-.25.94-.18-.06-.06-.12-.22.24-.28s.43.25.21.3-.12,0-.12,0-.26,0-.12.11l0-.06c.17.06.64.05.53.15.26-.06.11-.1-.08-.13.44.09.69,0,1.14.06-.07,0-.14-.1-.06-.1.66.07.29-.11.74-.14.26.09-.09.22.36.14.28.06.06.16-.05.21a2.19,2.19,0,0,1,1,.09l-.21.05a1.38,1.38,0,0,1,.34,0l-.12-.12c.13,0,.23,0,.23.08s-.05-.2.11-.31c.07.06.34-.06.24.09-.18,0-.1.16-.23.19s0,0,.06,0l0,0c0,.05,0,.05,0,0s.21-.16.19,0-.17.1-.15.1a.14.14,0,0,1,.21,0c-.08.23,0,.34,0,.5l0-.21c.08.08.06.25.07.49-.07,0,0-.22-.07-.14.14.28-.2.59-.12,1-.07.17-.17,0-.22.15.09.43-.15.44-.08.88.12-.11.1-.14.19.18l0-.72.14.47c0-.22-.05-.46,0-.59.09.22.06.2.16.1-.2.29.07.59-.08.93l-.29,0c-.17.5.09.92,0,1.57l.07-.21c.11.1,0,.42,0,.63-.1,0-.15.11-.21.2s0,.48.15.56l-.15.28c-.09.54.24.64.17,1.15-.1-.16-.18.07-.24-.29,0,.18,0,.33,0,.34s.1.48,0,.64.14.1.12.3a.05.05,0,0,1-.05,0c.05,0,0,.31.16.15-.34.51-.08,1.48-.37,1.92,0,.38,0,.84,0,1.18,0,0,0,0,0-.07-.13.46.26.31.12.84-.18.26-.07-.29-.14-.13-.33.05,0,.65-.21,1v-.09c-.13.27.07.68,0,1.13,0,0,0,0,0,0a4.26,4.26,0,0,1,.18,1.34c-.12-.14-.06-.2-.19-.12s.21-.05.22.34c-.08.12-.16.4-.3.43l0-.37c-.19.18,0,.47-.07.67l-.08,0c0,.56.18.58.13,1.18l.06-.06c.17.34-.12.27,0,.61l-.21.08a9.16,9.16,0,0,1,.16,1h0c-.06-.16-.1-.31-.14-.44a1.79,1.79,0,0,1-.1-.36v.31a.72.72,0,0,0,.07.25c0-.07,0-.15,0-.18a1,1,0,0,1,.13.35,1,1,0,0,1-.47.07c.11-.38-1.11-.09-1.42-.39a16.16,16.16,0,0,1-2.39,0c.31.3-.26,0-.2.32-.21,0-.29,0-.31,0l-.62-.18c-.15-.09.19-.07.18-.14-.46,0-.19-.13-.49-.21.06.11-.16.16-.42.12l.37.14c-.64.16-.55-.26-1.19-.1l.21-.09c-.33.05-1.21,0-1.53.24-.06,0-.13-.12,0-.14a17.91,17.91,0,0,1-2.34.11l.06-.08c-.15,0-.26.14-.44.07,0,0,.06-.08,0-.08a1.28,1.28,0,0,1-.58.09l.17-.09a7.18,7.18,0,0,0-1.81.26c0-.22-.59-.29-.89-.33v0a14.43,14.43,0,0,0-2.33.27,15.67,15.67,0,0,0-2.54-.23c.13,0,0,.17-.17.19s-.53.15-.5,0h.07c-.14-.19-.54-.14-.84-.15l-.06.27c-.8-.39-2.11.14-2.55-.2-.19.06-.43.06-.63.13v-.15a11.59,11.59,0,0,0-1.47,0l.14-.1c-.38,0-.48.41-.82.42l-.11-.21a6.84,6.84,0,0,0-2,0s0-.09.14-.1c-.31,0-1.19-.15-1.08.14,0-.18-.68,0-1,.07l.05-.14a1.41,1.41,0,0,1-.62.28c-.05,0,0-.12,0-.08-.13-.07-.22.13-.42.06l.18-.09a.25.25,0,0,0-.13,0s-.07,0-.13,0,.13-.46.25-.44c-.07,0-.13-.25,0-.43,0,0,.06.06.07.1.21-.54,0-.86.22-1.21a.11.11,0,0,0,.1-.05c-.1.44-.18.79-.18.76s.22-.33.34,0a2.71,2.71,0,0,1,0-1.17l.06,0v0a.44.44,0,0,0,0-.22,1.8,1.8,0,0,0,.09-.28c.12,0,.14-.4.19-.58-.15,0-.08-.24-.23,0,0,0,0,0,0,.15s0,.06,0,.08h0l-.08.44a.54.54,0,0,1,0-.49,2.59,2.59,0,0,1-.17-.3c.24-.2.44-.65.57-.69a4.15,4.15,0,0,0,0-1.68c0-.16.12-.17.17-.21s0,.19,0,.25c0-.32.16-.92,0-1,.16-.37.12.25.2-.29l0,.09c.51-1-.11-1.81.5-2.9,0,.08-.06.12-.09.13.43-1.3.41-2.77.93-4,.13-.36,0-.42,0-.67l.17-.05-.09-.42c0-.58.55-.88.46-1.63l-.12.07c.07-.25.11-.81.21-.74s-.09-.11,0-.19h.08V289c.15-.46.29.14.45-.55,0-.27-.08-.79-.15-.7s-.1.26-.18.25v-.25c-.22-.09-.42-.32-.7.23l.06.44-.14.1.07-.34c-.15.17-.08.32,0,.47a.24.24,0,0,0-.16.14l.13.44c-.09,0-.14-.21-.24,0,.06.2.24-.14.24.18s-.22.1-.17.34c-.07,0-.1,0-.1-.13,0,.22-.08.54,0,.67-.17.18-.11.69-.32.63a1.52,1.52,0,0,1,.07.58c-.19-.39-.16.69-.42.55.18.29-.08.93,0,1.4,0,0-.05-.09,0-.12a1.7,1.7,0,0,1-.23.45c.19.07.15.47.23.71-.25.27-.19-.23-.39-.17.16,0,.05.56.2.48-.16.21-.1.19-.28.28.23.09,0,.23.1.46-.19.31-.24,0-.24.43C169.52,296.18,169.5,295.83,169.5,295.83Zm-1.4,9h0l0-.19Zm-.15.75c0-.09,0-.21.07-.33a.07.07,0,0,1,.08.1C168.07,305.27,168,305.44,168,305.55Zm1.27-1.39c0,.12,0,.16-.07.17l0-.21,0,0A.17.17,0,0,1,169.22,304.16Z"/><path class="cls-46" d="M169.09,303.91s0,0,0-.05l-.05.07,0,.05Z"/><path class="cls-46" d="M187.13,287.91h0l0,0S187.13,287.9,187.13,287.91Z"/><polygon class="cls-46" points="176.22 308.4 176.22 308.37 176.15 308.4 176.22 308.4"/><path class="cls-46" d="M182.93,287.42l-.05,0Z"/><path class="cls-46" d="M181.12,287.39l-.26-.05Z"/><path class="cls-46" d="M179.73,287.32l0,.06h0Z"/><path class="cls-46" d="M201.13,289V289C201.15,289.14,201.14,289.05,201.13,289Z"/><path class="cls-46" d="M195.3,287.49l.21-.07C195.39,287.41,195.3,287.41,195.3,287.49Z"/><polygon class="cls-46" points="200.8 296.31 200.79 296.31 200.79 296.36 200.8 296.31"/><path class="cls-46" d="M195.82,287.42a.65.65,0,0,0-.31,0A1.07,1.07,0,0,0,195.82,287.42Z"/><path class="cls-46" d="M173.68,287.26h-.06v0Z"/><path class="cls-46" d="M173.61,287.28h0Z"/><path class="cls-46" d="M173.38,287.33l.15,0C173.48,287.29,173.41,287.29,173.38,287.33Z"/><path class="cls-46" d="M175.53,287.32l0-.05A.08.08,0,0,0,175.53,287.32Z"/><path class="cls-46" d="M176.09,287.31a1.89,1.89,0,0,0-.52-.08l0,0C175.64,287.2,176,287.39,176.09,287.31Z"/><path class="cls-46" d="M178.43,287.94l-.47,0c.08.05.19.13,0,.14C178.53,288.2,177.82,287.92,178.43,287.94Z"/><path class="cls-46" d="M179.89,288c-.25,0,0,.08,0,.11C180,288.08,180.08,288.07,179.89,288Z"/><path class="cls-46" d="M190.42,288l0,.13C190.59,288.13,190.4,288.1,190.42,288Z"/><polygon class="cls-46" points="192.43 287.36 192.25 287.28 192.15 287.39 192.43 287.36"/><polygon class="cls-46" points="193.62 288.27 193.54 288.29 193.86 288.24 193.62 288.27"/><path class="cls-46" d="M199.43,298.28l.16,0C199.57,298.09,199.39,298.05,199.43,298.28Z"/><path class="cls-46" d="M199.07,305.9a.41.41,0,0,0-.08.43A4.2,4.2,0,0,0,199.07,305.9Z"/><polygon class="cls-46" points="178.24 307.14 178.4 307.09 178.11 307.13 178.24 307.14"/><polygon class="cls-47" points="124.9 177.44 146.01 171.08 130.29 161.67 124.9 177.44"/><polygon class="cls-35" points="88.61 132.2 84.52 133.46 88.61 144.74 92.72 143.49 95.45 152.27 120.05 154.78 130.98 148.5 132.34 142.24 135.08 142.24 136.44 128.44 132.34 128.44 130.98 110.89 89.98 114.65 88.61 132.2"/><polygon class="cls-47" points="95.28 164.15 55.82 186.12 23.02 227.51 7.99 201.17 -0.21 208.7 1.16 246.32 14.82 263.87 61.28 237.54 42.15 356.67 54.45 366.7 114.58 196.16 95.28 164.15"/><polygon class="cls-43" points="157.63 165.43 116.63 180.48 92.03 278.29 116.63 328.45 104.33 379.87 118 379.87 120.73 330.96 143.96 300.86 157.63 165.43"/><path class="cls-33" d="M109.47,127.85s.14,0,.11,0h-.16Z"/><path class="cls-33" d="M109.74,127.55a.62.62,0,0,0-.37,0c.16,0,.09,0,.29.08,0,0,0,.07-.11.07s0,.07.08.08.12-.13,0-.19A.22.22,0,0,1,109.74,127.55Z"/><path class="cls-33" d="M109.62,123.72v0A0,0,0,0,0,109.62,123.72Z"/><path class="cls-33" d="M109.48,121.35s0,0,0,0A.05.05,0,0,0,109.48,121.35Z"/><path class="cls-33" d="M109.62,120.93v0S109.64,120.94,109.62,120.93Z"/><path class="cls-33" d="M109.62,123.72l0-.07S109.63,123.69,109.62,123.72Z"/><path class="cls-33" d="M109.3,127.07s0,0,0,0l0,0Z"/><path class="cls-33" d="M109.86,124.75v0h.07Z"/><path class="cls-33" d="M110,125.54a1,1,0,0,0-.2,0l.1,0Z"/><path class="cls-33" d="M109.84,126.83l0,0Z"/><path class="cls-33" d="M109.83,124.17h0Z"/><path class="cls-33" d="M96.46,116.42v0Z"/><polygon class="cls-33" points="95.44 115.86 95.45 115.86 95.45 115.78 95.44 115.86"/><path class="cls-33" d="M109.73,120.18h0S109.74,120.19,109.73,120.18Z"/><path class="cls-33" d="M108,113.49c.09.12-.22.2-.08.32C107.93,113.75,108.16,113.55,108,113.49Z"/><path class="cls-33" d="M109.31,127.05v0S109.31,127,109.31,127.05Z"/><polygon class="cls-33" points="107.94 113.81 107.94 113.81 107.96 113.82 107.94 113.81"/><path class="cls-33" d="M109.48,118.49a.08.08,0,0,0-.06,0Z"/><path class="cls-33" d="M109.4,119.77l0,0Z"/><path class="cls-33" d="M109.21,117.85s0,0,0,0h0S109.23,117.83,109.21,117.85Z"/><polygon class="cls-33" points="109.14 117.17 109.12 117.18 109.13 117.2 109.14 117.17"/><path class="cls-33" d="M98.52,116.05a.33.33,0,0,1,0-.12C98.49,116,98.4,116.08,98.52,116.05Z"/><path class="cls-33" d="M109.37,127.06h-.06v0Z"/><path class="cls-33" d="M108.11,117.93v-.11A.2.2,0,0,0,108.11,117.93Z"/><path class="cls-33" d="M103.4,115.33l0,0Z"/><path class="cls-33" d="M108.07,117.5a.35.35,0,0,0,.09-.07h0Z"/><path class="cls-33" d="M98.47,115.93Z"/><path class="cls-33" d="M97.81,116.37c.1,0,0-.19,0-.3s.08.13.14.22c.07-.06.1-.24.16-.24a.11.11,0,0,1,0,.08c.06-.16.24,0,.31-.24a.08.08,0,0,1,0,0,1.38,1.38,0,0,1,0-.25s.07-.12.1,0,0,0,0,.09l0-.06c.07.17-.06.07,0,.2.09-.07.18-.23.26-.19s-.16.08,0,.22l-.12-.05c.13.25-.07,0,0,.26.16,0,.15-.11.31-.08s0-.14,0-.24c.18-.19.22.4.34.16s0-.34.14-.24v.2c.14,0,0-.29.21-.18,0,.08-.11.08-.08.1s0-.12.13-.13l0,.16c.14,0,.29-.19.46-.24,0,0,0,.1,0,.15a.83.83,0,0,1,.67,0l.06-.15s0,.06,0,.09,0-.09,0-.16.07.08.05.13c.12-.15.36-.33.53-.19l0,0c.12,0,.09-.32.21-.2v0c.25,0,.51-.15.73,0,0-.21.27.06.24-.23.16.12.13.18.35.25,0,0,0-.2.11-.24l0,.15.07-.17.08.18.05-.05a.15.15,0,0,1-.06-.11c.08-.08.25.07.26.15l.22-.16c0,.06,0,.09-.06.13.1-.17,0,.16.14,0s0-.09,0-.12a.24.24,0,0,0,.29,0v.11a4,4,0,0,0,.55-.13c-.08,0-.09-.22,0-.25l0,.16c0-.11-.07,0,0-.19s.08.18,0,.24l.08-.07a.65.65,0,0,1,0,.14c0-.11.17.14.2,0v0a3.75,3.75,0,0,0,.43-.12c0-.14,0-.12.08-.24s.26.12.4.09,0-.12,0-.21c0,.12.16.09.1.19a.87.87,0,0,0,.41-.19s-.06-.06-.06-.11.1,0,.1.1v0c.21-.23.6.29.75,0h0l.18-.16c.09,0,0,.1,0,.17a.25.25,0,0,1,.23-.12s0,0,.08,0c-.06.33,0,.08.06.14l-.06.09.08-.1c.08-.07,0,.07-.07.09l.12-.13s0,.12,0,.17a4.46,4.46,0,0,0-.12.58c0,.15.47,0,.28.25l-.17,0c.22.28,0,.61.25.89,0,0-.09,0-.09,0s0,.23.11.23-.09,0-.13,0,.16.14,0,.19a.09.09,0,0,1,0,0c.06,0,0,.19.14.14-.06.12.08.2,0,.3.16,0-.06.2.16.19-.23,0-.16.22,0,.28-.07,0-.06.06-.16,0a.13.13,0,0,0,.17.13c-.25.17.25.27-.09.39a2.55,2.55,0,0,1,.32.64c-.22,0,0-.23-.28-.2.12.19.32.29.29.5,0,0-.1,0-.14,0,.11.2,0,.4.15.56,0,0,0,0-.06,0s0,.09.08.07l0,0c.14-.07.32.11.4.11-.3,0-.06.18-.44.13a.18.18,0,0,0,.14,0s-.05,0-.13,0c.06.13.17.07.18.18s-.07,0-.13,0c.1.05.2.1.17.2s-.07,0-.07,0c0,.17.28.26.21.45-.22,0-.07.07-.25.1l.07.09.08,0c0,.08.15.15.1.23l-.09-.06,0,.16.07-.1c.1.08.23,0,.19.09,0,0,0,.08-.1.14h0c.06,0,.13.07.09.14s-.21,0-.24,0c.15,0,.06.2.23.24a.29.29,0,0,0-.16,0l.13,0s0,0-.13.06.23-.07.14.09l0,0c0,.15.11.27.06.41s-.06-.11-.21,0c0,.18.26.37.24.56v0c.27,0-.11.15,0,.23s-.15,0-.12,0,.09.25.19.43l-.07,0c0,.08,0,.2,0,.29s.07.06.16,0c-.36.29.26.45,0,.7,0,0-.07-.05-.07,0l.08.18c.12,0,.07,0,.16-.08s.13.06.13.11-.18,0-.24.06h.11c-.2.12.23,0,.1.14h-.06s.12.09.11.14-.07,0-.18,0,.27.13.14.21,0-.08-.08-.11-.11.1-.13.16h0l0,.13,0,0c.35.06.08.18.32.29-.23-.1-.13,0-.28,0s-.08.09-.12.08c.12,0-.09.11.1.17-.05,0,0,.07-.13.07.05.07.09,0,.15,0s-.17.3.07.45.27.16.37.29c-.07.05-.18,0-.18,0s-.05.13,0,.2a.21.21,0,0,0-.13,0c0,.06.18,0,.11.11l-.2,0c0,.06.15.12.2.18s-.13,0-.19,0,.1.19.23.2l0,0s-.12,0-.14,0,0-.1.08-.11l0,0c.28-.08-.07-.19-.06-.29l.21,0-.18-.09s.16,0,.2,0-.08,0,0-.12h0l-.06-.06s.14,0,.12,0c.1-.14-.18-.19,0-.25h0c-.09-.17-.16,0-.35-.11l.37-.13h-.16a.08.08,0,0,1,.08-.06c-.11,0-.07,0-.17,0,.13-.1-.09-.23.15-.27-.12,0-.08.09-.17,0,.26,0,0-.1.06-.19s.07.09.18,0c-.23,0,0-.16,0-.22s-.09-.14-.16-.24.07-.22.13-.33h0c-.18,0-.16-.11-.21-.19a.26.26,0,0,1,.21,0v-.07a.15.15,0,0,1-.12-.08h.14c0-.1-.18-.18-.1-.32-.13,0-.34.14-.44,0,.07,0,.18,0,.22,0s-.07,0,0-.06l.12,0c0-.07-.1,0-.09-.07s.07,0,.14,0,0,0,0,0a.23.23,0,0,1,.13-.15s-.13,0-.14,0,.11,0,.16-.11,0-.08-.16-.07c0,0,.07,0,.11-.06s0-.23-.2-.16v0h0c-.16-.15,0-.35,0-.51h0c-.07-.09-.06-.21-.17-.27s.08-.08.14-.07-.1-.08,0-.19c.1.06.08,0,.07.07,0-.1.11-.13,0-.22.13,0,.15-.09.11-.14l-.09.08a.34.34,0,0,1,0-.14h.17c.18-.22-.38-.33-.06-.52-.12,0-.07.12-.21.09,0-.1.24-.22.24-.24s-.25-.1-.2-.24c-.06,0-.21.06-.28,0s.24-.14.29-.09,0,0,0,0a.07.07,0,0,0,.11,0h-.06c.06,0,0-.18.14-.16-.06-.06-.1,0-.13,0,.08-.13,0-.18,0-.31,0,0-.09.05-.1,0,.06-.19-.12-.07-.15-.19s.21,0,.13-.11.15,0,.2,0c-.12-.1.06-.21.07-.28l.06.06a.09.09,0,0,1,0-.09l-.12,0s0-.06.07-.07-.2,0-.31,0c.06,0-.08-.13.08-.16,0,.15.15,0,.19.08a.06.06,0,0,1,0-.08s0,0,0,0c.13-.15-.18-.05-.2-.19.09,0,.17,0,.15-.07s-.15,0-.22,0-.06-.1-.06-.15l0,.06c-.09,0-.09-.06-.12-.12s0,.06.08,0c-.16,0,.14-.17,0-.26.06,0,.17,0,.2-.07s.11-.13,0-.23-.09,0-.21,0l.1.19-.19-.11c0,.06.09.11.07.15s-.07,0-.16,0c.17-.09-.12-.14,0-.25l.29,0c.12-.15-.17-.23-.12-.42l0,.07c-.12,0,0-.11-.08-.16a.42.42,0,0,0,.19-.08c-.08,0,0-.13-.21-.13l.12-.09c0-.15-.29-.13-.27-.27.11,0,.17,0,.26,0s0-.09-.06-.08-.14-.12-.06-.17-.14,0-.14-.06h0s-.08-.07-.18,0c.29-.18-.06-.4.19-.55a1.18,1.18,0,0,1-.1-.3s0,0,0,0-.29,0-.21-.2.1.07.15,0c.32,0-.06-.16.12-.28l0,0c.11-.08-.14-.16-.13-.29h0a.63.63,0,0,1-.3-.33c.13,0,.07.05.2,0s-.2,0-.25-.06.12-.12.25-.15l0,.1c.17-.07,0-.12,0-.18h.08c0-.15-.24-.13-.24-.29l-.06,0c-.2-.07.1-.08,0-.16l.2,0a1.12,1.12,0,0,1-.26-.3,1.28,1.28,0,0,1,.33.24.25.25,0,0,0-.14-.23s.08.06.05.08a.36.36,0,0,1-.26-.3c.37-.13.06-.43.32-.79a.54.54,0,0,1-.08-.33,3.5,3.5,0,0,0-.64,0c0,.3-.12,0-.19.35-.08,0-.1,0-.11,0a1.39,1.39,0,0,0-.22-.15c-.06-.08.09-.08.09-.15-.21,0-.09-.12-.25-.18,0,.1-.08.17-.13.13a.4.4,0,0,0,.13.13c-.18.19-.19-.23-.35,0l0-.1c-.07.07-.31,0-.36.3,0,0-.06-.11,0-.14-.21,0-.42.32-.61.2v-.08s0,.15-.11.08,0-.07,0-.08-.09.15-.14.11l0-.09c-.22-.06-.28.25-.44.33a.33.33,0,0,0-.29-.29v0c-.24,0-.37.23-.58.35-.17-.22-.47,0-.71-.13,0,0,0,.17,0,.19s-.12.18-.14,0h0c-.07-.19-.17-.13-.25-.12l0,.26c-.27-.35-.54.22-.71-.1,0,.07-.11.08-.15.15l0-.14a.78.78,0,0,0-.39,0l0-.1c-.1,0-.06.42-.16.44l-.05-.21c-.18,0-.38-.13-.52.09,0,0,0-.09,0-.11s-.34-.09-.27.19c0-.19-.18,0-.26.1v-.14c0,.19,0,.24-.15.31s0-.11,0-.08,0,.14-.16.08l0-.09c-.09,0-.07.05-.11.16s-.17,0-.21-.14c0,.08,0,.19-.09.16a.12.12,0,0,1,0-.09c-.17-.07-.2.19-.32.07a.16.16,0,0,0,0-.08.84.84,0,0,1,.21,0c0-.13-.12-.13-.07-.32-.06.11-.17.33-.27.29s0,0,0,0v0s0,0-.06,0a.13.13,0,0,0-.08,0c0-.1-.12,0-.17,0s0,.13,0,.23l0,0,0,0h0l.12,0c0,.08-.06.15-.12.08l0,.23c-.09-.18-.24-.27-.27-.39-.14.1-.34.1-.39.38,0,0-.06-.07-.08-.11s.05,0,.05-.07-.24.06-.23.25c-.12-.07,0-.18-.11-.13v0c-.32-.25-.39.53-.76.2,0,0,0,0,0,.06-.38-.11-.71.26-1.11,0-.11,0-.1.08-.15.18l0-.15-.08.19c-.13.15-.31-.33-.47-.06l0,.09c-.07,0-.2.09-.21,0s0,.1,0,.06v-.08l-.15.16c-.14,0,0-.32-.22-.31s-.16.26-.13.31.08,0,.09.12l-.06,0c0,.23,0,.47.19.61l.09-.16,0,.11-.09,0c.07.1.09,0,.12-.07a.22.22,0,0,0,.06.12l.08-.24c0,.09,0,.19,0,.23,0-.11-.07-.2,0-.28.07.1.06.19.11.09a.14.14,0,0,1,0,.13c.05-.08.14-.06.15-.18.08.12.18-.06.21.16,0-.06.07-.19.12-.21,0,.28.19,0,.21.28,0-.25.23-.14.33-.29,0,0,0,.06,0,0s.11.08.16.11c0-.19.08-.25.11-.38.12.18,0,.24,0,.41,0-.16.12-.18.07-.3.08.1.07.05.12.2,0-.24.06,0,.09-.21.11.11,0,.23.14.14C97.88,116.27,97.81,116.37,97.81,116.37Zm2.34-.77h0l-.05,0Zm.2,0h-.09s0-.09,0-.09S100.32,115.53,100.35,115.57Zm-.57-.9s0,0,.06,0l-.06,0v0Z"/><path class="cls-33" d="M99.75,114.86a0,0,0,0,1,0,0l0,0v-.05Z"/><path class="cls-33" d="M109.6,123.75h0Z"/><polygon class="cls-33" points="103.18 115.43 103.17 115.39 103.16 115.43 103.18 115.43"/><path class="cls-33" d="M109.24,124.92a.05.05,0,0,0,0,0Z"/><path class="cls-33" d="M109.25,125.41l0,.07A.27.27,0,0,0,109.25,125.41Z"/><path class="cls-33" d="M109.22,125.78h0Z"/><path class="cls-33" d="M108.47,119.89h0S108.44,119.87,108.47,119.89Z"/><path class="cls-33" d="M109,121.62l-.07-.05S108.89,121.62,109,121.62Z"/><polygon class="cls-33" points="108.11 117.94 108.11 117.94 108.11 117.93 108.11 117.94"/><path class="cls-33" d="M108.89,121.49a.06.06,0,0,0,0,.08S108.92,121.51,108.89,121.49Z"/><path class="cls-33" d="M109.32,127.4v0h0Z"/><path class="cls-33" d="M109.33,127.42l0,0S109.35,127.42,109.33,127.42Z"/><path class="cls-33" d="M109.39,127.48l0,0S109.35,127.47,109.39,127.48Z"/><path class="cls-33" d="M109.33,126.9h0Z"/><path class="cls-33" d="M109.3,126.76s-.1.1-.06.14h0C109.2,126.89,109.39,126.78,109.3,126.76Z"/><path class="cls-33" d="M109.87,126.07l0,.13s.12-.06.14,0C110.12,126,109.86,126.24,109.87,126.07Z"/><path class="cls-33" d="M109.91,125.67c0,.07.08,0,.11,0S110,125.62,109.91,125.67Z"/><path class="cls-33" d="M109.63,122.87h.13S109.71,122.86,109.63,122.87Z"/><polygon class="cls-33" points="108.92 122.39 108.84 122.45 108.96 122.47 108.92 122.39"/><polygon class="cls-33" points="109.79 121.99 109.81 122.01 109.76 121.93 109.79 121.99"/><path class="cls-33" d="M109.28,117.28l-.15,0S109.33,117.33,109.28,117.28Z"/><path class="cls-33" d="M108.92,115.26c.08,0,.12-.1,0-.12S108.9,115.24,108.92,115.26Z"/><polygon class="cls-33" points="103.54 114.1 103.57 114.04 103.5 114.1 103.54 114.1"/><path class="cls-33" d="M127.59,116.86s0-.14,0-.12v.17Z"/><path class="cls-33" d="M127.43,116.57a.9.9,0,0,0,0,.37c0-.16,0-.09,0-.28,0,0,0,0,0,.11s0,0,0-.07-.07-.13-.09,0A.45.45,0,0,1,127.43,116.57Z"/><path class="cls-33" d="M125.47,116.49v0A0,0,0,0,0,125.47,116.49Z"/><path class="cls-33" d="M124.26,116.51s0,0,0,0S124.26,116.49,124.26,116.51Z"/><path class="cls-33" d="M124,116.34h0S124,116.33,124,116.34Z"/><path class="cls-33" d="M125.47,116.49l0,0S125.45,116.48,125.47,116.49Z"/><path class="cls-33" d="M127.2,117a.07.07,0,0,0,0,0,0,0,0,0,1,0,0Z"/><path class="cls-33" d="M126,116.31h0v0Z"/><path class="cls-33" d="M126.39,116.24a1.27,1.27,0,0,0,0,.2.58.58,0,0,1,0-.1A.38.38,0,0,0,126.39,116.24Z"/><path class="cls-33" d="M127.06,116.43v0S127.06,116.42,127.06,116.43Z"/><path class="cls-33" d="M125.69,116.3a.07.07,0,0,0,0,0A.11.11,0,0,1,125.69,116.3Z"/><path class="cls-33" d="M114.43,118.4v0S114.42,118.4,114.43,118.4Z"/><path class="cls-33" d="M113.89,117.75h0a.22.22,0,0,0,0-.08Z"/><path class="cls-33" d="M123.65,116.2h0S123.65,116.19,123.65,116.2Z"/><path class="cls-33" d="M120.21,116.62c.05.12,0,.17,0,.3C120.22,116.86,120.27,116.7,120.21,116.62Z"/><path class="cls-33" d="M127.19,117s0,0,0,0S127.18,117,127.19,117Z"/><path class="cls-33" d="M120.23,116.92h0Z"/><path class="cls-33" d="M122.79,116.36a.35.35,0,0,0,0,.06A.18.18,0,0,0,122.79,116.36Z"/><path class="cls-33" d="M123.45,116.5h0Z"/><path class="cls-33" d="M122.47,116.59s0,0,0,0v0S122.46,116.57,122.47,116.59Z"/><path class="cls-33" d="M122.13,116.62v0h0Z"/><path class="cls-33" d="M115.48,118.23l0-.12C115.47,118.21,115.42,118.25,115.48,118.23Z"/><path class="cls-33" d="M127.19,116.91V117h0A.07.07,0,0,0,127.19,116.91Z"/><path class="cls-33" d="M122.56,117.7l-.06,0Z"/><path class="cls-33" d="M118,118v0S118,118,118,118Z"/><path class="cls-33" d="M122.34,117.72a.34.34,0,0,0,0-.1v0Z"/><path class="cls-33" d="M115.45,118.11Z"/><path class="cls-33" d="M115.12,118.47s0-.18,0-.29,0,.14.07.23,0-.23.08-.22,0,0,0,.08c0-.15.12,0,.15-.21a.09.09,0,0,1,0,0c0-.1,0-.19,0-.26s0-.12,0,0,0,.05,0,.09l0-.06c0,.17,0,.07,0,.19.05-.06.09-.2.13-.16s-.08.07,0,.21l-.06-.06c.07.27,0,0,0,.27.08,0,.07-.1.15,0a1.93,1.93,0,0,0,0-.24c.1-.18.13.42.19.19s0-.33.06-.22v.19c.07,0,0-.28.1-.16s0,.07,0,.09,0-.11.07-.11l0,.17c.08,0,.15-.17.23-.21a.3.3,0,0,0,0,.16c.1-.1.23,0,.35.09l0-.15s0,.06,0,.09,0-.09,0-.15,0,.08,0,.13c.06-.13.18-.29.27-.14v0c.07,0,0-.31.11-.18v0c.14,0,.26-.1.38.11,0-.21.14.09.12-.21.09.14.07.2.18.28s0-.18.06-.22V118l0-.17,0,.18,0,0a.24.24,0,0,1,0-.11c0-.07.13.1.14.17l.1-.14a.24.24,0,0,1,0,.13c0-.16,0,.16.07,0a.49.49,0,0,1,0-.12c0,.09.1.08.15,0v.11c.09,0,.18-.07.28-.08a.32.32,0,0,1,0-.25l0,.16c0-.1,0-.06,0-.18s.05.18,0,.23l0-.06a.65.65,0,0,1,0,.14c0-.1.09.16.1,0v0c.1,0,.14-.07.22-.09s0-.11,0-.22c.07,0,.14.14.21.12s0-.12,0-.2c0,.12.08.11.06.2a.4.4,0,0,0,.2-.15.27.27,0,0,1,0-.12s0,0,0,.12h0c.1-.2.31.35.38.07h0l.09-.14s0,.1,0,.17c.09-.22.17,0,.25-.13.1.37.24,0,.35.18v-.09c0-.09,0,.05,0,.07s0-.08,0-.13c.19-.12.43.09.64.15s0-.46.12-.26v.17c.13-.21.31,0,.44-.2,0,0,0,.09,0,.09s.12,0,.11-.11,0,.09,0,.14.06-.16.09,0a0,0,0,0,1,0,0c0-.06.1,0,.07-.13.06.06.1-.07.15,0,0-.15.1.07.09-.15,0,.23.12.17.15.06,0,.07,0,.07,0,.17s.07-.06.05-.17c.1.26.13-.23.21.11a1.62,1.62,0,0,1,.31-.29c0,.23-.11,0-.09.27.1-.1.14-.3.25-.25s0,.1,0,.13.21,0,.29-.12a.14.14,0,0,1,0,.06s0,0,0-.07l0,0c0-.14,0-.31,0-.39,0,.3.1.07.08.44a.27.27,0,0,0,0-.14s0,.06,0,.14,0-.17.09-.17,0,.07,0,.13c0-.1,0-.2.1-.17s0,.07,0,.07.12-.27.22-.18,0,.07.06.25l0-.06,0-.09s.07-.14.11-.08l0,.08.08,0-.06-.07c0-.1,0-.23,0-.19s0,0,.08.11h0c0-.06,0-.13.07-.08s0,.2,0,.24c0-.16.1,0,.11-.22a.4.4,0,0,0,0,.16V117s0,.06,0,.14,0-.24,0-.14,0,0,0,0,.13-.1.2,0-.05,0,0,.21c.1,0,.18-.25.28-.21l0,0c0-.26.08.13.12,0a.36.36,0,0,0,0,.11c.07,0,.12-.07.21-.16V117c0,.06.1,0,.14.06s0-.06,0-.16c.16.37.22-.23.36.08,0,0,0,.06,0,.06l.09-.07a.3.3,0,0,0,0-.15c0-.07,0-.13,0-.13s0,.18,0,.25,0-.08,0-.11c.07.2,0-.24.07-.1v.06s0-.12.07-.1,0,.06,0,.17,0-.26.09-.13,0,0,0,.08,0,.11.08.14h0l.07.07,0,0c0-.35.09-.08.13-.31,0,.22,0,.13,0,.28a.29.29,0,0,1,0,.13c0-.13.06.09.09-.1,0,0,0,0,0,.13,0,0,0-.08,0-.15s.17.19.23,0,.07-.27.13-.36a.33.33,0,0,1,0,.18c0,.07.07,0,.1,0a.39.39,0,0,0,0,.14s0-.18,0-.11a1.21,1.21,0,0,1,0,.19s.06-.14.09-.18a.33.33,0,0,1,0,.18.25.25,0,0,0,.1-.22l0,0s0,.11,0,.14,0,0-.06-.1l0,0c0-.28-.1.06-.15,0v-.2l0,.17s0-.17,0-.2,0,.08-.07,0,0,0,0,0l0,.06s0-.14,0-.11-.09.16-.12,0v0c-.08.08,0,.16,0,.34l-.07-.37v.15s0,0,0-.07c0,.1,0,.06,0,.16-.06-.13-.11.08-.15-.16,0,.11,0,.08,0,.17,0-.26-.05,0-.1-.07s0-.07,0-.18c0,.23-.09,0-.12,0s-.06.08-.11.15-.12-.09-.18-.15v0c0,.18,0,.15-.09.19a.56.56,0,0,1,0-.2h0a.24.24,0,0,1,0,.12v-.14s-.09.17-.16.09c0,.12.08.35,0,.44a.8.8,0,0,1,0-.22s0,.06,0,0v-.12s0,.1,0,.09a.93.93,0,0,1,0-.14s0,0,0,0a.26.26,0,0,1-.09-.15c0,.06,0,.13,0,.15s0-.12-.06-.17,0,0,0,.15,0-.06,0-.1-.12,0-.07.18h0c-.07.15-.18-.07-.26,0v0c0,.06-.1,0-.13.15a.25.25,0,0,1,0-.14s0,.09-.1,0,0-.08,0-.07-.08-.12-.12,0c0-.12-.05-.15-.07-.11l0,.09s0,0-.07,0v-.17c-.12-.19-.15.36-.26,0,0,.12.06.08,0,.22,0,0-.12-.26-.14-.26s0,.25-.11.2a.42.42,0,0,1,0,.27s-.08-.24-.06-.29,0,0,0,0a.12.12,0,0,0,0-.11v.06c0-.06-.1,0-.09-.15a.1.1,0,0,0,0,.13c-.07-.08-.09,0-.16-.05s0,.1,0,.11,0,.11-.09.14,0-.21-.06-.13a.31.31,0,0,1,0-.21c0,.12-.11-.06-.15-.08l0-.05s0,0-.05,0l0,.12a.09.09,0,0,1,0-.07,2.72,2.72,0,0,1,0,.3c0-.05-.07.07-.09-.08.08,0,0-.16,0-.19s0,0,0,0,0,0,0,0,0,.18-.09.18,0-.16,0-.14,0,.14,0,.21,0,.06-.07,0l0,0c0,.09,0,.08,0,.11s0,0,0-.08c0,.16-.1-.15-.14,0,0-.06,0-.17,0-.2,0,.12-.07-.12-.12,0a.26.26,0,0,1,0,.21l.09-.09,0,.17s0-.08.07-.06,0,.07,0,.17c-.06-.18-.07.11-.13,0l0-.29c-.08-.13-.11.16-.2.1l0,0c0,.12-.05,0-.08.08a.72.72,0,0,0,0-.2c0,.08-.06,0,0,.2l0-.13c-.08,0-.06.29-.14.26s0-.17,0-.25,0,0,0,0-.06.14-.09,0,0,.15,0,.14a.13.13,0,0,1,0,0s0,.07,0,.18c-.1-.3-.2,0-.28-.22a.43.43,0,0,1-.16.09s0,0,0,0,0,.28-.1.19,0-.09,0-.15c0-.32-.08.05-.15-.13v0c0-.11-.08.13-.14.11v0a.46.46,0,0,1-.16.29.45.45,0,0,0,0-.2s0,.2,0,.25a.84.84,0,0,1-.09-.27h0c0-.17-.06,0-.09,0v-.08c-.07,0-.05.23-.14.22l0,.06c0,.19,0-.11-.08,0l0-.2a1.57,1.57,0,0,1-.14.25,1.35,1.35,0,0,1,.1-.32s-.09,0-.1.12,0-.07,0,0-.06.24-.12.24c0-.38-.16-.08-.23-.38-.09.15-.21,0-.32,0,.07.29,0,0,0,.31,0,0,0,0,0,0l-.11-.17c0-.09,0-.07,0-.14s0-.13-.09-.21c0,.11,0,.16,0,.12l.07.14c-.07.17-.1-.25-.17-.08l0-.1c0,.06-.17,0-.19.26,0,0,0-.11,0-.14s-.21.28-.31.14v-.07s0,.14,0,.07,0-.08,0-.08,0,.13-.07.09l0-.08c-.12-.09-.14.21-.23.27,0-.22-.1-.28-.15-.31v0c-.12,0-.19.2-.29.29-.09-.23-.24-.07-.37-.2a.34.34,0,0,1,0,.2s-.06.16-.07,0h0c0-.2-.09-.14-.13-.14V117c-.14-.37-.27.17-.36-.17,0,.07,0,.07-.07.14v-.14a.22.22,0,0,0-.21,0v-.1s0,.41-.07.42l0-.21c-.09,0-.2-.16-.27,0a.28.28,0,0,1,0-.1s-.18-.12-.13.16c0-.18-.1,0-.14.08v-.14c0,.18,0,.23-.08.28s0-.11,0-.07,0,.13-.08.06v-.09s0,0,0,.15-.09,0-.11-.15c0,.08,0,.18-.05.15a.32.32,0,0,1,0-.1c-.08-.08-.1.18-.16,0a.45.45,0,0,0,0-.08c.06,0,.11,0,.11,0s-.06-.14,0-.32c0,.1-.08.31-.13.26a.07.07,0,0,1,0,0h0s0,0,0,0a.05.05,0,0,0,0,0c0-.11-.06-.05-.09-.06s0,.12,0,.24l0,0h0l.06,0c0,.08,0,.14-.06.06a2.2,2.2,0,0,0,0,.23c-.06-.19-.13-.29-.15-.41-.07.09-.17.07-.2.34,0,0,0-.08,0-.12s0,0,0-.06-.13,0-.12.22c-.06-.08,0-.17-.06-.13v-.06c-.17-.28-.19.49-.39.13a.11.11,0,0,1,0,.06c-.19-.15-.36.19-.57-.06-.05,0-.05.07-.07.17l0-.15,0,.18c-.07.13-.17-.36-.24-.11l0,.1s-.11.07-.11,0,0,.11,0,.06v-.08l-.07.14c-.07,0,0-.31-.12-.32a.56.56,0,0,0-.06.29.19.19,0,0,1,.05.12l0,0a1.3,1.3,0,0,0,.11.62l0-.14,0,.11h0c0,.1,0,0,.06-.06a.5.5,0,0,0,0,.12l0-.22c0,.09,0,.18,0,.23,0-.11,0-.2,0-.28,0,.11,0,.19,0,.1a.19.19,0,0,1,0,.13c0-.08.07,0,.08-.17,0,.13.09,0,.11.18a.43.43,0,0,1,0-.19c0,.27.1,0,.11.29,0-.24.12-.11.17-.25,0,0,0,.06,0,0s0,.08.08.12a1.47,1.47,0,0,1,0-.36c.06.18,0,.23,0,.41,0-.16.06-.17,0-.3a1.44,1.44,0,0,1,.07.22c0-.25,0,0,0-.2,0,.12,0,.23.07.15A.2.2,0,0,1,115.12,118.47Zm1.19-.53Zm.1,0h0s0-.09,0-.09A.26.26,0,0,0,116.41,117.93Zm-.31-1s0,0,0,0l0,0v0Z"/><path class="cls-33" d="M116.09,117.16h0v0Z"/><path class="cls-33" d="M125.49,116.51h0v0Z"/><polygon class="cls-33" points="117.86 118.06 117.86 118.03 117.86 118.06 117.86 118.06"/><path class="cls-33" d="M126.1,116.94s0,0,0,0A0,0,0,0,0,126.1,116.94Z"/><path class="cls-33" d="M126.35,117l0,0S126.36,117,126.35,117Z"/><path class="cls-33" d="M126.54,117v-.06h0Z"/><path class="cls-33" d="M123.55,117.44h0Z"/><path class="cls-33" d="M124.42,117l0,.07S124.42,117.11,124.42,117Z"/><polygon class="cls-33" points="122.57 117.7 122.57 117.7 122.56 117.7 122.57 117.7"/><path class="cls-33" d="M124.35,117.1s0,0,0,0S124.36,117.08,124.35,117.1Z"/><path class="cls-33" d="M127.37,117h0v0Z"/><path class="cls-33" d="M127.38,117v0S127.38,117,127.38,117Z"/><path class="cls-33" d="M127.41,116.91l0,0S127.4,117,127.41,116.91Z"/><path class="cls-33" d="M127.11,116.94V117A.15.15,0,0,0,127.11,116.94Z"/><path class="cls-33" d="M127,117s0,.1.08.07v0C127.11,117.07,127.05,116.88,127,117Z"/><path class="cls-33" d="M126.66,116.37l.07,0c0-.05,0-.12,0-.14S126.75,116.38,126.66,116.37Z"/><path class="cls-33" d="M126.46,116.31s0-.08,0-.11A.09.09,0,0,0,126.46,116.31Z"/><path class="cls-33" d="M125,116.44v-.13S125,116.36,125,116.44Z"/><polygon class="cls-33" points="124.82 117.12 124.85 117.2 124.85 117.08 124.82 117.12"/><polygon class="cls-33" points="124.57 116.23 124.58 116.21 124.54 116.26 124.57 116.23"/><path class="cls-33" d="M122.18,116.49l0,.16S122.2,116.44,122.18,116.49Z"/><path class="cls-33" d="M121.16,116.75c0-.08-.06-.13-.07,0S121.15,116.77,121.16,116.75Z"/><polygon class="cls-33" points="118.03 116.78 118.04 116.72 118 116.77 118.03 116.78"/><path class="cls-33" d="M120.57,144.06s.06,0,.08,0l-.05-.09Z"/><path class="cls-33" d="M120.9,143.6c0-.11,0-.23-.12-.2s0,.13,0,.25-.07.13-.09.1-.06.12,0,.18a.41.41,0,0,0,.14-.36S120.89,143.59,120.9,143.6Z"/><path class="cls-33" d="M120.11,137.73h0Z"/><path class="cls-33" d="M117.73,135.67a.07.07,0,0,0,0,0S117.72,135.67,117.73,135.67Z"/><path class="cls-33" d="M116.9,135.83h0S116.9,135.82,116.9,135.83Z"/><path class="cls-33" d="M120.11,137.73l-.13,0S120.05,137.72,120.11,137.73Z"/><path class="cls-33" d="M121.09,142.5a.08.08,0,0,0,0,.07v-.06Z"/><path class="cls-33" d="M120.91,139.4v0l0,0Z"/><path class="cls-33" d="M121.44,140.16s0,.07-.06.1a.1.1,0,0,1,.08,0S121.45,140.18,121.44,140.16Z"/><path class="cls-33" d="M121.48,142.25v0Z"/><path class="cls-33" d="M120.93,138.19l0,0S120.94,138.18,120.93,138.19Z"/><path class="cls-33" d="M101.2,141.16h0Z"/><path class="cls-33" d="M100.21,142.86v0l0,0Z"/><path class="cls-33" d="M115.64,136.12Z"/><path class="cls-33" d="M111.45,133.9c-.06.31-.08-.3-.15.15C111.33,134,111.41,134.27,111.45,133.9Z"/><path class="cls-33" d="M121.11,142.46l0-.06Z"/><path class="cls-33" d="M111.3,134.05h0v0Z"/><path class="cls-33" d="M114.2,135.86l0,.07Z"/><path class="cls-33" d="M115.46,135.83v0Z"/><path class="cls-33" d="M114.1,134.89a.75.75,0,0,0,0-.15v0A.17.17,0,0,1,114.1,134.89Z"/><path class="cls-33" d="M113.68,134.05h0l0-.06Z"/><path class="cls-33" d="M103.26,140.32s0,0-.06,0S103.26,140.76,103.26,140.32Z"/><path class="cls-33" d="M121.13,142.51s0,0,0,0v0A0,0,0,0,0,121.13,142.51Z"/><path class="cls-33" d="M113.54,135.28v0S113.54,135.27,113.54,135.28Z"/><path class="cls-33" d="M106,137.25l0,0A.05.05,0,0,0,106,137.25Z"/><path class="cls-33" d="M113.54,135.17a.63.63,0,0,0,0-.12l0,0Z"/><path class="cls-33" d="M103.2,140.34Z"/><path class="cls-33" d="M101.85,139.87c.15.15.13,0,.2,0,.25.2.08.17.16.31.25.19.4.22.54.35s0,.07,0,.07a2.56,2.56,0,0,1,.46.36,3.93,3.93,0,0,0-.06-.6h0s-.1-.08-.13-.14-.06-.29,0-.27a.47.47,0,0,0,0,.17l0-.17c.08,0,0,.22.09.3a5.36,5.36,0,0,1-.07-.86c.08-.08,0,.5.1.21l0,.35c.13-.19,0,.24.13.07a5,5,0,0,0,0-.59,1.5,1.5,0,0,1,0-.32c0-.07-.07,0-.11-.05-.09-.49.21-.21.1-.36s-.17-.25-.11-.28l.09.2a.89.89,0,0,0-.07-.23s0,0,.07.06,0,0,0,0c.11.2,0-.08.05,0l0,.15.12,0,.11.08.15.13.31.25s-.1,0,0,.12.37.32.57.5c0-.5.05-1,.08-1.52,0-.07-.05-.12-.07-.18s0-.07,0,0c0-.17,0,0-.07-.09s0-.13.06-.07a3.16,3.16,0,0,1,0-1.15l0,.06c0-.24-.15-.27-.08-.49v0c0-.19,0-.32,0-.46a.68.68,0,0,1,.18.26c0-.07.06,0,.09,0s.15.16.2.1a2.48,2.48,0,0,0,.37.54c.07.08.18,0,.29.13l-.05.06.2.06v.14l.11.07s-.06-.1,0-.11a.79.79,0,0,1,.31.41l.2.14.32.25s-.12-.06-.22-.12c.36.23,0,.15.38.36,0-.06,0,0,0-.06a2.37,2.37,0,0,0,.28.3c.07-.18.16-.43.22-.63v.11l.18-.48.09-.27.19-.57c-.08.13-.15.07-.12-.05h.09c0-.09-.07.1-.07-.07s.12-.06.11,0l0-.18s0,0,0,.06.18-.27.14-.4h0c.14-.38.18-.56.29-.87-.07,0,0-.14,0-.25s.21-.39.3-.62l-.58-.11v.12c0,.2.06.06.1.15s-.06.3-.1.15V135l0,.7.08,0h0c0-.06,0-.1,0-.09v0c.1,0,.18,0,.15,0l0,0c.83-.48,1.34-.41,1.69-.71h0l.35-.23c.17-.07-.09.09.06.07a1,1,0,0,1,.22-.15l.09-.05a.21.21,0,0,0,.12,0l0,0-.08.14s0,0,0,.18a2.38,2.38,0,0,1,0,.72l0,0c0,.1,0,.12,0,.19s0-.11.06-.05a4.7,4.7,0,0,1,0,.53c0,.22,0,.44,0,.66,0,.7,0,1.42-.08,2.12l.47-.6c.38-.5.22-.68.62-1l-.09.26.44-.68.28-.39a5.57,5.57,0,0,0,.52-.78s0,0,0,.1c.12-.07.28-.38.25-.41s0,0,.1,0,.06-.22.11-.18v0s0,0,0-.12.09-.17.09-.11l.05-.12s0,.17,0,0c-.11.28-.09.26,0,.27s0,.06-.09.09,0,0,.08,0c-.13.2.11.67-.06,1.1,0,.29,0,.56.06.8l1-1.06c0,.12-.56.54-.56.69.28-.29.52-.55.65-.71a.56.56,0,0,1,.16-.19s0,.1,0,.14A.85.85,0,0,1,115,136v.12c0,.08,0-.06,0,0s0,0,0,0h0v0s0,.06,0,.05l0-.07c0-.06.08,0,.11.1l0,.07,0,.12s0,.07,0,.06-.08.26-.13.41,0,0,0,.06a0,0,0,0,1,0,0v0c.08,0,.15-.07.16-.1s.12,0,0,.08c.45-.17.31-.18.65-.29,0,0-.06.06-.1.1a1.51,1.51,0,0,1,.48-.23s0,0,0,.05a4.93,4.93,0,0,1,.91-.36c-.08.13.13,0,.18.08l.19-.09-.09,0a3.35,3.35,0,0,1,.46-.18l-.12.08L118,136l-.2,0c.16-.09-.05-.1.19-.15,0,0,.17,0,.28,0h0a.52.52,0,0,1,.28-.13s0,.11,0,.12.4-.15.45-.25a.08.08,0,0,0,0,.09.35.35,0,0,1,0-.08c.06,0,.06,0,0,.06.14,0,0-.13.18-.12l-.06,0h.06a4.9,4.9,0,0,1,0,.57c-.09.09,0-.24-.1-.14,0,.39.11.82.09,1.2v-.07c.14.07-.06.25,0,.51,0-.06-.07-.07-.06-.05a3.89,3.89,0,0,0,0,.48c.24,0,.57,0,.77-.07l0,0c.13,0,.46,0,.5,0s.11,0,.1-.08l.08.05c-.09.23.13.75,0,1.13,0-.05,0-.13,0-.08l0,.39s0-.05.08-.14a.59.59,0,0,1,.06.26c0-.18-.1,0-.13.08s0,0,.06,0c-.11.21.11,0,0,.32l0,0a1.25,1.25,0,0,1,0,.32c-.07.11,0-.1-.08-.08a.66.66,0,0,0,.05.23c.11,0,.19,0,.25,0a2.4,2.4,0,0,1-.28,0h0a.68.68,0,0,0,.32.07h0l.32,0-.07,0a.41.41,0,0,1,.31-.1.8.8,0,0,0,.34,0c-.31.11-.08.07-.16.14s.06.05,0,.07a.12.12,0,0,1,.09,0c0,.05,0,.07,0,.1s0,.06-.09.06,0,0,.09,0-.27.43-.28.79,0,.39-.06.68c-.07.07-.06-.11-.06-.11a1,1,0,0,0-.14.4s0,0-.08,0,0,.1,0,.24a.3.3,0,0,1,0-.15c0,.13,0,.3-.06.43s0-.1,0-.16a1.17,1.17,0,0,0-.07.48l.06-.09c0,.06-.06,0-.06,0s.09-.19.12-.18l0,.1c.17-.05.12-.4.2-.59l.06.11v-.23s.1,0,.08.06c.1-.12,0-.13.11-.23s0,0,0,0l0-.15s.07,0,0,.08c.14-.23.07-.42.18-.49v0c.09-.35-.06-.06-.06-.34l.24-.11-.06-.06s0-.1.07-.08c0-.15,0,0,0-.08s.13-.47.3-.56c0,0-.12.2-.1,0a.22.22,0,0,0,.11-.2.52.52,0,0,1-.25,0c.12-.06.29,0,.14-.09a.43.43,0,0,1-.31,0,1.78,1.78,0,0,0-.29,0c0,.09-.33,0-.5.07,0,0,0,0-.12,0s0-.25,0-.35h0c-.09,0-.07-.27-.09-.43.06,0,.08,0,.1.12v-.15s0-.08,0-.18l.07,0a2.44,2.44,0,0,1,0-.68c-.06,0-.18.21-.22-.06,0,0,.09,0,.11.05a.3.3,0,0,1,0-.14l.06.12c0-.12,0-.07,0-.16s0-.07.07-.06,0,.08,0,.12a.82.82,0,0,1,.08-.3s-.07,0-.08-.1c0-.26.06-.12.09-.31,0,0,0-.07,0-.12a.22.22,0,0,0-.17.05c-.08,0-.07,0-.09-.06s-.29,0-.38,0-.16,0-.11.06h0a1.35,1.35,0,0,1-.4,0l-.31,0a.54.54,0,0,0,0-.18h0a2.67,2.67,0,0,0-.07-.54c0-.07,0-.15.08-.12a.87.87,0,0,1,0-.4c.05.16,0-.06,0,.16a.75.75,0,0,0,0-.47c.06.08.08-.15.06-.25l0,.14c0-.1,0-.19,0-.34l.09.06a2.82,2.82,0,0,0,0-.78,2.08,2.08,0,0,1-.88.26s0,0,.09,0,.16,0,.1,0a1.82,1.82,0,0,1-.5,0c-.27,0-.2.19-.47.24,0,0,.1.08-.09.17s-.26-.05-.15-.11.06,0,.06,0,.13-.07,0-.08v0c-.1,0-.35.08-.31,0-.13.07,0,.07.06,0-.25,0-.37.11-.62.16,0,0,.09,0,0,0-.36.07-.13.1-.37.18s0-.11-.21,0-.06-.07,0-.11a1.44,1.44,0,0,1-.55.12L116,136a.83.83,0,0,1-.18.07l.08,0c-.07,0-.13,0-.13,0s.06.08,0,.17-.17.08-.15,0,0-.09.1-.12a0,0,0,0,1,0,0v0c0-.05,0,0-.08.07s0,0,0,0l.06-.06s0-.07,0,0c0-.1,0,0,0,0l0,0s0,0,0,0,0,.13,0,.08a.43.43,0,0,0,0-.19,1.17,1.17,0,0,1,0-.22v.22a1.2,1.2,0,0,1-.06-.42c0-.07,0,.17,0,.08a.78.78,0,0,1,0-.37,1.92,1.92,0,0,0,0-.46l0,0c-.08,0,.07-.18,0-.13-.32.38-.3.2-.63.57.09,0,.09,0-.09.22l.46-.49-.3.4c.12-.11.28-.3.35-.36-.16.21-.12.16-.1.2s-.31.36-.48.44l-.06-.15c-.26.19-.19.16-.24.23a.4.4,0,0,1-.14.17s0,0,0,0-.08.11-.14.17h0c.05-.1.07-.18.1-.25s0-.09-.1,0a.52.52,0,0,1,.07-.15c0-.07,0-.07-.06-.14a.55.55,0,0,1-.07-.31c.06.09.09,0,.13.15,0-.1,0-.18,0-.2s-.06-.37,0-.52-.07,0-.06-.15,0,0,0,0,0-.18-.09,0a3.51,3.51,0,0,0,.07-.94c-.14.2-.26.36-.34.36-.17.27-.38.58-.53.81,0,0,0,0,0-.06-.26.28,0,.26-.25.48s.06-.15,0-.09-.19.3-.39.41l0-.05c-.13.1-.17.34-.32.54l0,0a2.64,2.64,0,0,1-.33.68c0-.1,0-.11,0-.11s.1,0,0,.22c-.07,0-.15.09-.18,0l.06-.09c-.08,0-.07.1-.12.14v-.07a2.4,2.4,0,0,1-.23.51v.06c-.09.2-.09.18-.09.15s0-.15,0-.12l.1-.29s-.09-.06-.11-.23c.07,0,.11.11.15.08s0-.16,0-.14,0,0,0,.06-.12-.1-.12-.3c.19.06.05-.62.2-.79a2.28,2.28,0,0,1,0-.64c0-.1,0-.22,0-.33v-.51c-.15.35,0-.24-.16-.07a.75.75,0,0,1,0-.23l0-.24-.25.05c-.1,0,.18-.12.19-.16-.39.17-.13,0-.41.07,0,0-.15.16-.4.25l.34-.08c-.28.17-.38.18-.45.18a.43.43,0,0,0-.3.12l.08-.09c-.16.1-.61.27-.72.46,0,0-.1,0,0-.07a3.57,3.57,0,0,0-.52.29.46.46,0,0,1-.19.12l0-.06,0,0s-.07,0,0,0l0,0s-.07,0,0-.07l0,0s0-.07,0-.14a1.1,1.1,0,0,0,0-.18c0-.11,0-.22-.07-.33l-.3-1.28-.14,1.21c0,.09,0,.18-.06.29-.1,0-.25.26-.32.41h0a8.89,8.89,0,0,0-.31,1.26,1.73,1.73,0,0,0-.29.58l-.15.37c0,.09-.12.3-.13.26a.09.09,0,0,1,.07.09s0,.22-.05.07h0s0-.07,0-.07l0,0,0,.15,0-.1s0-.05-.08-.11a2.66,2.66,0,0,0-.31-.26c-.21-.17-.41-.32-.44-.46s-.2-.14-.3-.19l0-.05a3.43,3.43,0,0,0-.27-.27l-.39-.35.13,0c-.32-.3-.42-.11-.61-.27l-.09-.23-.47-.46a6.83,6.83,0,0,0,0,1.27s0-.05,0-.16c0,.13,0,.39,0,.6s0,.24.09.21c-.09,0,0,.38,0,.58l-.07,0a.74.74,0,0,1,.14.41c0,.05-.05.05,0,0,0,.19.06.15,0,.37l0-.08a.34.34,0,0,0,.07.27c0,.15,0,.27-.08.24a.27.27,0,0,1,.07.21.2.2,0,0,1,0-.08.61.61,0,0,0,0,.29s-.06,0-.11-.12l0-.09.1.1c0-.05,0-.07,0-.06a1.31,1.31,0,0,1-.17-.31l0,.1c0,.1,0,.14-.07.05v0h0s0,0,0,0l0-.06s0,0,0-.08l-.25-.23c0,.08-.16-.07,0,.13,0,0,0,0,.1.07l0,0h0l.17.15s-.09,0-.2-.15h-.18c-.09-.22-.42-.59-.51-.76l-.26-.21a4.37,4.37,0,0,0,.14,1.23c0,.12,0,.12-.06.16s0-.16,0-.22c0,.35,0,.64.1.69,0,.22-.08-.13-.07.18l0,0c0,.27,0,.24,0,.37a3.3,3.3,0,0,1,.1.48,1.1,1.1,0,0,1-.28-.31.18.18,0,0,1,.05.08,2.84,2.84,0,0,0-.39-.39l-.69-.6a5,5,0,0,1-.42,1,.58.58,0,0,0-.05.37l-.08,0v.24c0,.31-.36.44-.38.86l.07,0c-.06.13-.13.43-.18.39a.07.07,0,0,1,0,.1h0l0,.36c-.12.24-.13-.1-.28.27,0,.14,0,.43,0,.39s.08-.13.12-.12l0,.13c.1.06.18.2.37-.08v-.24l.08,0-.07.18a.28.28,0,0,0,.07-.25.18.18,0,0,0,.09-.07l0-.25c.05,0,.05.13.13,0s-.13.06-.11-.11.12,0,.12-.18.05,0,0,.08c0-.12.09-.29,0-.37s.12-.37.22-.32a.92.92,0,0,1,0-.32c.06.22.14-.37.26-.28-.07-.17.12-.5.15-.76,0,0,0,0,0,.07.06-.16.08-.09.11-.1s-.07-.17-.08-.33c.07.08,0,.22.1.32a.7.7,0,0,1,0-.14.08.08,0,0,0,0-.09.36.36,0,0,1,0,.19c0-.14,0,0,.08-.05,0,.11-.06.1.11.2S101.85,139.87,101.85,139.87Zm2.16-.81h0l-.11-.1Zm.46.42-.2-.19c0-.06,0-.09,0,0S104.38,139.37,104.47,139.48Zm-.63-1.24s0,0,0,0l-.06,0h0A.06.06,0,0,1,103.84,138.24Z"/><path class="cls-33" d="M103.64,138.18l0,0,0,.06h0Z"/><path class="cls-33" d="M120.17,137.74Z"/><polygon class="cls-33" points="105.62 136.96 105.64 136.95 105.6 136.93 105.62 136.96"/><path class="cls-33" d="M120.59,139.63l0,0Z"/><path class="cls-33" d="M121,140.51l.19,0Z"/><path class="cls-33" d="M121.66,140.54l0,0h0Z"/><path class="cls-33" d="M115,136.06h0S115,136.08,115,136.06Z"/><path class="cls-33" d="M118.23,135.8l-.11.06C118.19,135.85,118.24,135.84,118.23,135.8Z"/><polygon class="cls-33" points="113.54 135.29 113.54 135.29 113.54 135.28 113.54 135.29"/><path class="cls-33" d="M118,135.91a.25.25,0,0,0,.16,0Z"/><polygon class="cls-33" points="120.85 143.15 120.83 143.18 120.84 143.19 120.85 143.15"/><path class="cls-33" d="M120.84,143.19v0S120.85,143.2,120.84,143.19Z"/><path class="cls-33" d="M120.82,143.32v-.09A.14.14,0,0,0,120.82,143.32Z"/><path class="cls-33" d="M121.23,142.19l0,0A0,0,0,0,0,121.23,142.19Z"/><path class="cls-33" d="M121.33,141.9c0,.07-.12.15-.14.26h0S121.34,142,121.33,141.9Z"/><path class="cls-33" d="M122.09,140.73,122,141s.1-.08.06,0C122.23,140.73,121.93,141.14,122.09,140.73Z"/><path class="cls-33" d="M121.77,140.19c.2,0,0,0,0-.05C121.65,140.16,121.63,140.17,121.77,140.19Z"/><path class="cls-33" d="M119.52,136.83h.07C119.58,136.74,119.56,136.84,119.52,136.83Z"/><path class="cls-33" d="M119.19,135.78l0,.07.06,0Z"/><polygon class="cls-33" points="119.17 135.1 119.26 135.06 118.96 135.18 119.17 135.1"/><path class="cls-33" d="M113.94,133.58l0,.16C114,133.62,114.08,133.34,113.94,133.58Z"/><path class="cls-33" d="M111.4,137.21c0-.07,0-.11,0-.06l0,0v.05S111.38,137.24,111.4,137.21Z"/><path class="cls-33" d="M106.84,137.22h0Z"/></svg>