<svg id="Layer_1" data-name="Layer 1" xmlns="http://www.w3.org/2000/svg" viewBox="0 0 1920 1080"><defs><style>.cls-1,.cls-22{fill:#fff;}.cls-2{font-size:60px;}.cls-12,.cls-15,.cls-2,.cls-9{font-family:P22UndergroundHeavy, P22 Underground;}.cls-3{fill:#d799af;}.cls-4{fill:#76d0bd;}.cls-5{fill:#ff6601;}.cls-12,.cls-15,.cls-6,.cls-9{fill:#1d3e9b;}.cls-7{fill:#dc241e;}.cls-14,.cls-16,.cls-19,.cls-20,.cls-8{fill:none;stroke-linejoin:bevel;stroke-width:6px;}.cls-8{stroke:#d799af;}.cls-12,.cls-9{font-size:22px;}.cls-10{letter-spacing:-0.06em;}.cls-11{letter-spacing:-0.02em;}.cls-12{letter-spacing:-0.08em;}.cls-13{letter-spacing:0em;}.cls-14{stroke:#76d0bd;}.cls-15{font-size:20px;}.cls-16{stroke:#ff6601;}.cls-17{letter-spacing:-0.04em;}.cls-18{letter-spacing:-0.04em;}.cls-19{stroke:#1d3e9b;}.cls-20{stroke:#dc241e;}.cls-21{fill:red;}.cls-22{stroke:#000;stroke-miterlimit:10;stroke-width:5px;}.cls-23{fill:#abbcdb;}.cls-24{fill:#083d98;}.cls-25{fill:#fdfdfd;}.cls-26{fill:#fcfcfd;}.cls-27{fill:#fafbfc;}.cls-28{fill:#fafafa;}.cls-29{fill:#f9f9f9;}.cls-30{fill:#fcfcfc;}.cls-31{fill:#f2f2f2;}.cls-32{fill:#f7f7f7;}.cls-33{fill:#f1f0f0;}</style></defs><title>Artboard 1</title><rect class="cls-1" x="37" y="20" width="1848" height="1029" rx="10" ry="10"/><text class="cls-2" transform="translate(195.72 187.52)">Where next, detective?</text><path class="cls-3" d="M1318,697.63H640.07c-3,0-6.46.51-9.42-.06-5.17-1-5-5.64-5-9.64V455.21c0-4.26.55-8.57,6-9,.78-.07,1.6,0,2.39,0H1299.5c5.52,0,11,0,16.56,0a11.31,11.31,0,0,1,4.14.4c4.25,1.66,3.81,5.94,3.81,9.58V675.25c0,5.73,2.82,21.9-6,22.38-7.68.42-7.73,12.42,0,12,10.66-.58,17.85-8.52,18-19.06,0-3.68,0-7.36,0-11V457.18c0-3.48.21-7-.83-10.4-2.44-7.91-9.79-12.4-17.76-12.62-14.19-.4-28.45,0-42.65,0h-641c-11.39,0-20,7.35-20.19,19.21-.13,10.84,0,21.69,0,32.54v201c0,3.85-.17,7.56,1.28,11.25,3.91,9.92,13,11.46,22.08,11.46h681C1325.73,709.63,1325.74,697.63,1318,697.63Z"/><path class="cls-4" d="M1124.37,380.05l-.17,51.41-.35,103.34-.27,79c0,10.5.43,20.56,6.28,29.91,4.48,7.15,11.34,13.14,17.18,19.16l68,70.2,27.48,28.37c1.9,2,3.77,3.94,5.69,5.87a46.84,46.84,0,0,0,28.32,13.7c5.07.57,10.31.29,15.41.29h292.13c7.72,0,7.73-12,0-12H1284.7c-10.68,0-20.37-2.73-28.11-10.61-6-6.06-11.84-12.21-17.76-18.32l-69.26-71.48-22.84-23.58c-6.89-7.11-11.16-15-11.17-25.2,0-21.13.15-42.26.22-63.38l.34-103.14.24-70v-3.54c0-7.72-12-7.73-12,0Z"/><path class="cls-5" d="M1554.71,559.31l-45.14,0-118.74-.09-167.37-.13-191-.16-189.67-.15-163.35-.12-112-.09-29,0c-12,0-23.58,1.27-31.94,11.51-6.15,7.53-10.28,17.3-15,25.71l-21.6,38.46c-5.29,9.42-9.93,17.81-22.4,18.23-6.44.21-12.92.05-19.36.07l-166.95.64-13.17,0c-7.72,0-7.74,12,0,12l143.13-.55c18.84-.07,37.74.34,56.57-.21,13.88-.41,23.39-7.87,29.92-19.5l19.93-35.49c5.4-9.6,10.51-19.44,16.21-28.86,4.12-6.79,10.64-10,18.43-10.06,6.21-.06,12.42,0,18.63,0l95.9.08,153.23.12,185.6.15,193,.15,175.37.14,132.78.1,65.21.06h2.82c7.72,0,7.73-12,0-12Z"/><path class="cls-6" d="M674.11,357,674,411.86l-.21,131.67-.25,158.69-.22,137.13c0,22.18-.88,44.53-.1,66.7,0,.31,0,.63,0,1,0,7.72,12,7.73,12,0l.08-54.86.21-131.67.25-158.69L686,424.65c0-22.18.88-44.53.1-66.7,0-.31,0-.63,0-.95,0-7.72-12-7.73-12,0Z"/><path class="cls-7" d="M1658,656.9l-60,.5c-2.41,0-4.82.1-7.23.05-8.3-.19-14.52-5.16-21.13-9.67-8-5.44-16.15-10.68-24.22-16-13-8.6-25.37-20.33-41.86-20.46-5.08,0-10.16,0-15.24,0l-73.7.06-119,.09-146.61.12-159.5.12-155.82.13L698.06,612,597.79,612c-16.1,0-32.22-.22-48.32,0-.69,0-1.38,0-2.07,0a6.1,6.1,0,0,0-6,6l-.71,64.79-1.14,103.32L539.29,810c-.08,7.72,11.92,7.73,12,0l.71-64.79,1.14-103.31.26-23.8-6,6,33.3,0,89.17-.07,128.43-.1,153.06-.13,159.54-.12,151.56-.12,126.92-.1,85.95-.07c14,0,31.2-2.79,43.6,5,17.84,11.17,34.67,24.14,52.62,35.18,8.86,5.45,17.53,6,27.5,5.91l36.57-.31,22.38-.19c7.72-.06,7.74-12.06,0-12Z"/><line class="cls-8" x1="743.02" y1="426.97" x2="743.02" y2="436.95"/><text class="cls-9" transform="translate(701.93 421.8)">Moriarty</text><line class="cls-8" x1="841.02" y1="426.97" x2="841.02" y2="436.95"/><line class="cls-8" x1="792.02" y1="445.98" x2="792.02" y2="453.98"/><line class="cls-8" x1="891.02" y1="446" x2="891.02" y2="454"/><text class="cls-9" transform="translate(807.34 420.8)">Irene<tspan class="cls-10" x="52.58" y="0"> </tspan><tspan x="57.86" y="0">Adler</tspan></text><text class="cls-9" transform="translate(755.71 473.8)"><a href="https://www.w3schools.com">Sher</a><tspan class="cls-11" x="46.64" y="0">l</tspan><tspan x="54.12" y="0">ock</tspan></text><text class="cls-12" transform="translate(866.49 473.8)">W<tspan class="cls-11" x="22" y="0">a</tspan><tspan class="cls-13" x="32.78" y="0">tson</tspan></text><line class="cls-14" x1="1209.59" y1="738.25" x2="1217" y2="731.53"/><text class="cls-15" transform="translate(1165 752.4)">221 B</text><line class="cls-16" x1="999.02" y1="550.96" x2="999.02" y2="558.96"/><line class="cls-16" x1="1056.02" y1="550.96" x2="1056.02" y2="558.96"/><text class="cls-9" transform="translate(983.94 545.8)"><tspan class="cls-17">F</tspan><tspan x="11.44" y="0">ilm</tspan></text><text class="cls-15" transform="translate(1042.93 545.4)">T<tspan class="cls-18" x="12.4" y="0">V</tspan></text><line class="cls-19" x1="685.02" y1="845.91" x2="693.02" y2="846.01"/><text class="cls-9" transform="translate(700.93 853.8)">Oliwia</text><line class="cls-19" x1="685.02" y1="803.91" x2="693.02" y2="804.01"/><text class="cls-9" transform="translate(699.93 811.8)">Ethan Marcotte</text><line class="cls-19" x1="685.02" y1="672.91" x2="693.02" y2="673.01"/><text class="cls-9" transform="translate(702.06 680.8)">Arthur Conan-D<tspan class="cls-17" x="167.64" y="0">o</tspan><tspan x="179.52" y="0">yle</tspan></text><line class="cls-14" x1="1548.02" y1="788.96" x2="1548.02" y2="780.96"/><text class="cls-15" transform="translate(1506 807)">Museum</text><line class="cls-20" x1="532.02" y1="759.91" x2="540.02" y2="760.01"/><text class="cls-9" transform="translate(421 764.8)">Measuring <tspan x="0" y="26.4">Mr Holmes</tspan></text><g id="dyz3bb"><path class="cls-21" d="M933.88,404h4.59a.46.46,0,0,1,.24.1l6,3.85a1.09,1.09,0,0,0,.51.16h4.53c.19,0,.23.08.23.33,0,.75,0,1.49,0,2.23,0,.25,0,.32-.23.32h-4.63a.83.83,0,0,0-.42.13l-5.34,3.41a.32.32,0,0,0-.12.15h10.47c.26,0,.27,0,.27.37,0,.75,0,1.5,0,2.25,0,.27-.06.32-.23.32h-9.59v.07l6.24,3.93v.06H942a.85.85,0,0,1-.45-.14l-6.08-3.8a.64.64,0,0,0-.35-.1h-4.87c-.18,0-.23-.07-.23-.32,0-.76,0-1.52,0-2.29,0-.28.07-.34.25-.34,1.47,0,2.93,0,4.39,0a.58.58,0,0,0,.33-.1c1.79-1.13,3.57-2.27,5.36-3.42a.37.37,0,0,0,.15-.17H930.26c-.2,0-.27-.06-.26-.36,0-.73,0-1.46,0-2.2,0-.27.06-.32.24-.32h9.85V408l-6.24-4Z"/></g><g id="dyz3bb-2" data-name="dyz3bb"><path class="cls-21" d="M1141.88,737h4.59a.46.46,0,0,1,.24.1l6,3.85a1.09,1.09,0,0,0,.51.16h4.53c.19,0,.23.08.23.33,0,.75,0,1.49,0,2.23,0,.25,0,.32-.23.32h-4.63a.83.83,0,0,0-.42.13l-5.34,3.41a.32.32,0,0,0-.12.15h10.47c.26,0,.27,0,.27.37,0,.75,0,1.5,0,2.25,0,.27-.06.32-.23.32h-9.59v.07l6.24,3.93v.06H1150a.85.85,0,0,1-.45-.14l-6.08-3.8a.64.64,0,0,0-.35-.1h-4.87c-.18,0-.23-.07-.23-.32,0-.76,0-1.52,0-2.29,0-.28.07-.34.25-.34,1.47,0,2.93,0,4.39,0a.58.58,0,0,0,.33-.1c1.79-1.13,3.57-2.27,5.36-3.42a.37.37,0,0,0,.15-.17h-10.22c-.2,0-.27-.06-.26-.36,0-.73,0-1.46,0-2.2,0-.27.06-.32.24-.32h9.85V741l-6.24-4Z"/></g><path class="cls-22" d="M1291.29,596.9V582.75c7.34-2.15,11.71-8.11,11.71-16.25a16.5,16.5,0,0,0-33,0c0,8.21,5.31,15.07,11.92,16.29v14.08c-6.61,1.21-11.92,8.07-11.92,16.29a16.5,16.5,0,0,0,33,0C1303,605,1297.66,598.08,1291.29,596.9Z"/><path class="cls-22" d="M643.77,604.48,635.54,593c4.72-6,4.81-13.41.08-20a16.5,16.5,0,1,0-26.85,19.19c4.78,6.68,13.09,9.17,19.17,6.32l8.19,11.46c-4.66,4.82-5,13.49-.22,20.18a16.5,16.5,0,1,0,26.84-19.2C658,604.26,649.64,601.73,643.77,604.48Z"/><g id="wheelchair"><path class="cls-23" d="M985.49,559.32a2.19,2.19,0,0,1,.51,0v5.79l-.52,0A4.73,4.73,0,0,1,985.49,559.32Z"/><path class="cls-24" d="M985.49,559.32c0,1.95,0,3.9,0,5.85-2.45,15-19.76,22-31.49,12.11A19.52,19.52,0,0,1,968.11,543c8,.46,14.69,6.15,16.92,14.32C985.21,558,985.34,558.66,985.49,559.32Z"/><path class="cls-25" d="M952,568a2.34,2.34,0,0,1-1.81-1.33,1.43,1.43,0,0,1,.54-1.79q4-3.09,8-6.13c.92-.68,1.85-.19,2.73.22l4.72,2.19c.55.25,1.08.45,1.43-.32s-.4-.94-.84-1.16c-1.12-.57-2.28-1-3.39-1.63-.71-.37-1.37-.92-1-1.83a1.58,1.58,0,0,1,2.16-.88c.82.29,1.59.69,2.38,1.06,1.36.63,2.64,1.53,4-.16a1.75,1.75,0,0,1,2.61-.15,2.19,2.19,0,0,1,.49,2.65c-1.14,2.74-3.25,4.76-5.24,6.83-.84.88-2.1.25-2.93-.37-4.19-3.12-7.85-2.43-11.29,1.24A4,4,0,0,1,952,568Z"/><path class="cls-26" d="M974.78,560.74a9.26,9.26,0,0,1,.06,10.75,9.65,9.65,0,0,1-9.81,4.72,11,11,0,0,1-8.56-6.89c-.78-2.48.94-3.14,2.67-4.27.06,3.77,1.55,6.37,5,7.53a6.85,6.85,0,0,0,9.2-7.32C973.07,562.76,973.07,562.76,974.78,560.74Z"/><path class="cls-27" d="M978.05,552.7c-.29,1.94-1.46,3-3.35,2.79A2.79,2.79,0,0,1,972,552.1a2.74,2.74,0,0,1,3.15-2.64C977.11,549.57,978,550.79,978.05,552.7Z"/></g><g id="boat"><path class="cls-6" d="M799.1,854.45a9,9,0,0,0-6-.44,18.48,18.48,0,0,1-10.19.14,8.25,8.25,0,0,0-4.38.09c-.46.12-.83.17-1.16-.33s-.3-.73.33-.91a11.61,11.61,0,0,1,6.08,0,14.41,14.41,0,0,0,8-.1,12.94,12.94,0,0,1,4.76-.41c1.33.11,2.52.35,2.78,1.95Z"/><path class="cls-6" d="M772.72,847.33c.17-.08.25-.16.31-.15a4.35,4.35,0,0,0,5.1-2.51c.38-.73,1.12-.68,1.82-.8s2.1.76,2.39-.89c0,0,.23-.08.34-.06.83.15,1.05-.42,1.26-1,.14-.39.29-.83.84-.67s.07.53.11.79c.09.56.37.9,1,.9s1.24,0,1.85,0,1.11-.22,1.12.68c0,.46.49.34.79.34,1.4,0,2.79.09,4.19,0a1.72,1.72,0,0,1,2,1.35c.11.4.35.76.44,1.15a.88.88,0,0,0,1.15.79c1-.17,1.37.3,1.63,1.19.35,1.17.85,2.3,1.36,3.64a14.33,14.33,0,0,0-5.1-1.06,16,16,0,0,0-4.13.67,12.33,12.33,0,0,1-6.21.13,13.74,13.74,0,0,0-8.13.09c-.35.12-.66.2-1-.22C774.85,850.22,773.78,848.79,772.72,847.33Z"/><path class="cls-28" d="M785.92,845.39c.32,1.3-.06,1.8-1.34,1.79h-1.1c-1.18,0-1.85-.81-1.23-1.77s1.86-.21,2.8-.38C785.36,845,785.8,844.89,785.92,845.39Z"/><path class="cls-28" d="M790,847.21h-1.81c-1.5,0-1.62-.19-1.47-1.65.07-.63.45-.63.85-.53.94.23,2.15-.61,2.8.5C790.59,845.85,791,847,790,847.21Z"/><path class="cls-29" d="M795,846.65c.23.51,0,.62-.48.59a18,18,0,0,0-2.32,0c-.74.07-.81-.21-.86-.88-.09-1.08.21-1.4,1.3-1.34C794.41,845.1,794.61,845.17,795,846.65Z"/><path class="cls-29" d="M777.81,847.14c.79-1.1,1.28-2.23,2.81-2.17,1,0,.62.69.63,1.11s.31,1.15-.63,1.12S778.86,847.16,777.81,847.14Z"/></g><path id="plane" class="cls-24" d="M1705.71,675.64a13,13,0,0,0-10.9,5.1c-1.4-1.6-.73-2.87,0-4.21.5-.95,1.59-1.91,1.18-3-.79-2-1.5-4.23-3-5.88-1.07-1.19-2.07.05-2.78.78-2.47,2.56-4.8,5.27-7.29,7.8-.6.61-1,2.34-2.17,1.45s-.78-2.21-.11-3.45c2.45-4.61,4.79-9.27,7.26-13.87a3.34,3.34,0,0,0,.09-3.51c-1.14-2.17-2.13-4.42-3.1-6.66a9.73,9.73,0,0,1-.67-2.5c-.1-.61-.08-1.32.65-1.62a1.54,1.54,0,0,1,1.71.51,8.09,8.09,0,0,1,2.17,3.64c1.6,5.56,5.3,8,11,8.34,3.2.2,6.35,1.25,9.55,1.78a3.23,3.23,0,0,1,3,2.87c-4.1.3-8.14.62-12.19.91-3.81.28-4.09.87-2.67,4.33,1.1,2.68,2.45,4.71,5.69,4.62C1704.45,673.07,1705.19,673.93,1705.71,675.64Z"/><g id="tram"><path class="cls-6" d="M865,803.19c.43,0,.4-.38.47-.64.62-2.22.62-2.22,2.94-2.26l11.68-.2-2.93-2.16c1-.76,1.94-1.47,2.87-2.19a.74.74,0,0,1,1.06-.06c.94.71,1.93,1.37,3,2.15l-2.73,2a7.2,7.2,0,0,0,2.67.13c3.29,0,6.58-.07,9.87-.17,1,0,1.43.34,1.78,1.31,1,2.75.93,5.58,1,8.42,0,.76-.29.95-1,.94s-1.6,0-2.39,0-1.29-.11-1.74.74-1.23.64-1.77,0c-.78-1-1.48-1-2.23,0-.6.78-1.38.77-1.87,0a1.49,1.49,0,0,0-1.52-.63l-5.83.13c-1,0-2-.22-2.72.92-.39.61-1.15.37-1.64-.25-.76-1-1.49-.9-2.19.08-.41.58-1.21.83-1.52.34-.81-1.27-1.93-.9-3-.89-2.31,0-2.25,0-2.39-2.32-.07-1.15.36-2.37-.36-3.45Z"/><path class="cls-30" d="M891.91,808.43c.05.67-.21.8-.6.88-2.11.45-2.59.07-2.63-2.11,0-1.65,0-3.29-.11-4.94,0-.92.59-1,1.18-.87s1.93-.71,2,.68C892,804.25,891.88,806.46,891.91,808.43Z"/><path class="cls-25" d="M872.13,801.67c.63,0,.68.42.68.92,0,2,.05,4.09.12,6.13,0,.65-.18.85-.83.93-2.27.27-2.4.19-2.43-2,0-1.25,0-2.49-.06-3.74C869.56,801.69,870,801.33,872.13,801.67Z"/><path class="cls-30" d="M887.6,803.91c0,.59-.33.75-.86.75-1.53,0-3.07,0-4.6.07-.57,0-.77-.15-.86-.72-.37-2.23-.18-2.5,2-2.52l2.22-.06C887.59,801.39,888,801.83,887.6,803.91Z"/><path class="cls-30" d="M879.53,801.55c1.2.35.47,1.4.64,2.11.13.51.11,1.12-.76,1.12-1.59,0-3.18.08-4.78.08-1.07,0-.68-.85-.78-1.42-.24-1.39.19-2,1.73-1.83A32.85,32.85,0,0,0,879.53,801.55Z"/><path class="cls-31" d="M866.4,803.49c0-1.35.54-2.1,1.61-1.68s.6,1.76.54,2.61c-.07,1.11-1.25.63-1.8.55C865.46,804.78,866.52,803.82,866.4,803.49Z"/><path class="cls-32" d="M892.82,802.13c.13-1.06.84-.84,1.38-.81s1.42,2.27,1.15,2.78c-.41.77-1.22.39-1.85.41S892.59,803.28,892.82,802.13Z"/><path class="cls-33" d="M880.37,798.85c-.36-.39-1.27-.48-1.1-1a1.38,1.38,0,0,1,1.53-.91c.5.14,1.37.44,1.17,1.06A1.55,1.55,0,0,1,880.37,798.85Z"/></g><path class="cls-22" d="M1673.73,662.34a16.5,16.5,0,0,0-33,0c0,8.22,7.5,16,16.92,16.29C1668.23,678.34,1673.73,670.48,1673.73,662.34Z"/><path class="cls-22" d="M1145.85,616.58a16.5,16.5,0,1,0-33,0c0,8.21,7.5,16,16.92,16.29C1140.35,632.58,1145.85,624.72,1145.85,616.58Z"/><path class="cls-22" d="M697.5,357.36a16.5,16.5,0,0,0-33,0c0,8.21,7.5,16,16.92,16.28C692,373.36,697.5,365.5,697.5,357.36Z"/><path class="cls-22" d="M258.73,658.34a16.5,16.5,0,0,0-33,0c0,8.22,7.5,16,16.92,16.29C253.23,674.34,258.73,666.48,258.73,658.34Z"/><g id="wheelchair-2" data-name="wheelchair"><path class="cls-23" d="M1508.49,772.32a2.19,2.19,0,0,1,.51,0v5.79l-.52,0A4.73,4.73,0,0,1,1508.49,772.32Z"/><path class="cls-24" d="M1508.49,772.32c0,1.95,0,3.9,0,5.85-2.45,15-19.76,22-31.49,12.11A19.52,19.52,0,0,1,1491.11,756c8,.46,14.69,6.15,16.92,14.32C1508.21,771,1508.34,771.66,1508.49,772.32Z"/><path class="cls-25" d="M1475,781a2.34,2.34,0,0,1-1.81-1.33,1.43,1.43,0,0,1,.54-1.79q4-3.09,8-6.13c.92-.68,1.85-.19,2.73.22l4.72,2.19c.55.25,1.08.45,1.43-.32s-.4-.94-.84-1.16c-1.12-.57-2.28-1-3.39-1.63-.71-.37-1.37-.92-1-1.83a1.58,1.58,0,0,1,2.16-.88c.82.29,1.59.69,2.38,1.06,1.36.63,2.64,1.53,4-.16a1.75,1.75,0,0,1,2.61-.15,2.19,2.19,0,0,1,.49,2.65c-1.14,2.74-3.25,4.76-5.24,6.83-.84.88-2.1.25-2.93-.37-4.19-3.12-7.85-2.43-11.29,1.24A4,4,0,0,1,1475,781Z"/><path class="cls-26" d="M1497.78,773.74a9.26,9.26,0,0,1,.06,10.75,9.65,9.65,0,0,1-9.81,4.72,11,11,0,0,1-8.56-6.89c-.78-2.48.94-3.14,2.67-4.27.06,3.77,1.55,6.37,4.95,7.53a6.85,6.85,0,0,0,9.2-7.32C1496.07,775.76,1496.07,775.76,1497.78,773.74Z"/><path class="cls-27" d="M1501.05,765.7c-.29,1.94-1.46,3-3.35,2.79a2.79,2.79,0,0,1-2.69-3.39,2.74,2.74,0,0,1,3.15-2.64C1500.11,762.57,1501,763.79,1501.05,765.7Z"/></g><g id="boat-2" data-name="boat"><path class="cls-6" d="M529.1,814.45a9,9,0,0,0-6-.44,18.48,18.48,0,0,1-10.19.14,8.25,8.25,0,0,0-4.38.09c-.46.12-.83.17-1.16-.33s-.3-.73.33-.91a11.61,11.61,0,0,1,6.08,0,14.41,14.41,0,0,0,8-.1,12.94,12.94,0,0,1,4.76-.41c1.33.11,2.52.35,2.78,1.95Z"/><path class="cls-6" d="M502.72,807.33c.17-.08.25-.16.31-.15a4.35,4.35,0,0,0,5.1-2.51c.38-.73,1.12-.68,1.82-.8s2.1.76,2.39-.89c0,0,.23-.08.34-.06.83.15,1.05-.42,1.26-1,.14-.39.29-.83.84-.67s.07.53.11.79c.09.56.37.9,1,.9s1.24,0,1.85,0,1.11-.22,1.12.68c0,.46.49.34.79.34,1.4,0,2.79.09,4.19,0a1.72,1.72,0,0,1,2,1.35c.11.4.35.76.44,1.15a.88.88,0,0,0,1.15.79c1-.17,1.37.3,1.63,1.19.35,1.17.85,2.3,1.36,3.64a14.33,14.33,0,0,0-5.1-1.06,16,16,0,0,0-4.13.67,12.33,12.33,0,0,1-6.21.13,13.74,13.74,0,0,0-8.13.09c-.35.12-.66.2-.95-.22C504.85,810.22,503.78,808.79,502.72,807.33Z"/><path class="cls-28" d="M515.92,805.39c.32,1.3-.06,1.8-1.34,1.79h-1.1c-1.18,0-1.85-.81-1.23-1.77s1.86-.21,2.8-.38C515.36,805,515.8,804.89,515.92,805.39Z"/><path class="cls-28" d="M520,807.21h-1.81c-1.5,0-1.62-.19-1.47-1.65.07-.63.45-.63.85-.53.94.23,2.15-.61,2.8.5C520.59,805.85,521,807,520,807.21Z"/><path class="cls-29" d="M525,806.65c.23.51,0,.62-.48.59a18,18,0,0,0-2.32,0c-.74.07-.81-.21-.86-.88-.09-1.08.21-1.4,1.3-1.34C524.41,805.1,524.61,805.17,525,806.65Z"/><path class="cls-29" d="M507.81,807.14c.79-1.1,1.28-2.23,2.81-2.17,1,0,.62.69.63,1.11s.31,1.15-.63,1.12S508.86,807.16,507.81,807.14Z"/></g><g id="tram-2" data-name="tram"><path class="cls-6" d="M462,806c.43,0,.4-.37.48-.64.64-2.2.64-2.21,3-2.23l11.68-.07-2.91-2.19c1-.75,1.95-1.45,2.89-2.17a.75.75,0,0,1,1.06,0c.94.72,1.92,1.39,3,2.18l-2.76,2a7.24,7.24,0,0,0,2.67.16c3.29,0,6.59,0,9.88-.07,1,0,1.42.36,1.75,1.33,1,2.76.88,5.59.93,8.43,0,.76-.3.95-1,.93s-1.59,0-2.39,0-1.29-.13-1.75.71-1.24.64-1.76,0c-.77-1-1.47-1-2.24,0-.6.78-1.38.76-1.86,0a1.48,1.48,0,0,0-1.52-.65l-5.83.07c-1,0-2-.24-2.73.9-.39.6-1.16.35-1.64-.28-.74-1-1.48-.91-2.18.06-.42.58-1.22.82-1.53.33-.8-1.28-1.92-.92-3-.93-2.31,0-2.25,0-2.37-2.34-.06-1.15.39-2.36-.32-3.45Z"/><path class="cls-30" d="M488.87,811.54c0,.67-.21.8-.61.88-2.11.42-2.59,0-2.6-2.14,0-1.65,0-3.3-.06-4.94,0-.92.6-1,1.18-.86s2-.69,2,.7C489,807.36,488.87,809.57,488.87,811.54Z"/><path class="cls-25" d="M469.16,804.58c.64,0,.68.42.68.92,0,2,0,4.09.05,6.14,0,.64-.19.85-.83.92-2.28.24-2.41.16-2.42-2,0-1.24,0-2.49,0-3.74C466.6,804.57,467,804.21,469.16,804.58Z"/><path class="cls-30" d="M484.61,807c0,.59-.33.74-.87.74-1.53,0-3.07,0-4.6,0-.57,0-.77-.16-.85-.73-.35-2.23-.15-2.5,2-2.5.75,0,1.49,0,2.23,0C484.62,804.45,485,804.9,484.61,807Z"/><path class="cls-30" d="M476.57,804.53c1.19.37.45,1.41.62,2.12.11.51.09,1.12-.77,1.11-1.6,0-3.19,0-4.78,0-1.08,0-.68-.87-.77-1.44-.23-1.39.21-2,1.74-1.81A30.85,30.85,0,0,0,476.57,804.53Z"/><path class="cls-31" d="M463.42,806.34c0-1.36.56-2.1,1.63-1.67s.58,1.77.51,2.61c-.09,1.12-1.26.63-1.81.54C462.46,807.62,463.53,806.67,463.42,806.34Z"/><path class="cls-32" d="M489.85,805.25c.14-1.06.85-.83,1.39-.8s1.39,2.29,1.12,2.79c-.42.77-1.23.38-1.85.4S489.6,806.39,489.85,805.25Z"/><path class="cls-33" d="M477.43,801.84c-.36-.39-1.26-.49-1.08-1a1.38,1.38,0,0,1,1.53-.9c.5.15,1.37.46,1.16,1.08A1.55,1.55,0,0,1,477.43,801.84Z"/></g></svg>
